<?xml version="1.0" encoding="UTF-8"?>
<svg id="Layer_1" data-name="Layer 1" xmlns="http://www.w3.org/2000/svg" viewBox="0 0 476.054 209.798">
  <defs>
    <style>
      .cls-1 {
        fill: #234f3e;
      }

      .cls-2 {
        fill: #d13d76;
      }

      .cls-3 {
        fill: #84c1c1;
      }

      .cls-4 {
        fill: #db7da8;
      }

      .cls-5 {
        fill: #1d2121;
      }

      .cls-6 {
        fill: #fff;
      }

      .cls-7 {
        fill: #f4c237;
      }

      .cls-8 {
        fill: #f9d0b2;
      }
    </style>
  </defs>
  <polygon class="cls-7" points="15.544 0 173.209 7.772 157.343 209.798 0 198.283 15.544 0"/>
  <path class="cls-6" d="M55.354,85.792c-.212,3.697-.418,6.797-.561,9.899-.704,15.177-1.407,30.354-2.074,45.533-.214,4.865.979,9.58,1.748,14.332,1.62,10.005,3.29,20.001,5.028,29.986.233,1.339.086,1.752-1.335,1.654-7.647-.526-15.299-.992-22.95-1.47-3.754-.235-7.509-.479-11.266-.659-.995-.047-1.589-.163-1.493-1.414.43-5.601.202-11.218.298-16.827.462-27.065.289-54.134.583-81.199.246-22.733.188-45.466.253-68.199.005-1.696.457-2.152,2.128-2.103,11.784.347,23.571.636,35.358.851,1.562.029,1.842,1.021,2.287,2.043,6.343,14.563,12.681,29.129,19.024,43.692,9.684,22.237,19.371,44.472,29.058,66.708.16.366.334.726.639,1.385,0-6.016.008-11.652-.006-17.289-.003-1.348-.108-2.696-.121-4.045-.207-20.601-.397-41.201-.616-61.802-.067-6.321-.173-12.642-.349-18.961-.041-1.46.282-2.261,1.789-2.82,3.32-1.232,6.588-2.634,9.786-4.158,2.482-1.183,4.996-1.364,7.66-1.115,2.046.191,4.119.251,6.172.169,1.597-.064,1.842.603,1.79,2.01-.556,15.115-1.079,30.231-1.563,45.348-.502,15.687-.942,31.375-1.426,47.063-.408,13.202-.831,26.404-1.267,39.605-.378,11.426-.814,22.851-1.138,34.279-.04,1.426-.51,1.788-1.831,1.852-8.438.411-16.871.916-25.327.488-4.732-.24-5.082-.417-6.574-4.966-6.823-20.814-13.116-41.794-19.6-62.715-1.06-3.42-3.397-6.037-5.28-8.929-5.847-8.984-11.819-17.887-17.746-26.819-.227-.343-.501-.655-1.081-1.407Z"/>
  <polygon class="cls-1" points="151.018 33.396 212.64 .642 250.113 56.713 286.476 1.197 349.209 22.573 285.921 108.964 289.252 208.825 231.072 195.355 221.517 112.549 151.018 33.396"/>
  <path class="cls-5" d="M177.565,32.835c7.661-2.513,14.617-7.025,22.763-8.448,1.005-.176,1.747.022,2.64.452,4.403,2.123,7.622,5.43,10.568,9.297,11.244,14.757,22.708,29.347,34.037,44.039,1.029,1.335,1.433,1.448,2.515-.01,13.466-18.143,27.014-36.226,40.509-54.348.733-.984,1.44-1.374,2.701-1.207,2.357.313,4.743.522,7.119.547,1.486.016,2.441.668,3.274,1.724,3.668,4.647,7.314,9.31,11.012,13.932.689.861.739,1.572.235,2.541-2.827,5.439-5.342,11.06-8.485,16.308-1.98,3.306-4.854,6.079-7.355,9.068-9.916,11.849-19.828,23.702-29.788,35.514-.96,1.138-1.337,2.228-1.181,3.71,2.01,19.158,3.977,38.32,5.943,57.482.884,8.613,1.747,17.227,2.607,25.842.357,3.578-.204,4.274-3.74,4.788-.785.114-1.586.191-2.341.415-5.494,1.628-10.711.872-15.915-1.388-3.493-1.517-7.18-2.6-10.813-3.774-1.149-.372-1.587-1.003-1.698-2.145-1.114-11.49-2.603-22.957-3.277-34.472-.458-7.831.136-15.732.402-23.596.257-7.583.14-15.165.211-22.748.013-1.377-.994-2.039-1.708-2.872-14.237-16.612-28.503-33.198-42.764-49.79-5.507-6.406-11.016-12.81-16.516-19.222-.366-.427-.878-.773-.956-1.639Z"/>
  <path class="cls-3" d="M184.481,31.273c7.661-2.513,14.617-7.025,22.763-8.448,1.005-.176,1.747.022,2.64.452,4.403,2.123,7.622,5.43,10.568,9.297,11.244,14.757,22.708,29.347,34.037,44.039,1.029,1.335,1.433,1.448,2.515-.01,13.466-18.143,27.014-36.226,40.509-54.348.733-.984,1.44-1.374,2.701-1.207,2.357.313,4.743.522,7.119.547,1.486.016,2.441.668,3.274,1.724,3.668,4.647,7.314,9.31,11.012,13.932.689.861.739,1.572.235,2.541-2.827,5.439-5.342,11.06-8.485,16.308-1.98,3.306-4.854,6.079-7.355,9.068-9.916,11.849-19.828,23.702-29.788,35.514-.96,1.138-1.337,2.228-1.181,3.71,2.01,19.158,3.977,38.32,5.943,57.482.884,8.613,1.747,17.227,2.607,25.842.357,3.578-.204,4.274-3.74,4.788-.785.114-1.586.191-2.341.415-5.494,1.628-10.711.872-15.915-1.388-3.493-1.517-7.18-2.6-10.813-3.774-1.149-.372-1.587-1.003-1.698-2.145-1.114-11.49-2.603-22.957-3.277-34.472-.458-7.831.136-15.732.402-23.596.257-7.583.14-15.165.211-22.748.013-1.377-.994-2.039-1.708-2.872-14.237-16.612-28.503-33.198-42.764-49.79-5.507-6.406-11.016-12.81-16.516-19.222-.366-.427-.878-.773-.956-1.639Z"/>
  <path class="cls-2" d="M61.795,86.042c-.212,3.697-.418,6.797-.561,9.899-.704,15.177-1.407,30.354-2.074,45.533-.214,4.865.979,9.58,1.748,14.332,1.62,10.005,3.29,20.001,5.028,29.986.233,1.339.086,1.752-1.335,1.654-7.647-.526-15.299-.992-22.95-1.47-3.754-.235-7.509-.479-11.266-.659-.995-.047-1.589-.163-1.493-1.414.43-5.601.202-11.218.298-16.827.462-27.065.289-54.134.583-81.199.246-22.733.188-45.466.253-68.199.005-1.696.457-2.152,2.128-2.103,11.784.347,23.571.636,35.358.851,1.562.029,1.842,1.021,2.287,2.043,6.343,14.563,12.681,29.129,19.024,43.692,9.684,22.237,19.371,44.472,29.058,66.708.16.366.334.726.639,1.385,0-6.016.008-11.652-.006-17.289-.003-1.348-.108-2.696-.121-4.045-.207-20.601-.397-41.201-.616-61.802-.067-6.321-.173-12.642-.349-18.961-.041-1.46.282-2.261,1.789-2.82,3.32-1.232,6.588-2.634,9.786-4.158,2.482-1.183,4.996-1.364,7.66-1.115,2.046.191,4.119.251,6.172.169,1.597-.064,1.842.603,1.79,2.01-.556,15.115-1.079,30.231-1.563,45.348-.502,15.687-.942,31.375-1.426,47.063-.408,13.202-.831,26.404-1.267,39.605-.378,11.426-.814,22.851-1.138,34.279-.04,1.426-.51,1.788-1.831,1.852-8.438.411-16.871.916-25.327.488-4.732-.24-5.082-.417-6.574-4.966-6.823-20.814-13.116-41.794-19.6-62.715-1.06-3.42-3.397-6.037-5.28-8.929-5.847-8.984-11.819-17.887-17.746-26.819-.227-.343-.501-.655-1.081-1.407Z"/>
  <g>
    <polygon class="cls-4" points="350.517 19.115 330.542 202.753 443.297 206.202 476.054 186.202 476.054 121.032 458.813 114.136 451.867 110.457 468.253 100.006 464.33 23.6 428.053 11.726 350.517 19.115"/>
    <path class="cls-6" d="M423.547,112.823c6.47,1.854,12.58,3.607,18.693,5.355,3.413.976,6.823,1.962,10.246,2.903,1.075.295,1.621.854,1.92,1.993,2.138,8.161,4.351,16.302,6.573,24.44.468,1.713-.151,3.337-.328,4.973-.807,7.459-1.803,14.897-2.698,22.346-.2,1.663-.757,2.883-2.296,3.898-7.906,5.215-15.722,10.568-23.543,15.91-1.101.752-2.198,1.094-3.547,1.093-12.383-.008-24.769-.137-37.147.13-14.937.322-29.874.128-44.809.304-1.366.016-2.138-.11-2.319-1.815-.63-5.926-1.349-11.848-2.258-17.737-1.711-11.088.055-22.116.346-33.17.15-5.711.384-11.416.806-17.115.407-5.488,1.543-10.872,2.248-16.317.927-7.17,2.009-14.321,3.107-21.467,1.994-12.966,3.555-26.003,6.53-38.809,1.453-6.257,2.688-12.566,3.899-18.876.271-1.413.816-1.839,2.211-1.955,6.885-.573,13.757-1.288,20.637-1.919,6.413-.588,12.832-1.107,19.244-1.702,5.008-.465,10.023-.899,15.011-1.533,4.998-.635,9.721.831,14.525,1.629,4.62.768,9.186,1.853,13.797,2.675,1.061.189,1.405.501,1.577,1.572.514,3.204.357,6.44.573,9.654.622,9.25.888,18.524,1.369,27.784.449,8.653.959,17.304,1.529,25.95.104,1.585-.301,2.527-1.683,3.438-7.684,5.068-15.288,10.26-22.917,15.412-.325.22-.633.464-1.296.953ZM384.129,171.362c8.801-.281,16.057-.382,23.295-.799,3.559-.205,7.115-.249,10.673-.35,1.582-.045,2.505-.617,3.188-2.151,2.945-6.614,6.013-13.174,9.102-19.724.594-1.261.516-1.952-.768-2.748-5.989-3.714-11.912-7.535-17.842-11.344-.714-.459-1.365-.637-2.247-.54-3.73.409-7.474.692-11.211,1.037-5.739.53-11.474,1.088-17.215,1.592-.766.067-.987.363-1.105,1.086-.388,2.375-.859,4.738-1.318,7.101-1.504,7.744-3.012,15.487-4.536,23.228-.124.628-.334,1.148.578,1.366,3.635.87,7.218,1.977,9.407,2.246ZM411.806,91.923c.745.037,1.434.023,2.067-.538,4.379-3.876,8.774-7.733,13.191-11.565.79-.685,1.053-1.436.976-2.467-.555-7.432-1.084-14.866-1.57-22.303-.068-1.046-.463-1.469-1.473-1.397-1.273.091-2.547.222-3.822.245-10.223.19-20.446.349-30.668.543-1.881.036-3.758.215-5.639.272-.809.025-1.183.257-1.239,1.153-.213,3.418-.534,6.828-.77,10.244-.495,7.165-.927,14.334-1.474,21.494-.093,1.222.259,1.458,1.38,1.535,3.345.23,6.682.591,10.02.915,6.341.617,12.681,1.245,19.02,1.867Z"/>
    <path class="cls-8" d="M428.58,112.823c6.47,1.854,12.58,3.607,18.693,5.355,3.413.976,6.823,1.962,10.246,2.903,1.075.295,1.621.854,1.92,1.993,2.138,8.161,4.351,16.302,6.573,24.44.468,1.713-.151,3.337-.328,4.973-.807,7.459-1.803,14.897-2.698,22.346-.2,1.663-.757,2.883-2.296,3.898-7.906,5.215-15.722,10.568-23.543,15.91-1.101.752-2.198,1.094-3.547,1.093-12.383-.008-24.769-.137-37.147.13-14.937.322-29.874.128-44.809.304-1.366.016-2.138-.11-2.319-1.815-.63-5.926-1.349-11.848-2.258-17.737-1.711-11.088.055-22.116.346-33.17.15-5.711.384-11.416.806-17.115.407-5.488,1.543-10.872,2.248-16.317.927-7.17,2.009-14.321,3.107-21.467,1.994-12.966,3.555-26.003,6.53-38.809,1.453-6.257,2.688-12.566,3.899-18.876.271-1.413.816-1.839,2.211-1.955,6.885-.573,13.757-1.288,20.637-1.919,6.413-.588,12.832-1.107,19.244-1.702,5.008-.465,10.023-.899,15.011-1.533,4.998-.635,9.721.831,14.525,1.629,4.62.768,9.186,1.853,13.797,2.675,1.061.189,1.405.501,1.577,1.572.514,3.204.357,6.44.573,9.654.622,9.25.888,18.524,1.369,27.784.449,8.653.959,17.304,1.529,25.95.104,1.585-.301,2.527-1.683,3.438-7.684,5.068-15.288,10.26-22.917,15.412-.325.22-.633.464-1.296.953ZM389.163,171.362c8.801-.281,16.057-.382,23.295-.799,3.559-.205,7.115-.249,10.673-.35,1.582-.045,2.505-.617,3.188-2.151,2.945-6.614,6.013-13.174,9.102-19.724.594-1.261.516-1.952-.768-2.748-5.989-3.714-11.912-7.535-17.842-11.344-.714-.459-1.365-.637-2.247-.54-3.73.409-7.474.692-11.211,1.037-5.739.53-11.474,1.088-17.215,1.592-.766.067-.987.363-1.105,1.086-.388,2.375-.859,4.738-1.318,7.101-1.504,7.744-3.012,15.487-4.536,23.228-.124.628-.334,1.148.578,1.366,3.635.87,7.218,1.977,9.407,2.246ZM416.839,91.923c.745.037,1.434.023,2.067-.538,4.379-3.876,8.774-7.733,13.191-11.565.79-.685,1.053-1.436.976-2.467-.555-7.432-1.084-14.866-1.57-22.303-.068-1.046-.463-1.469-1.473-1.397-1.273.091-2.547.222-3.822.245-10.223.19-20.446.349-30.668.543-1.881.036-3.758.215-5.639.272-.809.025-1.183.257-1.239,1.153-.213,3.418-.534,6.828-.77,10.244-.495,7.165-.927,14.334-1.474,21.494-.093,1.222.259,1.458,1.38,1.535,3.345.23,6.682.591,10.02.915,6.341.617,12.681,1.245,19.02,1.867Z"/>
  </g>
</svg>