<?xml version="1.0" encoding="UTF-8"?>
<svg id="Layer_1" data-name="Layer 1" xmlns="http://www.w3.org/2000/svg" viewBox="0 0 1322.154 669.53">
  <defs>
    <style>
      .cls-1 {
        fill: #d4e2bf;
      }

      .cls-2 {
        fill: #87264a;
      }

      .cls-3 {
        fill: #171616;
      }

      .cls-4 {
        fill: #e08a34;
      }

      .cls-5 {
        fill: #97281f;
      }

      .cls-6 {
        fill: #e6abce;
      }

      .cls-7 {
        fill: #8b263b;
      }

      .cls-8 {
        fill: #dbc18d;
        stroke: #1e1234;
      }

      .cls-8, .cls-9 {
        stroke-miterlimit: 10;
      }

      .cls-10 {
        fill: #1e1234;
      }

      .cls-11 {
        fill: #fff;
      }

      .cls-12 {
        fill: #1d1a1b;
      }

      .cls-13 {
        fill: #efe7c2;
      }

      .cls-9 {
        fill: #438e87;
        stroke: #c1942d;
        stroke-width: 3px;
      }

      .cls-14 {
        fill: #e2ac3f;
      }

      .cls-15 {
        fill: #eddabe;
      }

      .cls-16 {
        fill: #e9d377;
      }

      .cls-17 {
        fill: #f7f5f5;
      }

      .cls-18 {
        fill: #fdfefe;
      }

      .cls-19 {
        fill: #e7bd35;
      }

      .cls-20 {
        fill: #245554;
      }
    </style>
  </defs>
  <g>
    <g>
      <polygon class="cls-17" points="0 294.535 123.773 18.587 208.199 29.332 258.844 316.752 0 294.535"/>
      <path class="cls-3" d="M189.514,47.756c4.877-.863,6.531,2.037,8.186,6.602,4.765,13.146,6.167,26.861,8.12,40.505,3.615,25.254,7.198,50.512,10.754,75.775,3.064,21.768,6.085,43.543,9.1,65.318,2.461,17.77,4.911,35.541,7.306,53.32.539,4,.721,8.049,1.269,12.048.322,2.355-.882,2.999-2.783,3.03-4.968.08-9.938.09-14.907.118-3.727.021-7.467-.153-11.176.116-1.823.133-1.98-.489-2.195-1.978-2.729-18.887-5.561-37.76-8.317-56.643-2.89-19.805-5.763-39.612-8.537-59.434-.354-2.528-1.386-3.408-3.91-3.722-11.564-1.441-23.073-3.337-34.575-5.17-8.325-1.326-16.696-2.282-25.007-3.661-2.351-.39-4.696-.861-7-1.463-1.908-.499-2.61.543-3.228,2.007-7.462,17.677-14.945,35.345-22.413,53.02-7.952,18.821-15.895,37.647-23.839,56.472-.322.764-.631,1.534-.933,2.306-2.13,5.447-2.213,5.492-7.886,4.185-9.406-2.167-18.791-4.453-28.418-5.465-1.679-.176-2.515-.31-1.81-2.629,9.06-29.779,20.096-58.811,32.406-87.384,5.005-11.617,9.234-23.586,14.633-35.009,4.919-10.409,10.893-20.323,16.49-30.406,14.424-25.987,28.901-51.944,43.348-77.918,4.447-7.994,4.442-8.11,13.678-7.422,10.671.795,21.327,1.803,31.988,2.726,3.102.269,6.25-.213,9.655.754Z"/>
    </g>
    <g>
      <polygon class="cls-13" points="228.306 41.12 268.901 300.593 475.827 286.491 462.923 205.088 343.256 231.39 323.871 27.975 228.306 41.12"/>
      <path class="cls-5" d="M277.934,195.276c-2.05-16.612-4.347-33.199-6.081-49.845-1.767-16.959-3.759-33.888-6.047-50.779-1.896-13.999-4.109-27.956-6.324-41.909-.449-2.83.113-3.71,3.096-3.247,6.588,1.022,13.028-.868,19.537-1.413,7.782-.652,15.55-1.501,23.307-2.413,1.98-.233,2.518.411,2.67,2.246,1.668,20.182,3.397,40.359,5.11,60.537.527,6.21,1.165,12.409,1.659,18.624,1.219,15.325,3.243,30.598,4.066,45.94.764,14.242,4.738,27.754,7.716,41.511,2.039,9.418,4.173,18.817,6.114,28.256,1.014,4.933,1.361,5.332,6.42,4.964,17.225-1.254,34.449-2.535,51.678-3.728,9.027-.625,18.064-1.111,27.098-1.616,4.414-.247,8.454-1.152,12.288-3.752,6.957-4.717,14.28-8.894,21.406-13.367,1.656-1.039,2.374-1.171,2.644,1.16,1.388,11.98,2.893,23.946,4.415,35.91.197,1.549-.139,2.358-1.659,3.139-6.237,3.205-12.665,5.26-19.722,6.245-22.081,3.081-44.264,5.442-66.286,8.873-18.758,2.923-37.692,3.782-56.514,5.891-7.022.787-14.086,1.421-21.133,2.102-2.071.2-2.957-.278-3.251-2.488-1.258-9.476-2.56-18.95-4.103-28.382-3.392-20.731-5.662-41.606-8.102-62.46Z"/>
    </g>
    <path class="cls-14" d="M1194.528,3.262c16.782,1.654,33.558,3.367,50.351,4.901,2.547.233,4.332,1.069,6.007,2.993,15.019,17.251,30.154,34.402,45.177,51.649,3.422,3.928,5.023,8.953,7.357,13.519,5.713,11.176,11.119,22.509,16.877,33.661,1.727,3.345,2.224,6.577,1.6,10.208-2.345,13.651-4.596,27.318-6.881,40.979-2.958,17.685-6.013,35.355-8.8,53.066-.665,4.223-2.085,7.405-5.545,10.248-15.353,12.615-30.451,25.541-45.618,38.381-1.115.944-2.209,1.453-3.74,1.446-19.642-.087-39.284-.106-58.926-.133-7.835-.011-15.672-.099-23.504.036-5.006.086-9.806-1.119-14.675-1.88-13.792-2.157-27.563-4.44-41.355-6.599-1.481-.232-1.997-.693-1.836-2.227.336-3.203.462-6.428.73-9.639,4.089-49.137,8.269-98.267,12.233-147.415,1.187-14.713,4.258-29.102,6.636-43.611,2.691-16.421,5.732-32.785,8.423-49.207.469-2.864,1.127-3.878,4.331-3.592,17.011,1.521,34.048,2.745,51.076,4.073.028-.286.056-.572.083-.858ZM1168.088,140.769c-1.043,17.026-2.863,47.573-4.858,78.109-.204,3.123,1.066,3.303,3.444,3.113,6.948-.556,13.882-1.218,20.748-2.434,18.076-3.2,35.506-8.281,51.152-18.251,19.534-12.448,30.608-29.919,31.264-53.435.228-8.154.364-16.31.563-24.464.319-13.091.629-26.182,1.009-39.271.056-1.926-.489-3.474-1.594-5.033-8.317-11.73-16.613-23.476-24.794-35.301-1.228-1.775-2.57-2.536-4.66-2.769-20.706-2.309-41.402-4.699-62.099-7.086-3.916-.452-3.881-.49-4.12,3.589-1.747,29.905-3.506,59.81-6.055,103.235Z"/>
    <path class="cls-9" d="M1196.275,21.7c16.015,1.579,32.025,3.213,48.05,4.677,2.43.222,4.134,1.02,5.732,2.856,14.333,16.463,28.776,32.83,43.113,49.289,3.265,3.749,4.793,8.544,7.021,12.901,5.452,10.665,10.611,21.481,16.106,32.123,1.648,3.192,2.122,6.276,1.527,9.742-2.238,13.027-4.386,26.07-6.566,39.107-2.823,16.877-5.738,33.739-8.398,50.642-.634,4.03-1.989,7.067-5.292,9.78-14.652,12.038-29.059,24.374-43.534,36.628-1.064.901-2.108,1.386-3.569,1.38-18.744-.083-37.489-.101-56.234-.127-7.477-.01-14.956-.094-22.43.034-4.777.082-9.358-1.068-14.004-1.794-13.161-2.058-26.304-4.237-39.465-6.297-1.413-.221-1.906-.661-1.752-2.125.321-3.057.441-6.134.696-9.198,3.902-46.892,7.891-93.778,11.674-140.68,1.132-14.04,4.063-27.773,6.333-41.619,2.568-15.671,5.47-31.287,8.038-46.959.448-2.733,1.076-3.701,4.133-3.428,16.234,1.451,32.492,2.62,48.742,3.887.026-.273.053-.546.079-.819ZM1171.043,152.924c-.995,16.248-2.732,45.4-4.636,74.54-.195,2.981,1.017,3.153,3.287,2.971,6.63-.531,13.248-1.163,19.8-2.323,17.25-3.054,33.884-7.902,48.815-17.417,18.641-11.879,29.209-28.552,29.836-50.994.217-7.781.348-15.565.537-23.347.304-12.493.6-24.986.963-37.477.053-1.838-.467-3.316-1.521-4.803-7.937-11.194-15.854-22.403-23.662-33.688-1.172-1.694-2.453-2.42-4.447-2.643-19.76-2.204-39.511-4.484-59.262-6.762-3.737-.431-3.704-.468-3.931,3.425-1.667,28.539-3.346,57.077-5.779,98.518Z"/>
    <g>
      <polygon class="cls-11" points="1005.082 296.003 924.526 302.919 900.864 27.334 981.42 20.417 1034.774 111.223 1026.038 9.468 1095.288 3.522 1120.041 291.827 1040.899 298.622 988.508 169.295 1005.082 296.003"/>
      <path class="cls-12" d="M976.716,138.539c.152,5.341.239,9.822.415,14.3.862,21.905,1.724,43.81,2.639,65.713.293,7.02,2.59,13.651,4.282,20.387,3.564,14.182,7.199,28.347,10.93,42.487.5,1.896.34,2.508-1.715,2.542-11.059.187-22.116.462-33.173.719-5.426.126-10.854.238-16.277.444-1.437.055-2.304-.038-2.321-1.849-.073-8.105-1.094-16.151-1.648-24.227-2.676-38.964-6.266-77.857-9.185-116.801-2.452-32.711-5.342-65.384-8.053-98.073-.202-2.439.392-3.151,2.799-3.286,16.984-.956,33.963-1.995,50.935-3.141,2.249-.152,2.774,1.24,3.54,2.655,10.916,20.153,21.826,40.31,32.741,60.463,16.667,30.771,33.337,61.541,50.007,92.31.275.507.57,1.002,1.09,1.913-.743-8.648-1.426-16.752-2.143-24.853-.171-1.938-.487-3.863-.673-5.8-2.841-29.589-5.656-59.181-8.513-88.769-.877-9.078-1.81-18.152-2.842-27.214-.239-2.093.126-3.285,2.223-4.275,4.621-2.181,9.146-4.6,13.555-7.186,3.422-2.007,7.013-2.577,10.875-2.549,2.965.022,5.953-.147,8.894-.519,2.287-.29,2.722.639,2.821,2.668,1.067,21.797,2.18,43.592,3.351,65.384,1.214,22.613,2.519,45.22,3.758,67.832,1.043,19.029,2.065,38.06,3.067,57.092.867,16.473,1.65,32.95,2.595,49.418.118,2.055-.513,2.633-2.403,2.889-12.08,1.633-24.141,3.4-36.35,3.828-6.832.24-7.358.028-10.063-6.328-12.378-29.08-24.014-58.463-35.916-87.738-1.946-4.785-5.629-8.259-8.692-12.184-9.515-12.193-19.198-24.255-28.821-36.363-.369-.464-.8-.879-1.728-1.889Z"/>
    </g>
    <g>
      <g>
        <path class="cls-15" d="M853.14,262.805c-3.661,3.732-7.34,7.446-10.971,11.207-1.188,1.231-2.527,2.048-4.244,2.233-18.745,2.023-37.506,3.76-56.391,3.689-3.253-.012-6.081-.828-8.969-2.45-16.142-9.062-32.719-17.347-49.645-24.775-8.589-3.77-13.476-9.37-17.158-17.776-10.865-24.806-22.483-49.279-33.111-74.201-3.564-8.358-4.435-16.638-3.122-25.457,1.72-11.554,3.959-22.965,7.049-34.25,1.846-6.741,6.87-10.239,11.962-13.769,18.919-13.117,38.423-25.32,58.35-36.849,2.916-1.687,5.989-2.51,9.318-2.719,14.857-.933,29.694-.63,44.534.427,4.302.306,7.714,1.951,10.921,4.846,19.272,17.395,37.016,36.322,55.235,54.772,6.625,6.709,13.081,13.586,19.646,20.355,1.031,1.063,1.724,2.105,1.808,3.697,1.323,25.067,2.685,50.128,3.441,75.225.234,7.781-3.546,13.261-7.677,18.811-9.613,12.916-20.208,25.023-30.977,36.984ZM745.621,117.576c.203.199.406.398.608.597-6.026,6.144-12.005,12.337-18.11,18.401-1.648,1.637-2.067,3.043-1.27,5.349,6.915,19.994,13.697,40.035,20.467,60.079.561,1.66,1.393,2.716,3.064,3.438,15.008,6.483,29.991,13.025,44.936,19.651,1.536.681,2.346.301,3.455-.68,11.814-10.45,23.656-20.868,35.538-31.24,1.342-1.171,1.959-2.34,1.885-4.182-.392-9.722-.683-19.45-.91-29.177-.04-1.715-.48-3.178-1.333-4.617-6.62-11.164-13.262-22.316-19.783-33.538-1.143-1.967-2.563-3.29-4.605-4.224-13.939-6.372-27.866-12.772-41.744-19.276-1.876-.879-2.853-.399-4.153.958-5.952,6.214-12.019,12.318-18.044,18.462Z"/>
        <ellipse class="cls-15" cx="782.052" cy="161.254" rx="62.412" ry="76.597" transform="translate(119.324 606.675) rotate(-45.556)"/>
      </g>
      <path class="cls-7" d="M863.072,252.678c-3.661,3.732-7.34,7.446-10.971,11.207-1.188,1.231-2.527,2.048-4.244,2.233-18.745,2.023-37.506,3.76-56.391,3.689-3.253-.012-6.081-.828-8.969-2.45-16.142-9.062-32.719-17.347-49.645-24.775-8.589-3.77-13.476-9.37-17.158-17.776-10.865-24.806-22.483-49.279-33.111-74.201-3.564-8.358-4.435-16.638-3.122-25.457,1.72-11.554,3.959-22.965,7.049-34.25,1.846-6.741,6.87-10.239,11.962-13.769,18.919-13.117,38.423-25.32,58.35-36.849,2.916-1.687,5.989-2.51,9.318-2.719,14.857-.933,29.694-.63,44.534.427,4.302.306,7.714,1.951,10.921,4.846,19.272,17.395,37.016,36.322,55.235,54.772,6.625,6.709,13.081,13.586,19.646,20.355,1.031,1.063,1.724,2.105,1.808,3.697,1.323,25.067,2.685,50.128,3.441,75.225.234,7.781-3.546,13.261-7.677,18.811-9.613,12.916-20.208,25.023-30.977,36.984ZM755.553,107.449c.203.199.406.398.608.597-6.026,6.144-12.005,12.337-18.11,18.401-1.648,1.637-2.067,3.043-1.27,5.349,6.915,19.994,13.697,40.035,20.467,60.079.561,1.66,1.393,2.716,3.064,3.438,15.008,6.483,29.991,13.025,44.936,19.651,1.536.681,2.346.301,3.455-.68,11.814-10.45,23.656-20.868,35.538-31.24,1.342-1.171,1.959-2.34,1.885-4.182-.392-9.722-.683-19.45-.91-29.177-.04-1.715-.48-3.178-1.333-4.617-6.62-11.164-13.262-22.316-19.783-33.538-1.143-1.967-2.563-3.29-4.605-4.224-13.939-6.372-27.866-12.772-41.744-19.276-1.876-.879-2.853-.399-4.153.958-5.952,6.214-12.019,12.318-18.044,18.462Z"/>
    </g>
    <path class="cls-19" d="M555.626,202.852c1.91-8.297,3.726-16.055,5.479-23.828,7.316-32.435,14.613-64.875,21.915-97.314,2.449-10.88,4.953-21.748,7.294-32.651.505-2.353,1.369-3.292,3.955-3.411,19.555-.899,39.103-1.953,58.647-3.08,2.278-.131,1.928,1.11,1.942,2.418.18,17.327.392,34.653.536,51.98.504,60.594.984,121.187,1.48,181.781.022,2.665.008,5.338.211,7.992.143,1.866-.665,2.515-2.358,2.802-4.943.841-9.854,1.879-14.804,2.674-3.36.54-6.732-.213-10.096-.362-5.731-.253-11.448-.832-17.178-1.092-1.998-.091-2.87-.47-2.783-2.764,1.014-26.736,1.945-53.475,2.858-80.215.535-15.676,1.028-31.353,1.475-47.031.125-4.383.019-8.773.019-13.225-2.173,4.636-4.418,9.376-6.622,14.134-14.15,30.542-28.309,61.079-42.391,91.652-.85,1.846-1.819,2.573-3.867,2.567-3.787-.011-7.582.234-11.36.54-1.709.138-2.535-.454-3.264-1.984-12.276-25.773-24.614-51.517-36.934-77.269-4.504-9.414-8.993-18.834-13.496-28.249-.294-.615-.647-1.202-1.551-1.69.304,6.047.588,12.095.915,18.141.746,13.816,1.515,27.63,2.269,41.445,1.151,21.082,2.298,42.164,3.445,63.246.484,8.904.904,17.812,1.488,26.709.138,2.105-.403,2.808-2.577,2.903-10.955.482-21.904,1.09-32.85,1.753-1.905.115-2.516-.591-2.674-2.36-1.62-18.163-3.297-36.32-4.939-54.481-1.356-14.998-2.69-29.997-4.027-44.997-1.546-17.347-3.074-34.696-4.63-52.042-1.538-17.142-3.104-34.281-4.651-51.422-1.252-13.876-2.459-27.756-3.78-41.626-.195-2.044.974-1.816,2.211-1.871,7.065-.31,14.129-.662,21.196-.948,12.188-.495,24.381-.894,36.565-1.476,2.31-.111,3.339.46,4.087,2.789,8.856,27.557,17.844,55.07,26.8,82.595,6.994,21.495,13.991,42.989,20.993,64.481.246.754.56,1.486,1.054,2.784Z"/>
    <path class="cls-2" d="M572.647,202.852c1.91-8.297,3.726-16.055,5.479-23.828,7.316-32.435,14.613-64.875,21.915-97.314,2.449-10.88,4.953-21.748,7.294-32.651.505-2.353,1.369-3.292,3.955-3.411,19.555-.899,39.103-1.953,58.647-3.08,2.278-.131,1.928,1.11,1.942,2.418.18,17.327.392,34.653.536,51.98.504,60.594.984,121.187,1.48,181.781.022,2.665.008,5.338.211,7.992.143,1.866-.665,2.515-2.358,2.802-4.943.841-9.854,1.879-14.804,2.674-3.36.54-6.732-.213-10.096-.362-5.731-.253-11.448-.832-17.178-1.092-1.998-.091-2.87-.47-2.783-2.764,1.014-26.736,1.945-53.475,2.858-80.215.535-15.676,1.028-31.353,1.475-47.031.125-4.383.019-8.773.019-13.225-2.173,4.636-4.418,9.376-6.622,14.134-14.15,30.542-28.309,61.079-42.391,91.652-.85,1.846-1.819,2.573-3.867,2.567-3.787-.011-7.582.234-11.36.54-1.709.138-2.535-.454-3.264-1.984-12.276-25.773-24.614-51.517-36.934-77.269-4.504-9.414-8.993-18.834-13.496-28.249-.294-.615-.647-1.202-1.551-1.69.304,6.047.588,12.095.915,18.141.746,13.816,1.515,27.63,2.269,41.445,1.151,21.082,2.298,42.164,3.445,63.246.484,8.904.904,17.812,1.488,26.709.138,2.105-.403,2.808-2.577,2.903-10.955.482-21.904,1.09-32.85,1.753-1.905.115-2.516-.591-2.674-2.36-1.62-18.163-3.297-36.32-4.939-54.481-1.356-14.998-2.69-29.997-4.027-44.997-1.546-17.347-3.074-34.696-4.63-52.042-1.538-17.142-3.104-34.281-4.651-51.422-1.252-13.876-2.459-27.756-3.78-41.626-.195-2.044.974-1.816,2.211-1.871,7.065-.31,14.129-.662,21.196-.948,12.188-.495,24.381-.894,36.565-1.476,2.31-.111,3.339.46,4.087,2.789,8.856,27.557,17.844,55.07,26.8,82.595,6.994,21.495,13.991,42.989,20.993,64.481.246.754.56,1.486,1.054,2.784Z"/>
  </g>
  <g>
    <g>
      <polygon class="cls-4" points="837.903 365.979 624.982 381.414 624.982 630.729 738.766 669.53 792.23 650.588 846.963 596.355 837.903 365.979"/>
      <path class="cls-10" d="M704.854,487.969c0,26.757.045,53.514-.07,80.27-.012,2.701.837,3.414,3.372,3.702,14.34,1.633,28.667,3.391,42.978,5.266,2.423.317,3.94-.199,5.497-2.123,9.149-11.309,18.402-22.535,27.707-33.718,1.212-1.456,1.164-2.965,1.163-4.588-.018-45.726-.004-91.453-.137-137.179-.008-2.887.737-3.873,3.56-4.098,12.658-1.008,25.307-2.14,37.948-3.347,2.525-.241,3.336.43,3.373,3.057.212,15.371.757,30.732,1.886,46.07,2.442,33.177.705,66.384.647,99.579-.021,11.788-.34,23.568-1.115,35.334-.098,1.488-.466,2.791-1.358,3.984-11.173,14.937-22.799,29.495-35.223,43.429-3.668,4.114-8.39,4.364-13.024,5.144-14.931,2.514-29.9,4.802-44.848,7.217-1.706.276-3.198-.091-4.746-.756-22.558-9.693-45.118-19.383-67.717-28.978-2.457-1.043-3.484-2.328-3.641-5.154-1.473-26.494-3.007-52.986-4.799-79.46-1.443-21.316-.86-42.591.284-63.887.671-12.484.983-24.987,1.458-37.481.257-6.759.564-13.517.746-20.279.056-2.076.447-2.726,2.837-2.261,14.272,2.779,28.703,4.533,43.128,6.305,4.239.521,4.134.486,3.945,4.698-.53,11.774-.951,23.553-1.433,35.329-.6,14.641-1.219,29.282-1.83,43.923-.195,0-.39.001-.584.002Z"/>
      <path class="cls-8" d="M687.832,487.969c0,26.757.045,53.514-.07,80.27-.012,2.701.837,3.414,3.372,3.702,14.34,1.633,28.667,3.391,42.978,5.266,2.423.317,3.94-.199,5.497-2.123,9.149-11.309,18.402-22.535,27.707-33.718,1.212-1.456,1.164-2.965,1.163-4.588-.018-45.726-.004-91.453-.137-137.179-.008-2.887.737-3.873,3.56-4.098,12.658-1.008,25.307-2.14,37.948-3.347,2.525-.241,3.336.43,3.373,3.057.212,15.371.757,30.732,1.886,46.07,2.442,33.177.705,66.384.647,99.579-.021,11.788-.34,23.568-1.115,35.334-.098,1.488-.466,2.791-1.358,3.984-11.173,14.937-22.799,29.495-35.223,43.429-3.668,4.114-8.39,4.364-13.024,5.144-14.931,2.514-29.9,4.802-44.848,7.217-1.706.276-3.198-.091-4.746-.756-22.558-9.693-45.118-19.383-67.717-28.978-2.457-1.043-3.484-2.328-3.641-5.154-1.473-26.494-3.007-52.986-4.799-79.46-1.443-21.316-.86-42.591.284-63.887.671-12.484.983-24.987,1.458-37.481.257-6.759.564-13.517.746-20.279.056-2.076.447-2.726,2.837-2.261,14.272,2.779,28.703,4.533,43.128,6.305,4.239.521,4.134.486,3.945,4.698-.53,11.774-.951,23.553-1.433,35.329-.6,14.641-1.219,29.282-1.83,43.923-.195,0-.39.001-.584.002Z"/>
    </g>
    <g>
      <path class="cls-4" d="M267.01,567.401c0-21.212.444-42.436-.124-63.633-.574-21.439,1.178-42.761,1.835-64.137.504-16.374,1.8-32.735,1.065-49.133-.067-1.489.528-1.667,1.74-1.749,14.915-1.006,29.828-2.054,44.741-3.089,5.925-.411,11.856-.744,17.771-1.264,2.057-.181,2.577.518,2.688,2.488.929,16.455,1.941,32.906,2.98,49.354,1.136,17.979,2.336,35.954,3.487,53.933.157,2.453.24,4.914.266,7.372.016,1.558.61,2.166,2.229,2.083,11.458-.593,22.919-1.125,34.379-1.672,3.479-.166,6.958-.395,10.44-.45,2.439-.038,3.556-.926,3.744-3.538.751-10.411,1.692-20.809,2.59-31.209,1.162-13.456,2.381-26.908,3.517-40.366.938-11.116,1.905-22.232,2.606-33.364.19-3.008,1.093-4.276,4.191-4.578,9.775-.953,19.53-2.119,29.273-3.364,1.83-.234,2.36.072,2.267,1.905-.736,14.522-1.403,29.047-2.118,43.57-.498,10.124-.839,20.261-1.602,30.366-1.574,20.831.825,41.532,1.716,62.282.602,14.014,1.291,28.026,2.011,42.035.93,18.097,1.935,36.191,2.898,54.287.272,5.113.462,10.231.79,15.34.116,1.798-.445,2.451-2.314,2.688-9.234,1.172-18.467,2.386-27.649,3.9-2.373.392-2.772-.385-2.998-2.279-1.078-9.038-2.203-18.071-3.322-27.105-1.999-16.137-4.004-32.272-6.008-48.408-.643-5.177-1.378-10.344-1.885-15.534-.173-1.774-.618-2.497-2.543-2.415-15.763.668-31.528,1.276-47.296,1.812-1.795.061-2.359.672-2.748,2.398-6.651,29.516-13.428,59.004-20.05,88.526-.595,2.651-1.515,3.579-4.344,3.59-17.013.063-34.027.282-51.036.648-2.616.056-3.009-.765-3.002-3.061.071-22.742.043-45.484.043-68.227-.076,0-.152,0-.227,0Z"/>
      <path class="cls-16" d="M277.032,567.401c0-21.212.444-42.436-.124-63.633-.574-21.439,1.178-42.761,1.835-64.137.504-16.374,1.8-32.735,1.065-49.133-.067-1.489.528-1.667,1.74-1.749,14.915-1.006,29.828-2.054,44.741-3.089,5.925-.411,11.856-.744,17.771-1.264,2.057-.181,2.577.518,2.688,2.488.929,16.455,1.941,32.906,2.98,49.354,1.136,17.979,2.336,35.954,3.487,53.933.157,2.453.24,4.914.266,7.372.016,1.558.61,2.166,2.229,2.083,11.458-.593,22.919-1.125,34.379-1.672,3.479-.166,6.958-.395,10.44-.45,2.439-.038,3.556-.926,3.744-3.538.751-10.411,1.692-20.809,2.59-31.209,1.162-13.456,2.381-26.908,3.517-40.366.938-11.116,1.905-22.232,2.606-33.364.19-3.008,1.093-4.276,4.191-4.578,9.775-.953,19.53-2.119,29.273-3.364,1.83-.234,2.36.072,2.267,1.905-.736,14.522-1.403,29.047-2.118,43.57-.498,10.124-.839,20.261-1.602,30.366-1.574,20.831.825,41.532,1.716,62.282.602,14.014,1.291,28.026,2.011,42.035.93,18.097,1.935,36.191,2.898,54.287.272,5.113.462,10.231.79,15.34.116,1.798-.445,2.451-2.314,2.688-9.234,1.172-18.467,2.386-27.649,3.9-2.373.392-2.772-.385-2.998-2.279-1.078-9.038-2.203-18.071-3.322-27.105-1.999-16.137-4.004-32.272-6.008-48.408-.643-5.177-1.378-10.344-1.885-15.534-.173-1.774-.618-2.497-2.543-2.415-15.763.668-31.528,1.276-47.296,1.812-1.795.061-2.359.672-2.748,2.398-6.651,29.516-13.428,59.004-20.05,88.526-.595,2.651-1.515,3.579-4.344,3.59-17.013.063-34.027.282-51.036.648-2.616.056-3.009-.765-3.002-3.061.071-22.742.043-45.484.043-68.227-.076,0-.152,0-.227,0Z"/>
    </g>
    <g>
      <path class="cls-19" d="M1126.702,413.468c-3.506-2.483-6.718-4.718-9.882-7.02-1.058-.77-2.141-.914-3.403-.797-10.992,1.019-21.979,2.111-32.985,2.954-12.804.98-25.606,1.955-38.394,3.127-9.281.851-18.597,1.336-27.898,1.97-1.441.098-2.364.456-2.59,2.221-.496,3.872-1.041,7.768-2.008,11.541-1.271,4.958.352,9.523,1.366,14.171,1.579,7.235,3.364,14.424,5.025,21.641,1.931,8.389,3.842,16.783,5.712,25.186.321,1.44,1.237,1.321,2.28,1.192,4.085-.502,8.19-.775,12.288-1.125,10.507-.897,20.98-2.187,31.472-3.274,2.19-.227,4.4-.311,6.603-.363,10.539-.249,20.091-4.364,29.836-7.669,1.748-.593,2.316-.63,2.82,1.385,1.447,5.783,1.824,11.71,2.73,17.562.415,2.683.712,5.385,1.138,8.066.802,5.046.8,4.905-4.154,5.794-13.245,2.378-26.564,4.285-39.841,6.451-12.187,1.988-24.341,4.186-36.581,5.823-2.365.316-2.976,1.078-2.594,3.445,2.716,16.856,5.142,33.76,8.029,50.585.9,5.246,1.777,10.494,2.458,15.767.286,2.216,1.033,2.695,3.266,2.527,13.844-1.042,27.542-3.277,41.32-4.841,9.182-1.042,18.352-2.315,27.564-2.937,8.632-.582,16.249-4.104,24.074-7.124,8.494-3.277,16.987-6.561,25.409-10.016,2.526-1.036,3.218-.201,3.487,2.143,1.363,11.878,2.766,23.752,4.218,35.62.193,1.578-.064,2.48-1.828,2.677-1.183.132-2.318.665-3.5.839-14.613,2.158-29.262,4.086-43.837,6.477-12.598,2.067-25.305,3.408-37.864,5.62-10.108,1.781-20.349,2.575-30.406,4.511-10.676,2.055-21.511,2.915-32.195,4.794-4.351.765-8.707,1.47-13.064,2.188-1.843.304-2.669-.269-2.68-2.1,0-.1-.026-.199-.041-.299-1.937-13.121-3.846-26.245-5.818-39.361-2.927-19.469-5.663-38.972-8.958-58.379-1.498-8.824-2.134-17.786-4.036-26.507-2.541-11.647-2.838-23.521-4.223-35.274-1.55-13.153-2.675-26.367-4.001-39.553-1.294-12.86-2.494-25.74-2.706-38.685-.074-4.488-.141-4.287,4.11-5.143,8.736-1.76,17.421-3.767,26.132-5.649,5.484-1.185,10.981-2.314,16.467-3.492,9.008-1.934,18.011-3.891,27.017-5.833,6.021-1.298,12.195-1.193,18.283-1.64,4.883-.359,9.778-.87,14.687-1.104,10.116-.484,20.196-1.68,30.298-2.48,3.197-.253,6.443-.032,9.592-.728,2.32-.513,2.87.448,3.167,2.578,1.918,13.739,3.162,27.553,4.725,41.332.031.273-.035.556-.084,1.207Z"/>
      <path class="cls-7" d="M1126.702,420.45c-3.506-2.483-6.718-4.718-9.882-7.02-1.058-.77-2.141-.914-3.403-.797-10.992,1.019-21.979,2.111-32.985,2.954-12.804.98-25.606,1.955-38.394,3.127-9.281.851-18.597,1.336-27.898,1.97-1.441.098-2.364.456-2.59,2.221-.496,3.872-1.041,7.768-2.008,11.541-1.271,4.958.352,9.523,1.366,14.171,1.579,7.235,3.364,14.424,5.025,21.641,1.931,8.389,3.842,16.783,5.712,25.186.321,1.44,1.237,1.321,2.28,1.192,4.085-.502,8.19-.775,12.288-1.125,10.507-.897,20.98-2.187,31.472-3.274,2.19-.227,4.4-.311,6.603-.363,10.539-.249,20.091-4.364,29.836-7.669,1.748-.593,2.316-.63,2.82,1.385,1.447,5.783,1.824,11.71,2.73,17.562.415,2.683.712,5.385,1.138,8.066.802,5.046.8,4.905-4.154,5.794-13.245,2.378-26.564,4.285-39.841,6.451-12.187,1.988-24.341,4.186-36.581,5.823-2.365.316-2.976,1.078-2.594,3.445,2.716,16.856,5.142,33.76,8.029,50.585.9,5.246,1.777,10.494,2.458,15.767.286,2.216,1.033,2.695,3.266,2.527,13.844-1.042,27.542-3.277,41.32-4.841,9.182-1.042,18.352-2.315,27.564-2.937,8.632-.582,16.249-4.104,24.074-7.124,8.494-3.277,16.987-6.561,25.409-10.016,2.526-1.036,3.218-.201,3.487,2.143,1.363,11.878,2.766,23.752,4.218,35.62.193,1.578-.064,2.48-1.828,2.677-1.183.132-2.318.665-3.5.839-14.613,2.158-29.262,4.086-43.837,6.477-12.598,2.067-25.305,3.408-37.864,5.62-10.108,1.781-20.349,2.575-30.406,4.511-10.676,2.055-21.511,2.915-32.195,4.794-4.351.765-8.707,1.47-13.064,2.188-1.843.304-2.669-.269-2.68-2.1,0-.1-.026-.199-.041-.299-1.937-13.121-3.846-26.245-5.818-39.361-2.927-19.469-5.663-38.972-8.958-58.379-1.498-8.824-2.134-17.786-4.036-26.507-2.541-11.647-2.838-23.521-4.223-35.274-1.55-13.153-2.675-26.367-4.001-39.553-1.294-12.86-2.494-25.74-2.706-38.685-.074-4.488-.141-4.287,4.11-5.143,8.736-1.76,17.421-3.767,26.132-5.649,5.484-1.185,10.981-2.314,16.467-3.492,9.008-1.934,18.011-3.891,27.017-5.833,6.021-1.298,12.195-1.193,18.283-1.64,4.883-.359,9.778-.87,14.687-1.104,10.116-.484,20.196-1.68,30.298-2.48,3.197-.253,6.443-.032,9.592-.728,2.32-.513,2.87.448,3.167,2.578,1.918,13.739,3.162,27.553,4.725,41.332.031.273-.035.556-.084,1.207Z"/>
    </g>
    <g>
      <path class="cls-6" d="M884.671,631.281c-6.064-.873-11.132-3.839-16.334-6.367-19.065-9.267-38.053-18.69-57.102-27.991-1.9-.928-2.186-1.886-1.5-3.88,3.267-9.5,6.384-19.052,9.465-28.615.824-2.556,1.626-3.606,4.724-2.334,19.568,8.037,39.246,15.808,58.882,23.679,7.892,3.163,15.797,6.294,23.632,9.592,1.396.588,2.344.289,3.472-.304,10.487-5.504,20.952-11.053,31.499-16.439,1.877-.958,2.767-2.122,2.493-4.103-.74-5.345-1.58-10.677-2.317-16.022-.198-1.436-.858-2.396-1.981-3.328-10.778-8.946-23.169-15.455-34.823-23.071-13.143-8.589-26.522-16.815-39.799-25.198-6.243-3.942-12.481-7.893-18.74-11.81-1.511-.945-2.252-2.08-2.43-3.999-2.339-25.187-4.761-50.367-7.287-75.537-.197-1.964.804-2.964,1.889-3.97,6.094-5.651,12.273-11.21,18.405-16.82,8.889-8.134,17.961-16.082,26.546-24.526,3.5-3.443,6.625-1.745,9.952-.857,10.506,2.806,20.975,5.752,31.45,8.675,12.87,3.593,25.752,7.148,38.591,10.848,13.028,3.755,24.74,10.654,37.18,15.823,4.597,1.91,9.061,4.138,13.643,6.088,2.174.925,3.33,1.685,2.274,4.549-1.352,3.667-1.75,7.675-2.713,11.498-1.008,4.003-4.707,5.933-7.168,8.809-1.952,2.282-4.279,4.24-6.321,6.451-1.501,1.625-2.867,1.777-4.894.753-27.542-13.911-55.14-27.711-82.684-41.617-2.692-1.359-4.405-1.327-6.441,1.311-6.861,8.889-13.988,17.575-21.084,26.28-1.652,2.026-2.214,3.775-1.072,6.456,3.585,8.418,6.824,16.985,10.126,25.521.52,1.345,1.205,2.294,2.54,2.932,13.87,6.626,27.546,13.69,41.625,19.833,11.354,4.954,20.678,12.66,30.428,19.897,10.452,7.758,19.93,16.686,30.113,24.764,1.312,1.041,2.304,2.242,2.875,3.936,4.461,13.214,8.995,26.404,13.592,39.572.601,1.721.547,3.018-.469,4.615-11.39,17.898-22.702,35.845-34.001,53.8-.718,1.141-1.371,1.755-2.901,1.737-8.802-.108-17.606-.021-26.41-.057-12.015-.049-24.03-.129-36.045-.232-10.359-.089-20.718-.228-30.882-.343Z"/>
      <path class="cls-18" d="M903.549,639.658c-6.064-.873-11.132-3.839-16.334-6.367-19.065-9.267-38.053-18.69-57.102-27.991-1.9-.928-2.186-1.886-1.5-3.88,3.267-9.5,6.384-19.052,9.465-28.615.824-2.556,1.626-3.606,4.724-2.334,19.568,8.037,39.246,15.808,58.882,23.679,7.892,3.163,15.797,6.294,23.632,9.592,1.396.588,2.344.289,3.472-.304,10.487-5.504,20.952-11.053,31.499-16.439,1.877-.958,2.767-2.122,2.493-4.103-.74-5.345-1.58-10.677-2.317-16.022-.198-1.436-.858-2.396-1.981-3.328-10.778-8.946-23.169-15.455-34.823-23.071-13.143-8.589-26.522-16.815-39.799-25.198-6.243-3.942-12.481-7.893-18.74-11.81-1.511-.945-2.252-2.08-2.43-3.999-2.339-25.187-4.761-50.367-7.287-75.537-.197-1.964.804-2.964,1.889-3.97,6.094-5.651,12.273-11.21,18.405-16.82,8.889-8.134,17.961-16.082,26.546-24.526,3.5-3.443,6.625-1.745,9.952-.857,10.506,2.806,20.975,5.752,31.45,8.675,12.87,3.593,25.752,7.148,38.591,10.848,13.028,3.755,24.74,10.654,37.18,15.823,4.597,1.91,9.061,4.138,13.643,6.088,2.174.925,3.33,1.685,2.274,4.549-1.352,3.667-1.75,7.675-2.713,11.498-1.008,4.003-4.707,5.933-7.168,8.809-1.952,2.282-4.279,4.24-6.321,6.451-1.501,1.625-2.867,1.777-4.894.753-27.542-13.911-55.14-27.711-82.684-41.617-2.692-1.359-4.405-1.327-6.441,1.311-6.861,8.889-13.988,17.575-21.084,26.28-1.652,2.026-2.214,3.775-1.072,6.456,3.585,8.418,6.824,16.985,10.126,25.521.52,1.345,1.205,2.294,2.54,2.932,13.87,6.626,27.546,13.69,41.625,19.833,11.354,4.954,20.678,12.66,30.428,19.897,10.452,7.758,19.93,16.686,30.113,24.764,1.312,1.041,2.304,2.242,2.875,3.936,4.461,13.214,8.995,26.404,13.592,39.572.601,1.721.547,3.018-.469,4.615-11.39,17.898-22.702,35.845-34.001,53.8-.718,1.141-1.371,1.755-2.901,1.737-8.802-.108-17.606-.021-26.41-.057-12.015-.049-24.03-.129-36.045-.232-10.359-.089-20.718-.228-30.882-.343Z"/>
    </g>
    <g>
      <path class="cls-1" d="M632.852,416.313c-.989,18.893-1.916,37.695-2.979,56.489-.693,12.253-1.614,24.493-2.375,36.742-.264,4.246-1.613,8.19-2.946,12.169-8.317,24.827-16.366,49.744-25.512,74.287-1.055,2.832-2.749,5.027-5.103,6.732-13.229,9.58-27.701,17.059-42.04,24.76-.855.459-1.66.493-2.637.252-24.106-5.928-48.28-11.581-72.005-18.98-5.223-1.629-8.849-4.295-11.314-9.318-3.787-7.716-7.597-15.414-11.252-23.199-2.808-5.981-2.152-11.804-1.124-17.921,3.352-19.936,6.349-39.932,9.789-59.852,3.127-18.109,6.663-36.148,10.002-54.221,1.595-8.633,3.145-17.274,4.736-25.908.296-1.608.77-3.073,2.009-4.35,10.698-11.033,21.355-22.106,31.948-33.24,1.351-1.42,2.711-1.869,4.597-1.73,14.482,1.068,28.969,2.061,43.455,3.078,6.019.422,12.038.844,18.057,1.27,1.454.103,2.788.549,4.057,1.287,16.194,9.421,32.395,18.83,48.601,28.229,1.378.799,2.902,1.451,2.039,3.422Z"/>
      <path class="cls-20" d="M632.852,427.171c-.989,18.893-1.916,37.695-2.979,56.489-.693,12.253-1.614,24.493-2.375,36.742-.264,4.246-1.613,8.19-2.946,12.169-8.317,24.827-16.366,49.744-25.512,74.287-1.055,2.832-2.749,5.027-5.103,6.732-13.229,9.58-27.701,17.059-42.04,24.76-.855.459-1.66.493-2.637.252-24.106-5.928-48.28-11.581-72.005-18.98-5.223-1.629-8.849-4.295-11.314-9.318-3.787-7.716-7.597-15.414-11.252-23.199-2.808-5.981-2.152-11.804-1.124-17.921,3.352-19.936,6.349-39.932,9.789-59.852,3.127-18.109,6.663-36.148,10.002-54.221,1.595-8.633,3.145-17.274,4.736-25.908.296-1.608.77-3.073,2.009-4.35,10.698-11.033,21.355-22.106,31.948-33.24,1.351-1.42,2.711-1.869,4.597-1.73,14.482,1.068,28.969,2.061,43.455,3.078,6.019.422,12.038.844,18.057,1.27,1.454.103,2.788.549,4.057,1.287,16.194,9.421,32.395,18.83,48.601,28.229,1.378.799,2.902,1.451,2.039,3.422Z"/>
    </g>
  </g>
</svg>