<?xml version="1.0" encoding="UTF-8"?>
<svg id="Layer_1" data-name="Layer 1" xmlns="http://www.w3.org/2000/svg" viewBox="0 0 1658.344 751.994">
  <defs>
    <style>
      .cls-1 {
        fill: #87264a;
      }

      .cls-2 {
        fill: #423f3e;
      }

      .cls-3 {
        fill: #e2b8d6;
        stroke: #383938;
        stroke-width: 2px;
      }

      .cls-3, .cls-4, .cls-5 {
        stroke-miterlimit: 10;
      }

      .cls-6 {
        fill: #468f67;
      }

      .cls-7 {
        fill: #b89a30;
      }

      .cls-8 {
        fill: #d6c770;
      }

      .cls-9 {
        fill: #8b263b;
      }

      .cls-4 {
        fill: #eb7197;
        stroke: #fff;
        stroke-width: 3px;
      }

      .cls-10 {
        fill: #ecc42d;
      }

      .cls-5 {
        fill: #e8993c;
        stroke: #151616;
      }

      .cls-11 {
        fill: #cb9348;
      }

      .cls-12 {
        fill: #1d1a1b;
      }

      .cls-13 {
        fill: #f6cac1;
      }

      .cls-14 {
        fill: #ac325f;
      }

      .cls-15 {
        fill: #383938;
      }

      .cls-16 {
        fill: #d1e7bb;
      }

      .cls-17 {
        fill: #eee6e0;
      }

      .cls-18 {
        fill: #f3e2b4;
      }

      .cls-19 {
        fill: #efa144;
      }

      .cls-20 {
        fill: #ec7b85;
      }

      .cls-21 {
        fill: #2f6864;
      }

      .cls-22 {
        fill: #c1942d;
      }

      .cls-23 {
        fill: #f0916e;
      }

      .cls-24 {
        fill: #90b8d1;
      }

      .cls-25 {
        fill: #f9f6eb;
      }

      .cls-26 {
        fill: #7b3761;
      }

      .cls-27 {
        fill: #c8c8c8;
      }

      .cls-28 {
        fill: #e85655;
      }

      .cls-29 {
        fill: #7c6188;
      }
    </style>
  </defs>
  <g>
    <path class="cls-27" d="M899.635,660.821c0-8.885.294-17.591-.079-26.268-.415-9.658-.268-19.309-.37-28.962-.128-12.235.011-24.473-.107-36.709-.279-28.829-1.898-57.616-2.811-86.425-.436-13.762-1.497-27.518-1.046-41.304.334-10.202.334-10.074,10.372-8.086,8.171,1.618,16.397,2.974,24.627,4.263,3.332.522,4.572,1.574,4.175,5.413-.858,8.304-.772,16.701-1.31,25.044-1.231,19.09,1.281,37.984,3.077,56.888,2.248,23.664,1.162,47.291.297,70.939-.41,11.193-.351,22.392-.871,33.589-.675,14.528-.641,29.088-1.06,43.629-.604,20.969-1.386,41.932-1.962,62.902-.074,2.696-.619,3.767-3.624,3.877-12.079.439-24.152,1.106-36.212,1.927-2.649.18-2.966-1.499-3.637-3.074-5.832-13.7-11.823-27.336-17.385-41.144-7.652-18.998-16.804-37.199-27.52-54.648-13.093-21.322-21.892-44.733-32.375-67.32-7.623-16.426-14.962-32.983-22.465-49.465-.434-.954-.55-2.865-1.882-2.424-1.675.554-3.825,1.118-4.314,3.339-.217.986-.076,2.052-.078,3.082-.041,21.51-.053,43.021-.124,64.531-.154,46.751-.349,93.502-.479,140.253-.007,2.526-.06,3.97-3.456,4.361-15.416,1.778-30.783,3.989-46.153,6.148-1.674.235-2.514.155-2.2-1.738,1.385-8.333.397-16.674.16-25.019-.215-7.595-.132-15.198-.269-22.795-.546-30.251-1.116-60.501-1.698-90.751-.471-24.457-.962-48.914-1.471-73.371-.072-3.472-.123-6.959-.488-10.408-1.873-17.727,2.497-34.682,6.227-51.725,2.548-11.64,5.086-23.283,7.5-34.951.496-2.397,1.41-3.293,4.008-3.375,11.057-.352,22.11-.909,33.151-1.592,2.873-.178,4.27.743,5.553,3.356,18.456,37.598,36.296,75.502,55.575,112.692,19.577,37.765,39.256,75.478,58.915,113.2.374.717.495,1.745,1.808,2.12Z"/>
    <path class="cls-12" d="M920.673,660.821c0-8.885.294-17.591-.079-26.268-.415-9.658-.268-19.309-.37-28.962-.128-12.235.011-24.473-.107-36.709-.279-28.829-1.898-57.616-2.811-86.425-.436-13.762-1.497-27.518-1.046-41.304.334-10.202.334-10.074,10.372-8.086,8.171,1.618,16.397,2.974,24.627,4.263,3.332.522,4.572,1.574,4.175,5.413-.858,8.304-.772,16.701-1.31,25.044-1.231,19.09,1.281,37.984,3.077,56.888,2.248,23.664,1.162,47.291.297,70.939-.41,11.193-.351,22.392-.871,33.589-.675,14.528-.641,29.088-1.06,43.629-.604,20.969-1.386,41.932-1.962,62.902-.074,2.696-.619,3.767-3.624,3.877-12.079.439-24.152,1.106-36.212,1.927-2.649.18-2.966-1.499-3.637-3.074-5.832-13.7-11.823-27.336-17.385-41.144-7.652-18.998-16.804-37.199-27.52-54.648-13.093-21.322-21.892-44.733-32.375-67.32-7.623-16.426-14.962-32.983-22.465-49.465-.434-.954-.55-2.865-1.882-2.424-1.675.554-3.825,1.118-4.314,3.339-.217.986-.076,2.052-.078,3.082-.041,21.51-.053,43.021-.124,64.531-.154,46.751-.349,93.502-.479,140.253-.007,2.526-.06,3.97-3.456,4.361-15.416,1.778-30.783,3.989-46.153,6.148-1.674.235-2.514.155-2.2-1.738,1.385-8.333.397-16.674.16-25.019-.215-7.595-.132-15.198-.269-22.795-.546-30.251-1.116-60.501-1.698-90.751-.471-24.457-.962-48.914-1.471-73.371-.072-3.472-.123-6.959-.488-10.408-1.873-17.727,2.497-34.682,6.227-51.725,2.548-11.64,5.086-23.283,7.5-34.951.496-2.397,1.41-3.293,4.008-3.375,11.057-.352,22.11-.909,33.151-1.592,2.873-.178,4.27.743,5.553,3.356,18.456,37.598,36.296,75.502,55.575,112.692,19.577,37.765,39.256,75.478,58.915,113.2.374.717.495,1.745,1.808,2.12Z"/>
  </g>
  <g>
    <path class="cls-28" d="M1525.87,428.352c19.348-.077,38.555,2.288,57.839,3.399,5.944.342,11.876.943,17.823,1.202,2.415.105,3.565.83,3.797,3.378,1.053,11.592,2.641,23.133,3.023,34.789.088,2.688-.285,3.839-3.473,4.114-21.482,1.85-42.937,4.02-64.406,6.023-4.874.455-9.772.915-14.657.892-3.266-.015-4.196.929-4.149,4.244.478,33.774.742,67.55,1.156,101.325.407,33.242.84,66.484,1.426,99.723.216,12.23-1.914,24.26-2.501,36.413-.158,3.268-2.735,2.809-4.613,3.064-9.303,1.264-18.628,2.369-27.947,3.521-9.363,1.157-18.655,1.543-27.975-.817-3.236-.819-4.249-2.217-4.303-5.296-.164-9.4-.514-18.797-.791-28.195-.539-18.266-1.606-36.536-1.493-54.798.169-27.406,1.089-54.809,1.837-82.209.474-17.339,1.207-34.671,1.846-52.005.219-5.953.306-11.922.833-17.85.329-3.692-.964-4.547-4.512-4.716-31.993-1.526-63.891-4.42-95.821-6.856-2.297-.175-2.949-.832-3.311-3.18-1.795-11.631.552-22.934,2.214-34.307.253-1.731,1.142-2.315,2.894-2.503,26.193-2.807,52.443-4.677,78.774-5.679,24.735-.942,49.447-2.456,74.173-3.647,4.097-.197,8.211-.028,12.317-.028Z"/>
    <path class="cls-25" d="M1553.921,428.352c19.348-.077,38.555,2.288,57.839,3.399,5.944.342,11.876.943,17.823,1.202,2.415.105,3.565.83,3.797,3.378,1.053,11.592,2.641,23.133,3.023,34.789.088,2.688-.285,3.839-3.473,4.114-21.482,1.85-42.937,4.02-64.406,6.023-4.874.455-9.772.915-14.657.892-3.266-.015-4.196.929-4.149,4.244.478,33.774.742,67.55,1.156,101.325.407,33.242.84,66.484,1.426,99.723.216,12.23-1.914,24.26-2.501,36.413-.158,3.268-2.735,2.809-4.613,3.064-9.303,1.264-18.628,2.369-27.947,3.521-9.363,1.157-18.655,1.543-27.975-.817-3.236-.819-4.249-2.217-4.303-5.296-.164-9.4-.514-18.797-.791-28.195-.539-18.266-1.606-36.536-1.493-54.798.169-27.406,1.089-54.809,1.837-82.209.474-17.339,1.207-34.671,1.846-52.005.219-5.953.306-11.922.833-17.85.329-3.692-.964-4.547-4.512-4.716-31.993-1.526-63.891-4.42-95.821-6.856-2.297-.175-2.949-.832-3.311-3.18-1.795-11.631.552-22.934,2.214-34.307.253-1.731,1.142-2.315,2.894-2.503,26.193-2.807,52.443-4.677,78.774-5.679,24.735-.942,49.447-2.456,74.173-3.647,4.097-.197,8.211-.028,12.317-.028Z"/>
  </g>
  <g>
    <path class="cls-18" d="M1370.748,508.873q-9.258-.472-9.837-9.234c-.581-8.445-1.277-16.883-1.797-25.332-.197-3.205-.926-4.409-4.696-3.581-19.246,4.227-38.547,8.215-57.89,11.975-3.936.765-5.334,2.568-5.927,6.269-3.256,20.342-6.729,40.648-10.082,60.974-2.819,17.086-4.74,34.377-8.653,51.207-2.626,11.293,1.104,20.866,4.036,30.917,3.929,13.472,8.162,26.855,12.145,40.311.683,2.307,1.503,3.122,4.159,2.921,16.884-1.278,33.785-2.344,50.689-3.337,2.203-.129,2.95-.738,3.33-2.956,1.9-11.083,4.127-22.11,6.01-33.196.43-2.533,1.43-2.981,3.733-2.783,17.912,1.535,35.829,3.005,53.753,4.38,2.295.176,3.097.826,2.768,3.196-1.599,11.525-3.057,23.069-4.61,34.601-.979,7.268-2.103,14.517-3.013,21.793-.223,1.779-.918,3.014-2.212,4.18-12.712,11.442-25.401,22.909-38.046,34.423-1.5,1.366-3.044,1.837-5.068,1.996-18.902,1.486-37.83,2.548-56.768,3.385-7.705.341-15.431.18-23.145.345-5.214.112-9.914-1.311-14.453-3.854-11.917-6.677-23.9-13.239-35.937-19.699-2.56-1.374-3.397-3.11-3.651-5.96-1.684-18.872-3.594-37.724-5.446-56.581-1.852-18.857-4.083-37.687-5.398-56.58-.485-6.971,1.083-14.102,1.873-21.142,1.214-10.81,2.614-21.6,3.849-32.408,2.055-17.976,4.013-35.964,6.086-53.938.353-3.06,2.18-5.638,3.392-8.402,7.509-17.14,15.049-34.263,23.64-50.908,1.891-3.664,4.518-4.964,8.384-5.189,16.185-.941,32.369-.788,48.562-.386,11.514.286,23.043.805,34.546.501,11.818-.312,22.668,2.874,33.46,7.077,8.591,3.346,17.333,6.31,26.053,9.313,2.576.887,4.132,2.195,5.017,4.972,6.104,19.153,12.358,38.26,18.703,57.335,1.141,3.429.081,4.155-3.183,4.077-14.042-.333-28.088-.469-42.132-.738-4.302-.082-8.601.601-12.244.056Z"/>
    <path class="cls-8" d="M1349.71,508.873q-9.258-.472-9.837-9.234c-.581-8.445-1.277-16.883-1.797-25.332-.197-3.205-.926-4.409-4.696-3.581-19.246,4.227-38.547,8.215-57.89,11.975-3.936.765-5.334,2.568-5.927,6.269-3.256,20.342-6.729,40.648-10.082,60.974-2.819,17.086-4.74,34.377-8.653,51.207-2.626,11.293,1.104,20.866,4.036,30.917,3.929,13.472,8.162,26.855,12.145,40.311.683,2.307,1.503,3.122,4.159,2.921,16.884-1.278,33.785-2.344,50.689-3.337,2.203-.129,2.95-.738,3.33-2.956,1.9-11.083,4.127-22.11,6.01-33.196.43-2.533,1.43-2.981,3.733-2.783,17.912,1.535,35.829,3.005,53.753,4.38,2.295.176,3.097.826,2.768,3.196-1.599,11.525-3.057,23.069-4.61,34.601-.979,7.268-2.103,14.517-3.013,21.793-.223,1.779-.918,3.014-2.212,4.18-12.712,11.442-25.401,22.909-38.046,34.423-1.5,1.366-3.044,1.837-5.068,1.996-18.902,1.486-37.83,2.548-56.768,3.385-7.705.341-15.431.18-23.145.345-5.214.112-9.914-1.311-14.453-3.854-11.917-6.677-23.9-13.239-35.937-19.699-2.56-1.374-3.397-3.11-3.651-5.96-1.684-18.872-3.594-37.724-5.446-56.581-1.852-18.857-4.083-37.687-5.398-56.58-.485-6.971,1.083-14.102,1.873-21.142,1.214-10.81,2.614-21.6,3.849-32.408,2.055-17.976,4.013-35.964,6.086-53.938.353-3.06,2.18-5.638,3.392-8.402,7.509-17.14,15.049-34.263,23.64-50.908,1.891-3.664,4.518-4.964,8.384-5.189,16.185-.941,32.369-.788,48.562-.386,11.514.286,23.043.805,34.546.501,11.818-.312,22.668,2.874,33.46,7.077,8.591,3.346,17.333,6.31,26.053,9.313,2.576.887,4.132,2.195,5.017,4.972,6.104,19.153,12.358,38.26,18.703,57.335,1.141,3.429.081,4.155-3.183,4.077-14.042-.333-28.088-.469-42.132-.738-4.302-.082-8.601.601-12.244.056Z"/>
  </g>
  <g>
    <path class="cls-7" d="M410.745,441.562c5.771,0,11.542.029,17.313-.016,1.888-.015,3.567.408,5.041,1.618,16.084,13.21,31.955,26.654,46.496,41.591,2.505,2.573,4.047,5.432,5.002,8.962,5.335,19.727,11.62,39.195,18.848,58.277,3.668,9.684,3.032,17.864-.747,27.263-11.151,27.738-21.459,55.811-32.886,83.452-3.832,9.269-9.685,16.356-17.65,22.138-10.435,7.575-21.159,14.631-32.442,20.918-6.74,3.756-13.38,2.5-20.098,1.216-24.962-4.772-49.655-10.71-74.145-17.503-3.584-.994-6.607-2.78-9.345-5.242-12.22-10.988-23.449-22.916-34.087-35.429-3.084-3.627-4.425-7.588-4.622-12.353-1.188-28.634.014-57.249.472-85.869.166-10.407.596-20.811.856-31.217.041-1.634.326-2.986,1.516-4.282,18.733-20.419,37.431-40.864,56.626-60.859,5.951-6.199,13.192-7.455,20.76-8.49,17.609-2.407,35.342-3.415,53.092-4.174ZM379.397,638.559c0-.314,0-.627,0-.941,9.501,0,19.002-.075,28.501.049,2.564.034,3.996-.723,5.197-3.134,10.413-20.905,20.965-41.741,31.529-62.57.875-1.725,1.064-3.197.341-5.072-6.492-16.839-12.917-33.704-19.247-50.605-.651-1.737-1.576-2.081-3.206-2.197-17.368-1.233-34.732-2.514-52.091-3.861-1.96-.152-3.359.265-4.753,1.747-7.36,7.824-14.801,15.572-22.292,23.271-1.321,1.357-2.134,2.835-2.608,4.619-3.681,13.847-7.337,27.702-11.141,41.515-.667,2.421-.612,4.563.231,6.895,5.753,15.911,11.474,31.835,17.075,47.799.757,2.158,1.891,2.557,3.965,2.533,9.498-.113,18.999-.05,28.498-.05Z"/>
    <path class="cls-1" d="M429.535,441.562c5.771,0,11.542.029,17.313-.016,1.888-.015,3.567.408,5.041,1.618,16.084,13.21,31.955,26.654,46.496,41.591,2.505,2.573,4.047,5.432,5.002,8.962,5.335,19.727,11.62,39.195,18.848,58.277,3.668,9.684,3.032,17.864-.747,27.263-11.151,27.738-21.459,55.811-32.886,83.452-3.832,9.269-9.685,16.356-17.65,22.138-10.435,7.575-21.159,14.631-32.442,20.918-6.74,3.756-13.38,2.5-20.098,1.216-24.962-4.772-49.655-10.71-74.145-17.503-3.584-.994-6.607-2.78-9.345-5.242-12.22-10.988-23.449-22.916-34.087-35.429-3.084-3.627-4.425-7.588-4.622-12.353-1.188-28.634.014-57.249.472-85.869.166-10.407.596-20.811.856-31.217.041-1.634.326-2.986,1.516-4.282,18.733-20.419,37.431-40.864,56.626-60.859,5.951-6.199,13.192-7.455,20.76-8.49,17.609-2.407,35.342-3.415,53.092-4.174ZM398.187,638.559c0-.314,0-.627,0-.941,9.501,0,19.002-.075,28.501.049,2.564.034,3.996-.723,5.197-3.134,10.413-20.905,20.965-41.741,31.529-62.57.875-1.725,1.064-3.197.341-5.072-6.492-16.839-12.917-33.704-19.247-50.605-.651-1.737-1.576-2.081-3.206-2.197-17.368-1.233-34.732-2.514-52.091-3.861-1.96-.152-3.359.265-4.753,1.747-7.36,7.824-14.801,15.572-22.292,23.271-1.321,1.357-2.134,2.835-2.608,4.619-3.681,13.847-7.337,27.702-11.141,41.515-.667,2.421-.612,4.563.231,6.895,5.753,15.911,11.474,31.835,17.075,47.799.757,2.158,1.891,2.557,3.965,2.533,9.498-.113,18.999-.05,28.498-.05Z"/>
  </g>
  <g>
    <path class="cls-22" d="M569.731,556.565c-.377,6.594-.745,12.121-1.001,17.653-1.255,27.066-2.509,54.132-3.698,81.2-.381,8.675,1.746,17.084,3.118,25.558,2.89,17.841,5.868,35.669,8.967,53.475.416,2.388.154,3.124-2.381,2.95-13.638-.939-27.283-1.769-40.927-2.622-6.696-.419-13.391-.855-20.091-1.175-1.775-.085-2.834-.29-2.662-2.522.768-9.989.361-20.005.532-30.009.824-48.265.516-96.539,1.039-144.805.439-40.541.335-81.082.452-121.622.009-3.025.816-3.838,3.795-3.751,21.016.619,42.035,1.134,63.056,1.518,2.786.051,3.285,1.82,4.079,3.644,11.312,25.971,22.615,51.947,33.926,77.918,17.271,39.655,34.546,79.309,51.821,118.962.285.653.596,1.295,1.14,2.471,0-10.728.015-20.78-.011-30.832-.006-2.405-.192-4.808-.216-7.213-.37-36.738-.707-73.476-1.098-110.214-.12-11.272-.309-22.545-.623-33.813-.072-2.603.502-4.032,3.19-5.03,5.922-2.197,11.749-4.697,17.452-7.416,4.426-2.109,8.909-2.432,13.661-1.989,3.649.341,7.346.448,11.007.301,2.847-.115,3.284,1.075,3.192,3.584-.991,26.955-1.924,53.912-2.787,80.871-.895,27.975-1.679,55.953-2.544,83.928-.728,23.544-1.481,47.087-2.259,70.629-.673,20.377-1.452,40.751-2.03,61.13-.072,2.544-.91,3.189-3.265,3.303-15.049.734-30.088,1.634-45.167.87-8.438-.427-9.064-.744-11.723-8.856-12.168-37.118-23.39-74.533-34.953-111.841-1.89-6.098-6.059-10.766-9.416-15.923-10.428-16.021-21.076-31.899-31.647-47.826-.405-.611-.893-1.167-1.928-2.509Z"/>
    <path class="cls-21" d="M590.769,556.565c-.377,6.594-.745,12.121-1.001,17.653-1.255,27.066-2.509,54.132-3.698,81.2-.381,8.675,1.746,17.084,3.118,25.558,2.89,17.841,5.868,35.669,8.967,53.475.416,2.388.154,3.124-2.381,2.95-13.638-.939-27.283-1.769-40.927-2.622-6.696-.419-13.391-.855-20.091-1.175-1.775-.085-2.834-.29-2.662-2.522.768-9.989.361-20.005.532-30.009.824-48.265.516-96.539,1.039-144.805.439-40.541.335-81.082.452-121.622.009-3.025.816-3.838,3.795-3.751,21.016.619,42.035,1.134,63.056,1.518,2.786.051,3.285,1.82,4.079,3.644,11.312,25.971,22.615,51.947,33.926,77.918,17.271,39.655,34.546,79.309,51.821,118.962.285.653.596,1.295,1.14,2.471,0-10.728.015-20.78-.011-30.832-.006-2.405-.192-4.808-.216-7.213-.37-36.738-.707-73.476-1.098-110.214-.12-11.272-.309-22.545-.623-33.813-.072-2.603.502-4.032,3.19-5.03,5.922-2.197,11.749-4.697,17.452-7.416,4.426-2.109,8.909-2.432,13.661-1.989,3.649.341,7.346.448,11.007.301,2.847-.115,3.284,1.075,3.192,3.584-.991,26.955-1.924,53.912-2.787,80.871-.895,27.975-1.679,55.953-2.544,83.928-.728,23.544-1.481,47.087-2.259,70.629-.673,20.377-1.452,40.751-2.03,61.13-.072,2.544-.91,3.189-3.265,3.303-15.049.734-30.088,1.634-45.167.87-8.438-.427-9.064-.744-11.723-8.856-12.168-37.118-23.39-74.533-34.953-111.841-1.89-6.098-6.059-10.766-9.416-15.923-10.428-16.021-21.076-31.899-31.647-47.826-.405-.611-.893-1.167-1.928-2.509Z"/>
  </g>
  <g>
    <path class="cls-11" d="M1145.819,472.424c-4.333-3.069-8.304-5.832-12.214-8.677-1.307-.951-2.646-1.13-4.206-.985-13.586,1.26-27.165,2.61-40.768,3.651-15.825,1.211-31.648,2.416-47.455,3.866-11.472,1.052-22.985,1.651-34.481,2.434-1.781.121-2.922.564-3.202,2.745-.613,4.785-1.287,9.601-2.482,14.264-1.57,6.128.435,11.77,1.688,17.515,1.951,8.942,4.158,17.827,6.211,26.747,2.387,10.369,4.748,20.743,7.06,31.129.396,1.78,1.529,1.632,2.819,1.474,5.049-.62,10.122-.957,15.187-1.39,12.986-1.109,25.931-2.704,38.898-4.046,2.707-.28,5.438-.384,8.161-.448,13.026-.308,24.831-5.393,36.877-9.478,2.161-.733,2.862-.778,3.485,1.712,1.789,7.148,2.254,14.473,3.374,21.706.513,3.316.88,6.655,1.406,9.969.991,6.237.988,6.063-5.135,7.162-16.371,2.939-32.833,5.296-49.243,7.973-15.063,2.457-30.085,5.174-45.214,7.198-2.923.391-3.678,1.333-3.207,4.258,3.357,20.833,6.355,41.726,9.924,62.522,1.113,6.484,2.197,12.97,3.038,19.487.354,2.738,1.277,3.331,4.037,3.123,17.111-1.288,34.041-4.05,51.07-5.984,11.349-1.288,22.682-2.862,34.068-3.63,10.669-.72,20.083-5.073,29.755-8.805,10.498-4.051,20.995-8.11,31.404-12.38,3.122-1.281,3.977-.248,4.31,2.649,1.685,14.681,3.419,29.357,5.214,44.025.239,1.95-.079,3.065-2.26,3.309-1.462.163-2.865.821-4.326,1.037-18.061,2.667-36.168,5.05-54.181,8.005-15.571,2.554-31.276,4.212-46.799,6.947-12.493,2.201-25.15,3.183-37.581,5.576-13.195,2.54-26.587,3.603-39.793,5.925-5.377.945-10.762,1.816-16.147,2.705-2.278.376-3.299-.333-3.313-2.595,0-.123-.032-.246-.05-.369-2.394-16.217-4.754-32.439-7.191-48.649-3.618-24.063-6.999-48.168-11.072-72.155-1.852-10.907-2.637-21.983-4.989-32.763-3.141-14.395-3.507-29.071-5.219-43.598-1.915-16.257-3.306-32.588-4.945-48.886-1.599-15.895-3.082-31.814-3.345-47.814-.091-5.547-.174-5.299,5.079-6.357,10.797-2.175,21.532-4.656,32.299-6.982,6.779-1.465,13.572-2.86,20.352-4.316,11.133-2.391,22.261-4.81,33.392-7.209,7.442-1.604,15.072-1.474,22.598-2.027,6.035-.443,12.085-1.075,18.153-1.365,12.503-.598,24.961-2.076,37.448-3.065,3.951-.313,7.964-.039,11.855-.9,2.868-.634,3.547.554,3.915,3.186,2.371,16.982,3.908,34.055,5.84,51.085.038.337-.043.687-.103,1.491Z"/>
    <path class="cls-9" d="M1166.682,469.714c-4.333-3.069-8.304-5.832-12.214-8.677-1.307-.951-2.646-1.13-4.206-.985-13.586,1.26-27.165,2.61-40.768,3.651-15.825,1.211-31.648,2.416-47.455,3.866-11.472,1.052-22.985,1.651-34.481,2.434-1.781.121-2.922.564-3.202,2.745-.613,4.785-1.287,9.601-2.482,14.264-1.57,6.128.435,11.77,1.688,17.515,1.951,8.942,4.158,17.827,6.211,26.747,2.387,10.369,4.748,20.743,7.06,31.129.396,1.78,1.529,1.632,2.819,1.474,5.049-.62,10.122-.957,15.187-1.39,12.986-1.109,25.931-2.704,38.898-4.046,2.707-.28,5.438-.384,8.161-.448,13.026-.308,24.831-5.393,36.877-9.478,2.161-.733,2.862-.778,3.485,1.712,1.789,7.148,2.254,14.473,3.374,21.706.513,3.316.88,6.655,1.406,9.969.991,6.237.988,6.063-5.135,7.162-16.371,2.939-32.833,5.296-49.243,7.973-15.063,2.457-30.085,5.174-45.214,7.198-2.923.391-3.678,1.333-3.207,4.258,3.357,20.833,6.355,41.726,9.924,62.522,1.113,6.484,2.197,12.97,3.038,19.487.354,2.738,1.277,3.331,4.037,3.123,17.111-1.288,34.041-4.05,51.07-5.984,11.349-1.288,22.682-2.862,34.068-3.63,10.669-.72,20.083-5.073,29.755-8.805,10.498-4.051,20.995-8.11,31.404-12.38,3.122-1.281,3.977-.248,4.31,2.649,1.685,14.681,3.419,29.357,5.214,44.025.239,1.95-.079,3.065-2.26,3.309-1.462.163-2.865.821-4.326,1.037-18.061,2.667-36.168,5.05-54.181,8.005-15.571,2.554-31.276,4.212-46.799,6.947-12.493,2.201-25.15,3.183-37.581,5.576-13.195,2.54-26.587,3.603-39.793,5.925-5.377.945-10.762,1.816-16.147,2.705-2.278.376-3.299-.333-3.313-2.595,0-.123-.032-.246-.05-.369-2.394-16.217-4.754-32.439-7.191-48.649-3.618-24.063-6.999-48.168-11.072-72.155-1.852-10.907-2.637-21.983-4.989-32.763-3.141-14.395-3.507-29.071-5.219-43.598-1.915-16.257-3.306-32.588-4.945-48.886-1.599-15.895-3.082-31.814-3.345-47.814-.091-5.547-.174-5.299,5.079-6.357,10.797-2.175,21.532-4.656,32.299-6.982,6.779-1.465,13.572-2.86,20.352-4.316,11.133-2.391,22.261-4.81,33.392-7.209,7.442-1.604,15.072-1.474,22.598-2.027,6.035-.443,12.085-1.075,18.153-1.365,12.503-.598,24.961-2.076,37.448-3.065,3.951-.313,7.964-.039,11.855-.9,2.868-.634,3.547.554,3.915,3.186,2.371,16.982,3.908,34.055,5.84,51.085.038.337-.043.687-.103,1.491Z"/>
  </g>
  <g>
    <path class="cls-24" d="M20.429,577.414c1.382-6.444,2.874-13.591,4.452-20.718,5.341-24.133,10.725-48.256,16.049-72.392.379-1.717,1.183-3.046,2.382-4.289,12.781-13.253,25.546-26.523,38.273-39.828,1.402-1.465,2.852-2.128,4.954-2.381,15.275-1.841,30.517-3.96,45.782-5.888,13.359-1.688,26.737-3.231,40.104-4.859,6.362-.775,12.777-1.297,19.054-2.519,3.442-.67,6.36.466,9.381,1.222,14.665,3.666,29.269,7.569,43.918,11.297,1.844.469,3.229,1.119,4.32,2.801,9.102,14.024,18.251,28.018,27.496,41.948,1.375,2.071,1.672,3.14-.743,4.773-14.276,9.652-28.443,19.467-42.569,29.337-1.979,1.382-2.863,1.074-4.185-.809-6.652-9.47-13.447-18.84-20.21-28.232-.825-1.146-1.667-2.308-2.666-3.294-2.745-2.71-5.339-3.967-9.78-2.514-29.483,9.647-59.107,18.862-88.718,28.111-2.57.803-3.653,2.167-4.186,4.724-6.002,28.838-12.107,57.655-18.18,86.479-1.717,8.146-3.325,16.317-5.205,24.425-.419,1.808-.265,3.147.636,4.683,9.04,15.413,18.049,30.845,27.014,46.302,1.255,2.163,2.552,3.584,5.434,3.135,8.287-1.29,16.689-.711,25.036-1.192,17.337-1,34.715-1.253,52.076-1.853,4.112-.142,8.217-.513,12.329-.628,1.558-.043,2.669-.879,3.862-1.577,14.639-8.58,29.29-17.139,43.848-25.855,2.293-1.373,3.684-1.508,5.449.723,11.491,14.525,23.039,29.007,34.69,43.404,2.041,2.521,2.395,3.827-.578,6.168-14.349,11.299-28.632,22.7-42.515,34.561-4.947,4.227-10.553,3.586-15.974,4.265-14.257,1.784-28.572,3.111-42.869,4.563-11.237,1.142-22.487,2.158-33.723,3.306-13.659,1.394-27.308,2.876-40.964,4.303-7.656.8-15.318,1.548-22.972,2.364-1.395.149-2.113-.748-2.92-1.555-19.484-19.492-38.962-38.991-58.447-58.482-.929-.929-1.651-1.877-1.74-3.302-.748-11.925-1.525-23.848-2.344-35.768-.934-13.589-1.954-27.171-2.875-40.761-.756-11.157-1.423-22.32-2.175-34.195Z"/>
    <path class="cls-26" d="M30.948,577.414c1.382-6.444,2.874-13.591,4.452-20.718,5.341-24.133,10.725-48.256,16.049-72.392.379-1.717,1.183-3.046,2.382-4.289,12.781-13.253,25.546-26.523,38.273-39.828,1.402-1.465,2.852-2.128,4.954-2.381,15.275-1.841,30.517-3.96,45.782-5.888,13.359-1.688,26.737-3.231,40.104-4.859,6.362-.775,12.777-1.297,19.054-2.519,3.442-.67,6.36.466,9.381,1.222,14.665,3.666,29.269,7.569,43.918,11.297,1.844.469,3.229,1.119,4.32,2.801,9.102,14.024,18.251,28.018,27.496,41.948,1.375,2.071,1.672,3.14-.743,4.773-14.276,9.652-28.443,19.467-42.569,29.337-1.979,1.382-2.863,1.074-4.185-.809-6.652-9.47-13.447-18.84-20.21-28.232-.825-1.146-1.667-2.308-2.666-3.294-2.745-2.71-5.339-3.967-9.78-2.514-29.483,9.647-59.107,18.862-88.718,28.111-2.57.803-3.653,2.167-4.186,4.724-6.002,28.838-12.107,57.655-18.18,86.479-1.717,8.146-3.325,16.317-5.205,24.425-.419,1.808-.265,3.147.636,4.683,9.04,15.413,18.049,30.845,27.014,46.302,1.255,2.163,2.552,3.584,5.434,3.135,8.287-1.29,16.689-.711,25.036-1.192,17.337-1,34.715-1.253,52.076-1.853,4.112-.142,8.217-.513,12.329-.628,1.558-.043,2.669-.879,3.862-1.577,14.639-8.58,29.29-17.139,43.848-25.855,2.293-1.373,3.684-1.508,5.449.723,11.491,14.525,23.039,29.007,34.69,43.404,2.041,2.521,2.395,3.827-.578,6.168-14.349,11.299-28.632,22.7-42.515,34.561-4.947,4.227-10.553,3.586-15.974,4.265-14.257,1.784-28.572,3.111-42.869,4.563-11.237,1.142-22.487,2.158-33.723,3.306-13.659,1.394-27.308,2.876-40.964,4.303-7.656.8-15.318,1.548-22.972,2.364-1.395.149-2.113-.748-2.92-1.555-19.484-19.492-38.962-38.991-58.447-58.482-.929-.929-1.651-1.877-1.74-3.302-.748-11.925-1.525-23.848-2.344-35.768-.934-13.589-1.954-27.171-2.875-40.761-.756-11.157-1.423-22.32-2.175-34.195Z"/>
    <path class="cls-5" d="M51.986,577.414c1.382-6.444,2.874-13.591,4.452-20.718,5.341-24.133,10.725-48.256,16.049-72.392.379-1.717,1.183-3.046,2.382-4.289,12.781-13.253,25.546-26.523,38.273-39.828,1.402-1.465,2.852-2.128,4.954-2.381,15.275-1.841,30.517-3.96,45.782-5.888,13.359-1.688,26.737-3.231,40.104-4.859,6.362-.775,12.777-1.297,19.054-2.519,3.442-.67,6.36.466,9.381,1.222,14.665,3.666,29.269,7.569,43.918,11.297,1.844.469,3.229,1.119,4.32,2.801,9.102,14.024,18.251,28.018,27.496,41.948,1.375,2.071,1.672,3.14-.743,4.773-14.276,9.652-28.443,19.467-42.569,29.337-1.979,1.382-2.863,1.074-4.185-.809-6.652-9.47-13.447-18.84-20.21-28.232-.825-1.146-1.667-2.308-2.666-3.294-2.745-2.71-5.339-3.967-9.78-2.514-29.483,9.647-59.107,18.862-88.718,28.111-2.57.803-3.653,2.167-4.186,4.724-6.002,28.838-12.107,57.655-18.18,86.479-1.717,8.146-3.325,16.317-5.205,24.425-.419,1.808-.265,3.147.636,4.683,9.04,15.413,18.049,30.845,27.014,46.302,1.255,2.163,2.552,3.584,5.434,3.135,8.287-1.29,16.689-.711,25.036-1.192,17.337-1,34.715-1.253,52.076-1.853,4.112-.142,8.217-.513,12.329-.628,1.558-.043,2.669-.879,3.862-1.577,14.639-8.58,29.29-17.139,43.848-25.855,2.293-1.373,3.684-1.508,5.449.723,11.491,14.525,23.039,29.007,34.69,43.404,2.041,2.521,2.395,3.827-.578,6.168-14.349,11.299-28.632,22.7-42.515,34.561-4.947,4.227-10.553,3.586-15.974,4.265-14.257,1.784-28.572,3.111-42.869,4.563-11.237,1.142-22.487,2.158-33.723,3.306-13.659,1.394-27.308,2.876-40.964,4.303-7.656.8-15.318,1.548-22.972,2.364-1.395.149-2.113-.748-2.92-1.555-19.484-19.492-38.962-38.991-58.447-58.482-.929-.929-1.651-1.877-1.74-3.302-.748-11.925-1.525-23.848-2.344-35.768-.934-13.589-1.954-27.171-2.875-40.761-.756-11.157-1.423-22.32-2.175-34.195Z"/>
  </g>
  <path class="cls-10" d="M1057.783,16.546l111.052-1.948c18.968-.333,34.872,14.252,36.179,33.177l7.308,105.794-48.211,39.983,87.659,140.015-120.54,15.424-63.969-75.184-15.64,75.184h-60.717l9.939-276.543c1.107-30.805,26.119-55.361,56.939-55.902Z"/>
  <g>
    <path class="cls-2" d="M632.297,77.302c-4.322-.276-8.653-.471-12.866-1.616-.002-13.027.074-26.054-.065-39.079-.03-2.855.85-3.687,3.67-3.639,9.356.157,18.717.078,28.075.037,1.343-.006,2.801.459,4.005-.597,26.223-.062,52.447-.273,78.669-.114,10.699.065,21.397.885,32.09,1.448,7.787.41,15.561,1.084,23.351,1.389,2.799.11,2.356,1.681,2.012,3.264-2.292,10.558-4.654,21.101-6.978,31.652-.917,4.164-2.116,8.301-2.597,12.517-.423,3.709-2.234,4.323-5.348,3.717-8.476-1.648-16.957-3.266-25.444-4.858-5.893-1.105-11.797-2.149-18.234-3.317.529,8.671.968,17.18,1.593,25.674.416,5.659.22,11.322.703,16.999.963,11.317,1.206,22.696,1.77,34.048.529,10.65-.87,21.225-1.221,31.841-.196,5.917-.623,11.829-1.068,17.735-.889,11.791-1.337,23.609-2.163,35.406-.438,6.26-.547,12.588-.851,18.883-.213,4.403-.876,8.824-.654,13.202.562,11.075,1.493,22.132,2.31,33.193.622,8.43,1.263,16.86,1.968,25.284.177,2.115-.138,3.253-2.724,3.192-9.244-.216-18.492-.221-27.739-.306-5.388-1.326-10.848-.397-16.274-.516-8.435.018-16.87.037-25.306.055-4.64-.032-9.3-.678-13.901.458-5.223.213-5.325.198-4.564-4.837,3.675-24.315,7.447-48.616,11.111-72.932,3.407-22.611,6.704-45.238,10.085-67.852,2.204-14.742,4.599-29.456,6.658-44.218,1.094-7.844,1.366-15.779,1.782-23.695.5-9.529,1.237-19.049,2.064-28.556.36-4.139-.384-8.322.727-12.431.414-1.532-.951-1.465-1.956-1.462-2.533.007-5.065.046-7.598.072-11.697-.014-23.395-.028-35.092-.042Z"/>
    <path class="cls-6" d="M653.336,77.302c-4.322-.276-8.653-.471-12.866-1.616-.002-13.027.074-26.054-.065-39.079-.03-2.855.85-3.687,3.67-3.639,9.356.157,18.717.078,28.075.037,1.343-.006,2.801.459,4.005-.597,26.223-.062,52.447-.273,78.669-.114,10.699.065,21.397.885,32.09,1.448,7.787.41,15.561,1.084,23.351,1.389,2.799.11,2.356,1.681,2.012,3.264-2.292,10.558-4.654,21.101-6.978,31.652-.917,4.164-2.116,8.301-2.597,12.517-.423,3.709-2.234,4.323-5.348,3.717-8.476-1.648-16.957-3.266-25.444-4.858-5.893-1.105-11.797-2.149-18.234-3.317.529,8.671.968,17.18,1.593,25.674.416,5.659.22,11.322.703,16.999.963,11.317,1.206,22.696,1.77,34.048.529,10.65-.87,21.225-1.221,31.841-.196,5.917-.623,11.829-1.068,17.735-.889,11.791-1.337,23.609-2.163,35.406-.438,6.26-.547,12.588-.851,18.883-.213,4.403-.876,8.824-.654,13.202.562,11.075,1.493,22.132,2.31,33.193.622,8.43,1.263,16.86,1.968,25.284.177,2.115-.138,3.253-2.724,3.192-9.244-.216-18.492-.221-27.739-.306-5.388-1.326-10.848-.397-16.274-.516-8.435.018-16.87.037-25.306.055-4.64-.032-9.3-.678-13.901.458-5.223.213-5.325.198-4.564-4.837,3.675-24.315,7.447-48.616,11.111-72.932,3.407-22.611,6.704-45.238,10.085-67.852,2.204-14.742,4.599-29.456,6.658-44.218,1.094-7.844,1.366-15.779,1.782-23.695.5-9.529,1.237-19.049,2.064-28.556.36-4.139-.384-8.322.727-12.431.414-1.532-.951-1.465-1.956-1.462-2.533.007-5.065.046-7.598.072-11.697-.014-23.395-.028-35.092-.042Z"/>
  </g>
  <g>
    <path class="cls-26" d="M454.799,223.535c0-20.688-.306-41.382.085-62.063.399-21.071.518-42.138.268-63.204-.207-17.459-.808-34.915-1.413-52.366-.123-3.539.701-4.534,4.289-3.515,7.927,2.251,16.113.908,24.18,1.224,9.645.378,19.302.513,28.955.568,2.464.014,3.027.886,2.935,3.16-1.009,25.009-1.943,50.021-2.896,75.032-.293,7.697-.449,15.397-.784,23.096-.824,18.984-.654,38.025-1.967,56.969-1.219,17.586,1.61,34.762,3.182,52.089,1.076,11.862,2.27,23.714,3.222,35.586.498,6.204.862,6.747,7.123,7.061,21.32,1.069,42.641,2.106,63.956,3.25,11.168.6,22.326,1.372,33.485,2.12,5.452.365,10.544-.134,15.641-2.742,9.248-4.733,18.863-8.749,28.282-13.156,2.189-1.024,3.089-1.077,3.068,1.823-.111,14.905-.076,29.812-.021,44.718.007,1.93-.528,2.872-2.51,3.599-8.136,2.987-16.332,4.535-25.138,4.675-27.553.437-55.122-.025-82.655.85-23.452.746-46.808-1.067-70.215-1.329-8.733-.098-17.494-.389-26.241-.62-2.57-.068-3.585-.788-3.611-3.545-.109-11.814-.272-23.633-.737-35.437-1.023-25.944-.648-51.895-.484-77.844Z"/>
    <path class="cls-19" d="M479.344,223.535c0-20.688-.306-41.382.085-62.063.399-21.071.518-42.138.268-63.204-.207-17.459-.808-34.915-1.413-52.366-.123-3.539.701-4.534,4.289-3.515,7.927,2.251,16.113.908,24.18,1.224,9.645.378,19.302.513,28.955.568,2.464.014,3.027.886,2.935,3.16-1.009,25.009-1.943,50.021-2.896,75.032-.293,7.697-.449,15.397-.784,23.096-.824,18.984-.654,38.025-1.967,56.969-1.219,17.586,1.61,34.762,3.182,52.089,1.076,11.862,2.27,23.714,3.222,35.586.498,6.204.862,6.747,7.123,7.061,21.32,1.069,42.641,2.106,63.956,3.25,11.168.6,22.326,1.372,33.485,2.12,5.452.365,10.544-.134,15.641-2.742,9.248-4.733,18.863-8.749,28.282-13.156,2.189-1.024,3.089-1.077,3.068,1.823-.111,14.905-.076,29.812-.021,44.718.007,1.93-.528,2.872-2.51,3.599-8.136,2.987-16.332,4.535-25.138,4.675-27.553.437-55.122-.025-82.655.85-23.452.746-46.808-1.067-70.215-1.329-8.733-.098-17.494-.389-26.241-.62-2.57-.068-3.585-.788-3.611-3.545-.109-11.814-.272-23.633-.737-35.437-1.023-25.944-.648-51.895-.484-77.844Z"/>
  </g>
  <path class="cls-17" d="M796.39,85.26c.001-13.008.076-26.017-.061-39.023-.028-2.644.822-3.725,3.319-4.632,7.115-2.585,14.406-3.66,21.919-3.661,9.659-.001,19.319.016,28.977-.092,2.225-.025,3.029.53,3.231,2.962,2.2,26.476,1.678,52.999,1.179,79.499-.226,11.966-.299,23.934-.504,35.9-.484,28.307-1.693,56.594-1.85,84.916-.082,14.791-.174,29.599-.529,44.395-.05,2.1.502,3.208,2.654,3.924,14.361,4.776,28.327,10.832,43.446,13.108,3.86.581,7.329,2.381,10.832,3.952,2.4,1.076,4.169.775,6.349-.682,10.603-7.089,18.966-16.508,27.285-25.956,1.746-1.983,2.807-4.594,4.067-6.976,4.511-8.528,8.912-17.115,13.494-25.605,1.208-2.238,1.654-4.467,1.729-6.97.487-16.072,1.057-32.141,1.663-48.209.669-17.731,1.755-35.455,1.999-53.191.187-13.614-1.581-27.178-2.722-40.747-.65-7.733-.066-15.418.746-23.103,1.012-9.575,2.052-19.149,2.928-28.737.462-5.055.397-5.168,5.359-5.185,9.902-.034,19.802-.369,29.696.637,3.123.318,4.158,1.5,4.312,4.531.992,19.514,1.746,39.052,3.318,58.522,2.139,26.495,1.411,53.005,1.058,79.501-.197,14.799-.5,29.603-.399,44.4.085,12.543-2.392,24.781-3.475,37.178-1.307,14.968-9.363,27.619-14.025,41.431-2.75,8.149-6.352,16.006-9.383,24.065-.901,2.397-2.089,3.639-4.719,4.306-15.55,3.945-30.985,8.354-46.564,12.178-7.032,1.726-14.311,1.203-21.436-.117-30.147-5.586-60.276-11.275-90.44-16.764-2.626-.478-3.666-1.629-4.428-3.948-4.891-14.899-9.896-29.76-14.858-44.635-.53-1.59-.859-3.196-.884-4.905-.297-20.079-.446-40.163-1.025-60.234-.842-29.207-1.184-58.418-1.678-87.63-.25-14.801-.121-29.604-.578-44.401Z"/>
  <g>
    <path class="cls-20" d="M1414.534,323.837c-3.329,1.332-4.456-.955-5.488-4.342-6.814-22.372-13.872-44.67-20.674-67.046-.77-2.533-1.738-3.386-4.371-3.432-21.91-.386-43.818-.926-65.727-1.417-1.394-.031-2.872.251-4.167-.117-6.51-1.848-9.217,1.8-12.029,6.969-12.64,23.233-25.696,46.239-38.527,69.369-1.095,1.974-2.213,2.974-4.649,2.955-14.952-.119-29.906-.115-44.858-.011-2.821.02-3.335-.678-2.741-3.492,6.742-31.901,13.36-63.829,19.962-95.759,10.211-49.38,20.384-98.768,30.572-148.152,2.298-11.139,4.523-22.294,6.952-33.405.503-2.301,1.61-4.514,2.696-6.635,4.384-8.559,8.926-17.037,13.277-25.612,1.115-2.199,2.511-3.042,5.014-3.095,23.809-.5,47.616-1.11,71.422-1.738,14.686-.387,29.373-.803,44.054-1.344,2.84-.105,3.808.634,4.217,3.657,3.013,22.301,6.283,44.568,9.495,66.842,3.086,21.398,6.048,42.816,9.34,64.182,3.714,24.113,7.709,48.182,11.629,72.263,3.96,24.329,7.976,48.648,11.969,72.972,1.659,10.103,3.285,20.212,5.022,30.301.311,1.804.337,2.799-1.949,2.963-13.253.953-26.497,2.032-40.441,3.122ZM1354.17,50.966c-5.164.241-10.477.401-15.772.801-1.264.095-3.007.637-3.615,1.57-4.604,7.062-10.906,13.735-13.085,21.533-8.42,30.142-15.509,60.656-23.046,91.043-.218.878-.232,2.515.203,2.737,4.394,2.249,7.947,6.397,13.582,5.92,6.677-.565,13.374-.903,20.059-1.38,11.858-.846,23.744-1.431,35.56-2.673,10.828-1.138,11.006-1.493,9.122-12.406-5.974-34.597-12.132-69.163-18.181-103.747-.484-2.769-1.498-4.516-4.827-3.397Z"/>
    <path class="cls-16" d="M1435.572,323.837c-3.329,1.332-4.456-.955-5.488-4.342-6.814-22.372-13.872-44.67-20.674-67.046-.77-2.533-1.738-3.386-4.371-3.432-21.91-.386-43.818-.926-65.727-1.417-1.394-.031-2.872.251-4.167-.117-6.51-1.848-9.217,1.8-12.029,6.969-12.64,23.233-25.696,46.239-38.527,69.369-1.095,1.974-2.213,2.974-4.649,2.955-14.952-.119-29.906-.115-44.858-.011-2.821.02-3.335-.678-2.741-3.492,6.742-31.901,13.36-63.829,19.962-95.759,10.211-49.38,20.384-98.768,30.572-148.152,2.298-11.139,4.523-22.294,6.952-33.405.503-2.301,1.61-4.514,2.696-6.635,4.384-8.559,8.926-17.037,13.277-25.612,1.115-2.199,2.511-3.042,5.014-3.095,23.809-.5,47.616-1.11,71.422-1.738,14.686-.387,29.373-.803,44.054-1.344,2.84-.105,3.808.634,4.217,3.657,3.013,22.301,6.283,44.568,9.495,66.842,3.086,21.398,6.048,42.816,9.34,64.182,3.714,24.113,7.709,48.182,11.629,72.263,3.96,24.329,7.976,48.648,11.969,72.972,1.659,10.103,3.285,20.212,5.022,30.301.311,1.804.337,2.799-1.949,2.963-13.253.953-26.497,2.032-40.441,3.122ZM1375.208,50.966c-5.164.241-10.477.401-15.772.801-1.264.095-3.007.637-3.615,1.57-4.604,7.062-10.906,13.735-13.085,21.533-8.42,30.142-15.509,60.656-23.046,91.043-.218.878-.232,2.515.203,2.737,4.394,2.249,7.947,6.397,13.582,5.92,6.677-.565,13.374-.903,20.059-1.38,11.858-.846,23.744-1.431,35.56-2.673,10.828-1.138,11.006-1.493,9.122-12.406-5.974-34.597-12.132-69.163-18.181-103.747-.484-2.769-1.498-4.516-4.827-3.397Z"/>
  </g>
  <path class="cls-4" d="M1471.056,234.904c0-27.497-.092-54.995.046-82.492.054-10.865-2.559-21.32-4.262-31.909-5.323-33.091-10.852-66.149-16.31-99.218-.721-4.366-1.458-8.73-2.254-13.083-.38-2.08.222-2.845,2.481-2.942,21.259-.913,42.513-1.944,63.768-2.943,5.061-.238,10.133-.349,15.178-.781,2.908-.249,3.601.78,3.628,3.578.21,21.794.569,43.586.905,65.378.578,37.502,1.062,75.007,1.801,112.506.485,24.572,1.335,49.136,2.06,73.703.112,3.796.557,7.585.609,11.38.029,2.09.899,2.513,2.768,2.473,23.181-.5,46.363-.975,69.546-1.352,2.519-.041,2.521-1.353,2.438-3.149-.32-6.959-.501-13.927-.932-20.879-.174-2.811.45-3.941,3.603-4.02,11.394-.285,22.781-.884,34.166-1.454,2.196-.11,3.393.045,3.498,2.848.893,23.923,1.908,47.841,3.036,71.754.149,3.166-.81,4.148-3.927,4.24-12.28.363-24.585.578-36.82,1.587-10.573.871-21.068,2.712-31.59,4.179-17.039,2.375-34.032,5.165-51.125,7.044-8.788.966-17.663-1.033-26.504-1.603-10.989-.708-21.944-1.942-32.933-2.627-3.043-.19-3.712-1.148-3.702-4.015.098-29.4.06-58.801.06-88.201.256,0,.513,0,.769,0Z"/>
  <path class="cls-14" d="M1212.323,318.667c-8.957,3.224-17.609,6.352-26.271,9.453-7.619,2.728-15.281,5.338-22.853,8.19-2.311.871-3.612.563-5.01-1.557-21.181-32.131-42.436-64.213-63.676-96.305-9.362-14.146-18.724-28.291-28.098-42.429-.538-.811-1.186-1.548-1.531-1.995,0,7.446-.154,15.074.042,22.693.209,8.097.826,16.182,1.132,24.278.895,23.663,1.718,47.329,2.584,70.994.185,5.061.365,10.123.678,15.176.131,2.111-.469,2.903-2.721,2.81-17.965-.746-35.932-1.423-53.902-2.021-2.273-.076-3.11-.706-2.921-3.091,1.238-15.643,2.341-31.297,3.537-46.943.849-11.102,1.807-22.196,2.657-33.297,1.391-18.169,3.023-36.326,3.981-54.519.511-9.709-.09-19.483-.347-29.224-.28-10.632-.806-21.257-1.113-31.888-.583-20.129-1.046-40.262-1.672-60.389-.081-2.604.582-4.478,2.473-6.341,10.378-10.226,20.664-20.548,30.879-30.938,1.886-1.918,3.802-2.475,6.429-2.232,13.978,1.293,27.97,2.429,41.959,3.6,20.425,1.71,40.85,3.412,61.277,5.098,5.676.468,11.356.894,17.038,1.279,2.225.151,3.461.999,4.318,3.302,6.971,18.721,14.11,37.381,21.259,56.035.628,1.639.642,3.125.258,4.793-2.98,12.929-5.958,25.86-8.787,38.823-.566,2.595-1.725,4.019-4.243,5.071-21.002,8.774-42.051,17.443-62.759,26.906-2.32,1.06-2.911,1.84-1.686,4.357,14.62,30.028,29.014,60.166,43.716,90.153,2.966,6.05,8.482,10.326,12.869,15.372,9.635,11.082,19.447,22.011,29.18,33.008.392.443.711.951,1.323,1.779Z"/>
  <g>
    <path class="cls-15" d="M292.377,161.273c0,33.071.056,66.142-.086,99.212-.014,3.338,1.035,4.219,4.168,4.576,17.724,2.018,35.432,4.191,53.119,6.508,2.994.392,4.87-.246,6.794-2.624,11.308-13.978,22.745-27.853,34.245-41.674,1.498-1.8,1.438-3.664,1.438-5.67-.023-56.517-.005-113.034-.169-169.55-.01-3.568.911-4.787,4.4-5.065,15.645-1.246,31.279-2.645,46.903-4.137,3.121-.298,4.124.532,4.169,3.778.262,18.999.935,37.984,2.331,56.941,3.018,41.005.871,82.049.8,123.077-.025,14.569-.421,29.129-1.379,43.672-.121,1.839-.576,3.45-1.679,4.924-13.81,18.462-28.179,36.455-43.534,53.677-4.533,5.084-10.369,5.394-16.098,6.358-18.455,3.107-36.956,5.936-55.431,8.921-2.108.341-3.953-.113-5.866-.935-27.881-11.98-55.764-23.956-83.696-35.817-3.036-1.289-4.307-2.877-4.501-6.37-1.821-32.746-3.717-65.489-5.932-98.21-1.784-26.346-1.063-52.642.351-78.963.829-15.43,1.215-30.883,1.802-46.326.317-8.354.697-16.707.922-25.064.069-2.566.552-3.37,3.506-2.794,17.639,3.434,35.476,5.602,53.305,7.792,5.239.644,5.11.601,4.875,5.807-.655,14.552-1.175,29.111-1.772,43.666-.742,18.096-1.507,36.192-2.262,54.287-.241,0-.481.001-.722.002Z"/>
    <path class="cls-3" d="M306.403,161.273c0,33.071.056,66.142-.086,99.212-.014,3.338,1.035,4.219,4.168,4.576,17.724,2.018,35.432,4.191,53.119,6.508,2.994.392,4.87-.246,6.794-2.624,11.308-13.978,22.745-27.853,34.245-41.674,1.498-1.8,1.438-3.664,1.438-5.67-.023-56.517-.005-113.034-.169-169.55-.01-3.568.911-4.787,4.4-5.065,15.645-1.246,31.279-2.645,46.903-4.137,3.121-.298,4.124.532,4.169,3.778.262,18.999.935,37.984,2.331,56.941,3.018,41.005.871,82.049.8,123.077-.025,14.569-.421,29.129-1.379,43.672-.121,1.839-.576,3.45-1.679,4.924-13.81,18.462-28.179,36.455-43.534,53.677-4.533,5.084-10.369,5.394-16.098,6.358-18.455,3.107-36.956,5.936-55.431,8.921-2.108.341-3.953-.113-5.866-.935-27.881-11.98-55.764-23.956-83.696-35.817-3.036-1.289-4.307-2.877-4.501-6.37-1.821-32.746-3.717-65.489-5.932-98.21-1.784-26.346-1.063-52.642.351-78.963.829-15.43,1.215-30.883,1.802-46.326.317-8.354.697-16.707.922-25.064.069-2.566.552-3.37,3.506-2.794,17.639,3.434,35.476,5.602,53.305,7.792,5.239.644,5.11.601,4.875,5.807-.655,14.552-1.175,29.111-1.772,43.666-.742,18.096-1.507,36.192-2.262,54.287-.241,0-.481.001-.722.002Z"/>
  </g>
  <g>
    <polygon class="cls-23" points="214.286 33.93 28.195 53.758 0 178.391 2.82 291.693 76.128 334.181 217.105 320.019 273.496 277.53 238.568 220.879 112.782 220.879 118.421 135.902 149.436 124.572 191.729 152.898 259.398 113.242 214.286 33.93"/>
    <path class="cls-29" d="M17.276,180.323c1.112-5.206,2.311-10.979,3.58-16.737,4.295-19.495,8.624-38.983,12.905-58.481.305-1.387.952-2.461,1.915-3.465,10.278-10.707,20.542-21.426,30.777-32.175,1.127-1.184,2.294-1.719,3.984-1.924,12.283-1.487,24.539-3.199,36.814-4.757,10.743-1.363,21.5-2.61,32.249-3.925,5.116-.626,10.274-1.047,15.322-2.035,2.768-.542,5.114.377,7.544.987,11.792,2.961,23.536,6.115,35.316,9.126,1.483.379,2.596.904,3.474,2.263,7.319,11.329,14.676,22.634,22.11,33.887,1.105,1.673,1.344,2.537-.597,3.856-11.48,7.797-22.871,15.726-34.231,23.699-1.591,1.117-2.302.867-3.366-.654-5.349-7.65-10.813-15.22-16.251-22.807-.663-.926-1.34-1.864-2.144-2.661-2.208-2.189-4.293-3.205-7.864-2.031-23.708,7.793-47.529,15.237-71.341,22.709-2.067.649-2.938,1.75-3.366,3.816-4.826,23.297-9.735,46.576-14.619,69.861-1.38,6.581-2.674,13.182-4.185,19.732-.337,1.46-.213,2.542.511,3.783,7.269,12.451,14.513,24.918,21.723,37.404,1.009,1.747,2.052,2.895,4.369,2.533,6.663-1.042,13.42-.574,20.132-.963,13.941-.808,27.916-1.013,41.875-1.497,3.307-.115,6.607-.415,9.914-.507,1.253-.035,2.146-.71,3.105-1.274,11.771-6.932,23.553-13.846,35.259-20.887,1.844-1.109,2.962-1.218,4.382.584,9.24,11.734,18.526,23.433,27.895,35.063,1.641,2.037,1.926,3.092-.465,4.983-11.538,9.128-23.024,18.338-34.187,27.92-3.978,3.415-8.486,2.897-12.845,3.445-11.464,1.441-22.975,2.513-34.472,3.686-9.036.922-18.082,1.744-27.118,2.67-10.983,1.126-21.959,2.323-32.94,3.476-6.157.646-12.318,1.25-18.473,1.91-1.122.12-1.699-.605-2.348-1.257-15.668-15.746-31.33-31.498-46.999-47.244-.747-.751-1.327-1.516-1.399-2.668-.602-9.633-1.226-19.265-1.885-28.895-.751-10.977-1.571-21.95-2.312-32.928-.608-9.013-1.145-18.031-1.749-27.624Z"/>
    <path class="cls-13" d="M28.555,180.323c1.112-5.206,2.311-10.979,3.58-16.737,4.295-19.495,8.624-38.983,12.905-58.481.305-1.387.952-2.461,1.915-3.465,10.278-10.707,20.542-21.426,30.777-32.175,1.127-1.184,2.294-1.719,3.984-1.924,12.283-1.487,24.539-3.199,36.814-4.757,10.743-1.363,21.5-2.61,32.249-3.925,5.116-.626,10.274-1.047,15.322-2.035,2.768-.542,5.114.377,7.544.987,11.792,2.961,23.536,6.115,35.316,9.126,1.483.379,2.596.904,3.474,2.263,7.319,11.329,14.676,22.634,22.11,33.887,1.105,1.673,1.344,2.537-.597,3.856-11.48,7.797-22.871,15.726-34.231,23.699-1.591,1.117-2.302.867-3.366-.654-5.349-7.65-10.813-15.22-16.251-22.807-.663-.926-1.34-1.864-2.144-2.661-2.208-2.189-4.293-3.205-7.864-2.031-23.708,7.793-47.529,15.237-71.341,22.709-2.067.649-2.938,1.75-3.366,3.816-4.826,23.297-9.735,46.576-14.619,69.861-1.38,6.581-2.674,13.182-4.185,19.732-.337,1.46-.213,2.542.511,3.783,7.269,12.451,14.513,24.918,21.723,37.404,1.009,1.747,2.052,2.895,4.369,2.533,6.663-1.042,13.42-.574,20.132-.963,13.941-.808,27.916-1.013,41.875-1.497,3.307-.115,6.607-.415,9.914-.507,1.253-.035,2.146-.71,3.105-1.274,11.771-6.932,23.553-13.846,35.259-20.887,1.844-1.109,2.962-1.218,4.382.584,9.24,11.734,18.526,23.433,27.895,35.063,1.641,2.037,1.926,3.092-.465,4.983-11.538,9.128-23.024,18.338-34.187,27.92-3.978,3.415-8.486,2.897-12.845,3.445-11.464,1.441-22.975,2.513-34.472,3.686-9.036.922-18.082,1.744-27.118,2.67-10.983,1.126-21.959,2.323-32.94,3.476-6.157.646-12.318,1.25-18.473,1.91-1.122.12-1.699-.605-2.348-1.257-15.668-15.746-31.33-31.498-46.999-47.244-.747-.751-1.327-1.516-1.399-2.668-.602-9.633-1.226-19.265-1.885-28.895-.751-10.977-1.571-21.95-2.312-32.928-.608-9.013-1.145-18.031-1.749-27.624Z"/>
  </g>
</svg>