<?xml version="1.0" encoding="UTF-8"?>
<svg id="Layer_1" data-name="Layer 1" xmlns="http://www.w3.org/2000/svg" viewBox="0 0 3770.459 891.558">
  <defs>
    <style>
      .cls-1 {
        fill: #87264a;
      }

      .cls-2 {
        fill: #d49cc6;
      }

      .cls-3 {
        fill: #e9c170;
      }

      .cls-4 {
        fill: #4a79af;
      }

      .cls-5 {
        fill: #eb5f5f;
      }

      .cls-6 {
        fill: #282023;
      }

      .cls-7 {
        fill: #923a60;
      }

      .cls-8 {
        fill: #b89a30;
      }

      .cls-9 {
        fill: #468f67;
      }

      .cls-9, .cls-10, .cls-11, .cls-12, .cls-13, .cls-14 {
        stroke-miterlimit: 10;
      }

      .cls-9, .cls-11 {
        stroke: #edebc7;
      }

      .cls-9, .cls-11, .cls-12, .cls-13 {
        stroke-width: 3px;
      }

      .cls-15 {
        fill: #ad325d;
      }

      .cls-16 {
        fill: #e2b8d6;
      }

      .cls-17 {
        fill: #e27e26;
      }

      .cls-18 {
        fill: #fbfcfc;
      }

      .cls-10 {
        fill: #e8993c;
        stroke: #151616;
      }

      .cls-11 {
        fill: #eaeae8;
      }

      .cls-19 {
        fill: #fff;
      }

      .cls-20 {
        fill: #f6cac1;
      }

      .cls-21 {
        fill: #d1e7bb;
      }

      .cls-22 {
        fill: #f47a5d;
      }

      .cls-23 {
        fill: #eee6e0;
      }

      .cls-24 {
        fill: #fef7ed;
      }

      .cls-25 {
        fill: #efa144;
      }

      .cls-26 {
        fill: #f4f2f3;
      }

      .cls-27 {
        fill: #fdfefe;
      }

      .cls-28 {
        fill: #f0916e;
      }

      .cls-29 {
        fill: #90b8d1;
      }

      .cls-12 {
        fill: #539991;
        stroke: #e9c170;
      }

      .cls-30 {
        fill: #e8c02b;
      }

      .cls-13 {
        fill: #edebc7;
        stroke: #468f67;
      }

      .cls-31 {
        fill: #f9f6eb;
      }

      .cls-14 {
        fill: #e8ebee;
        stroke: #4a79af;
      }

      .cls-32 {
        fill: #7b3761;
      }

      .cls-33 {
        fill: #f3e8c7;
      }

      .cls-34 {
        fill: #e85655;
      }

      .cls-35 {
        fill: #7c6188;
      }
    </style>
  </defs>
  <g>
    <g>
      <path class="cls-27" d="M2224.627,724.185c-1.085,25.197-2.133,50.396-3.305,75.589-.129,2.769.54,3.754,3.474,4.168,27.953,3.944,55.878,8.088,83.811,12.174,16.571,2.424,33.166,4.691,49.695,7.376,4.356.708,5.692-.056,6.098-4.674,1.09-12.386,2.754-24.727,4.437-37.051.516-3.776-.571-5.196-4.37-6.008-18.857-4.028-37.623-8.484-56.473-12.543-3.47-.747-4.207-1.815-3.293-5.259,3.393-12.779,6.51-25.632,9.608-38.487.695-2.885,1.904-4.436,5.059-5.298,30.132-8.227,60.21-16.656,90.27-25.144,2.944-.831,4.205-.236,5.131,2.722,6.47,20.673,13.069,41.305,19.703,61.926.717,2.228.675,4.416.409,6.614-3.446,28.498-6.967,56.988-10.36,85.492-.249,2.093-1.235,3.032-2.921,3.863-26.597,13.099-53.191,26.204-79.734,39.411-2.02,1.005-3.636.5-5.468-.05-43.8-13.131-87.605-26.25-131.409-39.37-5.189-1.554-10.325-3.333-15.589-4.573-3.473-.818-5.33-2.606-6.633-5.889-10.695-26.947-21.537-53.837-32.37-80.729-.795-1.974-1.023-3.957-1.022-6.056.017-39.6-.11-79.201.068-118.8.045-10.101,3.686-19.684,5.767-29.478,3.511-16.518,7.493-32.935,11.121-49.43.504-2.294,1.522-3.511,3.564-4.542,29.883-15.087,59.739-30.23,89.551-45.456,2.814-1.437,5.581-2.106,8.689-1.858,21.799,1.737,43.601,3.441,65.403,5.15,10.82.848,21.637,1.748,32.465,2.477,2.655.179,4.884.834,7.011,2.517,12.265,9.703,24.572,19.355,36.967,28.89,2.201,1.693,3.231,3.704,3.802,6.287,5.258,23.804,10.487,47.616,15.978,71.367.821,3.552-.028,4.474-3.355,4.608-17.551.704-35.097,1.505-52.644,2.292-4.784.215-9.585.315-14.341.819-3.105.329-4.147-.778-4.489-3.753-1.636-14.258-3.409-28.502-5.224-42.739-.582-4.563.706-10.441-2.275-13.32-2.829-2.733-8.489-.525-12.87-.34-18.184.768-36.355,1.844-54.535,2.698-2.043.096-3.116.967-4.151,2.56-15.477,23.8-30.981,47.582-46.556,71.318-1.243,1.895-1.324,3.835-1.416,5.902-1.107,24.875-2.231,49.749-3.35,74.624.025.001.05.002.075.003Z"/>
      <path class="cls-22" d="M2236.706,724.185c-1.085,25.197-2.133,50.396-3.305,75.589-.129,2.769.54,3.754,3.474,4.168,27.953,3.944,55.878,8.088,83.811,12.174,16.571,2.424,33.166,4.691,49.695,7.376,4.356.708,5.692-.056,6.098-4.674,1.09-12.386,2.754-24.727,4.437-37.051.516-3.776-.571-5.196-4.37-6.008-18.857-4.028-37.623-8.484-56.473-12.543-3.47-.747-4.207-1.815-3.293-5.259,3.393-12.779,6.51-25.632,9.608-38.487.695-2.885,1.904-4.436,5.059-5.298,30.132-8.227,60.21-16.656,90.27-25.144,2.944-.831,4.205-.236,5.131,2.722,6.47,20.673,13.069,41.305,19.703,61.926.717,2.228.675,4.416.409,6.614-3.446,28.498-6.967,56.988-10.36,85.492-.249,2.093-1.235,3.032-2.921,3.863-26.597,13.099-53.191,26.204-79.734,39.411-2.02,1.005-3.636.5-5.468-.05-43.8-13.131-87.605-26.25-131.409-39.37-5.189-1.554-10.325-3.333-15.589-4.573-3.473-.818-5.33-2.606-6.633-5.889-10.695-26.947-21.537-53.837-32.37-80.729-.795-1.974-1.023-3.957-1.022-6.056.017-39.6-.11-79.201.068-118.8.045-10.101,3.686-19.684,5.767-29.478,3.511-16.518,7.493-32.935,11.121-49.43.504-2.294,1.522-3.511,3.564-4.542,29.883-15.087,59.739-30.23,89.551-45.456,2.814-1.437,5.581-2.106,8.689-1.858,21.799,1.737,43.601,3.441,65.403,5.15,10.82.848,21.637,1.748,32.465,2.477,2.655.179,4.884.834,7.011,2.517,12.265,9.703,24.572,19.355,36.967,28.89,2.201,1.693,3.231,3.704,3.802,6.287,5.258,23.804,10.487,47.616,15.978,71.367.821,3.552-.028,4.474-3.355,4.608-17.551.704-35.097,1.505-52.644,2.292-4.784.215-9.585.315-14.341.819-3.105.329-4.147-.778-4.489-3.753-1.636-14.258-3.409-28.502-5.224-42.739-.582-4.563.706-10.441-2.275-13.32-2.829-2.733-8.489-.525-12.87-.34-18.184.768-36.355,1.844-54.535,2.698-2.043.096-3.116.967-4.151,2.56-15.477,23.8-30.981,47.582-46.556,71.318-1.243,1.895-1.324,3.835-1.416,5.902-1.107,24.875-2.231,49.749-3.35,74.624.025.001.05.002.075.003Z"/>
    </g>
    <g>
      <path class="cls-3" d="M1304.184,507.108c24.62,2.427,49.231,4.94,73.867,7.19,3.736.341,6.355,1.569,8.812,4.39,22.034,25.308,44.237,50.469,66.278,75.772,5.02,5.763,7.369,13.135,10.793,19.833,8.382,16.395,16.312,33.022,24.76,49.383,2.534,4.908,3.262,9.648,2.347,14.976-3.44,20.027-6.742,40.077-10.094,60.119-4.339,25.945-8.821,51.867-12.91,77.851-.975,6.196-3.058,10.864-8.135,15.035-22.524,18.506-44.673,37.47-66.924,56.308-1.636,1.385-3.241,2.131-5.486,2.121-28.816-.127-57.632-.155-86.447-.195-11.494-.016-22.991-.145-34.482.052-7.343.126-14.386-1.642-21.529-2.759-20.233-3.164-40.437-6.514-60.669-9.681-2.173-.34-2.93-1.017-2.694-3.267.493-4.699.678-9.43,1.07-14.141,5.999-72.087,12.131-144.164,17.946-216.266,1.741-21.584,6.247-42.695,9.735-63.98,3.948-24.091,8.409-48.098,12.357-72.189.689-4.202,1.654-5.69,6.353-5.269,24.956,2.231,49.95,4.028,74.931,5.975.041-.419.081-.839.122-1.258ZM1265.395,708.839c-1.53,24.978-4.2,69.793-7.127,114.59-.299,4.582,1.564,4.846,5.053,4.567,10.193-.816,20.366-1.787,30.439-3.571,26.519-4.695,52.089-12.148,75.043-26.775,28.657-18.262,44.903-43.893,45.867-78.393.334-11.962.535-23.927.826-35.891.467-19.205.922-38.411,1.481-57.614.082-2.826-.717-5.097-2.339-7.384-12.202-17.209-24.373-34.441-36.375-51.789-1.801-2.604-3.771-3.72-6.837-4.062-30.376-3.388-60.74-6.894-91.103-10.396-5.745-.663-5.694-.719-6.044,5.265-2.562,43.873-5.144,87.744-8.883,151.451Z"/>
      <path class="cls-12" d="M1332.864,518.296c23.495,2.316,46.982,4.714,70.492,6.862,3.565.326,6.065,1.497,8.409,4.19,21.027,24.152,42.216,48.163,63.249,72.31,4.791,5.5,7.032,12.535,10.3,18.927,7.999,15.646,15.567,31.514,23.628,47.127,2.418,4.684,3.113,9.207,2.24,14.291-3.283,19.112-6.434,38.246-9.633,57.372-4.141,24.759-8.418,49.497-12.32,74.294-.931,5.913-2.919,10.367-7.763,14.348-21.495,17.661-42.632,35.758-63.866,53.735-1.561,1.322-3.093,2.034-5.236,2.024-27.499-.121-54.999-.148-82.498-.186-10.969-.015-21.941-.138-32.907.05-7.008.12-13.728-1.567-20.545-2.633-19.309-3.02-38.589-6.216-57.898-9.239-2.073-.325-2.796-.97-2.571-3.118.47-4.485.647-8.999,1.021-13.495,5.725-68.794,11.577-137.577,17.126-206.385,1.661-20.598,5.961-40.744,9.29-61.057,3.768-22.99,8.025-45.901,11.793-68.891.657-4.01,1.578-5.43,6.063-5.029,23.816,2.129,47.668,3.844,71.508,5.702.039-.4.078-.801.117-1.201ZM1295.847,710.81c-1.46,23.837-4.009,66.604-6.801,109.355-.286,4.373,1.492,4.625,4.822,4.358,9.727-.779,19.436-1.706,29.048-3.407,25.307-4.481,49.709-11.593,71.614-25.552,27.348-17.428,42.852-41.887,43.771-74.811.319-11.415.51-22.834.788-34.251.446-18.328.88-36.656,1.413-54.981.078-2.697-.684-4.864-2.232-7.046-11.644-16.423-23.259-32.867-34.713-49.423-1.719-2.485-3.598-3.55-6.525-3.877-28.988-3.233-57.965-6.579-86.941-9.921-5.482-.632-5.434-.687-5.767,5.025-2.445,41.868-4.909,83.736-8.478,144.532Z"/>
    </g>
    <g>
      <path class="cls-4" d="M1689.056,811.029c26.17,0,52.341.063,78.51-.079,3.268-.018,4.044.956,3.875,4.046-.858,15.616-1.611,31.239-2.218,46.867-.126,3.236-1.148,4.631-4.495,5.276-21.816,4.2-43.58,8.667-65.374,12.982-2.19.434-4.474.68-6.699.597-33.695-1.255-67.367-.415-101.036.95-16.99.689-33.988.423-50.984.42-4.047,0-6.954-1.341-9.551-4.65-5.843-7.444-12.131-14.54-18.258-21.76-1.168-1.377-2.219-2.637-2.287-4.686-1.336-40.129-4.635-80.215-4.29-120.367.368-42.853,1.64-85.719,3.66-128.526.904-19.142,4.637-38.144,10.66-56.518.42-1.28.986-2.511,1.44-3.78,1.79-5.01,4.976-7.342,10.635-7.893,48.161-4.692,96.147-10.951,144.203-16.587,18.503-2.17,36.984-4.539,55.462-6.913,3.352-.431,5.33-.035,6.409,3.892,4.373,15.908,9.054,31.735,13.882,47.512,1.042,3.404.448,4.602-3.035,5.325-28.51,5.918-56.988,11.992-85.477,18.01-20.559,4.343-41.112,8.713-61.69,12.961-2.773.572-3.882,1.388-3.598,4.609,2.289,25.906,4.442,51.825,6.356,77.76.277,3.752,2.269,3.076,4.434,3.023,35.185-.855,70.372-1.635,105.551-2.685,4.32-.129,5.562.967,5.721,5.273.481,13.069,1.376,26.126,2.307,39.173.185,2.595-.436,3.272-3.021,3.504-36.529,3.279-73.053,6.626-109.563,10.113-7.34.701-5.89-.156-5.657,6.452.762,21.644,1.626,43.285,2.172,64.934.097,3.85,1.162,4.599,4.853,4.358,25.67-1.678,51.39-2.055,77.107-2.476-.001-.372-.002-.744-.003-1.116Z"/>
      <path class="cls-14" d="M1712.774,811.029c26.17,0,52.341.063,78.51-.079,3.268-.018,4.044.956,3.875,4.046-.858,15.616-1.611,31.239-2.218,46.867-.126,3.236-1.148,4.631-4.495,5.276-21.816,4.2-43.58,8.667-65.374,12.982-2.19.434-4.474.68-6.699.597-33.695-1.255-67.367-.415-101.036.95-16.99.689-33.988.423-50.984.42-4.047,0-6.954-1.341-9.551-4.65-5.843-7.444-12.131-14.54-18.258-21.76-1.168-1.377-2.219-2.637-2.287-4.686-1.336-40.129-4.635-80.215-4.29-120.367.368-42.853,1.64-85.719,3.66-128.526.904-19.142,4.637-38.144,10.66-56.518.42-1.28.986-2.511,1.44-3.78,1.79-5.01,4.976-7.342,10.635-7.893,48.161-4.692,96.147-10.951,144.203-16.587,18.503-2.17,36.984-4.539,55.462-6.913,3.352-.431,5.33-.035,6.409,3.892,4.373,15.908,9.054,31.735,13.882,47.512,1.042,3.404.448,4.602-3.035,5.325-28.51,5.918-56.988,11.992-85.477,18.01-20.559,4.343-41.112,8.713-61.69,12.961-2.773.572-3.882,1.388-3.598,4.609,2.289,25.906,4.442,51.825,6.356,77.76.277,3.752,2.269,3.076,4.434,3.023,35.185-.855,70.372-1.635,105.551-2.685,4.32-.129,5.562.967,5.721,5.273.481,13.069,1.376,26.126,2.307,39.173.185,2.595-.436,3.272-3.021,3.504-36.529,3.279-73.053,6.626-109.563,10.113-7.34.701-5.89-.156-5.657,6.452.762,21.644,1.626,43.285,2.172,64.934.097,3.85,1.162,4.599,4.853,4.358,25.67-1.678,51.39-2.055,77.107-2.476-.001-.372-.002-.744-.003-1.116Z"/>
    </g>
    <polygon class="cls-11" points="2569.021 879.742 2465.472 888.633 2435.056 534.385 2538.605 525.495 2607.189 642.219 2595.958 511.42 2684.974 503.777 2716.793 874.375 2615.061 883.109 2547.716 716.867 2569.021 879.742"/>
    <path class="cls-5" d="M2528.268,671.749c.208,7.289.325,13.404.566,19.515,1.176,29.893,2.353,59.786,3.601,89.676.4,9.58,3.534,18.629,5.844,27.821,4.864,19.354,9.824,38.685,14.916,57.98.683,2.588.465,3.422-2.341,3.47-15.091.255-30.181.631-45.271.981-7.405.172-14.812.324-22.213.605-1.961.074-3.145-.052-3.167-2.523-.099-11.061-1.492-22.041-2.249-33.062-3.652-53.173-8.55-106.249-12.534-159.394-3.346-44.64-7.29-89.228-10.99-133.836-.276-3.329.535-4.3,3.82-4.485,23.177-1.304,46.349-2.723,69.51-4.286,3.07-.207,3.785,1.692,4.832,3.623,14.897,27.502,29.785,55.009,44.681,82.512,22.745,41.993,45.494,83.983,68.243,125.973.375.692.778,1.368,1.488,2.61-1.013-11.802-1.947-22.861-2.924-33.916-.234-2.645-.665-5.271-.919-7.915-3.877-40.379-7.718-80.762-11.618-121.14-1.197-12.389-2.47-24.772-3.879-37.138-.326-2.857.172-4.483,3.034-5.834,6.307-2.976,12.481-6.277,18.499-9.806,4.67-2.739,9.571-3.517,14.84-3.478,4.047.03,8.124-.201,12.137-.709,3.121-.395,3.714.873,3.85,3.641,1.456,29.746,2.975,59.489,4.572,89.227,1.657,30.859,3.437,61.711,5.129,92.568,1.423,25.969,2.818,51.939,4.185,77.911,1.184,22.48,2.252,44.966,3.541,67.439.161,2.805-.699,3.594-3.279,3.942-16.485,2.228-32.944,4.639-49.605,5.223-9.323.327-10.041.038-13.733-8.635-16.891-39.684-32.771-79.783-49.014-119.733-2.655-6.53-7.682-11.271-11.862-16.628-12.985-16.639-26.199-33.1-39.332-49.624-.504-.634-1.092-1.2-2.358-2.578Z"/>
    <path class="cls-18" d="M1982.524,783.116c-1.02-13.85-2.057-27.036-2.91-40.233-.184-2.849-1.448-4.082-4.024-5.082-32.038-12.431-64.05-24.931-96.015-37.55-6.908-2.727-12.43-7.809-18.443-12.008-18.607-12.994-36.852-26.47-54.799-40.38-9.188-7.121-13.058-15.555-12.826-27.044.375-18.557,2.722-36.832,5.736-55.08.32-1.936,1.371-2.831,2.848-3.687,26.77-15.513,53.514-31.071,80.31-46.539,4.078-2.354,8.854-2.757,13.331-3.934,13.35-3.51,26.773-6.743,40.123-10.251,2.77-.728,5.278-.605,7.922.269,27.212,8.996,54.418,18.011,81.682,26.849,2.826.916,3.411,2.183,2.937,4.831-3.258,18.176-6.51,36.354-9.557,54.565-.489,2.923-1.133,3.415-3.904,2.278-25.407-10.428-50.886-20.68-76.283-31.133-2.756-1.134-4.789-1.134-7.444.369-19.474,11.02-39.027,21.902-58.639,32.676-2.795,1.535-4.208,3.242-4.29,6.533-.155,6.156-.688,12.305-1.177,18.448-.145,1.818.468,3.113,1.653,4.419,14.038,15.476,28.033,30.991,42.044,46.492,1.993,2.204,4.817,3.013,7.376,4.205,30.615,14.264,61.313,28.369,91.424,43.669,16.989,8.632,14.547,4.418,19.277,24.152,5.183,21.621,8.197,43.663,11.356,65.659,1.11,7.728,2.129,15.47,3.313,23.187.349,2.277.105,3.777-2.078,5.26-22.873,15.53-45.701,31.13-68.395,46.92-3.35,2.331-6.832,2.828-10.555,3.021-25.825,1.336-51.654,2.598-77.478,3.943-21.769,1.134-43.539,2.279-65.298,3.589-3.887.234-6.068-.813-8.097-4.435-15.117-26.994-30.471-53.857-45.943-80.65-1.768-3.062-1.095-4.175,1.588-5.84,23.237-14.411,46.432-28.89,69.522-43.533,3.304-2.095,4.577-1.559,6.2,1.815,3.836,7.979,8.187,15.709,12.158,23.626,9.659,19.261,25.643,33.082,40.799,47.611,3.124,2.995,7.194,2.698,11.114,2.4,13.348-1.017,26.51-3.377,39.693-5.579,4.295-.718,8.567-1.843,12.886-2.064,4.978-.254,8.001-2.696,10.366-6.743,5.34-9.138,8.823-19.051,12.333-28.955.772-2.179.187-4.481.166-6.064Z"/>
    <path class="cls-17" d="M1992.136,783.116c-1.02-13.85-2.057-27.036-2.91-40.233-.184-2.849-1.448-4.082-4.024-5.082-32.038-12.431-64.05-24.931-96.015-37.55-6.908-2.727-12.43-7.809-18.443-12.008-18.607-12.994-36.852-26.47-54.799-40.38-9.188-7.121-13.058-15.555-12.826-27.044.375-18.557,2.722-36.832,5.736-55.08.32-1.936,1.371-2.831,2.848-3.687,26.77-15.513,53.514-31.071,80.31-46.539,4.078-2.354,8.854-2.757,13.331-3.934,13.35-3.51,26.773-6.743,40.123-10.251,2.77-.728,5.278-.605,7.922.269,27.212,8.996,54.418,18.011,81.682,26.849,2.826.916,3.411,2.183,2.937,4.831-3.258,18.176-6.51,36.354-9.557,54.565-.489,2.923-1.133,3.415-3.904,2.278-25.407-10.428-50.886-20.68-76.283-31.133-2.756-1.134-4.789-1.134-7.444.369-19.474,11.02-39.027,21.902-58.639,32.676-2.795,1.535-4.208,3.242-4.29,6.533-.155,6.156-.688,12.305-1.177,18.448-.145,1.818.468,3.113,1.653,4.419,14.038,15.476,28.033,30.991,42.044,46.492,1.993,2.204,4.817,3.013,7.376,4.205,30.615,14.264,61.313,28.369,91.424,43.669,16.989,8.632,14.547,4.418,19.277,24.152,5.183,21.621,8.197,43.663,11.356,65.659,1.11,7.728,2.129,15.47,3.313,23.187.349,2.277.105,3.777-2.078,5.26-22.873,15.53-45.701,31.13-68.395,46.92-3.35,2.331-6.832,2.828-10.555,3.021-25.825,1.336-51.654,2.598-77.478,3.943-21.769,1.134-43.539,2.279-65.298,3.589-3.887.234-6.068-.813-8.097-4.435-15.117-26.994-30.471-53.857-45.943-80.65-1.768-3.062-1.095-4.175,1.588-5.84,23.237-14.411,46.432-28.89,69.522-43.533,3.304-2.095,4.577-1.559,6.2,1.815,3.836,7.979,8.187,15.709,12.158,23.626,9.659,19.261,25.643,33.082,40.799,47.611,3.124,2.995,7.194,2.698,11.114,2.4,13.348-1.017,26.51-3.377,39.693-5.579,4.295-.718,8.567-1.843,12.886-2.064,4.978-.254,8.001-2.696,10.366-6.743,5.34-9.138,8.823-19.051,12.333-28.955.772-2.179.187-4.481.166-6.064Z"/>
    <g>
      <g>
        <path class="cls-6" d="M2041.561,846.802c2.005-17.069,4.03-33.114,5.745-49.19,2.824-26.471,6.903-52.815,7.994-79.465.736-17.984,2.032-35.945,3.005-53.92.128-2.367.596-3.422,3.503-3.725,15.545-1.622,30.935.764,46.388,1.325,5.816.211,11.615.888,17.431,1.062,2.546.076,3.419.684,3.193,3.323-1.195,13.935-2.239,27.883-3.298,41.829-.736,9.699-1.751,19.376-1.867,29.12-.441,37.107-.966,74.213-1.454,111.32-.063,4.775-.052,4.809-4.886,4.267-13.163-1.477-26.317-3.027-39.484-4.464-5.939-.648-11.866.312-17.802.421-4.829.088-9.684.228-14.466.823-3.389.422-4.728-.313-4.002-2.723Z"/>
        <path class="cls-6" d="M2090.447,633.789c-7.93,0-15.861-.078-23.788.053-2.078.034-2.997-.752-3.928-2.462-9.99-18.349-16.09-38.009-20.685-58.202-.391-1.717.057-2.672,1.367-3.71,9.923-7.863,19.821-15.757,29.663-23.716,1.518-1.227,3.08-1.385,4.837-1.113,17.231,2.661,34.458,5.351,51.698,7.958,1.532.232,2.401,1.034,3.279,2.097,5.071,6.136,10.138,12.275,15.286,18.349,1.271,1.5,1.805,3.005,1.643,4.977-1.095,13.327-2.131,26.659-3.078,39.997-.116,1.639-.893,2.265-2.228,2.902-8.338,3.977-16.649,8.011-24.94,12.081-1.826.897-3.672,1.248-5.71,1.23-7.804-.07-15.61-.028-23.415-.028,0-.137,0-.275,0-.412Z"/>
      </g>
      <g>
        <path class="cls-16" d="M2047.625,846.802c2.005-17.069,4.03-33.114,5.745-49.19,2.824-26.471,6.903-52.815,7.994-79.465.736-17.984,2.032-35.945,3.005-53.92.128-2.367.596-3.422,3.503-3.725,15.545-1.622,30.935.764,46.388,1.325,5.816.211,11.615.888,17.431,1.062,2.546.076,3.419.684,3.193,3.323-1.195,13.935-2.239,27.883-3.298,41.829-.736,9.699-1.751,19.376-1.867,29.12-.441,37.107-.966,74.213-1.454,111.32-.063,4.775-.052,4.809-4.886,4.267-13.163-1.477-26.317-3.027-39.484-4.464-5.939-.648-11.866.312-17.802.421-4.829.088-9.684.228-14.466.823-3.389.422-4.728-.313-4.002-2.723Z"/>
        <path class="cls-16" d="M2096.511,633.789c-7.93,0-15.861-.078-23.788.053-2.078.034-2.997-.752-3.928-2.462-9.99-18.349-16.09-38.009-20.685-58.202-.391-1.717.057-2.672,1.367-3.71,9.923-7.863,19.821-15.757,29.663-23.716,1.518-1.227,3.08-1.385,4.837-1.113,17.231,2.661,34.458,5.351,51.698,7.958,1.532.232,2.401,1.034,3.279,2.097,5.071,6.136,10.138,12.275,15.286,18.349,1.271,1.5,1.805,3.005,1.643,4.977-1.095,13.327-2.131,26.659-3.078,39.997-.116,1.639-.893,2.265-2.228,2.902-8.338,3.977-16.649,8.011-24.94,12.081-1.826.897-3.672,1.248-5.71,1.23-7.804-.07-15.61-.028-23.415-.028,0-.137,0-.275,0-.412Z"/>
      </g>
    </g>
  </g>
  <g>
    <g>
      <path class="cls-7" d="M1188.709,250.771c2.802-12.172,5.466-23.554,8.038-34.956,10.732-47.585,21.438-95.176,32.151-142.765,3.593-15.961,7.266-31.905,10.701-47.9.741-3.452,2.008-4.83,5.803-5.004,28.688-1.32,57.367-2.864,86.038-4.518,3.342-.193,2.829,1.628,2.849,3.548.264,25.419.575,50.838.786,76.257.74,88.894,1.443,177.789,2.171,266.683.032,3.91.012,7.831.309,11.724.209,2.738-.975,3.689-3.459,4.111-7.252,1.233-14.456,2.756-21.718,3.923-4.93.792-9.876-.313-14.812-.531-8.408-.371-16.794-1.221-25.202-1.602-2.931-.133-4.21-.689-4.083-4.054,1.488-39.223,2.854-78.451,4.193-117.68.785-22.997,1.508-45.996,2.164-68.998.183-6.43.028-12.87.028-19.401-3.188,6.801-6.481,13.755-9.715,20.735-20.759,44.806-41.532,89.606-62.19,134.459-1.247,2.708-2.669,3.774-5.673,3.766-5.556-.016-11.123.344-16.666.793-2.507.203-3.719-.667-4.788-2.911-18.009-37.811-36.111-75.578-54.185-113.358-6.607-13.811-13.193-27.631-19.799-41.442-.431-.902-.949-1.763-2.275-2.479.445,8.871.863,17.744,1.342,26.613,1.094,20.268,2.223,40.535,3.329,60.802,1.688,30.928,3.371,61.857,5.053,92.785.71,13.062,1.326,26.131,2.183,39.184.203,3.088-.592,4.119-3.78,4.259-16.071.707-32.135,1.599-48.193,2.572-2.795.169-3.692-.867-3.923-3.462-2.377-26.646-4.837-53.284-7.247-79.927-1.99-22.002-3.946-44.008-5.908-66.013-2.269-25.449-4.51-50.9-6.793-76.348-2.256-25.148-4.554-50.292-6.823-75.439-1.837-20.357-3.608-40.72-5.545-61.068-.285-2.998,1.429-2.665,3.243-2.744,10.365-.455,20.728-.971,31.095-1.391,17.881-.726,35.768-1.311,53.643-2.166,3.389-.162,4.899.675,5.996,4.091,12.992,40.427,26.178,80.792,39.318,121.171,10.261,31.534,20.526,63.067,30.798,94.597.36,1.107.821,2.18,1.546,4.085Z"/>
      <path class="cls-25" d="M1155.413,254.933c2.802-12.172,5.466-23.554,8.038-34.956,10.732-47.585,21.438-95.176,32.151-142.765,3.593-15.961,7.266-31.905,10.701-47.9.741-3.452,2.008-4.83,5.803-5.004,28.688-1.32,57.367-2.864,86.038-4.518,3.342-.193,2.829,1.628,2.849,3.548.264,25.419.575,50.838.786,76.257.74,88.894,1.443,177.789,2.171,266.683.032,3.91.012,7.831.309,11.724.209,2.738-.975,3.689-3.459,4.111-7.252,1.233-14.456,2.756-21.718,3.923-4.93.792-9.876-.313-14.812-.531-8.408-.371-16.794-1.221-25.202-1.602-2.931-.133-4.21-.689-4.083-4.054,1.488-39.223,2.854-78.451,4.193-117.68.785-22.997,1.508-45.996,2.164-68.998.183-6.43.028-12.87.028-19.401-3.188,6.801-6.481,13.755-9.715,20.735-20.759,44.806-41.532,89.606-62.19,134.459-1.247,2.708-2.669,3.774-5.673,3.766-5.556-.016-11.123.344-16.666.793-2.507.203-3.719-.667-4.788-2.911-18.009-37.811-36.111-75.578-54.185-113.358-6.607-13.811-13.193-27.631-19.799-41.442-.431-.902-.949-1.763-2.275-2.479.445,8.871.863,17.744,1.342,26.613,1.094,20.268,2.223,40.535,3.329,60.802,1.688,30.928,3.371,61.857,5.053,92.785.71,13.062,1.326,26.131,2.183,39.184.203,3.088-.592,4.119-3.78,4.259-16.071.707-32.135,1.599-48.193,2.572-2.795.169-3.692-.867-3.923-3.462-2.377-26.646-4.837-53.284-7.247-79.927-1.99-22.002-3.946-44.008-5.908-66.013-2.269-25.449-4.51-50.9-6.793-76.348-2.256-25.148-4.554-50.292-6.823-75.439-1.837-20.357-3.608-40.72-5.545-61.068-.285-2.998,1.429-2.665,3.243-2.744,10.365-.455,20.728-.971,31.095-1.391,17.881-.726,35.768-1.311,53.643-2.166,3.389-.162,4.899.675,5.996,4.091,12.992,40.427,26.178,80.792,39.318,121.171,10.261,31.534,20.526,63.067,30.798,94.597.36,1.107.821,2.18,1.546,4.085Z"/>
    </g>
    <g>
      <path class="cls-29" d="M0,203.889c1.641-7.649,3.412-16.132,5.284-24.592,6.34-28.645,12.73-57.278,19.049-85.927.45-2.038,1.405-3.616,2.827-5.091,15.171-15.731,30.323-31.482,45.429-47.275,1.664-1.739,3.386-2.526,5.88-2.826,18.131-2.185,36.222-4.7,54.342-6.989,15.857-2.003,31.736-3.835,47.602-5.767,7.551-.92,15.166-1.539,22.616-2.99,4.086-.796,7.549.553,11.135,1.45,17.406,4.351,34.741,8.984,52.13,13.409,2.188.557,3.833,1.329,5.128,3.325,10.803,16.646,21.664,33.257,32.637,49.791,1.632,2.459,1.985,3.728-.882,5.666-16.945,11.456-33.76,23.106-50.528,34.822-2.348,1.641-3.398,1.275-4.968-.961-7.895-11.241-15.961-22.363-23.989-33.51-.979-1.36-1.978-2.739-3.165-3.91-3.259-3.217-6.338-4.709-11.608-2.984-34.995,11.45-70.158,22.388-105.306,33.367-3.051.953-4.336,2.572-4.968,5.607-7.124,34.23-14.37,68.435-21.579,102.647-2.037,9.669-3.947,19.368-6.178,28.992-.497,2.146-.315,3.735.755,5.559,10.73,18.295,21.423,36.612,32.065,54.959,1.489,2.568,3.029,4.254,6.45,3.721,9.836-1.531,19.809-.843,29.717-1.415,20.578-1.187,41.206-1.488,61.812-2.2,4.881-.169,9.753-.609,14.634-.745,1.85-.052,3.168-1.043,4.584-1.872,17.375-10.185,34.767-20.344,52.046-30.689,2.722-1.63,4.373-1.79,6.468.859,13.639,17.241,27.346,34.43,41.176,51.519,2.422,2.993,2.842,4.543-.686,7.321-17.032,13.411-33.985,26.944-50.464,41.023-5.872,5.017-12.526,4.257-18.96,5.062-16.923,2.117-33.914,3.692-50.884,5.417-13.338,1.355-26.691,2.562-40.028,3.924-16.212,1.655-32.414,3.414-48.622,5.108-9.088.95-18.182,1.837-27.267,2.806-1.656.177-2.508-.888-3.466-1.846-23.127-23.137-46.246-46.281-69.375-69.416-1.103-1.103-1.959-2.228-2.066-3.92-.888-14.154-1.81-28.307-2.783-42.455-1.109-16.129-2.319-32.251-3.413-48.382-.898-13.243-1.69-26.494-2.582-40.588Z"/>
      <path class="cls-32" d="M12.486,203.889c1.641-7.649,3.412-16.132,5.284-24.592,6.34-28.645,12.73-57.278,19.049-85.927.45-2.038,1.405-3.616,2.827-5.091,15.171-15.731,30.323-31.482,45.429-47.275,1.664-1.739,3.386-2.526,5.88-2.826,18.131-2.185,36.222-4.7,54.342-6.989,15.857-2.003,31.736-3.835,47.602-5.767,7.551-.92,15.166-1.539,22.616-2.99,4.086-.796,7.549.553,11.135,1.45,17.406,4.351,34.741,8.984,52.13,13.409,2.188.557,3.833,1.329,5.128,3.325,10.803,16.646,21.664,33.257,32.637,49.791,1.632,2.459,1.985,3.728-.882,5.666-16.945,11.456-33.76,23.106-50.528,34.822-2.348,1.641-3.398,1.275-4.968-.961-7.895-11.241-15.961-22.363-23.989-33.51-.979-1.36-1.978-2.739-3.165-3.91-3.259-3.217-6.338-4.709-11.608-2.984-34.995,11.45-70.158,22.388-105.306,33.367-3.051.953-4.336,2.572-4.968,5.607-7.124,34.23-14.37,68.435-21.579,102.647-2.037,9.669-3.947,19.368-6.178,28.992-.497,2.146-.315,3.735.755,5.559,10.73,18.295,21.423,36.612,32.065,54.959,1.489,2.568,3.029,4.254,6.45,3.721,9.836-1.531,19.809-.843,29.717-1.415,20.578-1.187,41.206-1.488,61.812-2.2,4.881-.169,9.753-.609,14.634-.745,1.85-.052,3.168-1.043,4.584-1.872,17.375-10.185,34.767-20.344,52.046-30.689,2.722-1.63,4.373-1.79,6.468.859,13.639,17.241,27.346,34.43,41.176,51.519,2.422,2.993,2.842,4.543-.686,7.321-17.032,13.411-33.985,26.944-50.464,41.023-5.872,5.017-12.526,4.257-18.96,5.062-16.923,2.117-33.914,3.692-50.884,5.417-13.338,1.355-26.691,2.562-40.028,3.924-16.212,1.655-32.414,3.414-48.622,5.108-9.088.95-18.182,1.837-27.267,2.806-1.656.177-2.508-.888-3.466-1.846-23.127-23.137-46.246-46.281-69.375-69.416-1.103-1.103-1.959-2.228-2.066-3.92-.888-14.154-1.81-28.307-2.783-42.455-1.109-16.129-2.319-32.251-3.413-48.382-.898-13.243-1.69-26.494-2.582-40.588Z"/>
      <path class="cls-10" d="M37.457,203.889c1.641-7.649,3.412-16.132,5.284-24.592,6.34-28.645,12.73-57.278,19.049-85.927.45-2.038,1.405-3.616,2.827-5.091,15.171-15.731,30.323-31.482,45.429-47.275,1.664-1.739,3.386-2.526,5.88-2.826,18.131-2.185,36.222-4.7,54.342-6.989,15.857-2.003,31.736-3.835,47.602-5.767,7.551-.92,15.166-1.539,22.616-2.99,4.086-.796,7.549.553,11.135,1.45,17.406,4.351,34.741,8.984,52.13,13.409,2.188.557,3.833,1.329,5.128,3.325,10.803,16.646,21.664,33.257,32.637,49.791,1.632,2.459,1.985,3.728-.882,5.666-16.945,11.456-33.76,23.106-50.528,34.822-2.348,1.641-3.398,1.275-4.968-.961-7.895-11.241-15.961-22.363-23.989-33.51-.979-1.36-1.978-2.739-3.165-3.91-3.259-3.217-6.338-4.709-11.608-2.984-34.995,11.45-70.158,22.388-105.306,33.367-3.051.953-4.336,2.572-4.968,5.607-7.124,34.23-14.37,68.435-21.579,102.647-2.037,9.669-3.947,19.368-6.178,28.992-.497,2.146-.315,3.735.755,5.559,10.73,18.295,21.423,36.612,32.065,54.959,1.489,2.568,3.029,4.254,6.45,3.721,9.836-1.531,19.809-.843,29.717-1.415,20.578-1.187,41.206-1.488,61.812-2.2,4.881-.169,9.753-.609,14.634-.745,1.85-.052,3.168-1.043,4.584-1.872,17.375-10.185,34.767-20.344,52.046-30.689,2.722-1.63,4.373-1.79,6.468.859,13.639,17.241,27.346,34.43,41.176,51.519,2.422,2.993,2.842,4.543-.686,7.321-17.032,13.411-33.985,26.944-50.464,41.023-5.872,5.017-12.526,4.257-18.96,5.062-16.923,2.117-33.914,3.692-50.884,5.417-13.338,1.355-26.691,2.562-40.028,3.924-16.212,1.655-32.414,3.414-48.622,5.108-9.088.95-18.182,1.837-27.267,2.806-1.656.177-2.508-.888-3.466-1.846-23.127-23.137-46.246-46.281-69.375-69.416-1.103-1.103-1.959-2.228-2.066-3.92-.888-14.154-1.81-28.307-2.783-42.455-1.109-16.129-2.319-32.251-3.413-48.382-.898-13.243-1.69-26.494-2.582-40.588Z"/>
    </g>
    <path class="cls-23" d="M1363.673,81.287c.001-15.441.09-30.881-.072-46.319-.033-3.138.976-4.421,3.939-5.498,8.445-3.068,17.099-4.345,26.017-4.346,11.465-.001,22.931.02,34.394-.109,2.641-.03,3.595.629,3.835,3.515,2.611,31.426,1.992,62.908,1.399,94.362-.268,14.204-.355,28.409-.598,42.612-.575,33.6-2.01,67.175-2.196,100.792-.097,17.556-.207,35.133-.628,52.695-.06,2.492.596,3.808,3.15,4.657,17.046,5.669,33.623,12.858,51.569,15.559,4.582.69,8.699,2.826,12.857,4.691,2.849,1.278,4.948.92,7.536-.81,12.586-8.414,22.512-19.594,32.386-30.809,2.073-2.354,3.332-5.452,4.828-8.281,5.355-10.122,10.578-20.315,16.017-30.392,1.434-2.656,1.963-5.302,2.053-8.273.578-19.077,1.255-38.151,1.974-57.223.794-21.046,2.083-42.084,2.373-63.136.223-16.16-1.877-32.26-3.23-48.366-.772-9.179-.078-18.301.886-27.422,1.202-11.366,2.435-22.729,3.475-34.11.548-6,.471-6.134,6.36-6.154,11.754-.041,23.504-.438,35.249.757,3.707.377,4.935,1.78,5.118,5.379,1.177,23.163,2.072,46.353,3.938,69.464,2.539,31.448,1.675,62.915,1.256,94.364-.234,17.566-.594,35.138-.474,52.701.101,14.888-2.839,29.415-4.124,44.129-1.551,17.766-11.113,32.783-16.647,49.178-3.264,9.672-7.54,18.999-11.138,28.565-1.07,2.845-2.479,4.319-5.601,5.111-18.458,4.683-36.778,9.916-55.27,14.455-8.347,2.049-16.987,1.428-25.444-.139-35.784-6.631-71.545-13.383-107.349-19.899-3.117-.567-4.352-1.934-5.256-4.687-5.805-17.684-11.746-35.324-17.636-52.98-.629-1.887-1.02-3.793-1.05-5.822-.353-23.833-.529-47.672-1.216-71.496-1-34.667-1.406-69.34-1.991-104.013-.297-17.569-.143-35.139-.686-52.702Z"/>
    <g>
      <polygon class="cls-28" points="2343.511 31.476 2122.629 55.011 2089.162 202.945 2092.508 337.431 2179.523 387.863 2346.858 371.053 2413.792 320.62 2372.334 253.377 2223.03 253.377 2229.723 152.513 2266.537 139.064 2316.737 172.686 2397.058 125.616 2343.511 31.476"/>
      <path class="cls-35" d="M2109.668,205.239c1.319-6.179,2.744-13.032,4.249-19.866,5.098-23.14,10.236-46.271,15.318-69.415.362-1.647,1.129-2.921,2.273-4.113,12.199-12.708,24.383-25.432,36.531-38.19,1.338-1.405,2.722-2.04,4.728-2.283,14.58-1.765,29.127-3.797,43.697-5.646,12.751-1.618,25.52-3.098,38.278-4.659,6.072-.743,12.195-1.243,18.186-2.416,3.286-.643,6.071.447,8.954,1.171,13.997,3.515,27.936,7.258,41.919,10.832,1.76.45,3.082,1.073,4.124,2.686,8.687,13.448,17.42,26.866,26.244,40.223,1.312,1.986,1.596,3.011-.709,4.577-13.626,9.255-27.148,18.666-40.631,28.13-1.888,1.326-2.732,1.03-3.995-.776-6.349-9.081-12.834-18.065-19.29-27.071-.788-1.099-1.591-2.213-2.545-3.159-2.62-2.598-5.096-3.804-9.334-2.411-28.14,9.25-56.416,18.086-84.679,26.955-2.453.77-3.487,2.078-3.995,4.529-5.729,27.652-11.555,55.284-17.352,82.922-1.638,7.811-3.174,15.646-4.968,23.421-.4,1.734-.253,3.017.607,4.491,8.628,14.779,17.227,29.576,25.784,44.397,1.198,2.074,2.435,3.436,5.186,3.006,7.909-1.237,15.929-.681,23.896-1.143,16.547-.959,33.135-1.202,49.705-1.777,3.925-.136,7.843-.492,11.767-.602,1.487-.042,2.548-.842,3.686-1.513,13.972-8.228,27.957-16.434,41.852-24.792,2.189-1.317,3.516-1.446,5.201.694,10.968,13.928,21.99,27.814,33.111,41.618,1.948,2.418,2.286,3.67-.552,5.914-13.696,10.834-27.329,21.767-40.579,33.14-4.722,4.053-10.072,3.439-15.247,4.089-13.608,1.71-27.271,2.983-40.917,4.376-10.725,1.095-21.463,2.07-32.188,3.17-13.037,1.337-26.065,2.758-39.098,4.126-7.308.767-14.62,1.484-21.926,2.267-1.332.143-2.017-.718-2.787-1.491-18.597-18.69-37.188-37.387-55.786-56.077-.887-.891-1.576-1.8-1.661-3.167-.714-11.434-1.455-22.867-2.238-34.297-.892-13.03-1.865-26.054-2.744-39.084-.722-10.698-1.359-21.402-2.076-32.789Z"/>
      <path class="cls-20" d="M2123.055,205.239c1.319-6.179,2.744-13.032,4.249-19.866,5.098-23.14,10.236-46.271,15.318-69.415.362-1.647,1.129-2.921,2.273-4.113,12.199-12.708,24.383-25.432,36.531-38.19,1.338-1.405,2.722-2.04,4.728-2.283,14.58-1.765,29.127-3.797,43.697-5.646,12.751-1.618,25.52-3.098,38.278-4.659,6.072-.743,12.195-1.243,18.186-2.416,3.286-.643,6.071.447,8.954,1.171,13.997,3.515,27.936,7.258,41.919,10.832,1.76.45,3.082,1.073,4.124,2.686,8.687,13.448,17.42,26.866,26.244,40.223,1.312,1.986,1.596,3.011-.709,4.577-13.626,9.255-27.148,18.666-40.631,28.13-1.888,1.326-2.732,1.03-3.995-.776-6.349-9.081-12.834-18.065-19.29-27.071-.788-1.099-1.591-2.213-2.545-3.159-2.62-2.598-5.096-3.804-9.334-2.411-28.14,9.25-56.416,18.086-84.679,26.955-2.453.77-3.487,2.078-3.995,4.529-5.729,27.652-11.555,55.284-17.352,82.922-1.638,7.811-3.174,15.646-4.968,23.421-.4,1.734-.253,3.017.607,4.491,8.628,14.779,17.227,29.576,25.784,44.397,1.198,2.074,2.435,3.436,5.186,3.006,7.909-1.237,15.929-.681,23.896-1.143,16.547-.959,33.135-1.202,49.705-1.777,3.925-.136,7.843-.492,11.767-.602,1.487-.042,2.548-.842,3.686-1.513,13.972-8.228,27.957-16.434,41.852-24.792,2.189-1.317,3.516-1.446,5.201.694,10.968,13.928,21.99,27.814,33.111,41.618,1.948,2.418,2.286,3.67-.552,5.914-13.696,10.834-27.329,21.767-40.579,33.14-4.722,4.053-10.072,3.439-15.247,4.089-13.608,1.71-27.271,2.983-40.917,4.376-10.725,1.095-21.463,2.07-32.188,3.17-13.037,1.337-26.065,2.758-39.098,4.126-7.308.767-14.62,1.484-21.926,2.267-1.332.143-2.017-.718-2.787-1.491-18.597-18.69-37.188-37.387-55.786-56.077-.887-.891-1.576-1.8-1.661-3.167-.714-11.434-1.455-22.867-2.238-34.297-.892-13.03-1.865-26.054-2.744-39.084-.722-10.698-1.359-21.402-2.076-32.789Z"/>
    </g>
    <path class="cls-9" d="M1868.271,292.713c0-10.547.349-20.88-.093-31.179-.492-11.463-.319-22.919-.439-34.377-.152-14.523.013-29.049-.127-43.572-.331-34.219-2.253-68.388-3.337-102.583-.518-16.336-1.777-32.663-1.242-49.026.396-12.109.397-11.957,12.311-9.598,9.698,1.92,19.462,3.53,29.231,5.06,3.955.619,5.426,1.868,4.955,6.425-1.019,9.857-.917,19.823-1.555,29.727-1.462,22.66,1.521,45.085,3.652,67.524,2.668,28.088,1.38,56.133.352,84.202-.486,13.285-.416,26.578-1.034,39.869-.801,17.244-.761,34.526-1.258,51.787-.717,24.889-1.645,49.772-2.329,74.662-.088,3.2-.735,4.472-4.301,4.601-14.337.521-28.668,1.313-42.982,2.288-3.145.214-3.521-1.779-4.316-3.649-6.922-16.261-14.034-32.446-20.636-48.837-9.083-22.55-19.946-44.154-32.665-64.866-15.541-25.308-25.985-53.096-38.428-79.907-9.049-19.497-17.76-39.15-26.666-58.713-.515-1.132-.652-3.401-2.234-2.878-1.989.658-4.541,1.327-5.121,3.964-.257,1.17-.09,2.436-.093,3.659-.049,25.532-.062,51.064-.147,76.596-.183,55.492-.414,110.983-.569,166.475-.008,2.998-.071,4.712-4.102,5.177-18.298,2.11-36.538,4.735-54.781,7.297-1.986.279-2.984.184-2.611-2.063,1.644-9.891.471-19.792.19-29.697-.255-9.015-.156-18.039-.319-27.057-.648-35.906-1.324-71.812-2.015-107.718-.559-29.03-1.142-58.059-1.747-87.088-.086-4.121-.147-8.26-.579-12.353-2.223-21.042,2.964-41.166,7.391-61.396,3.024-13.817,6.037-27.636,8.903-41.486.589-2.845,1.673-3.908,4.757-4.006,13.124-.418,26.243-1.079,39.349-1.889,3.41-.211,5.069.882,6.591,3.984,21.907,44.627,43.082,89.618,65.966,133.761,23.238,44.826,46.595,89.589,69.93,134.365.444.852.587,2.071,2.146,2.516Z"/>
    <g>
      <polygon class="cls-30" points="2683.888 364.269 2602.308 364.269 2589.543 302.429 2540.877 302.429 2500.928 381.711 2411.952 381.711 2486.151 37.628 2639.186 37.628 2683.888 364.269"/>
      <path class="cls-15" d="M2635.271,344.705c-3.011,1.205-4.03-.864-4.963-3.927-6.163-20.234-12.546-40.402-18.698-60.639-.696-2.291-1.572-3.062-3.953-3.104-19.817-.349-39.631-.837-59.445-1.282-1.26-.028-2.597.227-3.769-.105-5.888-1.672-8.336,1.628-10.88,6.303-11.432,21.013-23.241,41.821-34.845,62.74-.991,1.786-2.001,2.69-4.205,2.673-13.523-.108-27.048-.104-40.571-.01-2.552.018-3.017-.613-2.479-3.158,6.097-28.853,12.083-57.729,18.055-86.608,9.235-44.661,18.436-89.329,27.651-133.994,2.079-10.075,4.091-20.164,6.287-30.213.455-2.081,1.456-4.082,2.439-6.001,3.965-7.741,8.073-15.409,12.008-23.165,1.009-1.989,2.271-2.752,4.535-2.799,21.534-.452,43.065-1.004,64.596-1.572,13.283-.35,26.566-.727,39.844-1.216,2.569-.095,3.444.573,3.814,3.308,2.725,20.17,5.682,40.309,8.587,60.454,2.791,19.353,5.47,38.724,8.447,58.049,3.359,21.808,6.972,43.578,10.517,65.357,3.581,22.004,7.214,43.999,10.826,65.998,1.5,9.138,2.971,18.28,4.542,27.406.281,1.632.304,2.531-1.763,2.68-11.986.862-23.964,1.837-36.577,2.824ZM2580.676,97.91c-4.671.218-9.476.363-14.264.724-1.144.086-2.72.576-3.27,1.42-4.164,6.387-9.864,12.422-11.834,19.475-7.615,27.261-14.027,54.859-20.844,82.342-.197.794-.209,2.275.183,2.476,3.974,2.034,7.187,5.785,12.284,5.354,6.039-.511,12.096-.817,18.142-1.248,10.724-.765,21.475-1.294,32.162-2.417,9.793-1.029,9.955-1.351,8.25-11.221-5.403-31.291-10.972-62.553-16.444-93.832-.438-2.504-1.355-4.085-4.366-3.072Z"/>
    </g>
    <g>
      <path class="cls-34" d="M2852.892,21.96c22.965-.092,45.764,2.716,68.653,4.034,7.056.406,14.096,1.119,21.155,1.427,2.866.125,4.232.985,4.507,4.01,1.25,13.759,3.135,27.458,3.589,41.293.105,3.191-.338,4.557-4.122,4.883-25.498,2.196-50.964,4.772-76.448,7.149-5.785.54-11.599,1.086-17.398,1.059-3.877-.018-4.981,1.103-4.925,5.038.567,40.088.881,80.18,1.372,120.269.484,39.457.997,78.914,1.693,118.367.256,14.517-2.272,28.796-2.969,43.221-.187,3.878-3.246,3.334-5.476,3.637-11.043,1.5-22.111,2.812-33.172,4.179-11.114,1.374-22.142,1.831-33.205-.969-3.842-.972-5.044-2.631-5.108-6.286-.195-11.158-.61-22.311-.939-33.467-.64-21.681-1.906-43.367-1.772-65.043.201-32.53,1.292-65.056,2.181-97.579.562-20.581,1.433-41.153,2.191-61.728.26-7.067.363-14.151.989-21.188.39-4.383-1.144-5.397-5.355-5.598-37.974-1.811-75.836-5.246-113.736-8.138-2.726-.208-3.5-.987-3.93-3.775-2.131-13.806.656-27.222,2.628-40.721.3-2.055,1.355-2.748,3.435-2.971,31.091-3.332,62.248-5.551,93.502-6.741,29.359-1.118,58.692-2.916,88.041-4.329,4.863-.234,9.746-.033,14.62-.033Z"/>
      <path class="cls-31" d="M2886.188,21.96c22.965-.092,45.764,2.716,68.653,4.034,7.056.406,14.096,1.119,21.155,1.427,2.866.125,4.232.985,4.507,4.01,1.25,13.759,3.135,27.458,3.589,41.293.105,3.191-.338,4.557-4.122,4.883-25.498,2.196-50.964,4.772-76.448,7.149-5.785.54-11.599,1.086-17.398,1.059-3.877-.018-4.981,1.103-4.925,5.038.567,40.088.881,80.18,1.372,120.269.484,39.457.997,78.914,1.693,118.367.256,14.517-2.272,28.796-2.969,43.221-.187,3.878-3.246,3.334-5.476,3.637-11.043,1.5-22.111,2.812-33.172,4.179-11.114,1.374-22.142,1.831-33.205-.969-3.842-.972-5.044-2.631-5.108-6.286-.195-11.158-.61-22.311-.939-33.467-.64-21.681-1.906-43.367-1.772-65.043.201-32.53,1.292-65.056,2.181-97.579.562-20.581,1.433-41.153,2.191-61.728.26-7.067.363-14.151.989-21.188.39-4.383-1.144-5.397-5.355-5.598-37.974-1.811-75.836-5.246-113.736-8.138-2.726-.208-3.5-.987-3.93-3.775-2.131-13.806.656-27.222,2.628-40.721.3-2.055,1.355-2.748,3.435-2.971,31.091-3.332,62.248-5.551,93.502-6.741,29.359-1.118,58.692-2.916,88.041-4.329,4.863-.234,9.746-.033,14.62-.033Z"/>
    </g>
    <g>
      <path class="cls-17" d="M3006.404,14.137c46.945,5.044,94.108,6.82,141.214,9.451,6.861.383,6.787.395,6.3,7.172-.657,9.141-1.327,18.285-1.701,27.439-.146,3.575-1.192,5.249-5.043,5.643-13.296,1.361-26.546,3.174-39.838,4.582-2.797.296-3.775.999-3.832,3.982-1.501,79.21-2.514,158.424-1.584,237.649.171,14.562.521,29.144,2.364,43.639.394,3.1,1.702,4.339,4.783,4.713,8.822,1.072,17.664,1.674,26.535,1.473,3.315-.075,3.922.957,3.602,4.141-.751,7.469-1.099,14.984-1.407,22.488-.111,2.715-1.024,3.614-3.797,3.46-26.715-1.487-53.437-2.828-80.154-4.279-18.91-1.027-37.815-2.162-56.722-3.241-10.804-.617-21.606-1.267-32.415-1.782-2.073-.099-2.984-.678-2.843-2.872.76-11.844,1.468-23.692,2.137-35.542.159-2.813,1.978-2.431,3.823-2.271,9.281.803,18.563,1.599,27.847,2.367,5.852.484,11.715.626,17.571.134,2.935-.247,4.663-1.296,5.031-4.901,2.39-23.452,5.09-46.872,7.692-70.303,3.216-28.952,6.456-57.901,9.647-86.856,2.829-25.67,5.602-51.347,8.408-77.02,1.028-9.403,1.862-18.836,3.236-28.188.48-3.265-.503-4.486-3.283-5.609-18.085-7.305-36.084-14.824-54.19-22.075-3.163-1.267-4.04-2.48-2.824-5.892,2.767-7.765,5.313-15.635,7.38-23.61,1.041-4.015,3.057-4.951,6.675-4.356,1.774.292,3.592.319,5.389.466Z"/>
      <path class="cls-21" d="M3031.375,14.137c46.945,5.044,94.108,6.82,141.214,9.451,6.861.383,6.787.395,6.3,7.172-.657,9.141-1.327,18.285-1.701,27.439-.146,3.575-1.192,5.249-5.043,5.643-13.296,1.361-26.546,3.174-39.838,4.582-2.797.296-3.775.999-3.832,3.982-1.501,79.21-2.514,158.424-1.584,237.649.171,14.562.521,29.144,2.364,43.639.394,3.1,1.702,4.339,4.783,4.713,8.822,1.072,17.664,1.674,26.535,1.473,3.315-.075,3.922.957,3.602,4.141-.751,7.469-1.099,14.984-1.407,22.488-.111,2.715-1.024,3.614-3.797,3.46-26.715-1.487-53.437-2.828-80.154-4.279-18.91-1.027-37.815-2.162-56.722-3.241-10.804-.617-21.606-1.267-32.415-1.782-2.073-.099-2.984-.678-2.843-2.872.76-11.844,1.468-23.692,2.137-35.542.159-2.813,1.978-2.431,3.823-2.271,9.281.803,18.563,1.599,27.847,2.367,5.852.484,11.715.626,17.571.134,2.935-.247,4.663-1.296,5.031-4.901,2.39-23.452,5.09-46.872,7.692-70.303,3.216-28.952,6.456-57.901,9.647-86.856,2.829-25.67,5.602-51.347,8.408-77.02,1.028-9.403,1.862-18.836,3.236-28.188.48-3.265-.503-4.486-3.283-5.609-18.085-7.305-36.084-14.824-54.19-22.075-3.163-1.267-4.04-2.48-2.824-5.892,2.767-7.765,5.313-15.635,7.38-23.61,1.041-4.015,3.057-4.951,6.675-4.356,1.774.292,3.592.319,5.389.466Z"/>
    </g>
    <g>
      <path class="cls-26" d="M1949.443,388.439c2.431-21.091,4.888-40.916,6.968-60.78,3.425-32.708,8.373-65.259,9.696-98.189.893-22.221,2.464-44.414,3.644-66.625.155-2.925.723-4.228,4.249-4.603,18.855-2.004,37.521.943,56.265,1.638,7.054.261,14.088,1.098,21.143,1.312,3.088.094,4.147.845,3.873,4.106-1.45,17.218-2.716,34.452-4,51.684-.893,11.984-2.124,23.941-2.265,35.981-.535,45.85-1.172,91.699-1.764,137.548-.076,5.9-.063,5.943-5.926,5.272-15.965-1.825-31.92-3.74-47.891-5.516-7.203-.801-14.392.386-21.592.52-5.857.109-11.746.282-17.546,1.016-4.11.521-5.735-.387-4.854-3.365Z"/>
      <path class="cls-26" d="M2008.738,125.237c-9.618,0-19.238-.097-28.853.066-2.521.043-3.635-.929-4.764-3.042-12.117-22.672-19.516-46.965-25.09-71.915-.474-2.122.07-3.302,1.658-4.584,12.036-9.715,24.041-19.469,35.979-29.304,1.841-1.517,3.735-1.711,5.866-1.376,20.9,3.288,41.794,6.611,62.705,9.832,1.858.286,2.912,1.278,3.977,2.591,6.151,7.581,12.297,15.167,18.54,22.672,1.542,1.853,2.189,3.713,1.993,6.15-1.328,16.467-2.584,32.94-3.733,49.421-.141,2.025-1.083,2.798-2.702,3.585-10.113,4.914-20.193,9.898-30.25,14.928-2.215,1.108-4.454,1.542-6.926,1.52-9.466-.087-18.933-.035-28.4-.035,0-.17,0-.34,0-.509Z"/>
    </g>
    <g>
      <path class="cls-2" d="M1949.443,388.439c2.431-21.091,4.888-40.916,6.968-60.78,3.425-32.708,8.373-65.259,9.696-98.189.893-22.221,2.464-44.414,3.644-66.625.155-2.925.723-4.228,4.249-4.603,18.855-2.004,37.521.943,56.265,1.638,7.054.261,14.088,1.098,21.143,1.312,3.088.094,4.147.845,3.873,4.106-1.45,17.218-2.716,34.452-4,51.684-.893,11.984-2.124,23.941-2.265,35.981-.535,45.85-1.172,91.699-1.764,137.548-.076,5.9-.063,5.943-5.926,5.272-15.965-1.825-31.92-3.74-47.891-5.516-7.203-.801-14.392.386-21.592.52-5.857.109-11.746.282-17.546,1.016-4.11.521-5.735-.387-4.854-3.365Z"/>
      <path class="cls-2" d="M2008.738,125.237c-9.618,0-19.238-.097-28.853.066-2.521.043-3.635-.929-4.764-3.042-12.117-22.672-19.516-46.965-25.09-71.915-.474-2.122.07-3.302,1.658-4.584,12.036-9.715,24.041-19.469,35.979-29.304,1.841-1.517,3.735-1.711,5.866-1.376,20.9,3.288,41.794,6.611,62.705,9.832,1.858.286,2.912,1.278,3.977,2.591,6.151,7.581,12.297,15.167,18.54,22.672,1.542,1.853,2.189,3.713,1.993,6.15-1.328,16.467-2.584,32.94-3.733,49.421-.141,2.025-1.083,2.798-2.702,3.585-10.113,4.914-20.193,9.898-30.25,14.928-2.215,1.108-4.454,1.542-6.926,1.52-9.466-.087-18.933-.035-28.4-.035,0-.17,0-.34,0-.509Z"/>
    </g>
    <path class="cls-33" d="M3435.592,355.307c-5.37,5.475-10.768,10.924-16.095,16.441-1.743,1.805-3.707,3.005-6.226,3.276-27.5,2.968-55.024,5.516-82.728,5.412-4.772-.018-8.921-1.215-13.158-3.594-23.681-13.295-48.001-25.448-72.832-36.347-12.601-5.531-19.771-13.746-25.172-26.078-15.94-36.392-32.984-72.295-48.576-108.858-5.229-12.261-6.506-24.408-4.58-37.346,2.523-16.95,5.808-33.691,10.342-50.246,2.709-9.889,10.079-15.022,17.548-20.201,27.756-19.243,56.368-37.146,85.603-54.06,4.279-2.475,8.787-3.682,13.67-3.988,21.796-1.369,43.563-.924,65.335.627,6.311.449,11.317,2.863,16.022,7.109,28.273,25.519,54.304,53.287,81.033,80.354,9.72,9.843,19.19,19.931,28.822,29.861,1.512,1.559,2.529,3.088,2.652,5.423,1.941,36.775,3.94,73.54,5.049,110.359.344,11.415-5.202,19.454-11.263,27.597-14.102,18.948-29.647,36.71-45.445,54.258ZM3277.855,142.248c.297.292.595.584.892.876-8.841,9.014-17.612,18.099-26.569,26.996-2.418,2.402-3.033,4.464-1.863,7.847,10.145,29.333,20.095,58.733,30.026,88.139.822,2.435,2.043,3.984,4.495,5.043,22.018,9.51,43.998,19.108,65.924,28.829,2.254.999,3.442.441,5.068-.998,17.331-15.331,34.705-30.614,52.137-45.83,1.969-1.718,2.874-3.433,2.765-6.136-.575-14.263-1.002-28.534-1.335-42.805-.059-2.516-.704-4.663-1.955-6.773-9.713-16.378-19.456-32.739-29.023-49.202-1.677-2.885-3.759-4.826-6.756-6.197-20.45-9.348-40.881-18.738-61.241-28.279-2.752-1.29-4.186-.585-6.092,1.405-8.732,9.117-17.632,18.072-26.472,27.085Z"/>
    <g>
      <path class="cls-8" d="M466.532,58.08c6.85,0,13.7.034,20.549-.019,2.241-.017,4.234.484,5.983,1.921,19.091,15.679,37.929,31.637,55.189,49.367,2.973,3.054,4.804,6.448,5.937,10.638,6.333,23.415,13.793,46.523,22.372,69.172,4.354,11.494,3.599,21.204-.886,32.36-13.236,32.923-25.471,66.245-39.034,99.054-4.548,11.002-11.495,19.414-20.949,26.277-12.386,8.992-25.115,17.367-38.508,24.83-8,4.458-15.882,2.968-23.856,1.444-29.629-5.664-58.939-12.712-88.008-20.776-4.254-1.18-7.843-3.3-11.092-6.222-14.504-13.042-27.833-27.2-40.46-42.053-3.66-4.305-5.252-9.006-5.487-14.662-1.41-33.988.017-67.953.56-101.924.198-12.353.708-24.701,1.016-37.053.049-1.939.388-3.544,1.799-5.083,22.235-24.236,44.429-48.504,67.214-72.238,7.064-7.358,15.658-8.849,24.641-10.077,20.902-2.858,41.949-4.054,63.019-4.954ZM429.323,291.908c0-.372,0-.745,0-1.117,11.277,0,22.555-.089,33.83.059,3.044.04,4.743-.858,6.169-3.72,12.359-24.814,24.884-49.545,37.424-74.268,1.038-2.047,1.263-3.795.405-6.02-7.706-19.987-15.332-40.006-22.846-60.066-.772-2.062-1.871-2.47-3.806-2.608-20.615-1.463-41.225-2.984-61.83-4.583-2.327-.181-3.987.314-5.642,2.074-8.736,9.287-17.568,18.484-26.46,27.622-1.567,1.611-2.533,3.365-3.096,5.483-4.369,16.436-8.708,32.881-13.223,49.277-.791,2.874-.726,5.416.274,8.184,6.828,18.886,13.619,37.787,20.268,56.736.899,2.561,2.245,3.035,4.706,3.006,11.274-.134,22.551-.059,33.827-.059Z"/>
      <path class="cls-1" d="M480.511,58.08c6.85,0,13.7.034,20.549-.019,2.241-.017,4.234.484,5.983,1.921,19.091,15.679,37.929,31.637,55.189,49.367,2.973,3.054,4.804,6.448,5.937,10.638,6.333,23.415,13.793,46.523,22.372,69.172,4.354,11.494,3.599,21.204-.886,32.36-13.236,32.923-25.471,66.245-39.034,99.054-4.548,11.002-11.495,19.414-20.949,26.277-12.386,8.992-25.115,17.367-38.508,24.83-8,4.458-15.882,2.968-23.856,1.444-29.629-5.664-58.939-12.712-88.008-20.776-4.254-1.18-7.843-3.3-11.092-6.222-14.504-13.042-27.833-27.2-40.46-42.053-3.66-4.305-5.252-9.006-5.487-14.662-1.41-33.988.017-67.953.56-101.924.198-12.353.708-24.701,1.016-37.053.049-1.939.388-3.544,1.799-5.083,22.235-24.236,44.429-48.504,67.214-72.238,7.064-7.358,15.658-8.849,24.641-10.077,20.902-2.858,41.949-4.054,63.019-4.954ZM443.302,291.908c0-.372,0-.745,0-1.117,11.277,0,22.555-.089,33.83.059,3.044.04,4.743-.858,6.169-3.72,12.359-24.814,24.884-49.545,37.424-74.268,1.038-2.047,1.263-3.795.405-6.02-7.706-19.987-15.332-40.006-22.846-60.066-.772-2.062-1.871-2.47-3.806-2.608-20.615-1.463-41.225-2.984-61.83-4.583-2.327-.181-3.987.314-5.642,2.074-8.736,9.287-17.568,18.484-26.46,27.622-1.567,1.611-2.533,3.365-3.096,5.483-4.369,16.436-8.708,32.881-13.223,49.277-.791,2.874-.726,5.416.274,8.184,6.828,18.886,13.619,37.787,20.268,56.736.899,2.561,2.245,3.035,4.706,3.006,11.274-.134,22.551-.059,33.827-.059Z"/>
      <g>
        <path class="cls-19" d="M495.665,58.08c6.85,0,13.7.034,20.549-.019,2.241-.017,4.234.484,5.983,1.921,19.091,15.679,37.929,31.637,55.189,49.367,2.973,3.054,4.804,6.448,5.937,10.638,6.333,23.415,13.793,46.523,22.372,69.172,4.354,11.494,3.599,21.204-.886,32.36-13.236,32.923-25.471,66.245-39.034,99.054-4.548,11.002-11.495,19.414-20.949,26.277-12.386,8.992-25.115,17.367-38.508,24.83-8,4.458-15.882,2.968-23.856,1.444-29.629-5.664-58.939-12.712-88.008-20.776-4.254-1.18-7.843-3.3-11.092-6.222-14.504-13.042-27.833-27.2-40.46-42.053-3.66-4.305-5.252-9.006-5.487-14.662-1.41-33.988.017-67.953.56-101.924.198-12.353.708-24.701,1.016-37.053.049-1.939.388-3.544,1.799-5.083,22.235-24.236,44.429-48.504,67.214-72.238,7.064-7.358,15.658-8.849,24.641-10.077,20.902-2.858,41.949-4.054,63.019-4.954ZM458.456,291.908c0-.372,0-.745,0-1.117,11.277,0,22.555-.089,33.83.059,3.044.04,4.743-.858,6.169-3.72,12.359-24.814,24.884-49.545,37.424-74.268,1.038-2.047,1.263-3.795.405-6.02-7.706-19.987-15.332-40.006-22.846-60.066-.772-2.062-1.871-2.47-3.806-2.608-20.615-1.463-41.225-2.984-61.83-4.583-2.327-.181-3.987.314-5.642,2.074-8.736,9.287-17.568,18.484-26.46,27.622-1.567,1.611-2.533,3.365-3.096,5.483-4.369,16.436-8.708,32.881-13.223,49.277-.791,2.874-.726,5.416.274,8.184,6.828,18.886,13.619,37.787,20.268,56.736.899,2.561,2.245,3.035,4.706,3.006,11.274-.134,22.551-.059,33.827-.059Z"/>
        <path class="cls-19" d="M517.969,58.08c6.85,0,13.7.034,20.549-.019,2.241-.017,4.234.484,5.983,1.921,19.091,15.679,37.929,31.637,55.189,49.367,2.973,3.054,4.804,6.448,5.937,10.638,6.333,23.415,13.793,46.523,22.372,69.172,4.354,11.494,3.599,21.204-.886,32.36-13.236,32.923-25.471,66.245-39.034,99.054-4.548,11.002-11.495,19.414-20.949,26.277-12.386,8.992-25.115,17.367-38.508,24.83-8,4.458-15.882,2.968-23.856,1.444-29.629-5.664-58.939-12.712-88.008-20.776-4.254-1.18-7.843-3.3-11.092-6.222-14.504-13.042-27.833-27.2-40.46-42.053-3.66-4.305-5.252-9.006-5.487-14.662-1.41-33.988.017-67.953.56-101.924.198-12.353.708-24.701,1.016-37.053.049-1.939.388-3.544,1.799-5.083,22.235-24.236,44.429-48.504,67.214-72.238,7.064-7.358,15.658-8.849,24.641-10.077,20.902-2.858,41.949-4.054,63.019-4.954ZM480.76,291.908c0-.372,0-.745,0-1.117,11.277,0,22.555-.089,33.83.059,3.044.04,4.743-.858,6.169-3.72,12.359-24.814,24.884-49.545,37.424-74.268,1.038-2.047,1.263-3.795.405-6.02-7.706-19.987-15.332-40.006-22.846-60.066-.772-2.062-1.871-2.47-3.806-2.608-20.615-1.463-41.225-2.984-61.83-4.583-2.327-.181-3.987.314-5.642,2.074-8.736,9.287-17.568,18.484-26.46,27.622-1.567,1.611-2.533,3.365-3.096,5.483-4.369,16.436-8.708,32.881-13.223,49.277-.791,2.874-.726,5.416.274,8.184,6.828,18.886,13.619,37.787,20.268,56.736.899,2.561,2.245,3.035,4.706,3.006,11.274-.134,22.551-.059,33.827-.059Z"/>
      </g>
    </g>
    <g>
      <polygon class="cls-5" points="984.5 402.754 867.966 407.586 876.858 316.306 811.934 380.816 755.594 288.328 755.594 428.678 653.627 428.678 636.143 12.486 743.393 0 810.322 169.069 857.561 0 968.068 0 984.5 402.754"/>
      <path class="cls-24" d="M815.037,258.122c2.802-12.172,5.466-23.554,8.038-34.956,10.732-47.585,21.438-95.176,32.151-142.765,3.593-15.961,7.266-31.905,10.701-47.9.741-3.452,63.17-7.869,91.841-9.523,3.342-.193,2.829,1.628,2.849,3.548.264,25.419.575,50.838.786,76.257.74,88.894,1.443,177.789,2.171,266.683.032,3.91.012,7.831.309,11.724.209,2.738-.975,3.689-3.459,4.111-7.252,1.233-14.456,2.756-21.718,3.923-4.93.792-9.876-.313-14.812-.531-8.408-.371-16.794-1.221-25.202-1.602-2.931-.133-4.21-.689-4.083-4.054,1.488-39.223,2.854-78.451,4.193-117.68.785-22.997,1.508-45.996,2.164-68.998.183-6.43.028-12.87.028-19.401-3.188,6.801-6.481,13.755-9.715,20.735-20.759,44.806-41.532,89.606-62.19,134.459-1.247,2.708-2.669,3.774-5.673,3.766-5.556-.016-11.123.344-16.666.793-2.507.203-3.719-.667-4.788-2.911-18.009-37.811-36.111-75.578-54.185-113.358-6.607-13.811-13.193-27.631-19.799-41.442-.431-.902-.949-1.763-2.275-2.479.445,8.871.863,17.744,1.342,26.613,1.094,20.268,2.223,40.535,3.329,60.802,1.688,30.928,3.371,61.857,5.053,92.785.71,13.062,1.326,26.131,2.183,39.184.203,3.088-.592,4.119-3.78,4.259-16.071.707-32.135,1.599-48.193,2.572-2.795.169-3.692-.867-3.923-3.462-2.377-26.646-4.837-53.284-7.247-79.927-1.99-22.002-3.946-44.008-5.908-66.013-2.269-25.449-4.51-50.9-6.793-76.348-2.256-25.148-4.554-50.292-6.823-75.439-1.837-20.357-3.608-40.72-5.545-61.068-.285-2.998,1.429-2.665,3.243-2.744,10.365-.455,20.728-.971,31.095-1.391,17.881-.726,35.768-1.311,53.643-2.166,3.389-.162,4.899.675,5.996,4.091,12.992,40.427,26.178,80.792,39.318,121.171,10.261,31.534,20.526,63.067,30.798,94.597.36,1.107.821,2.18,1.546,4.085Z"/>
    </g>
    <path class="cls-13" d="M3724.02,288.952c0-10.547.349-20.88-.093-31.179-.492-11.463-.319-22.919-.439-34.377-.152-14.523.013-29.049-.127-43.572-.331-34.219-2.253-68.388-3.337-102.583-.518-16.336-1.777-32.663-1.242-49.026.396-12.109.397-11.957,12.311-9.598,9.698,1.92,19.462,3.53,29.231,5.06,3.955.619,5.426,1.868,4.955,6.425-1.019,9.857-.917,19.823-1.555,29.727-1.462,22.66,1.521,45.085,3.652,67.524,2.668,28.088,1.38,56.133.352,84.202-.486,13.285-.416,26.578-1.034,39.869-.801,17.244-.761,34.526-1.258,51.787-.717,24.889-1.645,49.772-2.329,74.662-.088,3.2-.735,4.472-4.301,4.601-14.337.521-28.668,1.313-42.982,2.288-3.145.214-3.521-1.779-4.316-3.649-6.922-16.261-14.034-32.446-20.636-48.837-9.083-22.55-19.946-44.154-32.665-64.866-15.541-25.308-25.985-53.096-38.428-79.907-9.049-19.497-17.76-39.15-26.666-58.713-.515-1.132-.652-3.401-2.234-2.878-1.989.658-4.541,1.327-5.121,3.964-.257,1.17-.09,2.436-.093,3.659-.049,25.532-.062,51.064-.147,76.596-.183,55.492-.414,110.983-.569,166.475-.008,2.998-.071,4.712-4.102,5.177-18.298,2.11-36.538,4.735-54.781,7.297-1.986.279-2.984.184-2.611-2.063,1.644-9.891.471-19.792.19-29.697-.255-9.015-.156-18.039-.319-27.057-.648-35.906-1.324-71.812-2.015-107.718-.559-29.03-1.142-58.059-1.747-87.088-.086-4.121-.147-8.26-.579-12.353-2.223-21.042,2.964-41.166,7.391-61.396,3.024-13.817,6.037-27.636,8.903-41.486.589-2.845,1.673-3.908,4.757-4.006,13.124-.418,26.243-1.079,39.349-1.889,3.41-.211,5.069.882,6.591,3.984,21.907,44.627,43.082,89.618,65.966,133.761,23.238,44.826,46.595,89.589,69.93,134.365.444.852.587,2.071,2.146,2.516Z"/>
  </g>
</svg>