<?xml version="1.0" encoding="UTF-8"?>
<svg id="Layer_1" data-name="Layer 1" xmlns="http://www.w3.org/2000/svg" viewBox="0 0 1665.543 788.115">
  <defs>
    <style>
      .cls-1 {
        fill: #db3c7e;
      }

      .cls-2 {
        fill: #f4f4f5;
      }

      .cls-3 {
        fill: #105682;
      }

      .cls-4 {
        fill: #e2b8d6;
        stroke: #383938;
        stroke-width: 2px;
      }

      .cls-4, .cls-5, .cls-6, .cls-7 {
        stroke-miterlimit: 10;
      }

      .cls-8 {
        fill: #604359;
      }

      .cls-5 {
        fill: #070808;
      }

      .cls-5, .cls-7 {
        stroke: #101010;
        stroke-width: 4px;
      }

      .cls-9 {
        fill: #e6abce;
      }

      .cls-6 {
        fill: #bed5e5;
        stroke: #7163ac;
        stroke-width: 3px;
      }

      .cls-10 {
        fill: #80a3d6;
      }

      .cls-11 {
        fill: #1e1234;
      }

      .cls-12 {
        fill: #27b9e1;
      }

      .cls-13 {
        fill: #43617f;
      }

      .cls-14, .cls-7 {
        fill: #fff;
      }

      .cls-15 {
        fill: #383938;
      }

      .cls-16 {
        fill: #4559a8;
      }

      .cls-17 {
        fill: #ece4dd;
      }

      .cls-18 {
        fill: #5c56a5;
      }

      .cls-19 {
        fill: #f9f6eb;
      }
    </style>
  </defs>
  <g>
    <g>
      <polygon class="cls-14" points="1283.038 384.058 1177.259 393.14 1146.189 31.267 1251.968 22.185 1322.027 141.422 1310.555 7.807 1401.488 0 1433.992 378.575 1330.069 387.498 1261.275 217.677 1283.038 384.058"/>
      <path class="cls-3" d="M1245.791,177.291c.2,7.014.313,12.898.545,18.777,1.132,28.763,2.264,57.527,3.465,86.288.385,9.218,3.4,17.925,5.623,26.77,4.68,18.623,9.453,37.223,14.352,55.789.657,2.49.447,3.293-2.253,3.339-14.521.246-29.041.607-43.56.944-7.125.165-14.252.312-21.374.582-1.887.072-3.026-.05-3.047-2.427-.095-10.643-1.436-21.208-2.164-31.813-3.514-51.164-8.227-102.234-12.06-153.372-3.22-42.953-7.015-85.856-10.575-128.78-.266-3.203.515-4.137,3.676-4.315,22.301-1.255,44.597-2.62,66.883-4.124,2.954-.199,3.642,1.628,4.649,3.486,14.334,26.463,28.66,52.931,42.993,79.394,21.885,40.406,43.775,80.81,65.665,121.213.361.666.749,1.316,1.431,2.512-.975-11.356-1.873-21.997-2.813-32.635-.225-2.545-.64-5.072-.884-7.616-3.73-38.854-7.426-77.711-11.179-116.563-1.151-11.921-2.376-23.836-3.732-35.735-.313-2.749.165-4.314,2.92-5.614,6.068-2.864,12.01-6.04,17.8-9.436,4.493-2.635,9.209-3.384,14.28-3.346,3.894.029,7.817-.193,11.679-.682,3.004-.38,3.574.84,3.704,3.503,1.401,28.622,2.863,57.241,4.4,85.856,1.595,29.693,3.308,59.379,4.935,89.07,1.37,24.988,2.711,49.977,4.027,74.967,1.139,21.63,2.166,43.267,3.407,64.891.155,2.699-.673,3.458-3.155,3.793-15.862,2.144-31.699,4.464-47.731,5.026-8.971.314-9.662.037-13.214-8.309-16.253-38.185-31.533-76.769-47.162-115.209-2.555-6.283-7.392-10.845-11.414-15.999-12.494-16.011-25.209-31.849-37.846-47.749-.485-.61-1.051-1.154-2.269-2.48Z"/>
    </g>
    <path class="cls-11" d="M999.641,162.277c0,35.135.06,70.269-.092,105.403-.015,3.547,1.1,4.483,4.428,4.862,18.83,2.144,37.643,4.452,56.434,6.914,3.181.417,5.174-.261,7.218-2.787,12.014-14.851,24.164-29.591,36.382-44.275,1.591-1.912,1.528-3.893,1.527-6.024-.024-60.044-.005-120.087-.18-180.131-.011-3.791.967-5.086,4.674-5.381,16.622-1.324,33.231-2.81,49.83-4.395,3.316-.317,4.381.565,4.429,4.014.278,20.184.994,40.354,2.476,60.494,3.207,43.564.925,87.169.849,130.757-.027,15.478-.447,30.947-1.465,46.397-.129,1.953-.612,3.665-1.784,5.232-14.671,19.614-29.937,38.73-46.251,57.027-4.816,5.402-11.016,5.73-17.102,6.755-19.606,3.301-39.262,6.306-58.89,9.477-2.24.362-4.2-.12-6.232-.993-29.621-12.727-59.244-25.451-88.92-38.052-3.226-1.37-4.575-3.057-4.782-6.767-1.934-34.789-3.948-69.576-6.302-104.339-1.895-27.99-1.129-55.927.373-83.891.881-16.393,1.291-32.811,1.914-49.217.337-8.876.74-17.75.979-26.628.074-2.726.587-3.58,3.725-2.969,18.74,3.648,37.69,5.952,56.631,8.279,5.566.684,5.429.638,5.18,6.17-.696,15.46-1.248,30.927-1.882,46.39-.788,19.226-1.601,38.45-2.404,57.675-.256,0-.511.002-.767.002Z"/>
    <path class="cls-6" d="M977.29,162.277c0,35.135.06,70.269-.092,105.403-.015,3.547,1.1,4.483,4.428,4.862,18.83,2.144,37.643,4.452,56.434,6.914,3.181.417,5.174-.261,7.218-2.787,12.014-14.851,24.164-29.591,36.382-44.275,1.591-1.912,1.528-3.893,1.527-6.024-.024-60.044-.005-120.087-.18-180.131-.011-3.791.967-5.086,4.674-5.381,16.622-1.324,33.231-2.81,49.83-4.395,3.316-.317,4.381.565,4.429,4.014.278,20.184.994,40.354,2.476,60.494,3.207,43.564.925,87.169.849,130.757-.027,15.478-.447,30.947-1.465,46.397-.129,1.953-.612,3.665-1.784,5.232-14.671,19.614-29.937,38.73-46.251,57.027-4.816,5.402-11.016,5.73-17.102,6.755-19.606,3.301-39.262,6.306-58.89,9.477-2.24.362-4.2-.12-6.232-.993-29.621-12.727-59.244-25.451-88.92-38.052-3.226-1.37-4.575-3.057-4.782-6.767-1.934-34.789-3.948-69.576-6.302-104.339-1.895-27.99-1.129-55.927.373-83.891.881-16.393,1.291-32.811,1.914-49.217.337-8.876.74-17.75.979-26.628.074-2.726.587-3.58,3.725-2.969,18.74,3.648,37.69,5.952,56.631,8.279,5.566.684,5.429.638,5.18,6.17-.696,15.46-1.248,30.927-1.882,46.39-.788,19.226-1.601,38.45-2.404,57.675-.256,0-.511.002-.767.002Z"/>
    <g>
      <path class="cls-15" d="M78.139,178.282c14.079-3.865,28.178-7.741,42.28-11.606,12.298-3.371,24.619-6.659,36.883-10.15,2.646-.753,3.641-.643,3.864,2.515,1.127,15.955,2.504,31.892,3.789,47.836.281,3.484.431,6.983.856,10.449.31,2.521-.472,3.341-3.042,3.091-10.571-1.029-21.156-1.917-31.736-2.855-15.67-1.389-31.343-2.733-47.005-4.202-2.738-.257-2.427,1.329-2.263,2.968.834,8.289,1.656,16.58,2.555,24.863,2.029,18.701,4.853,37.354,5.955,56.108,1.264,21.504,6.803,41.741,14.578,61.582,1.618,4.128,1.494,4.104-3.095,4.358-28.069,1.552-56.136,3.139-84.204,4.713-.672.038-1.364-.026-2.013.113-3.171.678-4.063-.511-3.204-3.556.655-2.321.798-4.798,1.562-7.073,4.607-13.732,2.064-27.685,1.315-41.555-.761-14.094-1.915-28.166-2.877-42.249-1.557-22.801-3.084-45.605-4.648-68.406-1.472-21.46-2.935-42.921-4.472-64.377C1.152,111.996-.345,83.127.069,54.185c.067-4.712.277-9.403.949-14.072.764-5.308,1.341-5.765,6.523-6.259,21.01-2.003,41.999-4.229,63.022-6.084,14.993-1.323,29.949-3.096,45.073-2.856,20.05.318,40.108.181,60.162.047,3.242-.022,4.027.951,3.971,4.072-.254,14.259-.356,28.522-.294,42.783.014,3.227-.631,4.433-4.189,4.241-17.462-.945-34.943-1.541-52.408-2.434-5.302-.271-10.381.18-15.485,1.742-10.525,3.222-21.125,6.203-31.734,9.14-2.143.593-3.162,1.336-3.016,3.785,1.763,29.664,3.431,59.334,5.135,89.002.015.253.178.498.363.99Z"/>
      <path class="cls-4" d="M91.629,178.282c14.079-3.865,28.178-7.741,42.28-11.606,12.298-3.371,24.619-6.659,36.883-10.15,2.646-.753,3.641-.643,3.864,2.515,1.127,15.955,2.504,31.892,3.789,47.836.281,3.484.431,6.983.856,10.449.31,2.521-.472,3.341-3.042,3.091-10.571-1.029-21.156-1.917-31.736-2.855-15.67-1.389-31.343-2.733-47.005-4.202-2.738-.257-2.427,1.329-2.263,2.968.834,8.289,1.656,16.58,2.555,24.863,2.029,18.701,4.853,37.354,5.955,56.108,1.264,21.504,6.803,41.741,14.578,61.582,1.618,4.128,1.494,4.104-3.095,4.358-28.069,1.552-56.136,3.139-84.204,4.713-.672.038-1.364-.026-2.013.113-3.171.678-4.063-.511-3.204-3.556.655-2.321.798-4.798,1.562-7.073,4.607-13.732,2.064-27.685,1.315-41.555-.761-14.094-1.915-28.166-2.877-42.249-1.557-22.801-3.084-45.605-4.648-68.406-1.472-21.46-2.935-42.921-4.472-64.377-2.067-28.852-3.564-57.721-3.15-86.663.067-4.712.277-9.403.949-14.072.764-5.308,1.341-5.765,6.523-6.259,21.01-2.003,41.999-4.229,63.022-6.084,14.993-1.323,29.949-3.096,45.073-2.856,20.05.318,40.108.181,60.162.047,3.242-.022,4.027.951,3.971,4.072-.254,14.259-.356,28.522-.294,42.783.014,3.227-.631,4.433-4.189,4.241-17.462-.945-34.943-1.541-52.408-2.434-5.302-.271-10.381.18-15.485,1.742-10.525,3.222-21.125,6.203-31.734,9.14-2.143.593-3.162,1.336-3.016,3.785,1.763,29.664,3.431,59.334,5.135,89.002.015.253.178.498.363.99Z"/>
    </g>
    <path class="cls-10" d="M509.018,21.012l117.982-2.07c20.152-.354,37.048,15.141,38.437,35.248l7.764,112.396-51.22,42.478,93.129,148.753-128.062,16.386-67.961-79.876-16.615,79.876h-64.506l10.559-293.801c1.176-32.727,27.749-58.816,60.492-59.39Z"/>
    <path class="cls-5" d="M673.202,340.808c-9.516,3.425-18.708,6.748-27.911,10.043-8.094,2.898-16.235,5.671-24.279,8.702-2.456.925-3.838.599-5.323-1.654-22.502-34.136-45.085-68.22-67.649-102.315-9.946-15.028-19.893-30.057-29.852-45.077-.571-.861-1.26-1.645-1.627-2.12,0,7.911-.164,16.015.045,24.109.222,8.602.878,17.192,1.203,25.793.951,25.14,1.825,50.283,2.745,75.424.197,5.376.388,10.755.72,16.124.139,2.243-.498,3.085-2.891,2.985-19.086-.792-38.175-1.512-57.266-2.147-2.414-.08-3.304-.75-3.103-3.284,1.315-16.619,2.487-33.25,3.757-49.873.901-11.795,1.92-23.581,2.823-35.375,1.478-19.303,3.212-38.593,4.23-57.921.543-10.315-.095-20.699-.368-31.048-.298-11.295-.856-22.583-1.183-33.878-.619-21.385-1.112-42.774-1.777-64.158-.086-2.767.619-4.758,2.627-6.737,11.026-10.864,21.953-21.831,32.806-32.868,2.004-2.038,4.039-2.629,6.83-2.371,14.85,1.373,29.716,2.581,44.578,3.825,21.7,1.817,43.4,3.625,65.101,5.416,6.03.497,12.064.95,18.101,1.358,2.364.16,3.677,1.061,4.588,3.508,7.406,19.89,14.99,39.714,22.586,59.532.667,1.741.683,3.32.274,5.092-3.166,13.736-6.33,27.474-9.335,41.246-.602,2.757-1.832,4.269-4.508,5.387-22.312,9.322-44.675,18.531-66.676,28.585-2.465,1.126-3.093,1.955-1.791,4.629,15.533,31.902,30.824,63.921,46.445,95.779,3.151,6.427,9.011,10.97,13.672,16.331,10.236,11.774,20.661,23.384,31.001,35.068.417.471.756,1.011,1.406,1.89Z"/>
    <g>
      <g>
        <path class="cls-8" d="M422.078,333.573c-4.807,4.901-9.638,9.778-14.406,14.716-1.56,1.616-3.318,2.689-5.573,2.933-24.614,2.656-49.25,4.937-74.047,4.844-4.272-.016-7.984-1.088-11.777-3.217-21.196-11.9-42.964-22.778-65.189-32.533-11.279-4.95-17.696-12.304-22.53-23.341-14.267-32.573-29.523-64.708-43.479-97.434-4.68-10.974-5.823-21.847-4.099-33.427,2.258-15.171,5.198-30.155,9.257-44.974,2.424-8.852,9.021-13.445,15.707-18.081,24.843-17.224,50.453-33.248,76.62-48.387,3.83-2.216,7.865-3.295,12.235-3.57,19.509-1.226,38.992-.827,58.478.561,5.648.402,10.129,2.562,14.34,6.363,25.306,22.841,48.606,47.695,72.529,71.921,8.7,8.81,17.176,17.839,25.797,26.728,1.353,1.395,2.264,2.764,2.374,4.854,1.737,32.915,3.526,65.823,4.519,98.778.308,10.217-4.656,17.413-10.081,24.701-12.622,16.96-26.536,32.858-40.676,48.564ZM280.894,142.872c.266.261.533.523.799.784-7.913,8.068-15.763,16.199-23.781,24.163-2.164,2.15-2.715,3.996-1.667,7.023,9.08,26.254,17.986,52.57,26.875,78.89.736,2.18,1.829,3.566,4.023,4.514,19.707,8.512,39.381,17.103,59.006,25.804,2.017.894,3.08.395,4.536-.893,15.513-13.722,31.063-27.401,46.666-41.021,1.762-1.538,2.573-3.073,2.475-5.492-.514-12.767-.897-25.539-1.195-38.313-.053-2.252-.63-4.173-1.75-6.062-8.693-14.66-17.414-29.303-25.977-44.039-1.501-2.583-3.365-4.32-6.047-5.546-18.304-8.367-36.591-16.771-54.815-25.311-2.463-1.154-3.747-.524-5.453,1.257-7.816,8.16-15.782,16.175-23.694,24.243Z"/>
        <ellipse class="cls-8" cx="328.731" cy="200.226" rx="81.954" ry="100.58" transform="translate(-44.399 294.718) rotate(-45.556)"/>
      </g>
      <path class="cls-2" d="M435.12,320.275c-4.807,4.901-9.638,9.778-14.406,14.716-1.56,1.616-3.318,2.689-5.573,2.933-24.614,2.656-49.25,4.937-74.047,4.844-4.272-.016-7.984-1.088-11.777-3.217-21.196-11.9-42.964-22.778-65.189-32.533-11.279-4.95-17.696-12.304-22.53-23.341-14.267-32.573-29.523-64.708-43.479-97.434-4.68-10.974-5.823-21.847-4.099-33.427,2.258-15.171,5.198-30.155,9.257-44.974,2.424-8.852,9.021-13.445,15.707-18.081,24.843-17.224,50.453-33.248,76.62-48.387,3.83-2.216,7.865-3.295,12.235-3.57,19.509-1.226,38.992-.827,58.478.561,5.648.402,10.129,2.562,14.34,6.363,25.306,22.841,48.606,47.695,72.529,71.921,8.7,8.81,17.176,17.839,25.797,26.728,1.353,1.395,2.264,2.764,2.374,4.854,1.737,32.915,3.526,65.823,4.519,98.778.308,10.217-4.656,17.413-10.081,24.701-12.622,16.96-26.536,32.858-40.676,48.564ZM293.936,129.575c.266.261.533.523.799.784-7.913,8.068-15.763,16.199-23.781,24.163-2.164,2.15-2.715,3.996-1.667,7.023,9.08,26.254,17.986,52.57,26.875,78.89.736,2.18,1.829,3.566,4.023,4.514,19.707,8.512,39.381,17.103,59.006,25.804,2.017.894,3.08.395,4.536-.893,15.513-13.722,31.063-27.401,46.666-41.021,1.762-1.538,2.573-3.073,2.475-5.492-.514-12.767-.897-25.539-1.195-38.313-.053-2.252-.63-4.173-1.75-6.062-8.693-14.66-17.414-29.303-25.977-44.039-1.501-2.583-3.365-4.32-6.047-5.546-18.304-8.367-36.591-16.771-54.815-25.311-2.463-1.154-3.747-.524-5.453,1.257-7.816,8.16-15.782,16.175-23.694,24.243Z"/>
    </g>
    <g>
      <path class="cls-9" d="M827.335,35.651c20.555-.082,40.961,2.431,61.449,3.611,6.315.364,12.617,1.002,18.935,1.277,2.565.112,3.788.882,4.034,3.589,1.119,12.315,2.806,24.577,3.212,36.96.094,2.856-.303,4.079-3.69,4.371-22.823,1.966-45.616,4.271-68.425,6.399-5.178.483-10.382.972-15.572.947-3.47-.016-4.458.987-4.408,4.509.508,35.881.789,71.766,1.228,107.648.433,35.316.892,70.633,1.515,105.946.229,12.993-2.034,25.774-2.658,38.685-.168,3.471-2.905,2.984-4.901,3.255-9.884,1.343-19.791,2.517-29.691,3.74-9.948,1.23-19.819,1.639-29.721-.868-3.438-.87-4.514-2.355-4.572-5.626-.175-9.987-.546-19.97-.841-29.955-.573-19.406-1.706-38.816-1.586-58.218.179-29.116,1.157-58.229,1.952-87.339.503-18.421,1.282-36.834,1.961-55.25.233-6.325.325-12.666.885-18.964.349-3.923-1.024-4.831-4.793-5.011-33.989-1.621-67.878-4.696-101.8-7.284-2.44-.186-3.133-.884-3.518-3.379-1.907-12.357.587-24.365,2.352-36.448.269-1.839,1.213-2.459,3.075-2.659,27.828-2.982,55.716-4.969,83.69-6.034,26.278-1.001,52.533-2.61,78.802-3.875,4.352-.21,8.723-.03,13.086-.03Z"/>
      <path class="cls-1" d="M847.137,35.651c20.555-.082,40.961,2.431,61.449,3.611,6.315.364,12.617,1.002,18.935,1.277,2.565.112,3.788.882,4.034,3.589,1.119,12.315,2.806,24.577,3.212,36.96.094,2.856-.303,4.079-3.69,4.371-22.823,1.966-45.616,4.271-68.425,6.399-5.178.483-10.382.972-15.572.947-3.47-.016-4.458.987-4.408,4.509.508,35.881.789,71.766,1.228,107.648.433,35.316.892,70.633,1.515,105.946.229,12.993-2.034,25.774-2.658,38.685-.168,3.471-2.905,2.984-4.901,3.255-9.884,1.343-19.791,2.517-29.691,3.74-9.948,1.23-19.819,1.639-29.721-.868-3.438-.87-4.514-2.355-4.572-5.626-.175-9.987-.546-19.97-.841-29.955-.573-19.406-1.706-38.816-1.586-58.218.179-29.116,1.157-58.229,1.952-87.339.503-18.421,1.282-36.834,1.961-55.25.233-6.325.325-12.666.885-18.964.349-3.923-1.024-4.831-4.793-5.011-33.989-1.621-67.878-4.696-101.8-7.284-2.44-.186-3.133-.884-3.518-3.379-1.907-12.357.587-24.365,2.352-36.448.269-1.839,1.213-2.459,3.075-2.659,27.828-2.982,55.716-4.969,83.69-6.034,26.278-1.001,52.533-2.61,78.802-3.875,4.352-.21,8.723-.03,13.086-.03Z"/>
    </g>
    <g>
      <path class="cls-17" d="M1579.113,29.558c6.288-1.663,8.769,1.951,11.434,7.743,7.673,16.681,11.007,34.474,15.055,52.115,7.492,32.651,14.943,65.311,22.359,97.979,6.39,28.15,12.724,56.313,19.051,84.477,5.163,22.984,10.313,45.97,15.391,68.973,1.142,5.176,1.824,10.453,2.978,15.626.68,3.047-.826,4.021-3.31,4.269-6.493.648-12.995,1.205-19.494,1.785-4.875.435-9.788.616-14.611,1.375-2.371.373-2.644-.423-3.089-2.348-5.636-24.416-11.406-48.802-17.077-73.211-5.947-25.6-11.873-51.204-17.67-76.838-.739-3.269-2.186-4.308-5.523-4.443-15.29-.62-30.557-1.843-45.808-2.984-11.039-.825-22.098-1.16-33.123-2.056-3.118-.253-6.239-.613-9.32-1.149-2.551-.444-3.356.996-4.005,2.98-7.832,23.947-15.691,47.885-23.53,71.83-8.348,25.498-16.682,51.001-25.019,76.503-.338,1.035-.658,2.076-.969,3.119-2.192,7.361-2.295,7.429-9.861,6.339-12.546-1.808-25.075-3.772-37.784-4.043-2.217-.047-3.325-.131-2.656-3.242,8.599-39.957,19.864-79.155,32.849-117.89,5.279-15.748,9.504-31.873,15.319-47.411,5.299-14.158,12.032-27.785,18.253-41.591,16.033-35.582,32.138-71.132,48.203-106.699,4.944-10.947,4.926-11.098,17.086-11.207,14.051-.127,28.104.027,42.156.069,4.089.012,8.155-.962,12.716-.069Z"/>
      <polygon class="cls-13" points="1580.073 155.15 1504.399 151.878 1531.768 65.044 1561.238 66.318 1580.073 155.15"/>
    </g>
  </g>
  <g>
    <g>
      <path class="cls-12" d="M714.727,426.634c42.018,4.514,84.232,6.105,126.395,8.459,6.141.343,6.075.353,5.639,6.42-.588,8.181-1.188,16.366-1.523,24.559-.131,3.2-1.067,4.698-4.514,5.051-11.901,1.218-23.76,2.841-35.658,4.101-2.504.265-3.379.894-3.43,3.564-1.343,70.898-2.25,141.799-1.418,212.71.153,13.034.467,26.085,2.116,39.059.353,2.775,1.523,3.883,4.281,4.219,7.896.959,15.81,1.498,23.75,1.319,2.967-.067,3.51.856,3.224,3.706-.672,6.685-.983,13.411-1.26,20.128-.1,2.43-.916,3.235-3.398,3.097-23.911-1.331-47.83-2.532-71.743-3.83-16.926-.919-33.847-1.935-50.77-2.901-9.67-.552-19.339-1.134-29.014-1.595-1.856-.088-2.671-.607-2.545-2.571.68-10.601,1.314-21.206,1.913-31.813.142-2.518,1.77-2.176,3.422-2.033,8.307.719,16.615,1.431,24.925,2.119,5.238.434,10.485.56,15.727.12,2.627-.221,4.174-1.16,4.503-4.387,2.139-20.991,4.556-41.954,6.885-62.925,2.878-25.914,5.778-51.825,8.635-77.741,2.532-22.977,5.015-45.959,7.526-68.937.92-8.416,1.666-16.859,2.896-25.23.429-2.922-.45-4.015-2.939-5.02-16.187-6.539-32.297-13.268-48.504-19.759-2.831-1.134-3.616-2.22-2.528-5.273,2.476-6.95,4.756-13.995,6.606-21.133.931-3.594,2.736-4.431,5.975-3.899,1.588.261,3.215.286,4.824.417Z"/>
      <path class="cls-2" d="M732.22,431.778c42.018,4.514,84.232,6.105,126.395,8.459,6.141.343,6.075.353,5.639,6.42-.588,8.181-1.188,16.366-1.523,24.559-.131,3.2-1.067,4.698-4.514,5.051-11.901,1.218-23.76,2.841-35.658,4.101-2.504.265-3.379.894-3.43,3.564-1.343,70.898-2.25,141.799-1.418,212.71.153,13.034.467,26.085,2.116,39.059.353,2.775,1.523,3.883,4.281,4.219,7.896.959,15.81,1.498,23.75,1.319,2.967-.067,3.51.856,3.224,3.706-.672,6.685-.983,13.411-1.26,20.128-.1,2.43-.916,3.235-3.398,3.097-23.911-1.331-47.83-2.532-71.743-3.83-16.926-.919-33.847-1.935-50.77-2.901-9.67-.552-19.339-1.134-29.014-1.595-1.856-.088-2.671-.607-2.545-2.571.68-10.601,1.314-21.206,1.913-31.813.142-2.518,1.77-2.176,3.422-2.033,8.307.719,16.615,1.431,24.925,2.119,5.238.434,10.485.56,15.727.12,2.627-.221,4.174-1.16,4.503-4.387,2.139-20.991,4.556-41.954,6.885-62.925,2.878-25.914,5.778-51.825,8.635-77.741,2.532-22.977,5.015-45.959,7.526-68.937.92-8.416,1.666-16.859,2.896-25.23.429-2.922-.45-4.015-2.939-5.02-16.187-6.539-32.297-13.268-48.504-19.759-2.831-1.134-3.616-2.22-2.528-5.273,2.476-6.95,4.756-13.995,6.606-21.133.931-3.594,2.736-4.431,5.975-3.899,1.588.261,3.215.286,4.824.417Z"/>
    </g>
    <g>
      <path class="cls-9" d="M1131.882,673.338c0-27.854.583-55.723-.163-83.557-.754-28.152,1.546-56.15,2.41-84.219.661-21.5,2.364-42.984,1.398-64.517-.088-1.955.694-2.189,2.284-2.297,19.586-1.321,39.167-2.698,58.75-4.056,7.78-.54,15.568-.977,23.335-1.659,2.702-.237,3.384.681,3.529,3.267,1.22,21.607,2.548,43.209,3.913,64.807,1.492,23.609,3.068,47.212,4.579,70.819.206,3.221.315,6.452.349,9.68.021,2.046.801,2.845,2.927,2.735,15.045-.779,30.095-1.478,45.143-2.196,4.569-.218,9.137-.519,13.708-.591,3.202-.05,4.669-1.215,4.916-4.646.986-13.671,2.222-27.324,3.402-40.98,1.526-17.67,3.127-35.333,4.618-53.005,1.232-14.596,2.502-29.193,3.423-43.81.249-3.95,1.435-5.614,5.503-6.011,12.835-1.251,25.645-2.782,38.438-4.418,2.403-.307,3.099.095,2.977,2.501-.967,19.069-1.842,38.142-2.781,57.212-.654,13.294-1.101,26.605-2.104,39.874-2.066,27.353,1.084,54.536,2.254,81.783.79,18.403,1.695,36.801,2.641,55.196,1.222,23.764,2.541,47.523,3.805,71.284.357,6.714.606,13.434,1.037,20.143.152,2.361-.585,3.218-3.039,3.53-12.125,1.539-24.249,3.133-36.306,5.122-3.116.514-3.64-.505-3.937-2.992-1.415-11.868-2.893-23.729-4.362-35.591-2.624-21.189-5.258-42.377-7.889-63.565-.844-6.797-1.809-13.583-2.475-20.397-.228-2.329-.811-3.279-3.339-3.172-20.698.877-41.4,1.676-62.105,2.379-2.357.08-3.098.883-3.609,3.149-8.734,38.758-17.633,77.478-26.328,116.244-.781,3.48-1.989,4.7-5.704,4.714-22.34.083-44.681.37-67.016.851-3.436.074-3.951-1.005-3.942-4.02.093-29.863.056-59.726.056-89.589-.1,0-.199,0-.299,0Z"/>
      <path class="cls-10" d="M1144.919,672.047c0-27.854.583-55.723-.163-83.557-.754-28.152,1.546-56.15,2.41-84.219.661-21.5,2.364-42.984,1.398-64.517-.088-1.955.694-2.189,2.284-2.297,19.586-1.321,39.167-2.698,58.75-4.056,7.78-.54,15.568-.977,23.335-1.659,2.702-.237,3.384.681,3.529,3.267,1.22,21.607,2.548,43.209,3.913,64.807,1.492,23.609,3.068,47.212,4.579,70.819.206,3.221.315,6.452.349,9.68.021,2.046.801,2.845,2.927,2.735,15.045-.779,30.095-1.478,45.143-2.196,4.569-.218,9.137-.519,13.708-.591,3.202-.05,4.669-1.215,4.916-4.646.986-13.671,2.222-27.324,3.402-40.98,1.526-17.67,3.127-35.333,4.618-53.005,1.232-14.596,2.502-29.193,3.423-43.81.249-3.95,1.435-5.614,5.503-6.011,12.835-1.251,25.645-2.782,38.438-4.418,2.403-.307,3.099.095,2.977,2.501-.967,19.069-1.842,38.142-2.781,57.212-.654,13.294-1.101,26.605-2.104,39.874-2.066,27.353,1.084,54.536,2.254,81.783.79,18.403,1.695,36.801,2.641,55.196,1.222,23.764,2.541,47.523,3.805,71.284.357,6.714.606,13.434,1.037,20.143.152,2.361-.585,3.218-3.039,3.53-12.125,1.539-24.249,3.133-36.306,5.122-3.116.514-3.64-.505-3.937-2.992-1.415-11.868-2.893-23.729-4.362-35.591-2.624-21.189-5.258-42.377-7.889-63.565-.844-6.797-1.809-13.583-2.475-20.397-.228-2.329-.811-3.279-3.339-3.172-20.698.877-41.4,1.676-62.105,2.379-2.357.08-3.098.883-3.609,3.149-8.734,38.758-17.633,77.478-26.328,116.244-.781,3.48-1.989,4.7-5.704,4.714-22.34.083-44.681.37-67.016.851-3.436.074-3.951-1.005-3.942-4.02.093-29.863.056-59.726.056-89.589-.1,0-.199,0-.299,0Z"/>
    </g>
    <g>
      <path class="cls-1" d="M1499.838,436.208c20.555-.082,40.961,2.431,61.449,3.611,6.315.364,12.617,1.002,18.935,1.277,2.565.112,3.788.882,4.034,3.589,1.119,12.315,2.806,24.577,3.212,36.96.094,2.856-.303,4.079-3.69,4.371-22.823,1.966-45.616,4.271-68.425,6.399-5.178.483-10.382.972-15.572.947-3.47-.016-4.458.987-4.408,4.509.508,35.881.789,71.766,1.228,107.648.433,35.316.892,70.633,1.515,105.946.229,12.993-2.034,25.774-2.658,38.685-.168,3.471-2.905,2.984-4.901,3.255-9.884,1.343-19.791,2.517-29.691,3.74-9.948,1.23-19.819,1.639-29.721-.868-3.438-.87-4.514-2.355-4.572-5.626-.175-9.987-.546-19.97-.841-29.955-.573-19.406-1.706-38.816-1.586-58.218.179-29.116,1.157-58.229,1.952-87.339.503-18.421,1.282-36.834,1.961-55.25.233-6.325.325-12.666.885-18.964.349-3.923-1.024-4.831-4.793-5.011-33.989-1.621-67.878-4.696-101.8-7.284-2.44-.186-3.133-.884-3.518-3.379-1.907-12.357.587-24.365,2.352-36.448.269-1.839,1.213-2.459,3.075-2.659,27.828-2.982,55.716-4.969,83.69-6.034,26.278-1.001,52.533-2.61,78.802-3.875,4.352-.21,8.723-.03,13.086-.03Z"/>
      <path class="cls-19" d="M1529.64,436.208c20.555-.082,40.961,2.431,61.449,3.611,6.315.364,12.617,1.002,18.935,1.277,2.565.112,3.788.882,4.034,3.589,1.119,12.315,2.806,24.577,3.212,36.96.094,2.856-.303,4.079-3.69,4.371-22.823,1.966-45.616,4.271-68.425,6.399-5.178.483-10.382.972-15.572.947-3.47-.016-4.458.987-4.408,4.509.508,35.881.789,71.766,1.228,107.648.433,35.316.892,70.633,1.515,105.946.229,12.993-2.034,25.774-2.658,38.685-.168,3.471-2.905,2.984-4.901,3.255-9.884,1.343-19.791,2.517-29.691,3.74-9.948,1.23-19.819,1.639-29.721-.868-3.438-.87-4.514-2.355-4.572-5.626-.175-9.987-.546-19.97-.841-29.955-.573-19.406-1.706-38.816-1.586-58.218.179-29.116,1.157-58.229,1.952-87.339.503-18.421,1.282-36.834,1.961-55.25.233-6.325.325-12.666.885-18.964.349-3.923-1.024-4.831-4.793-5.011-33.989-1.621-67.878-4.696-101.8-7.284-2.44-.186-3.133-.884-3.518-3.379-1.907-12.357.587-24.365,2.352-36.448.269-1.839,1.213-2.459,3.075-2.659,27.828-2.982,55.716-4.969,83.69-6.034,26.278-1.001,52.533-2.61,78.802-3.875,4.352-.21,8.723-.03,13.086-.03Z"/>
    </g>
    <path class="cls-6" d="M403.134,675.181c0-9.44.313-18.689-.083-27.907-.441-10.26-.285-20.514-.393-30.769-.136-12.999.012-26.001-.114-39-.296-30.628-2.016-61.212-2.987-91.818-.464-14.621-1.59-29.235-1.111-43.881.354-10.838.355-10.702,11.019-8.591,8.68,1.719,17.42,3.16,26.164,4.529,3.54.554,4.857,1.672,4.435,5.751-.912,8.822-.82,17.743-1.392,26.607-1.308,20.282,1.361,40.354,3.269,60.438,2.388,25.141,1.235,50.242.315,75.366-.435,11.891-.373,23.789-.925,35.685-.717,15.435-.681,30.903-1.126,46.352-.641,22.277-1.473,44.549-2.085,66.827-.079,2.864-.658,4.002-3.85,4.118-12.833.466-25.66,1.175-38.472,2.048-2.815.192-3.151-1.592-3.864-3.266-6.196-14.555-12.561-29.042-18.47-43.712-8.13-20.183-17.852-39.52-29.237-58.059-13.911-22.652-23.258-47.524-34.395-71.522-8.099-17.451-15.896-35.041-23.867-52.551-.461-1.014-.584-3.044-2-2.576-1.78.589-4.064,1.188-4.583,3.548-.23,1.047-.081,2.18-.083,3.275-.044,22.853-.056,45.706-.131,68.558-.163,49.668-.37,99.337-.509,149.005-.007,2.684-.063,4.218-3.671,4.634-16.378,1.889-32.704,4.238-49.033,6.532-1.778.25-2.671.164-2.337-1.847,1.471-8.853.421-17.715.17-26.581-.229-8.069-.14-16.146-.285-24.218-.58-32.138-1.185-64.276-1.804-96.414-.5-25.984-1.022-51.967-1.563-77.949-.077-3.689-.131-7.394-.518-11.057-1.99-18.834,2.653-36.846,6.616-54.953,2.707-12.367,5.403-24.736,7.968-37.132.527-2.547,1.498-3.498,4.258-3.586,11.747-.374,23.489-.965,35.22-1.691,3.052-.189,4.537.79,5.9,3.566,19.608,39.944,38.561,80.213,59.043,119.725,20.799,40.122,41.706,80.188,62.592,120.265.397.762.526,1.854,1.92,2.252Z"/>
    <g>
      <path class="cls-1" d="M91.462,760.862c2.176-18.878,4.375-36.622,6.237-54.402,3.066-29.276,7.494-58.41,8.679-87.885.799-19.889,2.206-39.754,3.262-59.633.139-2.618.648-3.784,3.803-4.12,16.876-1.794,33.583.844,50.36,1.466,6.314.234,12.61.983,18.924,1.174,2.764.084,3.712.756,3.466,3.675-1.298,15.411-2.431,30.837-3.58,46.26-.8,10.727-1.901,21.429-2.027,32.205-.479,41.039-1.049,82.076-1.579,123.114-.068,5.281-.056,5.319-5.304,4.719-14.29-1.634-28.571-3.347-42.865-4.937-6.447-.717-12.882.345-19.326.465-5.242.097-10.513.252-15.705.91-3.679.466-5.133-.346-4.344-3.012Z"/>
      <path class="cls-1" d="M144.534,525.28c-8.609,0-17.219-.087-25.825.059-2.256.038-3.254-.832-4.264-2.722-10.845-20.293-17.468-42.036-22.457-64.368-.424-1.899.062-2.955,1.484-4.103,10.773-8.696,21.518-17.426,32.203-26.229,1.648-1.357,3.343-1.531,5.251-1.231,18.707,2.943,37.409,5.918,56.124,8.801,1.663.256,2.606,1.144,3.56,2.319,5.506,6.786,11.006,13.576,16.595,20.293,1.38,1.659,1.96,3.324,1.784,5.504-1.188,14.739-2.313,29.484-3.342,44.235-.126,1.813-.969,2.505-2.419,3.209-9.052,4.399-18.074,8.859-27.075,13.362-1.983.992-3.986,1.38-6.199,1.36-8.473-.078-16.947-.031-25.42-.031,0-.152,0-.304,0-.456Z"/>
    </g>
    <g>
      <path class="cls-9" d="M513.655,766.885c-7.963-1.147-14.618-5.041-21.448-8.361-25.034-12.169-49.968-24.542-74.981-36.755-2.495-1.218-2.87-2.476-1.969-5.095,4.289-12.475,8.382-25.018,12.429-37.574,1.082-3.357,2.135-4.735,6.203-3.065,25.695,10.554,51.534,20.758,77.319,31.093,10.362,4.153,20.743,8.265,31.032,12.595,1.833.772,3.077.379,4.56-.399,13.77-7.228,27.512-14.514,41.362-21.586,2.465-1.259,3.633-2.787,3.273-5.388-.972-7.019-2.074-14.02-3.042-21.039-.26-1.886-1.127-3.146-2.602-4.37-14.153-11.747-30.424-20.294-45.726-30.294-17.258-11.278-34.826-22.08-52.261-33.087-8.198-5.176-16.388-10.365-24.607-15.508-1.984-1.241-2.957-2.731-3.191-5.251-3.072-33.074-6.252-66.138-9.568-99.188-.259-2.579,1.056-3.892,2.48-5.213,8.002-7.42,16.116-14.72,24.167-22.087,11.672-10.68,23.585-21.118,34.858-32.205,4.596-4.521,8.699-2.292,13.067-1.125,13.796,3.684,27.543,7.552,41.297,11.392,16.9,4.717,33.815,9.385,50.674,14.245,17.107,4.931,32.486,13.99,48.821,20.777,6.037,2.508,11.899,5.434,17.915,7.994,2.854,1.215,4.372,2.212,2.986,5.974-1.775,4.815-2.298,10.078-3.562,15.098-1.324,5.256-6.18,7.79-9.412,11.568-2.564,2.996-5.618,5.567-8.3,8.47-1.971,2.134-3.765,2.333-6.426.988-36.166-18.266-72.404-36.387-108.573-54.647-3.535-1.785-5.784-1.742-8.458,1.722-9.009,11.672-18.367,23.077-27.685,34.509-2.169,2.661-2.907,4.958-1.408,8.478,4.707,11.054,8.96,22.303,13.297,33.512.683,1.766,1.583,3.013,3.335,3.85,18.212,8.701,36.171,17.976,54.658,26.043,14.909,6.506,27.152,16.624,39.956,26.127,13.725,10.187,26.17,21.911,39.541,32.518,1.723,1.367,3.025,2.944,3.776,5.168,5.857,17.352,11.812,34.671,17.848,51.962.789,2.26.718,3.964-.616,6.06-14.956,23.502-29.81,47.068-44.646,70.646-.942,1.498-1.8,2.305-3.809,2.28-11.558-.142-23.119-.027-34.679-.074-15.777-.064-31.554-.17-47.331-.305-13.603-.117-27.205-.3-40.551-.45Z"/>
      <path class="cls-18" d="M525.739,772.031c-7.963-1.147-14.618-5.041-21.448-8.361-25.034-12.169-49.968-24.542-74.981-36.755-2.495-1.218-2.87-2.476-1.969-5.095,4.289-12.475,8.382-25.018,12.429-37.574,1.082-3.357,2.135-4.735,6.203-3.065,25.695,10.554,51.534,20.758,77.319,31.093,10.362,4.153,20.743,8.265,31.032,12.595,1.833.772,3.077.379,4.56-.399,13.77-7.228,27.512-14.514,41.362-21.586,2.465-1.259,3.633-2.787,3.273-5.388-.972-7.019-2.074-14.02-3.042-21.039-.26-1.886-1.127-3.146-2.602-4.37-14.153-11.747-30.424-20.294-45.726-30.294-17.258-11.278-34.826-22.08-52.261-33.087-8.198-5.176-16.388-10.365-24.607-15.508-1.984-1.241-2.957-2.731-3.191-5.251-3.072-33.074-6.252-66.138-9.568-99.188-.259-2.579,1.056-3.892,2.48-5.213,8.002-7.42,16.116-14.72,24.167-22.087,11.672-10.68,23.585-21.118,34.858-32.205,4.596-4.521,8.699-2.292,13.067-1.125,13.796,3.684,27.543,7.552,41.297,11.392,16.9,4.717,33.815,9.385,50.674,14.245,17.107,4.931,32.486,13.99,48.821,20.777,6.037,2.508,11.899,5.434,17.915,7.994,2.854,1.215,4.372,2.212,2.986,5.974-1.775,4.815-2.298,10.078-3.562,15.098-1.324,5.256-6.18,7.79-9.412,11.568-2.564,2.996-5.618,5.567-8.3,8.47-1.971,2.134-3.765,2.333-6.426.988-36.166-18.266-72.404-36.387-108.573-54.647-3.535-1.785-5.784-1.742-8.458,1.722-9.009,11.672-18.367,23.077-27.685,34.509-2.169,2.661-2.907,4.958-1.408,8.478,4.707,11.054,8.96,22.303,13.297,33.512.683,1.766,1.583,3.013,3.335,3.85,18.212,8.701,36.171,17.976,54.658,26.043,14.909,6.506,27.152,16.624,39.956,26.127,13.725,10.187,26.17,21.911,39.541,32.518,1.723,1.367,3.025,2.944,3.776,5.168,5.857,17.352,11.812,34.671,17.848,51.962.789,2.26.718,3.964-.616,6.06-14.956,23.502-29.81,47.068-44.646,70.646-.942,1.498-1.8,2.305-3.809,2.28-11.558-.142-23.119-.027-34.679-.074-15.777-.064-31.554-.17-47.331-.305-13.603-.117-27.205-.3-40.551-.45Z"/>
    </g>
    <g>
      <path class="cls-16" d="M1159.769,665.687c0,20.246-.063,40.493.067,60.738.02,3.068-.902,4.464-3.871,5.515-52.043,18.427-104.05,36.955-156.024,55.578-3.604,1.291-6.925.148-10.254-.254-20.626-2.489-41.216-5.27-61.815-7.981-14.139-1.861-28.264-3.824-42.412-5.609-3.563-.449-5.273-2.064-6.527-5.569-11.596-32.42-23.441-64.751-35.222-97.104-2.652-7.283-2.199-14.995-2.952-22.511-2.027-20.251-3.63-40.544-5.385-60.822-.904-10.443-1.83-20.885-2.591-31.339-.104-1.422.589-2.95,1.097-4.362,7.452-20.69,15.092-41.315,22.301-62.089,1.776-5.117,5.822-7.697,9.439-10.736,27.139-22.799,54.425-45.422,81.617-68.158,1.542-1.289,3.102-1.641,4.993-1.685,27.084-.628,54.168-1.292,81.25-1.981,2.733-.07,5.496-.146,8.186-.583,15.17-2.465,28.618,3.168,42.175,8.618,12.243,4.922,24.595,9.575,36.942,14.23,2.681,1.011,4.658,2.613,6.407,4.834,8.939,11.351,17.887,22.699,27.066,33.855,1.509,1.835.98,2.738.014,4.178-15.409,22.985-30.817,45.971-46.169,68.995-1.352,2.028-2.483,2.485-4.715,1.086-33.363-20.908-66.772-41.742-100.18-62.578-14.188-8.849-28.428-17.613-42.565-26.542-2.485-1.57-3.852-1.249-5.549,1.097-21.654,29.941-43.388,59.825-65.112,89.716-1.097,1.509-1.625,3.223-2.169,4.976-6.693,21.575-13.364,43.158-20.223,64.68-.908,2.849-.461,4.739,1.381,6.972,29.036,35.202,58.028,70.441,86.904,105.774,1.955,2.392,3.717,2.957,6.554,2.305,45.186-10.384,90.374-20.754,135.604-30.945,4.189-.944,5.507-2.885,5.783-6.976.889-13.178,2.139-26.333,3.338-39.489.216-2.372.341-3.529-2.927-3.054-19.809,2.88-39.661,5.46-59.497,8.151-11.724,1.591-23.449,3.183-35.167,4.817-2.603.363-3.834-.286-3.911-3.267-.437-16.883-1.017-33.763-1.647-50.64-.103-2.763,1.451-2.777,3.439-2.839,16.882-.528,33.761-1.164,50.644-1.664,32.095-.951,64.192-1.873,96.29-2.716,7.297-.192,6.003-.608,6.024,5.993.062,19.795.022,39.59.022,59.384-.218,0-.436,0-.654,0Z"/>
      <path class="cls-7" d="M1155.409,658.749c0,18.197-.056,36.395.06,54.591.018,2.758-.811,4.012-3.48,4.957-46.776,16.562-93.52,33.215-140.234,49.953-3.239,1.161-6.224.133-9.217-.228-18.538-2.237-37.045-4.737-55.559-7.174-12.708-1.673-25.404-3.437-38.12-5.041-3.203-.404-4.739-1.855-5.866-5.006-10.422-29.139-21.069-58.198-31.657-87.277-2.383-6.546-1.977-13.477-2.653-20.233-1.822-18.201-3.263-36.441-4.84-54.667-.812-9.386-1.645-18.772-2.329-28.167-.093-1.278.529-2.651.986-3.92,6.698-18.596,13.564-37.134,20.044-55.805,1.596-4.599,5.233-6.918,8.483-9.649,24.392-20.492,48.917-40.825,73.358-61.26,1.386-1.159,2.788-1.475,4.487-1.514,24.343-.565,48.686-1.161,73.028-1.78,2.457-.063,4.94-.131,7.358-.524,13.635-2.215,25.722,2.847,37.907,7.746,11.004,4.424,22.106,8.606,33.204,12.79,2.409.908,4.186,2.348,5.759,4.345,8.035,10.202,16.077,20.402,24.327,30.429,1.357,1.649.88,2.461.013,3.755-13.85,20.659-27.699,41.319-41.496,62.013-1.215,1.823-2.232,2.233-4.238.976-29.987-18.792-60.015-37.517-90.042-56.245-12.752-7.953-25.551-15.831-38.257-23.856-2.233-1.411-3.462-1.123-4.987.986-19.463,26.911-38.997,53.77-58.522,80.636-.986,1.356-1.461,2.897-1.949,4.472-6.016,19.392-12.011,38.79-18.177,58.134-.816,2.561-.414,4.259,1.242,6.267,26.098,31.639,52.155,63.312,78.109,95.07,1.757,2.15,3.341,2.657,5.891,2.072,40.613-9.333,81.228-18.654,121.88-27.813,3.765-.848,4.95-2.593,5.197-6.27.799-11.845,1.922-23.668,3-35.493.194-2.132.307-3.172-2.631-2.745-17.804,2.588-35.647,4.908-53.476,7.326-10.538,1.43-21.076,2.861-31.608,4.329-2.339.326-3.446-.257-3.515-2.936-.393-15.175-.914-30.346-1.48-45.516-.093-2.484,1.304-2.496,3.091-2.552,15.174-.474,30.344-1.046,45.519-1.496,28.847-.855,57.696-1.683,86.546-2.441,6.558-.172,5.396-.546,5.414,5.387.056,17.791.02,35.583.02,53.375-.196,0-.392,0-.588,0Z"/>
    </g>
  </g>
</svg>