<?xml version="1.0" encoding="UTF-8"?>
<svg id="Layer_1" data-name="Layer 1" xmlns="http://www.w3.org/2000/svg" viewBox="0 0 1685.079 737.034">
  <defs>
    <style>
      .cls-1 {
        fill: #87264a;
      }

      .cls-2 {
        fill: #db3c7e;
      }

      .cls-3 {
        fill: #f2c934;
      }

      .cls-4 {
        fill: #f6e136;
        stroke: #131313;
      }

      .cls-4, .cls-5, .cls-6 {
        stroke-miterlimit: 10;
        stroke-width: 2px;
      }

      .cls-5 {
        fill: #fffefe;
        stroke: #1e1234;
      }

      .cls-7 {
        fill: #171616;
      }

      .cls-8 {
        fill: #e08a34;
      }

      .cls-9 {
        fill: #b89a30;
      }

      .cls-10 {
        fill: #ce3836;
      }

      .cls-11 {
        fill: #459065;
      }

      .cls-12 {
        fill: #97281f;
      }

      .cls-13 {
        fill: #e6abce;
      }

      .cls-14 {
        fill: #ad325d;
      }

      .cls-15 {
        fill: #1e1234;
      }

      .cls-16 {
        fill: #fbfcfc;
      }

      .cls-17 {
        fill: #43617f;
      }

      .cls-18, .cls-6 {
        fill: #fff;
      }

      .cls-19 {
        fill: #1d1a1b;
      }

      .cls-6 {
        stroke: #406090;
      }

      .cls-20 {
        fill: #406090;
      }

      .cls-21 {
        fill: #ffe532;
      }

      .cls-22 {
        fill: #809fd2;
      }

      .cls-23 {
        fill: #f9f6eb;
      }

      .cls-24 {
        fill: #f3e8c7;
      }

      .cls-25 {
        fill: #e85655;
      }
    </style>
  </defs>
  <g>
    <path class="cls-5" d="M918.398,186.978c-.872,20.255-1.715,40.511-2.657,60.763-.104,2.226.434,3.018,2.793,3.351,22.471,3.17,44.918,6.502,67.373,9.786,13.32,1.949,26.661,3.771,39.948,5.93,3.502.569,4.575-.045,4.902-3.757.877-9.956,2.214-19.877,3.567-29.784.415-3.036-.459-4.177-3.513-4.829-15.159-3.238-30.243-6.82-45.397-10.083-2.789-.601-3.382-1.459-2.647-4.227,2.727-10.272,5.233-20.605,7.724-30.938.559-2.319,1.53-3.566,4.066-4.259,24.222-6.613,48.401-13.389,72.565-20.212,2.367-.668,3.38-.19,4.124,2.188,5.201,16.618,10.506,33.204,15.838,49.78.576,1.791.542,3.55.329,5.317-2.77,22.909-5.601,45.81-8.328,68.724-.2,1.683-.993,2.438-2.348,3.105-21.38,10.53-42.758,21.065-64.096,31.681-1.624.808-2.923.402-4.396-.04-35.21-10.556-70.422-21.101-105.635-31.648-4.171-1.249-8.3-2.679-12.531-3.676-2.792-.658-4.285-2.095-5.332-4.734-8.597-21.662-17.313-43.277-26.021-64.895-.639-1.587-.822-3.181-.822-4.868.013-31.833-.088-63.667.054-95.499.036-8.12,2.963-15.823,4.636-23.696,2.822-13.278,6.024-26.476,8.939-39.735.405-1.844,1.223-2.822,2.865-3.651,24.022-12.128,48.022-24.3,71.987-36.541,2.262-1.155,4.487-1.693,6.985-1.494,17.524,1.396,35.049,2.766,52.575,4.14,8.698.682,17.393,1.405,26.098,1.991,2.135.144,3.926.67,5.636,2.023,9.859,7.8,19.752,15.559,29.717,23.224,1.769,1.361,2.598,2.978,3.056,5.054,4.227,19.135,8.43,38.277,12.844,57.369.66,2.855-.022,3.597-2.697,3.704-14.108.566-28.213,1.21-42.319,1.842-3.846.173-7.705.254-11.528.658-2.496.264-3.334-.625-3.608-3.017-1.315-11.462-2.74-22.911-4.199-34.356-.468-3.668.567-8.393-1.829-10.708-2.274-2.197-6.824-.422-10.346-.274-14.617.617-29.224,1.482-43.839,2.169-1.642.077-2.505.778-3.337,2.058-12.441,19.132-24.905,38.249-37.425,57.33-.999,1.523-1.065,3.083-1.139,4.745-.89,19.996-1.793,39.992-2.693,59.987.02,0,.04.002.06.003Z"/>
    <path class="cls-12" d="M928.35,186.978c-.872,20.255-1.715,40.511-2.657,60.763-.104,2.226.434,3.018,2.793,3.351,22.471,3.17,44.918,6.502,67.373,9.786,13.32,1.949,26.661,3.771,39.948,5.93,3.502.569,4.575-.045,4.902-3.757.877-9.956,2.214-19.877,3.567-29.784.415-3.036-.459-4.177-3.513-4.829-15.159-3.238-30.243-6.82-45.397-10.083-2.789-.601-3.382-1.459-2.647-4.227,2.727-10.272,5.233-20.605,7.724-30.938.559-2.319,1.53-3.566,4.066-4.259,24.222-6.613,48.401-13.389,72.565-20.212,2.367-.668,3.38-.19,4.124,2.188,5.201,16.618,10.506,33.204,15.838,49.78.576,1.791.542,3.55.329,5.317-2.77,22.909-5.601,45.81-8.328,68.724-.2,1.683-.993,2.438-2.348,3.105-21.38,10.53-42.758,21.065-64.096,31.681-1.624.808-2.923.402-4.396-.04-35.21-10.556-70.422-21.101-105.635-31.648-4.171-1.249-8.3-2.679-12.531-3.676-2.792-.658-4.285-2.095-5.332-4.734-8.597-21.662-17.313-43.277-26.021-64.895-.639-1.587-.822-3.181-.822-4.868.013-31.833-.088-63.667.054-95.499.036-8.12,2.963-15.823,4.636-23.696,2.822-13.278,6.024-26.476,8.939-39.735.405-1.844,1.223-2.822,2.865-3.651,24.022-12.128,48.022-24.3,71.987-36.541,2.262-1.155,4.487-1.693,6.985-1.494,17.524,1.396,35.049,2.766,52.575,4.14,8.698.682,17.393,1.405,26.098,1.991,2.135.144,3.926.67,5.636,2.023,9.859,7.8,19.752,15.559,29.717,23.224,1.769,1.361,2.598,2.978,3.056,5.054,4.227,19.135,8.43,38.277,12.844,57.369.66,2.855-.022,3.597-2.697,3.704-14.108.566-28.213,1.21-42.319,1.842-3.846.173-7.705.254-11.528.658-2.496.264-3.334-.625-3.608-3.017-1.315-11.462-2.74-22.911-4.199-34.356-.468-3.668.567-8.393-1.829-10.708-2.274-2.197-6.824-.422-10.346-.274-14.617.617-29.224,1.482-43.839,2.169-1.642.077-2.505.778-3.337,2.058-12.441,19.132-24.905,38.249-37.425,57.33-.999,1.523-1.065,3.083-1.139,4.745-.89,19.996-1.793,39.992-2.693,59.987.02,0,.04.002.06.003Z"/>
  </g>
  <g>
    <path class="cls-11" d="M806.621,280.903c-4.317,4.401-8.656,8.782-12.938,13.216-1.401,1.451-2.98,2.415-5.005,2.634-22.106,2.386-44.232,4.434-66.502,4.351-3.836-.014-7.171-.977-10.577-2.889-19.036-10.687-38.586-20.457-58.547-29.218-10.13-4.446-15.893-11.05-20.235-20.963-12.814-29.254-26.515-58.115-39.049-87.507-4.203-9.856-5.23-19.621-3.682-30.021,2.028-13.625,4.668-27.083,8.313-40.391,2.177-7.95,8.102-12.075,14.107-16.238,22.312-15.469,45.312-29.86,68.813-43.457,3.439-1.99,7.063-2.96,10.989-3.206,17.521-1.101,35.019-.742,52.52.504,5.073.361,9.097,2.301,12.879,5.715,22.728,20.514,43.653,42.835,65.139,64.593,7.813,7.912,15.426,16.022,23.169,24.004,1.215,1.253,2.033,2.482,2.132,4.36,1.56,29.562,3.167,59.116,4.058,88.714.276,9.176-4.182,15.638-9.054,22.184-11.336,15.232-23.832,29.51-36.532,43.616ZM679.822,109.633c.239.235.478.469.717.704-7.107,7.246-14.157,14.549-21.358,21.701-1.944,1.931-2.438,3.589-1.498,6.308,8.155,23.579,16.153,47.213,24.137,70.852.661,1.957,1.642,3.203,3.613,4.054,17.699,7.645,35.369,15.36,52.994,23.175,1.812.803,2.767.355,4.074-.802,13.932-12.324,27.898-24.609,41.911-36.841,1.582-1.381,2.31-2.76,2.223-4.932-.462-11.466-.806-22.937-1.073-34.409-.047-2.022-.566-3.748-1.572-5.445-7.808-13.166-15.64-26.318-23.33-39.552-1.348-2.319-3.022-3.88-5.431-4.981-16.439-7.515-32.863-15.063-49.23-22.732-2.212-1.037-3.365-.471-4.897,1.129-7.019,7.329-14.174,14.527-21.28,21.773Z"/>
    <ellipse class="cls-11" cx="722.786" cy="161.142" rx="73.604" ry="90.332" transform="translate(101.637 564.329) rotate(-45.556)"/>
  </g>
  <path class="cls-24" d="M818.335,268.96c-4.317,4.401-8.656,8.782-12.938,13.216-1.401,1.451-2.98,2.415-5.005,2.634-22.106,2.386-44.232,4.434-66.502,4.351-3.836-.014-7.171-.977-10.577-2.889-19.036-10.687-38.586-20.457-58.547-29.218-10.13-4.446-15.893-11.05-20.235-20.963-12.814-29.254-26.515-58.115-39.049-87.507-4.203-9.856-5.23-19.621-3.682-30.021,2.028-13.625,4.668-27.083,8.313-40.391,2.177-7.95,8.102-12.075,14.107-16.238,22.312-15.469,45.312-29.86,68.813-43.457,3.439-1.99,7.063-2.96,10.989-3.206,17.521-1.101,35.019-.742,52.52.504,5.073.361,9.097,2.301,12.879,5.715,22.728,20.514,43.653,42.835,65.139,64.593,7.813,7.912,15.426,16.022,23.169,24.004,1.215,1.253,2.033,2.482,2.132,4.36,1.56,29.562,3.167,59.116,4.058,88.714.276,9.176-4.182,15.638-9.054,22.184-11.336,15.232-23.832,29.51-36.532,43.616ZM691.536,97.69c.239.235.478.469.717.704-7.107,7.246-14.157,14.549-21.358,21.701-1.944,1.931-2.438,3.589-1.498,6.308,8.155,23.579,16.153,47.213,24.137,70.852.661,1.957,1.642,3.203,3.613,4.054,17.699,7.645,35.369,15.36,52.994,23.175,1.812.803,2.767.355,4.074-.802,13.932-12.324,27.898-24.609,41.911-36.841,1.582-1.381,2.31-2.76,2.223-4.932-.462-11.466-.806-22.937-1.073-34.409-.047-2.022-.566-3.748-1.572-5.445-7.808-13.166-15.64-26.318-23.33-39.552-1.348-2.319-3.022-3.88-5.431-4.981-16.439-7.515-32.863-15.063-49.23-22.732-2.212-1.037-3.365-.471-4.897,1.129-7.019,7.329-14.174,14.527-21.28,21.773Z"/>
  <g>
    <path class="cls-10" d="M406.753,247.59c0,18.183-.056,36.367.06,54.549.018,2.755-.811,4.009-3.477,4.953-46.741,16.549-93.449,33.19-140.127,49.915-3.237,1.16-6.219.133-9.21-.228-18.524-2.235-37.017-4.733-55.517-7.168-12.698-1.671-25.384-3.434-38.091-5.037-3.2-.404-4.735-1.853-5.862-5.002-10.414-29.117-21.053-58.153-31.633-87.21-2.382-6.541-1.975-13.467-2.651-20.218-1.821-18.187-3.26-36.413-4.836-54.625-.812-9.379-1.644-18.757-2.327-28.146-.093-1.277.529-2.649.986-3.917,6.693-18.582,13.554-37.105,20.029-55.762,1.595-4.596,5.229-6.913,8.477-9.642,24.374-20.476,48.88-40.794,73.301-61.213,1.385-1.158,2.786-1.474,4.484-1.513,24.325-.564,48.648-1.16,72.972-1.779,2.455-.062,4.936-.131,7.352-.524,13.624-2.214,25.702,2.845,37.878,7.74,10.995,4.42,22.089,8.6,33.178,12.781,2.407.908,4.183,2.346,5.754,4.341,8.029,10.195,16.064,20.386,24.308,30.406,1.356,1.648.88,2.459.013,3.752-13.839,20.643-27.677,41.287-41.465,61.965-1.214,1.821-2.23,2.232-4.235.975-29.964-18.778-59.969-37.489-89.973-56.202-12.742-7.947-25.532-15.818-38.228-23.838-2.232-1.41-3.46-1.122-4.984.985-19.448,26.89-38.968,53.729-58.477,80.575-.985,1.355-1.46,2.895-1.948,4.469-6.011,19.377-12.002,38.76-18.163,58.09-.816,2.559-.414,4.256,1.241,6.262,26.078,31.615,52.115,63.264,78.05,94.997,1.756,2.148,3.339,2.655,5.886,2.07,40.582-9.326,81.166-18.639,121.787-27.792,3.762-.848,4.946-2.591,5.194-6.265.798-11.836,1.921-23.65,2.998-35.466.194-2.13.306-3.169-2.629-2.742-17.79,2.586-35.62,4.904-53.435,7.321-10.53,1.429-21.06,2.858-31.584,4.326-2.338.326-3.443-.257-3.512-2.934-.392-15.163-.913-30.323-1.479-45.481-.093-2.482,1.303-2.494,3.089-2.55,15.162-.474,30.321-1.045,45.484-1.495,28.825-.854,57.652-1.682,86.479-2.439,6.553-.172,5.391-.546,5.41,5.383.056,17.778.02,35.556.02,53.334-.196,0-.392,0-.588,0Z"/>
    <path class="cls-4" d="M393.528,252.026c0,16.343-.051,32.686.054,49.029.016,2.477-.728,3.603-3.125,4.452-42.01,14.875-83.992,29.831-125.946,44.863-2.909,1.042-5.59.119-8.278-.205-16.65-2.009-33.271-4.254-49.898-6.443-11.413-1.502-22.815-3.087-34.236-4.527-2.876-.363-4.256-1.666-5.268-4.496-9.36-26.17-18.922-52.268-28.432-78.385-2.141-5.879-1.775-12.104-2.383-18.172-1.637-16.347-2.93-32.728-4.347-49.097-.73-8.43-1.477-16.859-2.092-25.297-.084-1.148.475-2.381.886-3.521,6.016-16.701,12.182-33.35,18.002-50.119,1.434-4.131,4.699-6.213,7.619-8.666,21.907-18.404,43.933-36.666,65.883-55.018,1.244-1.04,2.504-1.325,4.03-1.36,21.863-.507,43.725-1.043,65.587-1.599,2.207-.056,4.437-.118,6.608-.471,12.245-1.99,23.101,2.557,34.044,6.957,9.883,3.973,19.853,7.729,29.821,11.487,2.164.816,3.76,2.109,5.172,3.902,7.216,9.163,14.439,18.323,21.848,27.329,1.218,1.481.791,2.21.012,3.373-12.439,18.554-24.876,37.109-37.268,55.694-1.092,1.637-2.004,2.006-3.806.876-26.931-16.877-53.9-33.695-80.867-50.514-11.452-7.143-22.948-14.218-34.359-21.425-2.006-1.267-3.11-1.008-4.479.885-17.48,24.169-35.024,48.292-52.559,72.42-.885,1.218-1.312,2.602-1.751,4.017-5.403,17.416-10.787,34.838-16.325,52.211-.733,2.3-.372,3.825,1.115,5.628,23.439,28.416,46.841,56.862,70.151,85.383,1.578,1.931,3.001,2.387,5.29,1.861,36.475-8.382,72.952-16.753,109.462-24.979,3.381-.762,4.445-2.329,4.668-5.631.718-10.638,1.727-21.257,2.695-31.877.175-1.915.275-2.848-2.363-2.465-15.99,2.325-32.015,4.408-48.027,6.58-9.464,1.284-18.928,2.569-28.388,3.888-2.101.293-3.095-.231-3.157-2.637-.353-13.628-.821-27.254-1.329-40.878-.083-2.231,1.172-2.242,2.776-2.292,13.628-.426,27.253-.939,40.881-1.343,25.908-.768,51.817-1.512,77.728-2.192,5.89-.155,4.846-.491,4.862,4.838.05,15.979.018,31.957.018,47.936-.176,0-.352,0-.528,0Z"/>
  </g>
  <g>
    <path class="cls-9" d="M519.361,57.772c5.506,0,11.013.027,16.519-.016,1.802-.014,3.404.389,4.81,1.544,15.346,12.604,30.49,25.432,44.365,39.685,2.39,2.455,3.862,5.183,4.773,8.551,5.09,18.822,11.087,37.398,17.984,55.605,3.5,9.24,2.893,17.045-.712,26.013-10.64,26.466-20.475,53.252-31.378,79.626-3.656,8.844-9.241,15.606-16.841,21.123-9.957,7.228-20.189,13.961-30.955,19.96-6.431,3.583-12.767,2.386-19.177,1.16-23.818-4.553-47.379-10.219-70.746-16.701-3.42-.949-6.305-2.653-8.917-5.002-11.659-10.484-22.374-21.865-32.525-33.805-2.942-3.461-4.222-7.24-4.41-11.787-1.133-27.322.013-54.625.45-81.933.159-9.93.569-19.857.817-29.786.039-1.559.311-2.849,1.447-4.086,17.874-19.483,35.715-38.991,54.031-58.069,5.678-5.915,12.587-7.114,19.808-8.101,16.802-2.297,33.721-3.259,50.659-3.983ZM489.449,245.738c0-.299,0-.599,0-.898,9.065,0,18.131-.071,27.195.047,2.447.032,3.813-.69,4.959-2.99,9.935-19.947,20.003-39.827,30.084-59.701.835-1.646,1.015-3.05.326-4.839-6.194-16.067-12.325-32.159-18.365-48.285-.621-1.657-1.504-1.986-3.059-2.096-16.571-1.176-33.14-2.399-49.703-3.684-1.871-.145-3.205.253-4.535,1.667-7.022,7.465-14.122,14.859-21.27,22.204-1.26,1.295-2.036,2.705-2.489,4.407-3.512,13.212-7,26.432-10.63,39.612-.636,2.31-.584,4.353.22,6.578,5.489,15.182,10.948,30.375,16.293,45.608.723,2.059,1.804,2.44,3.783,2.417,9.063-.107,18.128-.047,27.192-.047Z"/>
    <path class="cls-1" d="M530.598,57.772c5.506,0,11.013.027,16.519-.016,1.802-.014,3.404.389,4.81,1.544,15.346,12.604,30.49,25.432,44.365,39.685,2.39,2.455,3.862,5.183,4.773,8.551,5.09,18.822,11.087,37.398,17.984,55.605,3.5,9.24,2.893,17.045-.712,26.013-10.64,26.466-20.475,53.252-31.378,79.626-3.656,8.844-9.241,15.606-16.841,21.123-9.957,7.228-20.189,13.961-30.955,19.96-6.431,3.583-12.767,2.386-19.177,1.16-23.818-4.553-47.379-10.219-70.746-16.701-3.42-.949-6.305-2.653-8.917-5.002-11.659-10.484-22.374-21.865-32.525-33.805-2.942-3.461-4.222-7.24-4.41-11.787-1.133-27.322.013-54.625.45-81.933.159-9.93.569-19.857.817-29.786.039-1.559.311-2.849,1.447-4.086,17.874-19.483,35.715-38.991,54.031-58.069,5.678-5.915,12.587-7.114,19.808-8.101,16.802-2.297,33.721-3.259,50.659-3.983ZM500.687,245.738c0-.299,0-.599,0-.898,9.065,0,18.131-.071,27.195.047,2.447.032,3.813-.69,4.959-2.99,9.935-19.947,20.003-39.827,30.084-59.701.835-1.646,1.015-3.05.326-4.839-6.194-16.067-12.325-32.159-18.365-48.285-.621-1.657-1.504-1.986-3.059-2.096-16.571-1.176-33.14-2.399-49.703-3.684-1.871-.145-3.205.253-4.535,1.667-7.022,7.465-14.122,14.859-21.27,22.204-1.26,1.295-2.036,2.705-2.489,4.407-3.512,13.212-7,26.432-10.63,39.612-.636,2.31-.584,4.353.22,6.578,5.489,15.182,10.948,30.375,16.293,45.608.723,2.059,1.804,2.44,3.783,2.417,9.063-.107,18.128-.047,27.192-.047Z"/>
    <g>
      <path class="cls-18" d="M542.78,57.772c5.506,0,11.013.027,16.519-.016,1.802-.014,3.404.389,4.81,1.544,15.346,12.604,30.49,25.432,44.365,39.685,2.39,2.455,3.862,5.183,4.773,8.551,5.09,18.822,11.087,37.398,17.984,55.605,3.5,9.24,2.893,17.045-.712,26.013-10.64,26.466-20.475,53.252-31.378,79.626-3.656,8.844-9.241,15.606-16.841,21.123-9.957,7.228-20.189,13.961-30.955,19.96-6.431,3.583-12.767,2.386-19.177,1.16-23.818-4.553-47.379-10.219-70.746-16.701-3.42-.949-6.305-2.653-8.917-5.002-11.659-10.484-22.374-21.865-32.525-33.805-2.942-3.461-4.222-7.24-4.41-11.787-1.133-27.322.013-54.625.45-81.933.159-9.93.569-19.857.817-29.786.039-1.559.311-2.849,1.447-4.086,17.874-19.483,35.715-38.991,54.031-58.069,5.678-5.915,12.587-7.114,19.808-8.101,16.802-2.297,33.721-3.259,50.659-3.983ZM512.869,245.738c0-.299,0-.599,0-.898,9.065,0,18.131-.071,27.195.047,2.447.032,3.813-.69,4.959-2.99,9.935-19.947,20.003-39.827,30.084-59.701.835-1.646,1.015-3.05.326-4.839-6.194-16.067-12.325-32.159-18.365-48.285-.621-1.657-1.504-1.986-3.059-2.096-16.571-1.176-33.14-2.399-49.703-3.684-1.871-.145-3.205.253-4.535,1.667-7.022,7.465-14.122,14.859-21.27,22.204-1.26,1.295-2.036,2.705-2.489,4.407-3.512,13.212-7,26.432-10.63,39.612-.636,2.31-.584,4.353.22,6.578,5.489,15.182,10.948,30.375,16.293,45.608.723,2.059,1.804,2.44,3.783,2.417,9.063-.107,18.128-.047,27.192-.047Z"/>
      <path class="cls-18" d="M560.709,57.772c5.506,0,11.013.027,16.519-.016,1.802-.014,3.404.389,4.81,1.544,15.346,12.604,30.49,25.432,44.365,39.685,2.39,2.455,3.862,5.183,4.773,8.551,5.09,18.822,11.087,37.398,17.984,55.605,3.5,9.24,2.893,17.045-.712,26.013-10.64,26.466-20.475,53.252-31.378,79.626-3.656,8.844-9.241,15.606-16.841,21.123-9.957,7.228-20.189,13.961-30.955,19.96-6.431,3.583-12.767,2.386-19.177,1.16-23.818-4.553-47.379-10.219-70.746-16.701-3.42-.949-6.305-2.653-8.917-5.002-11.659-10.484-22.374-21.865-32.525-33.805-2.942-3.461-4.222-7.24-4.41-11.787-1.133-27.322.013-54.625.45-81.933.159-9.93.569-19.857.817-29.786.039-1.559.311-2.849,1.447-4.086,17.874-19.483,35.715-38.991,54.031-58.069,5.678-5.915,12.587-7.114,19.808-8.101,16.802-2.297,33.721-3.259,50.659-3.983ZM530.798,245.738c0-.299,0-.599,0-.898,9.065,0,18.131-.071,27.195.047,2.447.032,3.813-.69,4.959-2.99,9.935-19.947,20.003-39.827,30.084-59.701.835-1.646,1.015-3.05.326-4.839-6.194-16.067-12.325-32.159-18.365-48.285-.621-1.657-1.504-1.986-3.059-2.096-16.571-1.176-33.14-2.399-49.703-3.684-1.871-.145-3.205.253-4.535,1.667-7.022,7.465-14.122,14.859-21.27,22.204-1.26,1.295-2.036,2.705-2.489,4.407-3.512,13.212-7,26.432-10.63,39.612-.636,2.31-.584,4.353.22,6.578,5.489,15.182,10.948,30.375,16.293,45.608.723,2.059,1.804,2.44,3.783,2.417,9.063-.107,18.128-.047,27.192-.047Z"/>
    </g>
  </g>
  <g>
    <path class="cls-20" d="M1416.676,242.77c21.037,0,42.075.05,63.111-.064,2.627-.014,3.251.768,3.115,3.252-.69,12.553-1.295,25.112-1.783,37.674-.101,2.601-.923,3.723-3.613,4.241-17.537,3.376-35.033,6.967-52.552,10.436-1.76.348-3.597.547-5.385.48-27.086-1.009-54.154-.333-81.219.764-13.657.554-27.321.34-40.984.338-3.253,0-5.59-1.078-7.677-3.738-4.697-5.984-9.752-11.688-14.677-17.492-.939-1.107-1.784-2.12-1.839-3.767-1.074-32.258-3.726-64.482-3.449-96.759.296-34.448,1.318-68.907,2.942-103.317.726-15.387,3.728-30.663,8.569-45.433.337-1.029.793-2.018,1.157-3.039,1.439-4.027,4-5.902,8.549-6.345,38.715-3.771,77.289-8.803,115.919-13.334,14.874-1.745,29.73-3.649,44.584-5.557,2.694-.346,4.285-.028,5.152,3.129,3.515,12.788,7.278,25.511,11.159,38.193.837,2.736.36,3.699-2.44,4.281-22.918,4.757-45.81,9.64-68.712,14.478-16.526,3.491-33.048,7.004-49.591,10.419-2.229.46-3.121,1.115-2.892,3.705,1.84,20.825,3.571,41.66,5.109,62.509.223,3.016,1.824,2.472,3.564,2.43,28.284-.687,56.57-1.314,84.849-2.158,3.473-.104,4.471.777,4.599,4.239.387,10.506,1.106,21.002,1.855,31.49.149,2.086-.35,2.63-2.428,2.817-29.364,2.636-58.724,5.327-88.073,8.13-5.9.564-4.735-.126-4.548,5.186.613,17.398,1.307,34.795,1.746,52.198.078,3.095.934,3.697,3.901,3.503,20.635-1.349,41.311-1.652,61.983-1.991,0-.299-.002-.598-.003-.897Z"/>
    <path class="cls-6" d="M1430.058,242.77c21.037,0,42.075.05,63.111-.064,2.627-.014,3.251.768,3.115,3.252-.69,12.553-1.295,25.112-1.783,37.674-.101,2.601-.923,3.723-3.613,4.241-17.537,3.376-35.033,6.967-52.552,10.436-1.76.348-3.597.547-5.385.48-27.086-1.009-54.154-.333-81.219.764-13.657.554-27.321.34-40.984.338-3.253,0-5.59-1.078-7.677-3.738-4.697-5.984-9.752-11.688-14.677-17.492-.939-1.107-1.784-2.12-1.839-3.767-1.074-32.258-3.726-64.482-3.449-96.759.296-34.448,1.318-68.907,2.942-103.317.726-15.387,3.728-30.663,8.569-45.433.337-1.029.793-2.018,1.157-3.039,1.439-4.027,4-5.902,8.549-6.345,38.715-3.771,77.289-8.803,115.919-13.334,14.874-1.745,29.73-3.649,44.584-5.557,2.694-.346,4.285-.028,5.152,3.129,3.515,12.788,7.278,25.511,11.159,38.193.837,2.736.36,3.699-2.44,4.281-22.918,4.757-45.81,9.64-68.712,14.478-16.526,3.491-33.048,7.004-49.591,10.419-2.229.46-3.121,1.115-2.892,3.705,1.84,20.825,3.571,41.66,5.109,62.509.223,3.016,1.824,2.472,3.564,2.43,28.284-.687,56.57-1.314,84.849-2.158,3.473-.104,4.471.777,4.599,4.239.387,10.506,1.106,21.002,1.855,31.49.149,2.086-.35,2.63-2.428,2.817-29.364,2.636-58.724,5.327-88.073,8.13-5.9.564-4.735-.126-4.548,5.186.613,17.398,1.307,34.795,1.746,52.198.078,3.095.934,3.697,3.901,3.503,20.635-1.349,41.311-1.652,61.983-1.991,0-.299-.002-.598-.003-.897Z"/>
  </g>
  <g>
    <path class="cls-15" d="M1092.788,226.933c0-26.237-.088-52.474.044-78.71.052-10.367-2.442-20.343-4.067-30.446-5.079-31.574-10.355-63.116-15.563-94.67-.688-4.166-1.391-8.33-2.151-12.483-.363-1.984.211-2.715,2.367-2.808,20.284-.871,40.564-1.855,60.845-2.808,4.829-.227,9.669-.333,14.482-.745,2.775-.238,3.436.744,3.462,3.414.2,20.794.543,41.588.863,62.381.552,35.783,1.013,71.568,1.719,107.348.462,23.445,1.273,46.884,1.965,70.324.107,3.622.532,7.237.581,10.859.028,1.995.858,2.398,2.641,2.36,22.119-.477,44.238-.931,66.358-1.29,2.404-.039,2.405-1.291,2.327-3.004-.305-6.64-.478-13.288-.89-19.922-.166-2.682.429-3.76,3.438-3.836,10.872-.272,21.736-.843,32.6-1.387,2.096-.105,3.238.043,3.337,2.717.852,22.826,1.82,45.648,2.897,68.465.143,3.021-.772,3.957-3.747,4.045-11.717.346-23.458.552-35.132,1.514-10.088.832-20.102,2.588-30.142,3.988-16.258,2.267-32.472,4.928-48.782,6.721-8.385.921-16.853-.986-25.289-1.529-10.485-.676-20.938-1.853-31.424-2.506-2.904-.181-3.542-1.095-3.532-3.831.094-28.052.057-56.105.057-84.158.245,0,.489,0,.734,0Z"/>
    <path class="cls-8" d="M1108.393,225.933c0-26.237-.088-52.474.044-78.71.052-10.367-2.442-20.343-4.067-30.446-5.079-31.574-10.355-63.116-15.563-94.67-.688-4.166-1.391-8.33-2.151-12.483-.363-1.984.211-2.715,2.367-2.808,20.284-.871,40.564-1.855,60.845-2.808,4.829-.227,9.669-.333,14.482-.745,2.775-.238,3.436.744,3.462,3.414.2,20.794.543,41.588.863,62.381.552,35.783,1.013,71.568,1.719,107.348.462,23.445,1.273,46.884,1.965,70.324.107,3.622.532,7.237.581,10.859.028,1.995.858,2.398,2.641,2.36,22.119-.477,44.238-.931,66.358-1.29,2.404-.039,2.405-1.291,2.327-3.004-.305-6.64-.478-13.288-.89-19.922-.166-2.682.429-3.76,3.438-3.836,10.872-.272,21.736-.843,32.6-1.387,2.096-.105,3.238.043,3.337,2.717.852,22.826,1.82,45.648,2.897,68.465.143,3.021-.772,3.957-3.747,4.045-11.717.346-23.458.552-35.132,1.514-10.088.832-20.102,2.588-30.142,3.988-16.258,2.267-32.472,4.928-48.782,6.721-8.385.921-16.853-.986-25.289-1.529-10.485-.676-20.938-1.853-31.424-2.506-2.904-.181-3.542-1.095-3.532-3.831.094-28.052.057-56.105.057-84.158.245,0,.489,0,.734,0Z"/>
  </g>
  <polygon class="cls-18" points="0 737.034 80.432 389.555 180.571 382.777 304.578 703.842 0 737.034"/>
  <path class="cls-7" d="M163.142,408.349c5.448-2.109,8.021.871,10.975,5.776,8.505,14.127,13.248,29.679,18.614,45.023,9.93,28.4,19.824,56.813,29.687,85.236,8.499,24.492,16.949,49.001,25.393,73.513,6.891,20.003,13.77,40.009,20.587,60.037,1.534,4.506,2.666,9.15,4.209,13.652.909,2.652-.338,3.671-2.53,4.139-5.731,1.223-11.479,2.366-17.223,3.529-4.308.873-8.676,1.522-12.906,2.678-2.08.568-2.402-.115-2.99-1.789-7.455-21.235-15.027-42.428-22.513-63.652-7.851-22.26-15.683-44.526-23.403-66.831-.985-2.845-2.379-3.628-5.371-3.418-13.709.964-27.458,1.389-41.185,1.886-9.935.359-19.84,1.159-29.77,1.454-2.809.084-5.63.072-8.433-.1-2.321-.143-2.897,1.223-3.279,3.057-4.613,22.153-9.251,44.3-13.871,66.452-4.919,23.589-9.826,47.18-14.735,70.771-.199.957-.381,1.918-.555,2.881-1.226,6.788-1.311,6.859-8.173,6.637-11.378-.368-22.757-.877-34.128.143-1.983.178-2.981.213-2.692-2.63,3.708-36.52,9.871-72.626,17.615-108.491,3.148-14.581,5.318-29.394,8.966-43.841,3.324-13.164,7.981-25.996,12.163-38.937,10.778-33.353,21.623-66.684,32.431-100.027,3.326-10.262,3.295-10.395,14.138-11.7,12.529-1.508,25.088-2.767,37.636-4.124,3.651-.395,7.184-1.668,11.343-1.324Z"/>
  <g>
    <polygon class="cls-18" points="1356.78 684.966 1273.54 692.113 1249.09 407.347 1332.33 400.2 1387.461 494.031 1378.434 388.886 1449.991 382.742 1475.569 680.652 1393.79 687.673 1339.654 554.037 1356.78 684.966"/>
    <path class="cls-19" d="M1327.469,522.257c.157,5.519.246,10.15.429,14.776.891,22.635,1.781,45.269,2.727,67.902.303,7.254,2.676,14.106,4.425,21.066,3.683,14.655,7.439,29.292,11.294,43.902.517,1.959.352,2.591-1.773,2.627-11.427.193-22.853.478-34.278.743-5.607.13-11.215.246-16.819.458-1.485.056-2.381-.039-2.398-1.91-.075-8.375-1.13-16.689-1.703-25.034-2.765-40.262-6.474-80.45-9.491-120.692-2.534-33.801-5.52-67.562-8.322-101.34-.209-2.521.405-3.256,2.892-3.396,17.549-.988,35.095-2.062,52.632-3.245,2.324-.157,2.866,1.281,3.658,2.744,11.28,20.824,22.553,41.652,33.832,62.477,17.222,31.796,34.447,63.591,51.673,95.385.284.524.589,1.036,1.126,1.977-.767-8.936-1.474-17.31-2.214-25.681-.177-2.002-.504-3.991-.696-5.993-2.936-30.575-5.844-61.152-8.797-91.726-.906-9.381-1.87-18.757-2.937-28.121-.246-2.163.13-3.395,2.297-4.418,4.775-2.253,9.451-4.753,14.007-7.425,3.536-2.074,7.247-2.663,11.237-2.633,3.064.023,6.151-.152,9.19-.537,2.364-.299,2.812.661,2.915,2.757,1.103,22.523,2.253,45.044,3.462,67.562,1.255,23.366,2.603,46.727,3.884,70.091,1.078,19.663,2.134,39.328,3.169,58.994.896,17.021,1.705,34.048,2.681,51.065.122,2.124-.53,2.721-2.483,2.985-12.483,1.687-24.945,3.513-37.561,3.955-7.059.247-7.603.029-10.398-6.538-12.79-30.048-24.814-60.411-37.113-90.66-2.01-4.944-5.817-8.535-8.982-12.59-9.832-12.599-19.837-25.063-29.782-37.575-.381-.48-.827-.908-1.786-1.952Z"/>
  </g>
  <g>
    <path class="cls-25" d="M1014.485,415.031c18.461-.074,36.788,2.183,55.188,3.243,5.672.327,11.331.9,17.006,1.147,2.304.101,3.402.792,3.623,3.223,1.005,11.06,2.52,22.072,2.885,33.194.084,2.565-.272,3.663-3.314,3.925-20.497,1.766-40.968,3.836-61.453,5.747-4.65.434-9.324.873-13.985.851-3.116-.015-4.004.887-3.959,4.05.456,32.225.708,64.454,1.103,96.68.389,31.718.802,63.436,1.361,95.151.206,11.669-1.827,23.148-2.387,34.743-.151,3.118-2.609,2.68-4.402,2.924-8.877,1.206-17.774,2.26-26.666,3.359-8.934,1.104-17.799,1.472-26.692-.779-3.088-.782-4.054-2.115-4.106-5.053-.157-8.969-.491-17.935-.755-26.903-.514-17.429-1.532-34.861-1.425-52.286.161-26.15,1.039-52.296,1.753-78.44.452-16.544,1.152-33.081,1.761-49.621.209-5.681.292-11.376.795-17.032.314-3.523-.92-4.339-4.305-4.5-30.526-1.456-60.962-4.217-91.428-6.542-2.192-.167-2.814-.794-3.16-3.034-1.713-11.098.527-21.883,2.113-32.734.241-1.652,1.089-2.209,2.762-2.388,24.993-2.678,50.039-4.462,75.163-5.419,23.601-.899,47.18-2.344,70.773-3.48,3.909-.188,7.834-.027,11.752-.027Z"/>
    <path class="cls-23" d="M1041.25,415.031c18.461-.074,36.788,2.183,55.188,3.243,5.672.327,11.331.9,17.006,1.147,2.304.101,3.402.792,3.623,3.223,1.005,11.06,2.52,22.072,2.885,33.194.084,2.565-.272,3.663-3.314,3.925-20.497,1.766-40.968,3.836-61.453,5.747-4.65.434-9.324.873-13.985.851-3.116-.015-4.004.887-3.959,4.05.456,32.225.708,64.454,1.103,96.68.389,31.718.802,63.436,1.361,95.151.206,11.669-1.827,23.148-2.387,34.743-.151,3.118-2.609,2.68-4.402,2.924-8.877,1.206-17.774,2.26-26.666,3.359-8.934,1.104-17.799,1.472-26.692-.779-3.088-.782-4.054-2.115-4.106-5.053-.157-8.969-.491-17.935-.755-26.903-.514-17.429-1.532-34.861-1.425-52.286.161-26.15,1.039-52.296,1.753-78.44.452-16.544,1.152-33.081,1.761-49.621.209-5.681.292-11.376.795-17.032.314-3.523-.92-4.339-4.305-4.5-30.526-1.456-60.962-4.217-91.428-6.542-2.192-.167-2.814-.794-3.16-3.034-1.713-11.098.527-21.883,2.113-32.734.241-1.652,1.089-2.209,2.762-2.388,24.993-2.678,50.039-4.462,75.163-5.419,23.601-.899,47.18-2.344,70.773-3.48,3.909-.188,7.834-.027,11.752-.027Z"/>
  </g>
  <g>
    <path class="cls-22" d="M1164.977,381.741c5.016-2.993,8.054-.487,11.788,3.853,10.755,12.5,18.04,27.035,25.904,41.262,14.554,26.331,29.075,52.681,43.567,79.047,12.488,22.719,24.93,45.463,37.367,68.21,10.149,18.563,20.288,37.132,30.368,55.732,2.268,4.185,4.163,8.573,6.44,12.752,1.341,2.462.283,3.676-1.8,4.505-5.445,2.167-10.92,4.258-16.387,6.369-4.101,1.583-8.297,2.956-12.273,4.805-1.955.909-2.387.29-3.248-1.262-10.912-19.683-21.933-39.305-32.873-58.973-11.474-20.627-22.931-41.264-34.284-61.958-1.448-2.639-2.954-3.178-5.868-2.468-13.353,3.251-26.836,5.976-40.284,8.769-9.734,2.021-19.364,4.471-29.104,6.429-2.755.554-5.538,1.016-8.331,1.316-2.312.248-2.651,1.691-2.72,3.564-.83,22.613-1.687,45.225-2.525,67.837-.892,24.08-1.771,48.16-2.653,72.24-.036.977-.054,1.955-.064,2.933-.069,6.897-.142,6.982-6.943,7.914-11.278,1.546-22.581,2.953-33.62,5.867-1.925.508-2.903.71-3.095-2.141-2.472-36.624-2.454-73.253-.837-109.908.657-14.903.311-29.87,1.483-44.724,1.068-13.535,3.506-26.966,5.458-40.426,5.029-34.688,10.128-69.366,15.189-104.05,1.557-10.675,1.504-10.8,11.975-13.906,12.099-3.589,24.269-6.937,36.41-10.38,3.533-1.002,6.802-2.85,10.96-3.208Z"/>
    <polygon class="cls-17" points="1196.909 489.926 1130.77 505.842 1132.893 424.101 1158.65 417.903 1196.909 489.926"/>
  </g>
  <g>
    <path class="cls-25" d="M1583.569,396.476c18.385,1.675,36.416,5.657,54.633,8.454,5.615.862,11.195,1.969,16.821,2.752,2.284.318,3.311,1.11,3.301,3.552-.047,11.106.419,22.212-.271,33.318-.159,2.562-.618,3.621-3.671,3.594-20.572-.183-41.147-.061-61.721-.098-4.671-.008-9.365-.014-14.003-.477-3.101-.31-4.07.503-4.325,3.657-2.597,32.124-5.398,64.231-8.056,96.35-2.616,31.612-5.209,63.227-7.655,94.852-.9,11.636-4.01,22.871-5.666,34.361-.445,3.089-2.851,2.421-4.659,2.494-8.951.36-17.909.567-26.864.819-8.998.253-17.859-.22-26.499-3.303-3-1.071-3.836-2.489-3.609-5.419.693-8.944,1.21-17.901,1.796-26.853,1.138-17.399,1.776-34.849,3.533-52.186,2.637-26.017,5.986-51.963,9.173-77.922,2.017-16.427,4.279-32.824,6.452-49.231.746-5.635,1.368-11.297,2.404-16.88.646-3.478-.505-4.406-3.859-4.888-30.251-4.34-60.288-9.971-90.398-15.17-2.166-.374-2.726-1.057-2.858-3.32-.654-11.21,2.597-21.735,5.203-32.387.397-1.622,1.294-2.096,2.975-2.116,25.134-.3,50.237.296,75.338,1.723,23.58,1.34,47.19,2.134,70.784,3.237,3.909.183,7.802.715,11.702,1.086Z"/>
    <path class="cls-23" d="M1610.214,399.01c18.385,1.675,36.416,5.657,54.633,8.454,5.615.862,11.195,1.969,16.821,2.752,2.284.318,3.311,1.11,3.301,3.552-.047,11.106.419,22.212-.271,33.318-.159,2.562-.618,3.621-3.671,3.594-20.572-.183-41.147-.061-61.721-.098-4.671-.008-9.365-.014-14.003-.477-3.101-.31-4.07.503-4.325,3.657-2.597,32.124-5.398,64.231-8.056,96.35-2.616,31.612-5.209,63.227-7.655,94.852-.9,11.636-4.01,22.871-5.666,34.361-.445,3.089-2.851,2.421-4.659,2.494-8.951.36-17.909.567-26.864.819-8.998.253-17.859-.22-26.499-3.303-3-1.071-3.836-2.489-3.609-5.419.693-8.944,1.21-17.901,1.796-26.853,1.138-17.399,1.776-34.849,3.533-52.186,2.637-26.017,5.986-51.963,9.173-77.922,2.017-16.427,4.279-32.824,6.452-49.231.746-5.635,1.368-11.297,2.404-16.88.646-3.478-.505-4.406-3.859-4.888-30.251-4.34-60.288-9.971-90.398-15.17-2.166-.374-2.726-1.057-2.858-3.32-.654-11.21,2.597-21.735,5.203-32.387.397-1.622,1.294-2.096,2.975-2.116,25.134-.3,50.237.296,75.338,1.723,23.58,1.34,47.19,2.134,70.784,3.237,3.909.183,7.802.715,11.702,1.086Z"/>
  </g>
  <g>
    <path class="cls-2" d="M627.853,701.151c1.617-14.027,3.251-27.212,4.634-40.423,2.278-21.754,5.569-43.402,6.449-65.303.594-14.779,1.639-29.539,2.424-44.311.103-1.945.481-2.812,2.826-3.061,12.54-1.333,24.954.627,37.42,1.089,4.692.174,9.37.73,14.062.873,2.054.062,2.758.562,2.576,2.731-.964,11.452-1.806,22.913-2.66,34.374-.594,7.97-1.413,15.923-1.506,23.93-.356,30.494-.779,60.987-1.173,91.481-.051,3.924-.042,3.952-3.941,3.506-10.618-1.214-21.229-2.487-31.851-3.669-4.79-.533-9.572.257-14.36.346-3.895.072-7.812.187-11.67.676-2.734.346-3.814-.257-3.228-2.238Z"/>
    <path class="cls-2" d="M667.289,526.1c-6.397,0-12.795-.064-19.189.044-1.677.028-2.418-.618-3.169-2.023-8.058-15.079-12.979-31.235-16.687-47.829-.315-1.411.046-2.196,1.103-3.049,8.005-6.461,15.989-12.949,23.929-19.49,1.224-1.009,2.484-1.138,3.902-.915,13.9,2.187,27.797,4.397,41.704,6.539,1.235.19,1.936.85,2.645,1.723,4.091,5.042,8.178,10.088,12.331,15.079,1.025,1.233,1.456,2.47,1.326,4.09-.883,10.952-1.719,21.908-2.483,32.869-.094,1.347-.72,1.861-1.797,2.384-6.726,3.268-13.43,6.583-20.118,9.928-1.473.737-2.962,1.026-4.606,1.011-6.296-.058-12.592-.023-18.888-.023,0-.113,0-.226,0-.339Z"/>
  </g>
  <g>
    <path class="cls-3" d="M379.192,612.962c-.82-11.134-1.654-21.733-2.339-32.342-.148-2.29-1.164-3.282-3.235-4.085-25.755-9.993-51.488-20.041-77.183-30.185-5.553-2.192-9.992-6.277-14.826-9.653-14.958-10.445-29.624-21.279-44.051-32.46-7.386-5.725-10.497-12.504-10.31-21.74.302-14.917,2.188-29.608,4.611-44.277.257-1.556,1.102-2.276,2.29-2.964,21.519-12.471,43.018-24.977,64.559-37.411,3.278-1.892,7.117-2.217,10.716-3.163,10.732-2.821,21.522-5.421,32.253-8.24,2.227-.585,4.243-.487,6.368.216,21.875,7.231,43.745,14.479,65.661,21.583,2.272.736,2.742,1.755,2.361,3.884-2.619,14.611-5.233,29.223-7.682,43.863-.393,2.349-.911,2.745-3.138,1.831-20.424-8.383-40.906-16.624-61.321-25.027-2.216-.912-3.849-.912-5.984.296-15.654,8.859-31.372,17.606-47.138,26.267-2.247,1.234-3.382,2.606-3.449,5.252-.124,4.948-.553,9.891-.946,14.829-.116,1.461.376,2.502,1.329,3.553,11.284,12.441,22.535,24.913,33.797,37.373,1.602,1.772,3.873,2.422,5.929,3.38,24.611,11.466,49.287,22.805,73.493,35.104,13.657,6.939,11.694,3.551,15.496,19.415,4.167,17.38,6.589,35.099,9.129,52.781.892,6.212,1.712,12.436,2.663,18.639.281,1.83.085,3.036-1.67,4.228-18.387,12.484-36.737,25.024-54.98,37.717-2.693,1.874-5.492,2.273-8.485,2.428-20.76,1.074-41.523,2.089-62.282,3.17-17.5.911-34.999,1.832-52.49,2.885-3.125.188-4.878-.653-6.508-3.565-12.152-21.7-24.494-43.294-36.932-64.832-1.421-2.461-.881-3.357,1.276-4.694,18.679-11.584,37.325-23.224,55.886-34.995,2.656-1.684,3.68-1.254,4.984,1.459,3.083,6.414,6.581,12.628,9.773,18.992,7.765,15.483,20.614,26.593,32.797,38.273,2.511,2.407,5.783,2.169,8.934,1.929,10.73-.817,21.31-2.714,31.907-4.485,3.452-.577,6.887-1.482,10.359-1.659,4.002-.204,6.432-2.167,8.333-5.42,4.293-7.345,7.092-15.314,9.914-23.276.621-1.752.15-3.602.134-4.875Z"/>
    <path class="cls-14" d="M392.293,609.616c-.82-11.134-1.654-21.733-2.339-32.342-.148-2.29-1.164-3.282-3.235-4.085-25.755-9.993-51.488-20.041-77.183-30.185-5.553-2.192-9.992-6.277-14.826-9.653-14.958-10.445-29.624-21.279-44.051-32.46-7.386-5.725-10.497-12.504-10.31-21.74.302-14.917,2.188-29.608,4.611-44.277.257-1.556,1.102-2.276,2.29-2.964,21.519-12.471,43.018-24.977,64.559-37.411,3.278-1.892,7.117-2.217,10.716-3.163,10.732-2.821,21.522-5.421,32.253-8.24,2.227-.585,4.243-.487,6.368.216,21.875,7.231,43.745,14.479,65.661,21.583,2.272.736,2.742,1.755,2.361,3.884-2.619,14.611-5.233,29.223-7.682,43.863-.393,2.349-.911,2.745-3.138,1.831-20.424-8.383-40.906-16.624-61.321-25.027-2.216-.912-3.849-.912-5.984.296-15.654,8.859-31.372,17.606-47.138,26.267-2.247,1.234-3.382,2.606-3.449,5.252-.124,4.948-.553,9.891-.946,14.829-.116,1.461.376,2.502,1.329,3.553,11.284,12.441,22.535,24.913,33.797,37.373,1.602,1.772,3.873,2.422,5.929,3.38,24.611,11.466,49.287,22.805,73.493,35.104,13.657,6.939,11.694,3.551,15.496,19.415,4.167,17.38,6.589,35.099,9.129,52.781.892,6.212,1.712,12.436,2.663,18.639.281,1.83.085,3.036-1.67,4.228-18.387,12.484-36.737,25.024-54.98,37.717-2.693,1.874-5.492,2.273-8.485,2.428-20.76,1.074-41.523,2.089-62.282,3.17-17.5.911-34.999,1.832-52.49,2.885-3.125.188-4.878-.653-6.508-3.565-12.152-21.7-24.494-43.294-36.932-64.832-1.421-2.461-.881-3.357,1.276-4.694,18.679-11.584,37.325-23.224,55.886-34.995,2.656-1.684,3.68-1.254,4.984,1.459,3.083,6.414,6.581,12.628,9.773,18.992,7.765,15.483,20.614,26.593,32.797,38.273,2.511,2.407,5.783,2.169,8.934,1.929,10.73-.817,21.31-2.714,31.907-4.485,3.452-.577,6.887-1.482,10.359-1.659,4.002-.204,6.432-2.167,8.333-5.42,4.293-7.345,7.092-15.314,9.914-23.276.621-1.752.15-3.602.134-4.875Z"/>
  </g>
  <g>
    <path class="cls-15" d="M454.559,693.631c-7.151-1.03-13.129-4.527-19.263-7.509-22.483-10.929-44.877-22.042-67.341-33.01-2.241-1.094-2.578-2.224-1.769-4.576,3.852-11.204,7.528-22.469,11.163-33.746.972-3.015,1.918-4.253,5.571-2.752,23.077,9.478,46.283,18.643,69.441,27.925,9.307,3.73,18.63,7.423,27.87,11.312,1.647.693,2.764.341,4.095-.358,12.367-6.491,24.708-13.035,37.147-19.387,2.214-1.13,3.263-2.503,2.94-4.839-.873-6.304-1.863-12.591-2.732-18.895-.234-1.694-1.012-2.825-2.337-3.925-12.711-10.55-27.324-18.227-41.067-27.207-15.499-10.129-31.278-19.83-46.936-29.716-7.363-4.648-14.719-9.309-22.1-13.928-1.782-1.115-2.656-2.453-2.866-4.716-2.759-29.704-5.615-59.399-8.593-89.082-.232-2.316.948-3.496,2.227-4.682,7.187-6.664,14.474-13.22,21.705-19.837,10.483-9.592,21.182-18.966,31.306-28.924,4.128-4.06,7.812-2.058,11.736-1.01,12.39,3.309,24.736,6.783,37.089,10.231,15.178,4.237,30.37,8.429,45.511,12.794,15.364,4.429,29.176,12.565,43.847,18.66,5.422,2.252,10.686,4.88,16.089,7.179,2.563,1.091,3.927,1.987,2.681,5.365-1.594,4.324-2.064,9.051-3.199,13.559-1.189,4.721-5.551,6.997-8.453,10.389-2.303,2.691-5.046,5-7.454,7.607-1.77,1.917-3.381,2.095-5.772.888-32.481-16.405-65.027-32.68-97.511-49.079-3.175-1.603-5.195-1.565-7.596,1.547-8.091,10.483-16.496,20.726-24.864,30.993-1.948,2.39-2.61,4.452-1.264,7.614,4.228,9.928,8.047,20.03,11.942,30.097.613,1.586,1.422,2.706,2.995,3.457,16.357,7.814,32.486,16.145,49.089,23.39,13.39,5.843,24.386,14.93,35.885,23.465,12.327,9.149,23.504,19.679,35.512,29.204,1.547,1.227,2.717,2.644,3.391,4.641,5.26,15.584,10.608,31.139,16.029,46.667.709,2.03.645,3.56-.553,5.442-13.432,21.107-26.773,42.272-40.097,63.448-.846,1.345-1.617,2.07-3.421,2.048-10.38-.127-20.763-.025-31.145-.067-14.17-.058-28.339-.152-42.509-.274-12.217-.105-24.433-.269-36.42-.404Z"/>
    <path class="cls-13" d="M465.018,700.383c-7.151-1.03-13.129-4.527-19.263-7.509-22.483-10.929-44.877-22.042-67.341-33.01-2.241-1.094-2.578-2.224-1.769-4.576,3.852-11.204,7.528-22.469,11.163-33.746.972-3.015,1.918-4.253,5.571-2.752,23.077,9.478,46.283,18.643,69.441,27.925,9.307,3.73,18.63,7.423,27.87,11.312,1.647.693,2.764.341,4.095-.358,12.367-6.491,24.708-13.035,37.147-19.387,2.214-1.13,3.263-2.503,2.94-4.839-.873-6.304-1.863-12.591-2.732-18.895-.234-1.694-1.012-2.825-2.337-3.925-12.711-10.55-27.324-18.227-41.067-27.207-15.499-10.129-31.278-19.83-46.936-29.716-7.363-4.648-14.719-9.309-22.1-13.928-1.782-1.115-2.656-2.453-2.866-4.716-2.759-29.704-5.615-59.399-8.593-89.082-.232-2.316.948-3.496,2.227-4.682,7.187-6.664,14.474-13.22,21.705-19.837,10.483-9.592,21.182-18.966,31.306-28.924,4.128-4.06,7.812-2.058,11.736-1.01,12.39,3.309,24.736,6.783,37.089,10.231,15.178,4.237,30.37,8.429,45.511,12.794,15.364,4.429,29.176,12.565,43.847,18.66,5.422,2.252,10.686,4.88,16.089,7.179,2.563,1.091,3.927,1.987,2.681,5.365-1.594,4.324-2.064,9.051-3.199,13.559-1.189,4.721-5.551,6.997-8.453,10.389-2.303,2.691-5.046,5-7.454,7.607-1.77,1.917-3.381,2.095-5.772.888-32.481-16.405-65.027-32.68-97.511-49.079-3.175-1.603-5.195-1.565-7.596,1.547-8.091,10.483-16.496,20.726-24.864,30.993-1.948,2.39-2.61,4.452-1.264,7.614,4.228,9.928,8.047,20.03,11.942,30.097.613,1.586,1.422,2.706,2.995,3.457,16.357,7.814,32.486,16.145,49.089,23.39,13.39,5.843,24.386,14.93,35.885,23.465,12.327,9.149,23.504,19.679,35.512,29.204,1.547,1.227,2.717,2.644,3.391,4.641,5.26,15.584,10.608,31.139,16.029,46.667.709,2.03.645,3.56-.553,5.442-13.432,21.107-26.773,42.272-40.097,63.448-.846,1.345-1.617,2.07-3.421,2.048-10.38-.127-20.763-.025-31.145-.067-14.17-.058-28.339-.152-42.509-.274-12.217-.105-24.433-.269-36.42-.404Z"/>
  </g>
  <g>
    <path class="cls-16" d="M867.653,621.326c-.82-11.134-1.654-21.733-2.339-32.342-.148-2.29-1.164-3.282-3.235-4.085-25.755-9.993-51.488-20.041-77.183-30.185-5.553-2.192-9.992-6.277-14.826-9.653-14.958-10.445-29.624-21.279-44.051-32.46-7.386-5.725-10.497-12.504-10.31-21.74.302-14.917,2.188-29.608,4.611-44.277.257-1.556,1.102-2.276,2.29-2.964,21.519-12.471,43.018-24.977,64.559-37.411,3.278-1.892,7.117-2.217,10.716-3.163,10.732-2.821,21.522-5.421,32.253-8.24,2.227-.585,4.243-.487,6.368.216,21.875,7.231,43.745,14.479,65.661,21.583,2.272.736,2.742,1.755,2.361,3.884-2.619,14.611-5.233,29.223-7.682,43.863-.393,2.349-.911,2.745-3.138,1.831-20.424-8.383-40.906-16.624-61.321-25.027-2.216-.912-3.849-.912-5.984.296-15.654,8.859-31.372,17.606-47.138,26.267-2.247,1.234-3.382,2.606-3.449,5.252-.124,4.948-.553,9.891-.946,14.829-.116,1.461.376,2.502,1.329,3.553,11.284,12.441,22.535,24.913,33.797,37.373,1.602,1.772,3.873,2.422,5.929,3.38,24.611,11.466,49.287,22.805,73.493,35.104,13.657,6.939,11.694,3.551,15.496,19.415,4.167,17.38,6.589,35.099,9.129,52.781.892,6.212,1.712,12.436,2.663,18.639.281,1.83.085,3.036-1.67,4.228-18.387,12.484-36.737,25.024-54.98,37.717-2.693,1.874-5.492,2.273-8.485,2.428-20.76,1.074-41.523,2.089-62.282,3.17-17.5.911-34.999,1.832-52.49,2.885-3.125.188-4.878-.653-6.508-3.565-12.152-21.7-24.494-43.294-36.932-64.832-1.421-2.461-.881-3.357,1.276-4.694,18.679-11.584,37.325-23.224,55.886-34.995,2.656-1.684,3.68-1.254,4.984,1.459,3.083,6.414,6.581,12.628,9.773,18.992,7.765,15.483,20.614,26.593,32.797,38.273,2.511,2.407,5.783,2.169,8.934,1.929,10.73-.817,21.31-2.714,31.907-4.485,3.452-.577,6.887-1.482,10.359-1.659,4.002-.204,6.432-2.167,8.333-5.42,4.293-7.345,7.092-15.314,9.914-23.276.621-1.752.15-3.602.134-4.875Z"/>
    <path class="cls-21" d="M881.035,621.326c-.82-11.134-1.654-21.733-2.339-32.342-.148-2.29-1.164-3.282-3.235-4.085-25.755-9.993-51.488-20.041-77.183-30.185-5.553-2.192-9.992-6.277-14.826-9.653-14.958-10.445-29.624-21.279-44.051-32.46-7.386-5.725-10.497-12.504-10.31-21.74.302-14.917,2.188-29.608,4.611-44.277.257-1.556,1.102-2.276,2.29-2.964,21.519-12.471,43.018-24.977,64.559-37.411,3.278-1.892,7.117-2.217,10.716-3.163,10.732-2.821,21.522-5.421,32.253-8.24,2.227-.585,4.243-.487,6.368.216,21.875,7.231,43.745,14.479,65.661,21.583,2.272.736,2.742,1.755,2.361,3.884-2.619,14.611-5.233,29.223-7.682,43.863-.393,2.349-.911,2.745-3.138,1.831-20.424-8.383-40.906-16.624-61.321-25.027-2.216-.912-3.849-.912-5.984.296-15.654,8.859-31.372,17.606-47.138,26.267-2.247,1.234-3.382,2.606-3.449,5.252-.124,4.948-.553,9.891-.946,14.829-.116,1.461.376,2.502,1.329,3.553,11.284,12.441,22.535,24.913,33.797,37.373,1.602,1.772,3.873,2.422,5.929,3.38,24.611,11.466,49.287,22.805,73.493,35.104,13.657,6.939,11.694,3.551,15.496,19.415,4.167,17.38,6.589,35.099,9.129,52.781.892,6.212,1.712,12.436,2.663,18.639.281,1.83.085,3.036-1.67,4.228-18.387,12.484-36.737,25.024-54.98,37.717-2.693,1.874-5.492,2.273-8.485,2.428-20.76,1.074-41.523,2.089-62.282,3.17-17.5.911-34.999,1.832-52.49,2.885-3.125.188-4.878-.653-6.508-3.565-12.152-21.7-24.494-43.294-36.932-64.832-1.421-2.461-.881-3.357,1.276-4.694,18.679-11.584,37.325-23.224,55.886-34.995,2.656-1.684,3.68-1.254,4.984,1.459,3.083,6.414,6.581,12.628,9.773,18.992,7.765,15.483,20.614,26.593,32.797,38.273,2.511,2.407,5.783,2.169,8.934,1.929,10.73-.817,21.31-2.714,31.907-4.485,3.452-.577,6.887-1.482,10.359-1.659,4.002-.204,6.432-2.167,8.333-5.42,4.293-7.345,7.092-15.314,9.914-23.276.621-1.752.15-3.602.134-4.875Z"/>
  </g>
</svg>