<?xml version="1.0" encoding="UTF-8"?>
<svg id="Layer_1" data-name="Layer 1" xmlns="http://www.w3.org/2000/svg" viewBox="0 0 1091.968 735.202">
  <defs>
    <style>
      .cls-1 {
        fill: #f4d038;
      }

      .cls-2 {
        fill: #f6e136;
        stroke: #131313;
      }

      .cls-2, .cls-3, .cls-4, .cls-5 {
        stroke-miterlimit: 10;
      }

      .cls-2, .cls-5 {
        stroke-width: 2px;
      }

      .cls-6 {
        fill: #f9f9fa;
      }

      .cls-7 {
        fill: #ea6b94;
      }

      .cls-8 {
        fill: #eaae32;
      }

      .cls-9 {
        fill: #453f40;
      }

      .cls-10 {
        fill: #ce3836;
      }

      .cls-11 {
        fill: #e6abce;
      }

      .cls-12 {
        fill: #ad325d;
      }

      .cls-3 {
        fill: #306965;
        stroke: #eaae32;
      }

      .cls-3, .cls-4 {
        stroke-width: 3px;
      }

      .cls-13 {
        fill: #43617f;
      }

      .cls-4 {
        fill: #468e69;
        stroke: #453f40;
      }

      .cls-5 {
        fill: #fff;
        stroke: #406090;
      }

      .cls-14 {
        fill: #ece4dd;
      }

      .cls-15 {
        fill: #406090;
      }

      .cls-16 {
        fill: #e5bb2b;
      }
    </style>
  </defs>
  <path class="cls-7" d="M708.235,319.253c-7.588,0-13.896-.054-20.203.032-2.016.027-2.819-.5-2.962-2.721-1.173-18.206-2.486-36.403-3.773-54.602-1.269-17.947-2.489-35.898-3.855-53.838-1.357-17.823-3.206-35.622-2.755-53.53,1.061-42.122.361-84.251.551-126.376.013-2.875.502-3.992,3.725-4.432,12.068-1.646,24.035-4.045,36.113-5.601,5.457-.703,11.128-.533,16.623.025,9.68.983,19.383.448,29.072,1.033,14.334.866,28.733.597,43.089,1.181,6.799.277,13.593.564,20.397.596,1.339.006,2.393.529,3.504,1.182,15.21,8.935,30.431,17.851,45.678,26.723,1.941,1.13,3.049,2.327,3.439,4.842,4.355,28.051,8.919,56.07,13.437,84.096.679,4.214,1.386,8.424,2.14,12.625.406,2.267-.147,4.1-1.654,5.913-9.099,10.94-18.138,21.931-27.104,32.981-1.365,1.683-3.08,2.556-4.952,3.284-16.423,6.393-32.858,12.756-49.282,19.146-1.188.462-2.353.879-3.659.716-13.342-1.663-26.684-3.321-40.027-4.973-6.485-.803-12.977-1.55-19.454-2.406-2.212-.292-2.172,1.052-2.131,2.523.225,7.934-.292,15.878.553,23.809.346,3.247.108,6.555.154,9.834.308,21.938.606,43.875.95,65.812.043,2.764.31,5.526.517,8.285.135,1.8-.673,2.316-2.429,2.441-12.313.872-24.611,2.031-35.701,1.401ZM780.015,163.4c3.526-.115,6.265.367,8.992-.712,14.629-5.786,29.273-11.54,43.98-17.124,2.21-.839,2.491-1.874,2.112-3.885-1.093-5.799-2.082-11.618-3.044-17.44-2.6-15.734-5.166-31.473-7.743-47.21-.383-2.339-1.38-3.475-4.092-3.914-11.401-1.845-22.735-4.112-34.094-6.215-15.31-2.835-30.625-5.637-45.925-8.522-1.989-.375-2.934-.054-2.594,2.173,1.106,7.245.65,14.577,1.069,21.864.974,16.972,1.214,33.986,1.856,50.978.314,8.298.898,16.586,1.279,24.882.079,1.715.275,2.739,2.436,2.86,12.185.681,24.362,1.526,35.768,2.265Z"/>
  <g>
    <path class="cls-8" d="M503.617,312.311c-3.127,1.746-4.537-.375-5.993-3.598-9.618-21.291-19.467-42.477-29.073-63.773-1.087-2.41-2.156-3.131-4.77-2.84-21.756,2.425-43.529,4.698-65.296,7.019-1.385.148-2.813.617-4.143.419-6.686-.997-8.9,2.964-11.024,8.445-9.545,24.637-19.531,49.102-29.279,73.661-.832,2.096-1.811,3.23-4.227,3.523-14.828,1.798-29.642,3.719-44.442,5.738-2.793.381-3.391-.244-3.163-3.108,2.591-32.468,5.056-64.947,7.505-97.426,3.788-50.229,7.537-100.46,11.302-150.69.849-11.33,1.624-22.666,2.606-33.985.203-2.344,1.016-4.678,1.821-6.919,3.246-9.041,6.66-18.022,9.871-27.075.823-2.321,2.097-3.336,4.571-3.709,23.523-3.547,47.03-7.202,70.534-10.874,14.5-2.266,28.996-4.56,43.472-6.977,2.8-.468,3.854.14,4.646,3.083,5.843,21.707,11.936,43.348,17.972,65.003,5.799,20.804,11.479,41.642,17.478,62.388,6.77,23.412,13.812,46.746,20.781,70.1,7.041,23.595,14.136,47.173,21.209,70.758,2.938,9.796,5.845,19.602,8.858,29.376.539,1.748.692,2.73-1.551,3.185-13.007,2.642-25.99,5.408-39.665,8.276ZM408.846,49.715c-5.085.901-10.328,1.74-15.522,2.814-1.24.257-2.897,1.017-3.38,2.018-3.656,7.586-9.045,15.004-10.204,23.009-4.479,30.94-7.591,62.079-11.165,93.149-.103.898.093,2.522.551,2.686,4.642,1.665,8.693,5.319,14.214,4.124,6.543-1.416,13.134-2.609,19.696-3.938,11.639-2.358,23.339-4.46,34.887-7.205,10.581-2.515,10.713-2.89,7.447-13.46-10.352-33.509-20.882-66.964-31.307-100.451-.835-2.681-2.063-4.282-5.217-2.747Z"/>
    <path class="cls-3" d="M489.571,312.932c-3.067,1.712-4.449-.368-5.877-3.529-9.432-20.878-19.09-41.654-28.51-62.538-1.066-2.364-2.114-3.071-4.678-2.785-21.335,2.378-42.686,4.607-64.032,6.883-1.358.145-2.758.605-4.063.41-6.557-.977-8.728,2.907-10.811,8.282-9.36,24.159-19.153,48.151-28.711,72.234-.816,2.056-1.776,3.168-4.145,3.455-14.541,1.763-29.068,3.647-43.581,5.626-2.739.374-3.326-.239-3.101-3.048,2.541-31.839,4.958-63.689,7.36-95.539,3.714-49.256,7.391-98.514,11.083-147.772.833-11.11,1.593-22.227,2.556-33.326.199-2.298.997-4.587,1.786-6.785,3.183-8.866,6.531-17.673,9.68-26.551.807-2.276,2.057-3.271,4.482-3.637,23.068-3.478,46.119-7.062,69.168-10.664,14.219-2.222,28.435-4.472,42.63-6.842,2.746-.459,3.779.137,4.556,3.023,5.73,21.287,11.704,42.508,17.624,63.744,5.687,20.401,11.257,40.835,17.139,61.18,6.638,22.959,13.544,45.84,20.378,68.742,6.904,23.138,13.862,46.26,20.798,69.388,2.881,9.607,5.731,19.223,8.686,28.807.529,1.714.679,2.677-1.521,3.124-12.755,2.591-25.486,5.303-38.896,8.116ZM396.636,55.423c-4.987.883-10.128,1.707-15.221,2.76-1.216.252-2.841.997-3.315,1.979-3.585,7.439-8.87,14.714-10.006,22.563-4.392,30.341-7.444,60.876-10.948,91.345-.101.881.091,2.473.541,2.634,4.552,1.633,8.524,5.216,13.939,4.044,6.416-1.388,12.879-2.558,19.314-3.862,11.413-2.312,22.887-4.374,34.211-7.065,10.376-2.466,10.505-2.834,7.303-13.199-10.152-32.86-20.478-65.667-30.701-98.505-.818-2.629-2.023-4.199-5.116-2.694Z"/>
  </g>
  <g>
    <path class="cls-11" d="M539.998,321.7c-7.819,0-15.643-.173-23.454.083-3.213.105-3.868-.937-3.857-3.945.047-12.409-.228-24.819-.29-37.23-.201-39.838-.99-79.669-1.507-119.503-.195-14.97-3.14-29.553-4.846-44.312-2.648-22.906-5.264-45.816-7.902-68.723-.681-5.912-1.345-11.826-2.111-17.727-.297-2.292-.037-3.429,2.807-3.855,36.64-5.499,73.251-11.189,109.876-16.789,3.797-.581,7.646-.819,11.45-1.357,2.804-.397,4.764,1.052,6.627,2.721,6.321,5.663,11.462,12.371,16.515,19.121,9.884,13.204,19.105,26.872,28.057,40.724.899,1.391,1.005,2.516.574,4.114-6.573,24.389-13.085,48.794-19.504,73.223-.626,2.381-1.758,3.725-4.004,4.742-23.689,10.725-47.309,21.602-71.007,32.304-2.753,1.243-3.78,2.521-3.365,5.74,2.763,21.392,5.27,42.818,7.873,64.231,2.333,19.195,4.634,38.395,7.082,57.576.33,2.582-1.176,2.707-2.847,3.298-14.983,5.302-30.434,6.551-46.166,5.563Z"/>
    <path class="cls-6" d="M560.214,321.058c-7.889,0-15.783-.174-23.663.084-3.242.106-3.903-.945-3.891-3.98.048-12.52-.23-25.041-.293-37.561-.203-40.193-.998-80.379-1.521-120.568-.196-15.104-3.168-29.817-4.889-44.707-2.672-23.11-5.311-46.224-7.973-69.335-.687-5.964-1.357-11.932-2.13-17.885-.3-2.312-.037-3.459,2.832-3.89,36.966-5.548,73.904-11.289,110.855-16.938,3.831-.586,7.714-.826,11.552-1.369,2.829-.4,4.807,1.061,6.686,2.745,6.377,5.714,11.565,12.482,16.662,19.292,9.973,13.322,19.275,27.112,28.307,41.087.907,1.403,1.014,2.538.579,4.15-6.631,24.606-13.202,49.229-19.678,73.876-.631,2.402-1.774,3.758-4.04,4.784-23.9,10.821-47.73,21.794-71.64,32.592-2.777,1.254-3.814,2.544-3.395,5.791,2.787,21.583,5.317,43.199,7.943,64.803,2.354,19.366,4.675,38.737,7.145,58.089.333,2.605-1.186,2.731-2.872,3.327-15.117,5.349-30.705,6.61-46.578,5.612Z"/>
  </g>
  <g>
    <path class="cls-10" d="M301.509,244.195c0,18.668-.058,37.336.062,56.004.018,2.829-.832,4.116-3.57,5.085-47.987,16.991-95.94,34.075-143.863,51.246-3.323,1.191-6.385.136-9.455-.234-19.018-2.295-38.004-4.859-56.997-7.359-13.037-1.716-26.061-3.526-39.106-5.172-3.286-.414-4.862-1.903-6.018-5.135-10.692-29.893-21.614-59.704-32.476-89.535-2.445-6.715-2.028-13.826-2.722-20.757-1.869-18.672-3.347-37.384-4.965-56.081-.833-9.629-1.688-19.257-2.389-28.896-.095-1.311.543-2.72,1.012-4.022,6.871-19.077,13.915-38.094,20.563-57.249,1.637-4.718,5.368-7.097,8.703-9.899,25.024-21.022,50.183-41.882,75.256-62.845,1.421-1.189,2.86-1.513,4.603-1.554,24.973-.579,49.945-1.191,74.917-1.826,2.52-.064,5.068-.135,7.548-.538,13.987-2.273,26.387,2.921,38.887,7.946,11.288,4.538,22.678,8.829,34.063,13.121,2.472.932,4.295,2.409,5.908,4.457,8.243,10.466,16.493,20.93,24.956,31.216,1.392,1.692.903,2.525.013,3.852-14.208,21.194-28.415,42.388-42.57,63.617-1.247,1.87-2.289,2.291-4.348,1.001-30.762-19.278-61.568-38.488-92.371-57.7-13.082-8.159-26.212-16.24-39.247-24.473-2.291-1.447-3.552-1.152-5.116,1.011-19.967,27.607-40.006,55.161-60.036,82.723-1.011,1.391-1.499,2.972-2,4.588-6.172,19.893-12.322,39.794-18.647,59.638-.837,2.627-.425,4.369,1.274,6.429,26.773,32.458,53.505,64.951,80.13,97.53,1.802,2.205,3.428,2.726,6.043,2.125,41.664-9.575,83.33-19.136,125.034-28.533,3.862-.87,5.078-2.661,5.332-6.432.82-12.151,1.972-24.281,3.078-36.411.199-2.187.315-3.254-2.699-2.816-18.265,2.655-36.569,5.035-54.859,7.516-10.811,1.467-21.621,2.935-32.426,4.442-2.4.335-3.535-.263-3.606-3.012-.403-15.567-.937-31.131-1.518-46.693-.095-2.548,1.338-2.561,3.171-2.618,15.566-.487,31.13-1.073,46.696-1.534,29.594-.877,59.188-1.727,88.785-2.504,6.728-.177,5.535-.561,5.554,5.526.057,18.252.021,36.504.021,54.756-.201,0-.402,0-.603,0Z"/>
    <path class="cls-2" d="M286.286,248.75c0,16.779-.052,33.558.056,50.336.016,2.543-.748,3.699-3.208,4.57-43.13,15.271-86.231,30.626-129.304,46.059-2.987,1.07-5.739.123-8.498-.21-17.093-2.062-34.158-4.368-51.229-6.614-11.717-1.542-23.424-3.169-35.149-4.648-2.953-.372-4.37-1.71-5.409-4.615-9.61-26.868-19.427-53.661-29.19-80.474-2.198-6.036-1.823-12.427-2.446-18.656-1.68-16.783-3.008-33.601-4.463-50.406-.749-8.655-1.517-17.308-2.148-25.972-.086-1.179.488-2.445.909-3.615,6.176-17.147,12.507-34.239,18.482-51.455,1.472-4.241,4.825-6.379,7.822-8.897,22.491-18.894,45.105-37.643,67.64-56.485,1.278-1.068,2.571-1.36,4.138-1.396,22.446-.521,44.891-1.071,67.335-1.642,2.265-.058,4.555-.121,6.784-.483,12.572-2.043,23.717,2.625,34.952,7.142,10.146,4.079,20.383,7.936,30.616,11.793,2.222.837,3.86,2.165,5.31,4.006,7.408,9.407,14.824,18.812,22.431,28.057,1.251,1.52.812,2.269.012,3.463-12.77,19.049-25.54,38.098-38.262,57.179-1.121,1.681-2.058,2.059-3.908.9-27.649-17.327-55.337-34.593-83.023-51.861-11.758-7.333-23.56-14.597-35.275-21.996-2.059-1.301-3.193-1.035-4.599.909-17.946,24.813-35.958,49.579-53.961,74.351-.909,1.251-1.347,2.671-1.798,4.124-5.547,17.88-11.075,35.766-16.76,53.603-.753,2.361-.382,3.927,1.145,5.778,24.064,29.173,48.09,58.377,72.021,87.659,1.62,1.982,3.081,2.45,5.431,1.91,37.447-8.606,74.897-17.2,112.38-25.645,3.472-.782,4.564-2.391,4.792-5.781.737-10.921,1.773-21.823,2.766-32.726.179-1.966.283-2.924-2.426-2.531-16.416,2.387-32.868,4.525-49.307,6.755-9.717,1.318-19.433,2.638-29.145,3.992-2.157.301-3.177-.237-3.241-2.707-.362-13.992-.843-27.981-1.365-41.968-.085-2.29,1.203-2.302,2.85-2.353,13.991-.437,27.979-.965,41.971-1.379,26.599-.788,53.199-1.552,79.8-2.251,6.047-.159,4.975-.504,4.992,4.967.051,16.405.018,32.809.018,49.214-.181,0-.362,0-.542,0Z"/>
  </g>
  <g>
    <path class="cls-9" d="M533.059,700.518c-7.588,0-13.896-.054-20.203.032-2.016.027-2.819-.5-2.962-2.721-1.173-18.206-2.486-36.403-3.773-54.602-1.269-17.947-2.489-35.898-3.855-53.838-1.357-17.823-3.206-35.622-2.755-53.53,1.061-42.122.361-84.251.551-126.376.013-2.875.502-3.992,3.725-4.432,12.068-1.646,24.035-4.045,36.113-5.601,5.457-.703,11.128-.533,16.623.025,9.68.983,19.383.448,29.072,1.033,14.334.866,28.733.597,43.089,1.181,6.799.277,13.593.564,20.397.596,1.339.006,2.393.529,3.504,1.182,15.21,8.935,30.431,17.851,45.678,26.723,1.941,1.13,3.049,2.327,3.439,4.842,4.355,28.051,8.919,56.07,13.437,84.096.679,4.214,1.386,8.424,2.14,12.625.406,2.267-.147,4.1-1.654,5.913-9.099,10.94-18.138,21.931-27.104,32.981-1.365,1.683-3.08,2.556-4.952,3.284-16.423,6.393-32.858,12.756-49.282,19.146-1.188.462-2.353.879-3.659.716-13.342-1.663-26.684-3.321-40.027-4.973-6.485-.803-12.977-1.55-19.454-2.406-2.212-.292-2.172,1.052-2.131,2.523.225,7.934-.292,15.878.553,23.809.346,3.247.108,6.555.154,9.834.308,21.938.606,43.875.95,65.812.043,2.764.31,5.526.517,8.285.135,1.8-.673,2.316-2.429,2.441-12.313.872-24.611,2.031-35.701,1.401ZM604.839,544.665c3.526-.115,6.265.367,8.992-.712,14.629-5.786,29.273-11.54,43.98-17.124,2.21-.839,2.491-1.874,2.112-3.885-1.093-5.799-2.082-11.618-3.044-17.44-2.6-15.734-5.166-31.473-7.743-47.21-.383-2.339-1.38-3.475-4.092-3.914-11.401-1.845-22.735-4.112-34.094-6.215-15.31-2.835-30.625-5.637-45.925-8.522-1.989-.375-2.934-.054-2.594,2.173,1.106,7.245.65,14.577,1.069,21.864.974,16.972,1.214,33.986,1.856,50.978.314,8.298.898,16.586,1.279,24.882.079,1.715.275,2.739,2.436,2.86,12.185.681,24.362,1.526,35.768,2.265Z"/>
    <path class="cls-4" d="M552.249,699.852c-7.588,0-13.896-.054-20.203.032-2.016.027-2.819-.5-2.962-2.721-1.173-18.206-2.486-36.403-3.773-54.602-1.269-17.947-2.489-35.898-3.855-53.838-1.357-17.823-3.206-35.622-2.755-53.53,1.061-42.122.361-84.251.551-126.376.013-2.875.502-3.992,3.725-4.432,12.068-1.646,24.035-4.045,36.113-5.601,5.457-.703,11.128-.533,16.623.025,9.68.983,19.383.448,29.072,1.033,14.334.866,28.733.597,43.089,1.181,6.799.277,13.593.564,20.397.596,1.339.006,2.393.529,3.504,1.182,15.21,8.935,30.431,17.851,45.678,26.723,1.941,1.13,3.049,2.327,3.439,4.842,4.355,28.051,8.919,56.07,13.437,84.096.679,4.214,1.386,8.424,2.14,12.625.406,2.267-.147,4.1-1.654,5.913-9.099,10.94-18.138,21.931-27.104,32.981-1.365,1.683-3.08,2.556-4.952,3.284-16.423,6.393-32.858,12.756-49.282,19.146-1.188.462-2.353.879-3.659.716-13.342-1.663-26.684-3.321-40.027-4.973-6.485-.803-12.977-1.55-19.454-2.406-2.212-.292-2.172,1.052-2.131,2.523.225,7.934-.292,15.878.553,23.809.346,3.247.108,6.555.154,9.834.308,21.938.606,43.875.95,65.812.043,2.764.31,5.526.517,8.285.135,1.8-.673,2.316-2.429,2.441-12.313.872-24.611,2.031-35.701,1.401ZM624.03,543.999c3.526-.115,6.265.367,8.992-.712,14.629-5.786,29.273-11.54,43.98-17.124,2.21-.839,2.491-1.874,2.112-3.885-1.093-5.799-2.082-11.618-3.044-17.44-2.6-15.734-5.166-31.473-7.743-47.21-.383-2.339-1.38-3.475-4.092-3.914-11.401-1.845-22.735-4.112-34.094-6.215-15.31-2.835-30.625-5.637-45.925-8.522-1.989-.375-2.934-.054-2.594,2.173,1.106,7.245.65,14.577,1.069,21.864.974,16.972,1.214,33.986,1.856,50.978.314,8.298.898,16.586,1.279,24.882.079,1.715.275,2.739,2.436,2.86,12.185.681,24.362,1.526,35.768,2.265Z"/>
  </g>
  <path class="cls-16" d="M752.956,699.529c-7.819,0-15.643-.173-23.454.083-3.213.105-3.868-.937-3.857-3.945.047-12.409-.228-24.819-.29-37.23-.201-39.838-.99-79.669-1.507-119.503-.195-14.97-3.14-29.553-4.846-44.312-2.648-22.906-5.264-45.816-7.902-68.723-.681-5.912-1.345-11.826-2.111-17.727-.297-2.292-.037-3.429,2.807-3.855,36.64-5.499,73.251-11.189,109.876-16.789,3.797-.581,7.646-.819,11.45-1.357,2.804-.397,4.764,1.052,6.627,2.721,6.321,5.663,11.462,12.371,16.515,19.121,9.884,13.204,19.105,26.872,28.057,40.724.899,1.391,1.005,2.516.574,4.114-6.573,24.389-13.085,48.794-19.504,73.223-.626,2.381-1.758,3.725-4.004,4.742-23.689,10.725-47.309,21.602-71.007,32.304-2.753,1.243-3.78,2.521-3.365,5.74,2.763,21.392,5.27,42.818,7.873,64.231,2.333,19.195,4.634,38.395,7.082,57.576.33,2.582-1.176,2.707-2.847,3.298-14.983,5.302-30.434,6.551-46.166,5.563Z"/>
  <polygon class="cls-1" points="154.986 390.067 75.985 393.502 110.333 637.374 166.459 735.202 250.304 732.99 361.075 407.241 258.031 396.937 209.943 640.809 154.986 390.067"/>
  <path class="cls-12" d="M96.129,409.646c7.993.417,15.67.842,23.35,1.195,1.282.059,2.435.413,3.571.906,5.455,2.37,10.886,4.799,16.365,7.112,1.646.695,2.474,1.623,2.741,3.504,2.225,15.692,4.528,31.374,6.894,47.045,3.106,20.571,6.29,41.131,9.442,61.695,2.552,16.647,4.626,33.388,7.843,49.905,1.86,9.549,5.536,18.747,8.442,28.088,7.432,23.885,14.932,47.75,22.273,71.663.74,2.411,1.469,3.277,4.079,2.515,4.273-1.247,8.633-2.24,13.006-3.079,2.09-.401,3.157-1.343,3.906-3.318,10.194-26.868,20.437-53.718,30.737-80.545,2.798-7.288,3.025-15.026,4.193-22.587,2.552-16.523,4.792-33.094,7.172-49.643,3.102-21.575,6.206-43.15,9.327-64.722,1.933-13.36,3.98-26.704,5.775-40.082.32-2.387,1.035-3.092,3.4-3.056,16.131.246,32.263.402,48.396.475,2.495.011,2.824.648,2.206,3.029-4.504,17.377-8.844,34.797-13.238,52.203-12.333,48.856-24.607,97.728-37.071,146.551-1.778,6.966-5.576,13.224-8.527,19.766-11.666,25.866-23.461,51.674-35.117,77.545-1.035,2.297-2.203,3.357-4.884,3.513-13.241.772-26.471,1.757-39.693,2.813-2.083.166-2.813-.859-3.68-2.328-12.096-20.503-24.179-41.014-36.369-61.462-8.444-14.165-16.874-28.344-25.674-42.287-3.086-4.889-3.56-10.203-4.39-15.519-4.984-31.934-9.867-63.884-14.781-95.829-4.726-30.72-9.433-61.444-14.188-92.16-.79-5.103,3.122-2.087,4.492-2.906Z"/>
  <g>
    <path class="cls-14" d="M437.624,404.934c5.726-1.782,8.156,1.448,10.841,6.678,7.733,15.061,11.513,31.319,15.945,47.408,8.202,29.779,16.367,59.569,24.499,89.367,7.008,25.677,13.964,51.368,20.914,77.061,5.672,20.967,11.331,41.937,16.925,62.924,1.259,4.722,2.096,9.557,3.365,14.276.747,2.779-.6,3.737-2.879,4.064-5.955.856-11.922,1.627-17.886,2.421-4.473.595-8.992.957-13.405,1.848-2.17.438-2.453-.284-2.939-2.04-6.164-22.268-12.451-44.502-18.647-66.761-6.498-23.345-12.977-46.696-19.338-70.079-.811-2.982-2.185-3.881-5.265-3.873-14.11.037-28.222-.481-42.317-.924-10.202-.321-20.402-.189-30.595-.574-2.883-.109-5.772-.316-8.631-.687-2.367-.307-3.052,1.051-3.571,2.904-6.261,22.372-12.547,44.736-18.815,67.106-6.674,23.821-13.336,47.646-20,71.47-.27.967-.523,1.939-.768,2.912-1.726,6.868-1.818,6.935-8.832,6.232-11.629-1.165-23.249-2.476-34.968-2.219-2.044.045-3.068.012-2.575-2.881,6.33-37.151,15.146-73.708,25.565-109.907,4.236-14.717,7.486-29.74,12.224-44.285,4.317-13.253,9.977-26.074,15.158-39.041,13.352-33.416,26.772-66.806,40.154-100.211,4.119-10.281,4.096-10.419,15.293-11.004,12.938-.676,25.89-1.095,38.837-1.615,3.767-.151,7.474-1.211,11.711-.57Z"/>
    <polygon class="cls-13" points="443.511 520.59 373.669 520.59 395.423 439.509 422.622 439.509 443.511 520.59"/>
  </g>
  <g>
    <path class="cls-15" d="M1011.707,641.057c20.941,0,41.882.05,62.822-.063,2.615-.014,3.236.765,3.1,3.238-.686,12.496-1.289,24.997-1.775,37.501-.101,2.589-.919,3.706-3.597,4.221-17.457,3.361-34.872,6.935-52.311,10.388-1.752.347-3.58.544-5.361.478-26.962-1.004-53.905-.332-80.847.76-13.595.551-27.196.339-40.796.336-3.239,0-5.564-1.073-7.642-3.72-4.676-5.957-9.707-11.634-14.61-17.412-.935-1.102-1.776-2.11-1.83-3.75-1.069-32.11-3.709-64.186-3.433-96.315.295-34.29,1.312-68.59,2.929-102.843.723-15.317,3.711-30.522,8.53-45.225.336-1.024.789-2.009,1.152-3.025,1.432-4.009,3.981-5.875,8.51-6.316,38.537-3.754,76.934-8.762,115.387-13.272,14.806-1.737,29.594-3.632,44.38-5.532,2.682-.345,4.265-.028,5.129,3.114,3.499,12.729,7.245,25.393,11.108,38.018.834,2.723.359,3.683-2.429,4.261-22.813,4.735-45.6,9.596-68.397,14.411-16.451,3.475-32.897,6.972-49.363,10.371-2.219.458-3.107,1.11-2.879,3.688,1.832,20.729,3.554,41.469,5.086,62.222.222,3.002,1.816,2.461,3.548,2.419,28.154-.684,56.31-1.308,84.46-2.148,3.457-.103,4.451.774,4.577,4.219.385,10.458,1.101,20.905,1.846,31.346.148,2.077-.349,2.618-2.417,2.804-29.23,2.624-58.455,5.302-87.669,8.092-5.873.561-4.713-.125-4.527,5.162.61,17.319,1.301,34.635,1.738,51.958.078,3.081.93,3.68,3.883,3.487,20.541-1.343,41.121-1.644,61.699-1.982,0-.298-.002-.595-.003-.893Z"/>
    <path class="cls-5" d="M1025.028,641.057c20.941,0,41.882.05,62.822-.063,2.615-.014,3.236.765,3.1,3.238-.686,12.496-1.289,24.997-1.775,37.501-.101,2.589-.919,3.706-3.597,4.221-17.457,3.361-34.872,6.935-52.311,10.388-1.752.347-3.58.544-5.361.478-26.962-1.004-53.905-.332-80.847.76-13.595.551-27.196.339-40.796.336-3.239,0-5.564-1.073-7.642-3.72-4.676-5.957-9.707-11.634-14.61-17.412-.935-1.102-1.776-2.11-1.83-3.75-1.069-32.11-3.709-64.186-3.433-96.315.295-34.29,1.312-68.59,2.929-102.843.723-15.317,3.711-30.522,8.53-45.225.336-1.024.789-2.009,1.152-3.025,1.432-4.009,3.981-5.875,8.51-6.316,38.537-3.754,76.934-8.762,115.387-13.272,14.806-1.737,29.594-3.632,44.38-5.532,2.682-.345,4.265-.028,5.129,3.114,3.499,12.729,7.245,25.393,11.108,38.018.834,2.723.359,3.683-2.429,4.261-22.813,4.735-45.6,9.596-68.397,14.411-16.451,3.475-32.897,6.972-49.363,10.371-2.219.458-3.107,1.11-2.879,3.688,1.832,20.729,3.554,41.469,5.086,62.222.222,3.002,1.816,2.461,3.548,2.419,28.154-.684,56.31-1.308,84.46-2.148,3.457-.103,4.451.774,4.577,4.219.385,10.458,1.101,20.905,1.846,31.346.148,2.077-.349,2.618-2.417,2.804-29.23,2.624-58.455,5.302-87.669,8.092-5.873.561-4.713-.125-4.527,5.162.61,17.319,1.301,34.635,1.738,51.958.078,3.081.93,3.68,3.883,3.487,20.541-1.343,41.121-1.644,61.699-1.982,0-.298-.002-.595-.003-.893Z"/>
  </g>
  <g>
    <path class="cls-12" d="M1033.779,61.935c-4.064-2.878-7.788-5.469-11.455-8.138-1.226-.892-2.482-1.06-3.944-.924-12.742,1.181-25.477,2.447-38.235,3.424-14.842,1.136-29.681,2.266-44.506,3.625-10.759.987-21.557,1.548-32.338,2.283-1.67.114-2.741.529-3.003,2.574-.575,4.488-1.207,9.004-2.327,13.378-1.473,5.747.408,11.039,1.583,16.427,1.83,8.386,3.9,16.72,5.825,25.085,2.238,9.724,4.453,19.454,6.621,29.195.372,1.67,1.434,1.531,2.644,1.382,4.735-.581,9.493-.898,14.244-1.304,12.179-1.04,24.32-2.536,36.481-3.795,2.539-.263,5.101-.36,7.654-.42,12.216-.289,23.288-5.058,34.586-8.889,2.027-.687,2.684-.73,3.269,1.605,1.678,6.704,2.114,13.573,3.164,20.358.481,3.11.825,6.242,1.319,9.35.929,5.85.927,5.686-4.815,6.717-15.354,2.756-30.793,4.967-46.183,7.478-14.127,2.305-28.216,4.853-42.404,6.75-2.741.367-3.449,1.25-3.007,3.993,3.148,19.539,5.96,39.133,9.307,58.637,1.044,6.081,2.06,12.164,2.85,18.276.332,2.568,1.198,3.124,3.786,2.929,16.047-1.208,31.926-3.799,47.897-5.612,10.644-1.208,21.273-2.684,31.951-3.404,10.006-.675,18.835-4.758,27.906-8.258,9.846-3.799,19.69-7.606,29.453-11.611,2.928-1.201,3.73-.233,4.042,2.485,1.58,13.769,3.207,27.533,4.89,41.29.224,1.829-.074,2.875-2.119,3.103-1.371.153-2.687.77-4.057.973-16.939,2.502-33.92,4.737-50.814,7.508-14.604,2.396-29.333,3.951-43.891,6.515-11.717,2.064-23.588,2.985-35.246,5.23-12.376,2.382-24.935,3.38-37.32,5.557-5.043.887-10.093,1.704-15.144,2.537-2.136.352-3.094-.312-3.107-2.434,0-.116-.03-.231-.047-.346-2.245-15.209-4.458-30.423-6.744-45.626-3.393-22.568-6.564-45.175-10.384-67.672-1.737-10.229-2.473-20.617-4.679-30.727-2.945-13.501-3.289-27.265-4.895-40.889-1.796-15.247-3.1-30.564-4.638-45.849-1.5-14.907-2.891-29.837-3.137-44.843-.085-5.203-.163-4.969,4.764-5.962,10.126-2.04,20.194-4.367,30.292-6.548,6.357-1.374,12.729-2.682,19.088-4.048,10.442-2.242,20.878-4.511,31.317-6.761,6.98-1.504,14.136-1.383,21.194-1.901,5.66-.416,11.334-1.008,17.025-1.28,11.726-.561,23.41-1.947,35.121-2.874,3.705-.293,7.469-.037,11.119-.844,2.69-.595,3.327.519,3.671,2.988,2.224,15.926,3.665,31.939,5.477,47.911.036.316-.041.645-.097,1.399Z"/>
    <path class="cls-1" d="M1038.526,57.418c-4.064-2.878-7.788-5.469-11.455-8.138-1.226-.892-2.482-1.06-3.944-.924-12.742,1.181-25.477,2.447-38.235,3.424-14.842,1.136-29.681,2.266-44.506,3.625-10.759.987-21.557,1.548-32.338,2.283-1.67.114-2.741.529-3.003,2.574-.575,4.488-1.207,9.004-2.327,13.378-1.473,5.747.408,11.039,1.583,16.427,1.83,8.386,3.9,16.72,5.825,25.085,2.238,9.724,4.453,19.454,6.621,29.195.372,1.67,1.434,1.531,2.644,1.382,4.735-.581,9.493-.898,14.244-1.304,12.179-1.04,24.32-2.536,36.481-3.795,2.539-.263,5.101-.36,7.654-.42,12.216-.289,23.288-5.058,34.586-8.889,2.027-.687,2.684-.73,3.269,1.605,1.678,6.704,2.114,13.573,3.164,20.358.481,3.11.825,6.242,1.319,9.35.929,5.85.927,5.686-4.815,6.717-15.354,2.756-30.793,4.967-46.183,7.478-14.127,2.305-28.216,4.853-42.404,6.75-2.741.367-3.449,1.25-3.007,3.993,3.148,19.539,5.96,39.133,9.307,58.637,1.044,6.081,2.06,12.164,2.85,18.276.332,2.568,1.198,3.124,3.786,2.929,16.047-1.208,31.926-3.799,47.897-5.612,10.644-1.208,21.273-2.684,31.951-3.404,10.006-.675,18.835-4.758,27.906-8.258,9.846-3.799,19.69-7.606,29.453-11.611,2.928-1.201,3.73-.233,4.042,2.485,1.58,13.769,3.207,27.533,4.89,41.29.224,1.829-.074,2.875-2.119,3.103-1.371.153-2.687.77-4.057.973-16.939,2.502-33.92,4.737-50.814,7.508-14.604,2.396-29.333,3.951-43.891,6.515-11.717,2.064-23.588,2.985-35.246,5.23-12.376,2.382-24.935,3.38-37.32,5.557-5.043.887-10.093,1.704-15.144,2.537-2.136.352-3.094-.312-3.107-2.434,0-.116-.03-.231-.047-.346-2.245-15.209-4.458-30.423-6.744-45.626-3.393-22.568-6.564-45.175-10.384-67.672-1.737-10.229-2.473-20.617-4.679-30.727-2.945-13.501-3.289-27.265-4.895-40.889-1.796-15.247-3.1-30.564-4.638-45.849-1.5-14.907-2.891-29.837-3.137-44.843-.085-5.203-.163-4.969,4.764-5.962,10.126-2.04,20.194-4.367,30.292-6.548,6.357-1.374,12.729-2.682,19.088-4.048,10.442-2.242,20.878-4.511,31.317-6.761,6.98-1.504,14.136-1.383,21.194-1.901,5.66-.416,11.334-1.008,17.025-1.28,11.726-.561,23.41-1.947,35.121-2.874,3.705-.293,7.469-.037,11.119-.844,2.69-.595,3.327.519,3.671,2.988,2.224,15.926,3.665,31.939,5.477,47.911.036.316-.041.645-.097,1.399Z"/>
  </g>
</svg>