<?xml version="1.0" encoding="UTF-8"?>
<svg id="Layer_1" data-name="Layer 1" xmlns="http://www.w3.org/2000/svg" viewBox="0 0 897.558 391.037">
  <defs>
    <style>
      .cls-1 {
        fill: #f6cbc1;
      }

      .cls-2 {
        fill: #f3dfb7;
      }

      .cls-3 {
        fill: #f0936d;
      }

      .cls-4 {
        fill: #d6c770;
      }

      .cls-5 {
        fill: #383938;
      }

      .cls-6 {
        fill: #e2b8d6;
        stroke: #010101;
        stroke-miterlimit: 10;
      }
    </style>
  </defs>
  <path class="cls-3" d="M183.077,354.007c.581-25.306,1.288-50.609,1.684-75.918.171-10.932-3.115-21.462-4.752-32.183-2.511-16.446-5.578-32.806-8.263-49.226-.997-6.095-.829-6.407-7.124-5.97-12.878.895-25.731,2.155-38.598,3.205-12.15.991-24.306,1.901-36.459,2.856-7.377.58-14.751,1.207-22.132,1.742-1.67.121-2.138.917-2.321,2.475-1.994,16.975-3.625,34.009-6.22,50.894-2.978,19.372.062,38.523.877,57.762.511,12.048,1.248,24.087,1.859,36.131.449,8.852.729,17.716,1.374,26.554.17,2.324-.702,2.624-2.522,2.967-6.474,1.221-13.048.64-19.569,1.176-10.41.855-20.895.924-31.307,1.956-2.997.297-3.771-.997-3.836-3.712-.221-9.303-.535-18.605-.936-27.902-1.084-25.117-2.265-50.231-3.335-75.349-.439-10.315-.426-20.655-1.087-30.953-1.261-19.646.752-39.211,1.14-58.812.432-21.794,1.638-43.573,2.504-65.358.883-22.222,1.673-44.449,2.707-66.664.236-5.078.963-10.154.575-15.232-.141-1.845.708-2.275,1.975-2.71,17.147-5.886,34.306-11.735,51.432-17.681,2.198-.763,2.762-.235,2.8,1.983.058,3.337.562,6.665.632,10.002.397,18.912.502,37.833,1.126,56.737.759,22.972,1.421,45.942,1.719,68.924.023,1.735.424,3.461.555,5.199.479,6.342.466,6.362,6.768,5.696,21.91-2.313,43.818-4.639,65.726-6.963,10.81-1.147,21.608-2.417,32.435-3.367,2.709-.238,3.067-1.944,3.352-3.716,2.751-17.151,5.365-34.324,8.102-51.478,3.032-19.007,6.163-37.998,9.227-56.999,1.037-6.431,2.135-12.856,2.944-19.317.403-3.22,1.289-4.952,5.069-4.737,20.21,1.149,40.449.61,60.677.711,2.725.014,3.547.887,3.374,3.53-.88,13.475-1.649,26.958-2.446,40.438-.66,11.165-1.298,22.332-1.959,33.498-1.126,18.992-2.281,37.982-3.389,56.976-.651,11.168-1.201,22.342-1.857,33.509-1.09,18.557-2.27,37.109-3.334,55.668-.707,12.33-1.211,24.671-1.929,37-1.056,18.123-2.246,36.237-3.332,54.358-.67,11.167-1.347,22.335-1.809,33.511-.11,2.67-.721,3.532-3.588,3.954-7.817,1.15-15.677.457-23.512,1.191-10.404.975-20.916.762-31.374,1.225-2.814.124-3.906-.638-3.763-3.604.225-4.649.06-9.316.06-13.975h.061Z"/>
  <path class="cls-1" d="M183.077,340.937c.581-25.306,1.288-50.609,1.684-75.918.171-10.932-3.115-21.462-4.752-32.183-2.511-16.446-5.578-32.806-8.263-49.226-.997-6.095-.829-6.407-7.124-5.97-12.878.895-25.731,2.155-38.598,3.205-12.15.991-24.306,1.901-36.459,2.856-7.377.58-14.751,1.207-22.132,1.742-1.67.121-2.138.917-2.321,2.475-1.994,16.975-3.625,34.009-6.22,50.894-2.978,19.372.062,38.523.877,57.762.511,12.048,1.248,24.087,1.859,36.131.449,8.852.729,17.716,1.374,26.554.17,2.324-.702,2.624-2.522,2.967-6.474,1.221-13.048.64-19.569,1.176-10.41.855-20.895.924-31.307,1.956-2.997.297-3.771-.997-3.836-3.712-.221-9.303-.535-18.605-.936-27.902-1.084-25.117-2.265-50.231-3.335-75.349-.439-10.315-.426-20.655-1.087-30.953-1.261-19.646.752-39.211,1.14-58.812.432-21.794,1.638-43.573,2.504-65.358.883-22.222,1.673-44.449,2.707-66.664.236-5.078.963-10.154.575-15.232-.141-1.845.708-2.275,1.975-2.71C26.458,12.78,43.617,6.931,60.743.985c2.198-.763,2.762-.235,2.8,1.983.058,3.337.562,6.665.632,10.002.397,18.912.502,37.833,1.126,56.737.759,22.972,1.421,45.942,1.719,68.924.023,1.735.424,3.461.555,5.199.479,6.342.466,6.362,6.768,5.696,21.91-2.313,43.818-4.639,65.726-6.963,10.81-1.147,21.608-2.417,32.435-3.367,2.709-.238,3.067-1.944,3.352-3.716,2.751-17.151,5.365-34.324,8.102-51.478,3.032-19.007,6.163-37.998,9.227-56.999,1.037-6.431,2.135-12.856,2.944-19.317.403-3.22,1.289-4.952,5.069-4.737,20.21,1.149,40.449.61,60.677.711,2.725.014,3.547.887,3.374,3.53-.88,13.475-1.649,26.958-2.446,40.438-.66,11.165-1.298,22.332-1.959,33.498-1.126,18.992-2.281,37.982-3.389,56.976-.651,11.168-1.201,22.342-1.857,33.509-1.09,18.557-2.27,37.109-3.334,55.668-.707,12.33-1.211,24.671-1.929,37-1.056,18.123-2.246,36.237-3.332,54.358-.67,11.167-1.347,22.335-1.809,33.511-.11,2.67-.721,3.532-3.588,3.954-7.817,1.15-15.677.457-23.512,1.191-10.404.975-20.916.762-31.374,1.225-2.814.124-3.906-.638-3.763-3.604.225-4.649.06-9.316.06-13.975h.061Z"/>
  <g>
    <path class="cls-5" d="M298.333,199.971c1.325-62.792-2.016-122.541-3.619-182.327-.204-7.606-.172-7.557,7.39-8.028,34.978-2.182,69.957-4.356,104.93-6.617,10.891-.704,21.449,1.79,32.112,3.118,27.984,3.485,55.917,7.375,83.885,10.983,3.796.49,5.939,1.282,6.304,5.976,1.782,22.914,4.08,45.788,6.135,68.681.225,2.503.213,4.982-.566,7.519-5.157,16.798-10.227,33.624-15.158,50.489-.849,2.905-2.334,5.022-4.586,6.942-20.403,17.391-40.719,34.885-61.151,52.241-2.327,1.977-2.635,3.139-.457,5.572,31.21,34.873,62.247,69.901,93.52,104.716,3.938,4.384,5.36,8.795,5.94,14.677,1.21,12.262-2.265,21.458-12.041,29.185-7.299,5.769-13.492,12.958-20.017,19.669-1.978,2.034-3.058,2.319-5.199.032-38.705-41.353-77.514-82.609-116.26-123.924-1.704-1.817-3.446-3.079-6.015-3.315-8.996-.824-17.993-1.674-26.963-2.742-2.675-.319-2.43,1.143-2.411,2.765.074,6.188.103,12.378.241,18.565.787,35.054,1.505,70.111,2.521,105.158.134,4.623-1.463,5.832-5.664,6.36-11.156,1.403-22.277,3.137-33.36,5.047-3.099.534-5.921.414-8.857-.455-5.466-1.618-10.912-3.351-16.46-4.626-3.4-.781-4.353-2.352-4.342-5.801.143-47.924.128-95.849.148-143.774.006-13.013,0-26.025,0-36.09ZM420.838,44.715c0,.09,0,.179,0,.269-7.134,0-14.33.6-21.389-.129-13.39-1.383-24.965,1.608-34.285,11.702-.211.229-.483.424-.761.567-4.374,2.242-5.317,5.758-5.04,10.553,1.191,20.564,1.975,41.152,2.932,61.729.751,16.145,1.581,32.287,2.27,48.435.131,3.068,1.061,4.287,4.441,4.31,17.118.116,34.236.497,51.351.873,2.358.052,4.2-.592,6.077-2.041,12.041-9.294,24.133-18.523,36.3-27.653,2.525-1.895,4.108-4.017,4.901-7.155,4.768-18.861,9.683-37.685,14.685-56.484.626-2.352.305-4.175-.784-6.263-6.146-11.79-12.255-23.602-18.152-35.517-1.26-2.546-2.752-3.281-5.448-3.252-12.365.13-24.732.057-37.098.057Z"/>
    <path class="cls-6" d="M330.828,197.595c1.325-62.792-2.016-122.541-3.619-182.327-.204-7.606-.172-7.557,7.39-8.028,34.978-2.182,69.957-4.356,104.93-6.617,10.891-.704,21.449,1.79,32.112,3.118,27.984,3.485,55.917,7.375,83.885,10.983,3.796.49,5.939,1.282,6.304,5.976,1.782,22.914,4.08,45.788,6.135,68.681.225,2.503.213,4.982-.566,7.519-5.157,16.798-10.227,33.624-15.158,50.489-.849,2.905-2.334,5.022-4.586,6.942-20.403,17.391-40.719,34.885-61.151,52.241-2.327,1.977-2.635,3.139-.457,5.572,31.21,34.873,62.247,69.901,93.52,104.716,3.938,4.384,5.36,8.795,5.94,14.677,1.21,12.262-2.265,21.458-12.041,29.185-7.299,5.769-13.492,12.958-20.017,19.669-1.978,2.034-3.058,2.319-5.199.032-38.705-41.353-77.514-82.609-116.26-123.924-1.704-1.817-3.446-3.079-6.015-3.315-8.996-.824-17.993-1.674-26.963-2.742-2.675-.319-2.43,1.143-2.411,2.765.074,6.188.103,12.378.241,18.565.787,35.054,1.505,70.111,2.521,105.158.134,4.623-1.463,5.832-5.664,6.36-11.156,1.403-22.277,3.137-33.36,5.047-3.099.534-5.921.414-8.857-.455-5.466-1.618-10.912-3.351-16.46-4.626-3.4-.781-4.353-2.352-4.342-5.801.143-47.924.128-95.849.148-143.774.006-13.013,0-26.025,0-36.09ZM453.333,42.34c0,.09,0,.179,0,.269-7.134,0-14.33.6-21.389-.129-13.39-1.383-24.965,1.608-34.285,11.702-.211.229-.483.424-.761.567-4.374,2.242-5.317,5.758-5.04,10.553,1.191,20.564,1.975,41.152,2.932,61.729.751,16.145,1.581,32.287,2.27,48.435.131,3.068,1.061,4.287,4.441,4.31,17.118.116,34.236.497,51.351.873,2.358.052,4.2-.592,6.077-2.041,12.041-9.294,24.133-18.523,36.3-27.653,2.525-1.895,4.108-4.017,4.901-7.155,4.768-18.861,9.683-37.685,14.685-56.484.626-2.352.305-4.175-.784-6.263-6.146-11.79-12.255-23.602-18.152-35.517-1.26-2.546-2.752-3.281-5.448-3.252-12.365.13-24.732.057-37.098.057Z"/>
  </g>
  <path class="cls-2" d="M854.327,387.332c-5.223.132-9.193-1.851-13.292-5.268-28.902-24.097-50.097-54.902-73.612-83.685-8.438-10.329-16.692-20.808-25.042-31.208-.876-1.091-1.481-3.041-3.199-.514-7.878,11.585-17.851,21.434-26.934,32.012-19.907,23.186-40.213,46.03-60.159,69.183-2.74,3.18-6.214,4.153-9.629,5.874-10.246,5.164-19.378,1.82-27.83-3.591-6.349-4.065-11.827-9.502-17.634-14.398-2.236-1.886-.071-3.404.788-4.79,12.737-20.563,25.5-41.111,38.341-61.609,18.192-29.04,35.822-58.433,54.722-87.024,1.99-3.011.202-4.543-1.216-6.45-21.568-29.001-43.157-57.987-64.738-86.978-19.265-25.88-38.474-51.801-57.854-77.594-2.434-3.24-2.534-4.435,1.702-5.619,9.54-2.668,18.993-5.673,28.392-8.807,4.18-1.394,8.532-1.507,12.744-2.503,2.442-.578,3.656,1.137,5.06,2.565,35.352,35.973,70.706,71.943,106.065,107.909,3.59,3.652,7.221,7.264,10.827,10.901,1.172,1.182,1.849,2.181,3.333-.15,9.817-15.423,19.808-30.737,29.836-46.025,17.607-26.84,35.331-53.605,52.852-80.501,1.73-2.656,3.235-2.936,5.973-1.994,7.613,2.618,15.204,5.44,23.011,7.322,12.177,2.934,22.071,9.121,30.437,18.317,2.032,2.234.875,3.433.097,5.197-17.642,40.041-41.612,76.435-65.108,113.108-10.12,15.797-19.995,31.751-30.212,47.485-1.422,2.19-.253,3.106.665,4.351,10.952,14.858,21.959,29.675,32.928,44.52,18.71,25.324,37.614,50.51,55.948,76.105,4.304,6.009,8.519,12.112,12.984,18.013,1.565,2.069,1.211,3.664.524,5.92-4.587,15.063-14.968,26.174-25.082,37.498-1.562,1.749-3.551,2.368-5.688,2.431Z"/>
  <path class="cls-4" d="M866.204,384.957c-5.223.132-9.193-1.851-13.292-5.268-28.902-24.097-50.097-54.902-73.612-83.685-8.438-10.329-16.692-20.808-25.042-31.208-.876-1.091-1.481-3.041-3.199-.514-7.878,11.585-17.851,21.434-26.934,32.012-19.907,23.186-40.213,46.03-60.159,69.183-2.74,3.18-6.214,4.153-9.629,5.874-10.246,5.164-19.378,1.82-27.83-3.591-6.349-4.065-11.827-9.502-17.634-14.398-2.236-1.886-.071-3.404.788-4.79,12.737-20.563,25.5-41.111,38.341-61.609,18.192-29.04,35.822-58.433,54.722-87.024,1.99-3.011.202-4.543-1.216-6.45-21.568-29.001-43.157-57.987-64.738-86.978-19.265-25.88-38.474-51.801-57.854-77.594-2.434-3.24-2.534-4.435,1.702-5.619,9.54-2.668,18.993-5.673,28.392-8.807,4.18-1.394,8.532-1.507,12.744-2.503,2.442-.578,3.656,1.137,5.06,2.565,35.352,35.973,70.706,71.943,106.065,107.909,3.59,3.652,7.221,7.264,10.827,10.901,1.172,1.182,1.849,2.181,3.333-.15,9.817-15.423,19.808-30.737,29.836-46.025,17.607-26.84,35.331-53.605,52.852-80.501,1.73-2.656,3.235-2.936,5.973-1.994,7.613,2.618,15.204,5.44,23.011,7.322,12.177,2.934,22.071,9.121,30.437,18.317,2.032,2.234.875,3.433.097,5.197-17.642,40.041-41.612,76.435-65.108,113.108-10.12,15.797-19.995,31.751-30.212,47.485-1.422,2.19-.253,3.106.665,4.351,10.952,14.858,21.959,29.675,32.928,44.52,18.71,25.324,37.614,50.51,55.948,76.105,4.304,6.009,8.519,12.112,12.984,18.013,1.565,2.069,1.211,3.664.524,5.92-4.587,15.063-14.968,26.174-25.082,37.498-1.562,1.749-3.551,2.368-5.688,2.431Z"/>
</svg>