<?xml version="1.0" encoding="UTF-8"?>
<svg id="Layer_1" data-name="Layer 1" xmlns="http://www.w3.org/2000/svg" viewBox="0 0 1798.02 254.416">
  <defs>
    <style>
      .cls-1 {
        fill: #f0936e;
      }

      .cls-2 {
        fill: #87264a;
      }

      .cls-3 {
        fill: #953e6e;
      }

      .cls-4 {
        fill: #423f3e;
      }

      .cls-5 {
        fill: #f3efca;
      }

      .cls-6 {
        fill: #468f67;
      }

      .cls-7 {
        fill: #b89a30;
      }

      .cls-8 {
        fill: #e27e26;
      }

      .cls-9 {
        fill: #dbc18d;
      }

      .cls-10 {
        fill: #fff;
      }

      .cls-11 {
        fill: #383938;
      }

      .cls-12 {
        fill: #d1e7bb;
      }

      .cls-13 {
        fill: #e6e6e5;
      }

      .cls-14 {
        fill: #ec7b85;
      }

      .cls-15 {
        fill: #ea5958;
      }

      .cls-16 {
        fill: #e1b7d6;
      }

      .cls-17 {
        fill: #d6c870;
      }

      .cls-18 {
        fill: #f6c9c0;
      }

      .cls-19 {
        fill: #ffe52f;
      }

      .cls-20 {
        fill: #f9f6eb;
      }

      .cls-21 {
        fill: #7b3761;
      }

      .cls-22 {
        fill: #e85655;
      }

      .cls-23 {
        fill: #fbfbfd;
      }
    </style>
  </defs>
  <g>
    <path class="cls-13" d="M636.777,254.416c-5.563-.021-10.494-2.048-15.49-3.666-18.31-5.929-36.572-12.008-54.872-17.969-1.826-.595-2.203-1.42-1.838-3.3,1.74-8.954,3.338-17.936,4.903-26.922.419-2.402,1.007-3.448,3.953-2.694,18.608,4.76,37.281,9.266,55.93,13.868,7.494,1.849,14.998,3.668,22.458,5.645,1.33.352,2.144-.036,3.084-.711,8.735-6.271,17.445-12.58,26.25-18.752,1.567-1.098,2.22-2.257,1.724-4.004-1.339-4.713-2.766-9.401-4.103-14.114-.359-1.266-1.074-2.046-2.201-2.743-10.819-6.685-22.781-10.976-34.22-16.354-12.9-6.066-25.967-11.776-38.963-17.639-6.111-2.757-12.217-5.524-18.339-8.256-1.478-.659-2.287-1.586-2.689-3.289-5.279-22.353-10.631-44.688-16.075-67.001-.425-1.741.349-2.767,1.198-3.808,4.767-5.849,9.622-11.627,14.428-17.444,6.967-8.434,14.123-16.725,20.777-25.4,2.713-3.537,5.737-2.404,8.84-2.025,9.8,1.198,19.585,2.527,29.372,3.836,12.025,1.608,24.056,3.18,36.067,4.889,12.188,1.734,23.588,6.461,35.425,9.54,4.374,1.138,8.669,2.578,13.035,3.754,2.071.558,3.206,1.095,2.618,3.804-.753,3.467-.606,7.122-.99,10.68-.402,3.726-3.484,5.928-5.334,8.825-1.468,2.298-3.313,4.352-4.87,6.597-1.145,1.65-2.354,1.959-4.306,1.294-26.518-9.036-53.073-17.965-79.593-26.996-2.592-.883-4.128-.638-5.626,1.991-5.049,8.858-10.361,17.566-15.644,26.288-1.23,2.03-1.514,3.674-.15,5.94,4.285,7.117,8.277,14.412,12.322,21.671.637,1.143,1.373,1.911,2.653,2.316,13.306,4.209,26.494,8.836,39.928,12.586,10.833,3.023,20.189,8.776,29.868,14.055,10.376,5.658,20.024,12.491,30.198,18.47,1.311.77,2.354,1.725,3.082,3.176,5.677,11.319,11.417,22.607,17.21,33.867.757,1.472.872,2.645.16,4.209-7.985,17.529-15.894,35.092-23.789,52.661-.502,1.116-1.011,1.751-2.389,1.927-7.928,1.013-15.833,2.201-23.754,3.279-10.81,1.471-21.623,2.913-32.439,4.335-9.326,1.226-18.657,2.407-27.811,3.585Z"/>
    <path class="cls-19" d="M623.898,249.264c-5.563-.021-10.494-2.048-15.49-3.666-18.31-5.929-36.572-12.008-54.872-17.969-1.826-.595-2.203-1.42-1.838-3.3,1.74-8.954,3.338-17.936,4.903-26.922.419-2.402,1.007-3.448,3.953-2.694,18.608,4.76,37.281,9.266,55.93,13.868,7.494,1.849,14.998,3.668,22.458,5.645,1.33.352,2.144-.036,3.084-.711,8.735-6.271,17.445-12.58,26.25-18.752,1.567-1.098,2.22-2.257,1.724-4.004-1.339-4.713-2.766-9.401-4.103-14.114-.359-1.266-1.074-2.046-2.201-2.743-10.819-6.685-22.781-10.976-34.22-16.354-12.9-6.066-25.967-11.776-38.963-17.639-6.111-2.757-12.217-5.524-18.339-8.256-1.478-.659-2.287-1.586-2.689-3.289-5.279-22.353-10.631-44.688-16.075-67.001-.425-1.741.349-2.767,1.198-3.808,4.767-5.849,9.622-11.627,14.428-17.444,6.967-8.434,14.123-16.725,20.777-25.4,2.713-3.537,5.737-2.404,8.84-2.025,9.8,1.198,19.585,2.527,29.372,3.836,12.025,1.608,24.056,3.18,36.067,4.889,12.188,1.734,23.588,6.461,35.425,9.54,4.374,1.138,8.669,2.578,13.035,3.754,2.071.558,3.206,1.095,2.618,3.804-.753,3.467-.606,7.122-.99,10.68-.402,3.726-3.484,5.928-5.334,8.825-1.468,2.298-3.313,4.352-4.87,6.597-1.145,1.65-2.354,1.959-4.306,1.294-26.518-9.036-53.073-17.965-79.593-26.996-2.592-.883-4.128-.638-5.626,1.991-5.049,8.858-10.361,17.566-15.644,26.288-1.23,2.03-1.514,3.674-.15,5.94,4.285,7.117,8.277,14.412,12.322,21.671.637,1.143,1.373,1.911,2.653,2.316,13.306,4.209,26.494,8.836,39.928,12.586,10.833,3.023,20.189,8.776,29.868,14.055,10.376,5.658,20.024,12.491,30.198,18.47,1.311.77,2.354,1.725,3.082,3.176,5.677,11.319,11.417,22.607,17.21,33.867.757,1.472.872,2.645.16,4.209-7.985,17.529-15.894,35.092-23.789,52.661-.502,1.116-1.011,1.751-2.389,1.927-7.928,1.013-15.833,2.201-23.754,3.279-10.81,1.471-21.623,2.913-32.439,4.335-9.326,1.226-18.657,2.407-27.811,3.585Z"/>
  </g>
  <g>
    <g>
      <path class="cls-11" d="M.144,246.528c1.505-13.053,3.025-25.322,4.312-37.616,2.12-20.243,5.182-40.388,6.001-60.768.553-13.752,1.525-27.488,2.255-41.234.096-1.81.448-2.617,2.629-2.849,11.669-1.24,23.221.584,34.822,1.014,4.366.162,8.719.679,13.085.812,1.911.058,2.567.523,2.397,2.541-.897,10.656-1.681,21.322-2.476,31.987-.553,7.417-1.315,14.817-1.402,22.268-.331,28.376-.725,56.752-1.092,85.128-.047,3.651-.039,3.678-3.667,3.263-9.881-1.13-19.755-2.314-29.639-3.414-4.458-.496-8.907.239-13.363.322-3.625.067-7.27.174-10.859.629-2.544.322-3.549-.239-3.004-2.083Z"/>
      <path class="cls-11" d="M36.841,83.634c-5.953,0-11.906-.06-17.857.041-1.56.026-2.25-.575-2.949-1.882C8.537,67.76,3.957,52.726.508,37.284c-.293-1.313.043-2.043,1.026-2.837,7.449-6.013,14.879-12.049,22.267-18.136,1.139-.939,2.312-1.059,3.631-.851,12.935,2.035,25.866,4.092,38.807,6.085,1.15.177,1.802.791,2.461,1.603,3.807,4.692,7.61,9.387,11.474,14.032.954,1.147,1.355,2.298,1.234,3.806-.822,10.191-1.599,20.387-2.311,30.586-.087,1.253-.67,1.732-1.672,2.219-6.259,3.041-12.497,6.126-18.721,9.239-1.371.686-2.756.955-4.286.94-5.858-.054-11.718-.022-17.577-.022,0-.105,0-.21,0-.315Z"/>
    </g>
    <g>
      <path class="cls-16" d="M15.599,246.528c1.505-13.053,3.025-25.322,4.312-37.616,2.12-20.243,5.182-40.388,6.001-60.768.553-13.752,1.525-27.488,2.255-41.234.096-1.81.448-2.617,2.629-2.849,11.669-1.24,23.221.584,34.822,1.014,4.366.162,8.719.679,13.085.812,1.911.058,2.567.523,2.397,2.541-.897,10.656-1.681,21.322-2.476,31.987-.553,7.417-1.315,14.817-1.402,22.268-.331,28.376-.725,56.752-1.092,85.128-.047,3.651-.039,3.678-3.667,3.263-9.881-1.13-19.755-2.314-29.639-3.414-4.458-.496-8.907.239-13.363.322-3.625.067-7.27.174-10.859.629-2.544.322-3.549-.239-3.004-2.083Z"/>
      <path class="cls-16" d="M52.296,83.634c-5.953,0-11.906-.06-17.857.041-1.56.026-2.25-.575-2.949-1.882-7.499-14.032-12.078-29.066-15.528-44.508-.293-1.313.043-2.043,1.026-2.837,7.449-6.013,14.879-12.049,22.267-18.136,1.139-.939,2.312-1.059,3.631-.851,12.935,2.035,25.866,4.092,38.807,6.085,1.15.177,1.802.791,2.461,1.603,3.807,4.692,7.61,9.387,11.474,14.032.954,1.147,1.355,2.298,1.234,3.806-.822,10.191-1.599,20.387-2.311,30.586-.087,1.253-.67,1.732-1.672,2.219-6.259,3.041-12.497,6.126-18.721,9.239-1.371.686-2.756.955-4.286.94-5.858-.054-11.718-.022-17.577-.022,0-.105,0-.21,0-.315Z"/>
    </g>
  </g>
  <g>
    <path class="cls-23" d="M893.747,27.498c15.712-1.9,31.398-4.064,47.145-5.603,9.926-.97,19.81-2.329,29.749-3.095,5.109-.394,10.206-.864,15.286-1.494,1.541-.191,2.338.385,3.127,1.555,8.896,13.187,17.814,26.358,26.766,39.507.817,1.2,1.126,2.429,1.183,3.841.269,6.66.573,13.319.908,19.976.666,13.227,1.338,26.454,2.074,39.678.08,1.444-.636,2.131-1.626,2.887-12.574,9.595-25.129,19.214-37.688,28.828-.363.278-.694.604-1.079.845-1.615,1.011-1.524,1.801.016,2.968,9.265,7.016,18.459,14.126,27.687,21.192,1.451,1.111,2.905,2.232,4.441,3.219,9.099,5.846,14.561,15.035,21.212,23.113,5.927,7.198,11.621,14.587,17.404,21.903.481.609,1.497,1.184.977,2.025-.265.428-1.31.443-2.016.517-11.28,1.193-22.566,2.332-33.84,3.584-1.412.157-2.218-.446-3.095-1.271-8.922-8.389-17.857-16.764-26.777-25.155-10.715-10.08-21.424-20.167-32.119-30.269-.563-.532-1.047-.963-1.897-.759-7.096,1.707-14.19,3.423-21.302,5.063-1.23.284-1.543.806-1.553,2.049-.125,15.142-.325,30.282-.497,45.424-.064,5.655-.175,11.31-.11,16.964.019,1.617-.616,1.991-2.023,2.154-11.093,1.284-22.183,2.591-33.262,3.988-1.83.231-2.42-.295-2.494-2.089-.377-9.215-.813-18.428-1.288-27.638-.344-6.66-.815-13.314-1.168-19.974-.666-12.585-1.276-25.173-1.932-37.759-.323-6.204-.739-12.403-1.04-18.607-.859-17.71-2.358-35.375-3.699-53.051-1.231-16.226-2.782-32.427-3.998-48.654-.307-4.103-.601-8.206-1.064-12.292-.188-1.652.296-2.274,1.959-2.447,5.188-.54,10.362-1.221,15.542-1.847.03.242.059.485.089.727ZM917.886,97.191l-.057.007c1.45,11.99,2.939,23.976,4.31,35.975.234,2.049.654,2.918,3.085,2.871,5.643-.11,11.304.149,16.94.519,3.066.201,5.555-.513,8.071-2.335,9.474-6.859,19.074-13.544,28.671-20.231,1.356-.945,1.941-2.058,1.935-3.652-.05-14.044-.094-28.089-.094-42.133,0-1.883-.624-3.195-2.161-4.397-6.773-5.295-13.484-10.673-20.117-16.143-1.562-1.288-3.038-1.408-4.804-.893-12.689,3.702-25.363,7.458-38.092,11.019-1.98.554-2.356,1.248-2.111,3.157,1.544,12.07,2.964,24.156,4.424,36.237Z"/>
    <path class="cls-15" d="M908.836,25.673c15.712-1.9,31.398-4.064,47.145-5.603,9.926-.97,19.81-2.329,29.749-3.095,5.109-.394,10.206-.864,15.286-1.494,1.541-.191,2.338.385,3.127,1.555,8.896,13.187,17.814,26.358,26.766,39.507.817,1.2,1.126,2.429,1.183,3.841.269,6.66.573,13.319.908,19.976.666,13.227,1.338,26.454,2.074,39.678.08,1.444-.636,2.131-1.626,2.887-12.574,9.595-25.129,19.214-37.688,28.828-.363.278-.694.604-1.079.845-1.615,1.011-1.524,1.801.016,2.968,9.265,7.016,18.459,14.126,27.687,21.192,1.451,1.111,2.905,2.232,4.441,3.219,9.099,5.846,14.561,15.035,21.212,23.113,5.927,7.198,11.621,14.587,17.404,21.903.481.609,1.497,1.184.977,2.025-.265.428-1.31.443-2.016.517-11.28,1.193-22.566,2.332-33.84,3.584-1.412.157-2.218-.446-3.095-1.271-8.922-8.389-17.857-16.764-26.777-25.155-10.715-10.08-21.424-20.167-32.119-30.269-.563-.532-1.047-.963-1.897-.759-7.096,1.707-14.19,3.423-21.302,5.063-1.23.284-1.543.806-1.553,2.049-.125,15.142-.325,30.282-.497,45.424-.064,5.655-.175,11.31-.11,16.964.019,1.617-.616,1.991-2.023,2.154-11.093,1.284-22.183,2.591-33.262,3.988-1.83.231-2.42-.295-2.494-2.089-.377-9.215-.813-18.428-1.288-27.638-.344-6.66-.815-13.314-1.168-19.974-.666-12.585-1.276-25.173-1.932-37.759-.323-6.204-.739-12.403-1.04-18.607-.859-17.71-2.358-35.375-3.699-53.051-1.231-16.226-2.782-32.427-3.998-48.654-.307-4.103-.601-8.206-1.064-12.292-.188-1.652.296-2.274,1.959-2.447,5.188-.54,10.362-1.221,15.542-1.847.03.242.059.485.089.727ZM932.975,95.367l-.057.007c1.45,11.99,2.939,23.976,4.31,35.975.234,2.049.654,2.918,3.085,2.871,5.643-.11,11.304.149,16.94.519,3.066.201,5.555-.513,8.071-2.335,9.474-6.859,19.074-13.544,28.671-20.231,1.356-.945,1.941-2.058,1.935-3.652-.05-14.044-.094-28.089-.094-42.133,0-1.883-.624-3.195-2.161-4.397-6.773-5.295-13.484-10.673-20.117-16.143-1.562-1.288-3.038-1.408-4.804-.893-12.689,3.702-25.363,7.458-38.092,11.019-1.98.554-2.356,1.248-2.111,3.157,1.544,12.07,2.964,24.156,4.424,36.237Z"/>
  </g>
  <g>
    <polygon class="cls-5" points="1704.664 234.169 1639.113 237.101 1629.08 12.85 1694.631 9.918 1734.878 85.322 1731.173 2.521 1787.524 0 1798.02 234.601 1733.62 237.482 1695.433 130.874 1704.664 234.169"/>
    <path class="cls-6" d="M1686.893,105.543c-.054,4.336-.133,7.973-.139,11.609-.029,17.791-.057,35.582-.043,53.372.005,5.702,1.646,11.155,2.795,16.673,2.419,11.618,4.896,23.225,7.452,34.814.343,1.554.193,2.045-1.475,2.005-8.973-.216-17.949-.36-26.923-.519-4.404-.078-8.809-.168-13.213-.181-1.167-.003-1.867-.107-1.82-1.576.21-6.575-.35-13.133-.532-19.7-.876-31.684-2.495-63.34-3.568-95.016-.902-26.606-2.16-53.196-3.273-79.792-.083-1.985.422-2.542,2.379-2.572,13.803-.211,27.606-.49,41.406-.855,1.829-.048,2.208,1.098,2.783,2.271,8.182,16.704,16.359,33.411,24.541,50.115,12.493,25.505,24.988,51.009,37.483,76.513.206.42.429.832.82,1.587-.315-7.037-.6-13.631-.912-20.224-.075-1.577-.267-3.148-.353-4.725-1.321-24.087-2.62-48.176-3.955-72.263-.409-7.391-.865-14.779-1.401-22.162-.124-1.705.211-2.66,1.945-3.393,3.82-1.615,7.569-3.426,11.23-5.376,2.841-1.514,5.773-1.857,8.903-1.705,2.404.116,4.832.079,7.229-.126,1.864-.159,2.186.609,2.199,2.257.141,17.71.32,35.42.545,53.129.234,18.376.541,36.752.795,55.128.214,15.465.41,30.93.591,46.396.156,13.386.243,26.773.462,40.158.027,1.671-.503,2.118-2.044,2.263-9.85.923-19.688,1.955-29.602,1.896-5.547-.033-5.967-.222-7.95-5.465-9.071-23.991-17.53-48.204-26.21-72.337-1.419-3.945-4.29-6.884-6.644-10.169-7.31-10.203-14.761-20.305-22.163-30.443-.284-.389-.62-.739-1.338-1.589Z"/>
  </g>
  <path class="cls-3" d="M449.957,109.601c0,24.294.041,48.588-.063,72.881-.011,2.452.76,3.1,3.062,3.362,13.02,1.482,26.028,3.079,39.022,4.781,2.2.288,3.578-.181,4.991-1.927,8.307-10.268,16.709-20.461,25.156-30.614,1.1-1.322,1.057-2.692,1.056-4.166-.017-41.517-.004-83.035-.124-124.552-.008-2.621.669-3.517,3.232-3.721,11.493-.915,22.978-1.943,34.455-3.039,2.293-.219,3.029.391,3.062,2.775.192,13.956.687,27.903,1.712,41.829,2.217,30.123.64,60.273.587,90.413-.019,10.703-.309,21.399-1.013,32.082-.089,1.351-.423,2.534-1.233,3.617-10.145,13.562-20.7,26.78-31.98,39.432-3.33,3.735-7.617,3.962-11.825,4.671-13.557,2.283-27.148,4.36-40.72,6.553-1.549.25-2.904-.083-4.309-.687-20.482-8.8-40.965-17.598-61.484-26.311-2.23-.947-3.164-2.113-3.306-4.679-1.337-24.055-2.73-48.109-4.357-72.145-1.31-19.354-.781-38.671.258-58.006.609-11.335.893-22.687,1.324-34.031.233-6.137.512-12.273.677-18.412.051-1.885.406-2.475,2.576-2.053,12.958,2.523,26.061,4.115,39.158,5.724,3.849.473,3.754.441,3.582,4.266-.481,10.69-.863,21.385-1.301,32.077-.545,13.294-1.107,26.587-1.662,39.88-.177,0-.354.001-.53.002Z"/>
  <path class="cls-9" d="M434.503,109.601c0,24.294.041,48.588-.063,72.881-.011,2.452.76,3.1,3.062,3.362,13.02,1.482,26.028,3.079,39.022,4.781,2.2.288,3.578-.181,4.991-1.927,8.307-10.268,16.709-20.461,25.156-30.614,1.1-1.322,1.057-2.692,1.056-4.166-.017-41.517-.004-83.035-.124-124.552-.008-2.621.669-3.517,3.232-3.721,11.493-.915,22.978-1.943,34.455-3.039,2.293-.219,3.029.391,3.062,2.775.192,13.956.687,27.903,1.712,41.829,2.217,30.123.64,60.273.587,90.413-.019,10.703-.309,21.399-1.013,32.082-.089,1.351-.423,2.534-1.233,3.617-10.145,13.562-20.7,26.78-31.98,39.432-3.33,3.735-7.617,3.962-11.825,4.671-13.557,2.283-27.148,4.36-40.72,6.553-1.549.25-2.904-.083-4.309-.687-20.482-8.8-40.965-17.598-61.484-26.311-2.23-.947-3.164-2.113-3.306-4.679-1.337-24.055-2.73-48.109-4.357-72.145-1.31-19.354-.781-38.671.258-58.006.609-11.335.893-22.687,1.324-34.031.233-6.137.512-12.273.677-18.412.051-1.885.406-2.475,2.576-2.053,12.958,2.523,26.061,4.115,39.158,5.724,3.849.473,3.754.441,3.582,4.266-.481,10.69-.863,21.385-1.301,32.077-.545,13.294-1.107,26.587-1.662,39.88-.177,0-.354.001-.53.002Z"/>
  <g>
    <path class="cls-4" d="M1226.799,55.739c-3.175-.203-6.357-.346-9.451-1.187-.001-9.569.054-19.139-.048-28.708-.022-2.097.624-2.708,2.696-2.674,6.873.115,13.749.057,20.624.027.986-.004,2.058.337,2.942-.439,19.264-.046,38.528-.201,57.79-.084,7.86.048,15.718.65,23.573,1.064,5.72.301,11.431.796,17.153,1.021,2.056.081,1.73,1.235,1.478,2.398-1.684,7.756-3.419,15.501-5.126,23.251-.674,3.059-1.554,6.098-1.907,9.195-.311,2.725-1.641,3.176-3.929,2.731-6.226-1.211-12.457-2.399-18.691-3.568-4.329-.812-8.666-1.578-13.395-2.437.388,6.37.711,12.62,1.17,18.86.306,4.157.161,8.317.516,12.488.707,8.314.886,16.672,1.3,25.012.388,7.823-.639,15.592-.897,23.391-.144,4.347-.458,8.69-.785,13.028-.653,8.662-.982,17.343-1.589,26.009-.322,4.598-.402,9.247-.625,13.872-.156,3.235-.643,6.482-.48,9.698.413,8.136,1.097,16.258,1.697,24.384.457,6.193.928,12.385,1.446,18.574.13,1.554-.101,2.389-2.001,2.345-6.79-.159-13.585-.162-20.377-.224-3.958-.974-7.969-.292-11.955-.379-6.196.014-12.393.027-18.59.04-3.409-.024-6.832-.498-10.212.336-3.837.157-3.912.145-3.353-3.553,2.699-17.862,5.47-35.713,8.162-53.576,2.503-16.61,4.925-33.232,7.409-49.845,1.619-10.829,3.379-21.639,4.891-32.482.804-5.762,1.004-11.591,1.309-17.407.367-7,.909-13.994,1.516-20.978.264-3.04-.282-6.114.534-9.132.304-1.125-.698-1.076-1.437-1.074-1.861.005-3.721.034-5.582.053-8.593-.011-17.186-.021-25.779-.031Z"/>
    <path class="cls-6" d="M1242.254,55.739c-3.175-.203-6.357-.346-9.451-1.187-.001-9.569.054-19.139-.048-28.708-.022-2.097.624-2.708,2.696-2.674,6.873.115,13.749.057,20.624.027.986-.004,2.058.337,2.942-.439,19.264-.046,38.528-.201,57.79-.084,7.86.048,15.718.65,23.573,1.064,5.72.301,11.431.796,17.153,1.021,2.056.081,1.73,1.235,1.478,2.398-1.684,7.756-3.419,15.501-5.126,23.251-.674,3.059-1.554,6.098-1.907,9.195-.311,2.725-1.641,3.176-3.929,2.731-6.226-1.211-12.457-2.399-18.691-3.568-4.329-.812-8.666-1.578-13.395-2.437.388,6.37.711,12.62,1.17,18.86.306,4.157.161,8.317.516,12.488.707,8.314.886,16.672,1.3,25.012.388,7.823-.639,15.592-.897,23.391-.144,4.347-.458,8.69-.785,13.028-.653,8.662-.982,17.343-1.589,26.009-.322,4.598-.402,9.247-.625,13.872-.156,3.235-.643,6.482-.48,9.698.413,8.136,1.097,16.258,1.697,24.384.457,6.193.928,12.385,1.446,18.574.13,1.554-.101,2.389-2.001,2.345-6.79-.159-13.585-.162-20.377-.224-3.958-.974-7.969-.292-11.955-.379-6.196.014-12.393.027-18.59.04-3.409-.024-6.832-.498-10.212.336-3.837.157-3.912.145-3.353-3.553,2.699-17.862,5.47-35.713,8.162-53.576,2.503-16.61,4.925-33.232,7.409-49.845,1.619-10.829,3.379-21.639,4.891-32.482.804-5.762,1.004-11.591,1.309-17.407.367-7,.909-13.994,1.516-20.978.264-3.04-.282-6.114.534-9.132.304-1.125-.698-1.076-1.437-1.074-1.861.005-3.721.034-5.582.053-8.593-.011-17.186-.021-25.779-.031Z"/>
  </g>
  <g>
    <path class="cls-8" d="M1369.888,17.747c29.089,2.777,58.289,3.53,87.459,4.812,4.249.187,4.203.195,3.951,4.392-.339,5.661-.687,11.325-.851,16.993-.064,2.213-.699,3.257-3.079,3.529-8.218.94-16.405,2.159-24.62,3.128-1.729.204-2.329.646-2.342,2.492-.347,49.03-.393,98.059.764,147.08.213,9.01.537,18.032,1.783,26.988.267,1.916,1.085,2.673,2.994,2.882,5.467.599,10.944.906,16.432.717,2.051-.071,2.434.563,2.26,2.536-.41,4.628-.57,9.281-.706,13.927-.049,1.681-.607,2.244-2.324,2.169-16.543-.724-33.09-1.358-49.635-2.06-11.71-.497-23.417-1.06-35.126-1.589-6.691-.302-13.38-.625-20.073-.865-1.284-.046-1.851-.398-1.781-1.757.383-7.335.735-14.673,1.061-22.011.078-1.742,1.206-1.519,2.349-1.433,5.749.429,11.499.853,17.25,1.26,3.625.257,7.254.301,10.875-.046,1.815-.174,2.876-.836,3.077-3.07,1.307-14.531,2.806-29.044,4.244-43.563,1.778-17.94,3.57-35.88,5.332-53.821,1.562-15.907,3.09-31.817,4.638-47.725.567-5.827,1.014-11.67,1.796-17.468.273-2.024-.344-2.772-2.073-3.447-11.245-4.388-22.439-8.909-33.698-13.263-1.967-.761-2.518-1.505-1.791-3.625,1.655-4.826,3.173-9.715,4.394-14.665.615-2.493,1.855-3.086,4.099-2.745,1.1.167,2.225.171,3.339.249Z"/>
    <path class="cls-12" d="M1385.342,17.564c29.089,2.777,58.289,3.53,87.459,4.812,4.249.187,4.203.195,3.951,4.392-.339,5.661-.687,11.325-.851,16.993-.064,2.213-.699,3.257-3.079,3.529-8.218.94-16.405,2.159-24.62,3.128-1.729.204-2.329.646-2.342,2.492-.347,49.03-.393,98.059.764,147.08.213,9.01.537,18.032,1.783,26.988.267,1.916,1.085,2.673,2.994,2.882,5.467.599,10.944.906,16.432.717,2.051-.071,2.434.563,2.26,2.536-.41,4.628-.57,9.281-.706,13.927-.049,1.681-.607,2.244-2.324,2.169-16.543-.724-33.09-1.358-49.635-2.06-11.71-.497-23.417-1.06-35.126-1.589-6.691-.302-13.38-.625-20.073-.865-1.284-.046-1.851-.398-1.781-1.757.383-7.335.735-14.673,1.061-22.011.078-1.742,1.206-1.519,2.349-1.433,5.749.429,11.499.853,17.25,1.26,3.625.257,7.254.301,10.875-.046,1.815-.174,2.876-.836,3.077-3.07,1.307-14.531,2.806-29.044,4.244-43.563,1.778-17.94,3.57-35.88,5.332-53.821,1.562-15.907,3.09-31.817,4.638-47.725.567-5.827,1.014-11.67,1.796-17.468.273-2.024-.344-2.772-2.073-3.447-11.245-4.388-22.439-8.909-33.698-13.263-1.967-.761-2.518-1.505-1.791-3.625,1.655-4.826,3.173-9.715,4.394-14.665.615-2.493,1.855-3.086,4.099-2.745,1.1.167,2.225.171,3.339.249Z"/>
  </g>
  <g>
    <path class="cls-7" d="M1543.142,35.359c4.239,0,8.479.021,12.718-.012,1.387-.011,2.62.3,3.703,1.189,11.815,9.704,23.474,19.58,34.156,30.553,1.84,1.89,2.973,3.991,3.674,6.584,3.919,14.491,8.536,28.793,13.846,42.81,2.695,7.114,2.227,13.123-.549,20.027-8.192,20.376-15.764,40.999-24.158,61.304-2.815,6.809-7.114,12.015-12.965,16.262-7.666,5.565-15.543,10.748-23.832,15.367-4.951,2.759-9.829,1.837-14.764.893-18.337-3.505-36.477-7.867-54.467-12.858-2.633-.73-4.854-2.043-6.865-3.851-8.977-8.072-17.226-16.834-25.041-26.026-2.265-2.664-3.25-5.574-3.396-9.074-.873-21.035.01-42.055.346-63.08.122-7.645.438-15.288.629-22.932.03-1.2.24-2.193,1.114-3.146,13.761-15,27.497-30.019,41.598-44.707,4.372-4.554,9.691-5.477,15.25-6.237,12.936-1.769,25.962-2.509,39.002-3.066ZM1520.113,180.074c0-.23,0-.461,0-.691,6.979,0,13.959-.055,20.937.036,1.884.025,2.936-.531,3.818-2.302,7.649-15.357,15.401-30.663,23.161-45.964.643-1.267.782-2.348.251-3.726-4.769-12.37-9.489-24.759-14.139-37.174-.478-1.276-1.158-1.529-2.355-1.614-12.758-.906-25.514-1.847-38.266-2.836-1.44-.112-2.467.195-3.492,1.284-5.406,5.748-10.873,11.44-16.376,17.095-.97.997-1.568,2.082-1.916,3.393-2.704,10.172-5.389,20.35-8.184,30.497-.49,1.778-.45,3.352.17,5.065,4.226,11.689,8.429,23.386,12.544,35.114.556,1.585,1.389,1.879,2.912,1.86,6.978-.083,13.956-.036,20.935-.036Z"/>
    <path class="cls-2" d="M1551.794,35.359c4.239,0,8.479.021,12.718-.012,1.387-.011,2.62.3,3.703,1.189,11.815,9.704,23.474,19.58,34.156,30.553,1.84,1.89,2.973,3.991,3.674,6.584,3.919,14.491,8.536,28.793,13.846,42.81,2.695,7.114,2.227,13.123-.549,20.027-8.192,20.376-15.764,40.999-24.158,61.304-2.815,6.809-7.114,12.015-12.965,16.262-7.666,5.565-15.543,10.748-23.832,15.367-4.951,2.759-9.829,1.837-14.764.893-18.337-3.505-36.477-7.867-54.467-12.858-2.633-.73-4.854-2.043-6.865-3.851-8.977-8.072-17.226-16.834-25.041-26.026-2.265-2.664-3.25-5.574-3.396-9.074-.873-21.035.01-42.055.346-63.08.122-7.645.438-15.288.629-22.932.03-1.2.24-2.193,1.114-3.146,13.761-15,27.497-30.019,41.598-44.707,4.372-4.554,9.691-5.477,15.25-6.237,12.936-1.769,25.962-2.509,39.002-3.066ZM1528.765,180.074c0-.23,0-.461,0-.691,6.979,0,13.959-.055,20.937.036,1.884.025,2.936-.531,3.818-2.302,7.649-15.357,15.401-30.663,23.161-45.964.643-1.267.782-2.348.251-3.726-4.769-12.37-9.489-24.759-14.139-37.174-.478-1.276-1.158-1.529-2.355-1.614-12.758-.906-25.514-1.847-38.266-2.836-1.44-.112-2.467.195-3.492,1.284-5.406,5.748-10.873,11.44-16.376,17.095-.97.997-1.568,2.082-1.916,3.393-2.704,10.172-5.389,20.35-8.184,30.497-.49,1.778-.45,3.352.17,5.065,4.226,11.689,8.429,23.386,12.544,35.114.556,1.585,1.389,1.879,2.912,1.86,6.978-.083,13.956-.036,20.935-.036Z"/>
    <g>
      <path class="cls-10" d="M1561.172,35.359c4.239,0,8.479.021,12.718-.012,1.387-.011,2.62.3,3.703,1.189,11.815,9.704,23.474,19.58,34.156,30.553,1.84,1.89,2.973,3.991,3.674,6.584,3.919,14.491,8.536,28.793,13.846,42.81,2.695,7.114,2.227,13.123-.549,20.027-8.192,20.376-15.764,40.999-24.158,61.304-2.815,6.809-7.114,12.015-12.965,16.262-7.666,5.565-15.543,10.748-23.832,15.367-4.951,2.759-9.829,1.837-14.764.893-18.337-3.505-36.477-7.867-54.467-12.858-2.633-.73-4.854-2.043-6.865-3.851-8.977-8.072-17.226-16.834-25.041-26.026-2.265-2.664-3.25-5.574-3.396-9.074-.873-21.035.01-42.055.346-63.08.122-7.645.438-15.288.629-22.932.03-1.2.24-2.193,1.114-3.146,13.761-15,27.497-30.019,41.598-44.707,4.372-4.554,9.691-5.477,15.25-6.237,12.936-1.769,25.962-2.509,39.002-3.066ZM1538.144,180.074c0-.23,0-.461,0-.691,6.979,0,13.959-.055,20.937.036,1.884.025,2.936-.531,3.818-2.302,7.649-15.357,15.401-30.663,23.161-45.964.643-1.267.782-2.348.251-3.726-4.769-12.37-9.489-24.759-14.139-37.174-.478-1.276-1.158-1.529-2.355-1.614-12.758-.906-25.514-1.847-38.266-2.836-1.44-.112-2.467.195-3.492,1.284-5.406,5.748-10.873,11.44-16.376,17.095-.97.997-1.568,2.082-1.916,3.393-2.704,10.172-5.389,20.35-8.184,30.497-.49,1.778-.45,3.352.17,5.065,4.226,11.689,8.429,23.386,12.544,35.114.556,1.585,1.389,1.879,2.912,1.86,6.978-.083,13.956-.036,20.935-.036Z"/>
      <path class="cls-10" d="M1574.976,35.359c4.239,0,8.479.021,12.718-.012,1.387-.011,2.62.3,3.703,1.189,11.815,9.704,23.474,19.58,34.156,30.553,1.84,1.89,2.973,3.991,3.674,6.584,3.919,14.491,8.536,28.793,13.846,42.81,2.695,7.114,2.227,13.123-.549,20.027-8.192,20.376-15.764,40.999-24.158,61.304-2.815,6.809-7.114,12.015-12.965,16.262-7.666,5.565-15.543,10.748-23.832,15.367-4.951,2.759-9.829,1.837-14.764.893-18.337-3.505-36.477-7.867-54.467-12.858-2.633-.73-4.854-2.043-6.865-3.851-8.977-8.072-17.226-16.834-25.041-26.026-2.265-2.664-3.25-5.574-3.396-9.074-.873-21.035.01-42.055.346-63.08.122-7.645.438-15.288.629-22.932.03-1.2.24-2.193,1.114-3.146,13.761-15,27.497-30.019,41.598-44.707,4.372-4.554,9.691-5.477,15.25-6.237,12.936-1.769,25.962-2.509,39.002-3.066ZM1551.947,180.074c0-.23,0-.461,0-.691,6.979,0,13.959-.055,20.937.036,1.884.025,2.936-.531,3.818-2.302,7.649-15.357,15.401-30.663,23.161-45.964.643-1.267.782-2.348.251-3.726-4.769-12.37-9.489-24.759-14.139-37.174-.478-1.276-1.158-1.529-2.355-1.614-12.758-.906-25.514-1.847-38.266-2.836-1.44-.112-2.467.195-3.492,1.284-5.406,5.748-10.873,11.44-16.376,17.095-.97.997-1.568,2.082-1.916,3.393-2.704,10.172-5.389,20.35-8.184,30.497-.49,1.778-.45,3.352.17,5.065,4.226,11.689,8.429,23.386,12.544,35.114.556,1.585,1.389,1.879,2.912,1.86,6.978-.083,13.956-.036,20.935-.036Z"/>
    </g>
  </g>
  <path class="cls-1" d="M107.649,156.296c0-15.198-.225-30.4.063-45.592.293-15.479.381-30.955.197-46.43-.152-12.825-.594-25.648-1.038-38.468-.09-2.6.515-3.331,3.151-2.582,5.823,1.654,11.836.667,17.763.899,7.085.278,14.179.377,21.27.417,1.81.01,2.224.651,2.156,2.321-.741,18.372-1.427,36.746-2.127,55.119-.215,5.655-.33,11.311-.576,16.967-.605,13.945-.48,27.933-1.445,41.849-.895,12.919,1.183,25.537,2.337,38.264.79,8.714,1.668,17.42,2.367,26.141.366,4.558.633,4.956,5.233,5.187,15.661.786,31.324,1.547,46.983,2.388,8.204.441,16.401,1.008,24.598,1.557,4.005.268,7.746-.098,11.49-2.014,6.794-3.477,13.857-6.427,20.776-9.665,1.608-.752,2.269-.791,2.253,1.339-.081,10.949-.056,21.9-.015,32.85.005,1.418-.388,2.109-1.844,2.644-5.977,2.194-11.998,3.332-18.467,3.434-20.241.321-40.492-.018-60.718.625-17.228.548-34.386-.784-51.581-.976-6.415-.072-12.851-.286-19.277-.455-1.888-.05-2.634-.579-2.653-2.604-.08-8.679-.2-17.361-.542-26.032-.751-19.058-.476-38.122-.355-57.184Z"/>
  <path class="cls-18" d="M125.68,156.296c0-15.198-.225-30.4.063-45.592.293-15.479.381-30.955.197-46.43-.152-12.825-.594-25.648-1.038-38.468-.09-2.6.515-3.331,3.151-2.582,5.823,1.654,11.836.667,17.763.899,7.085.278,14.179.377,21.27.417,1.81.01,2.224.651,2.156,2.321-.741,18.372-1.427,36.746-2.127,55.119-.215,5.655-.33,11.311-.576,16.967-.605,13.945-.48,27.933-1.445,41.849-.895,12.919,1.183,25.537,2.337,38.264.79,8.714,1.668,17.42,2.367,26.141.366,4.558.633,4.956,5.233,5.187,15.661.786,31.324,1.547,46.983,2.388,8.204.441,16.401,1.008,24.598,1.557,4.005.268,7.746-.098,11.49-2.014,6.794-3.477,13.857-6.427,20.776-9.665,1.608-.752,2.269-.791,2.253,1.339-.081,10.949-.056,21.9-.015,32.85.005,1.418-.388,2.109-1.844,2.644-5.977,2.194-11.998,3.332-18.467,3.434-20.241.321-40.492-.018-60.718.625-17.228.548-34.386-.784-51.581-.976-6.415-.072-12.851-.286-19.277-.455-1.888-.05-2.634-.579-2.653-2.604-.08-8.679-.2-17.361-.542-26.032-.751-19.058-.476-38.122-.355-57.184Z"/>
  <path class="cls-21" d="M262.196,156.296c0-15.198-.225-30.4.063-45.592.293-15.479.381-30.955.197-46.43-.152-12.825-.594-25.648-1.038-38.468-.09-2.6.515-3.331,3.151-2.582,5.823,1.654,11.836.667,17.763.899,7.085.278,14.179.377,21.27.417,1.81.01,2.224.651,2.156,2.321-.741,18.372-1.427,36.746-2.127,55.119-.215,5.655-.33,11.311-.576,16.967-.605,13.945-.48,27.933-1.445,41.849-.895,12.919,1.183,25.537,2.337,38.264.79,8.714,1.668,17.42,2.367,26.141.366,4.558.633,4.956,5.233,5.187,15.661.786,31.324,1.547,46.983,2.388,8.204.441,16.401,1.008,24.598,1.557,4.005.268,7.746-.098,11.49-2.014,6.794-3.477,13.857-6.427,20.776-9.665,1.608-.752,2.269-.791,2.253,1.339-.081,10.949-.056,21.9-.015,32.85.005,1.418-.388,2.109-1.844,2.644-5.977,2.194-11.998,3.332-18.467,3.434-20.241.321-40.492-.018-60.718.625-17.228.548-34.386-.784-51.581-.976-6.415-.072-12.851-.286-19.277-.455-1.888-.05-2.634-.579-2.653-2.604-.08-8.679-.2-17.361-.542-26.032-.751-19.058-.476-38.122-.355-57.184Z"/>
  <path class="cls-17" d="M280.227,156.296c0-15.198-.225-30.4.063-45.592.293-15.479.381-30.955.197-46.43-.152-12.825-.594-25.648-1.038-38.468-.09-2.6.515-3.331,3.151-2.582,5.823,1.654,11.836.667,17.763.899,7.085.278,14.179.377,21.27.417,1.81.01,2.224.651,2.156,2.321-.741,18.372-1.427,36.746-2.127,55.119-.215,5.655-.33,11.311-.576,16.967-.605,13.945-.48,27.933-1.445,41.849-.895,12.919,1.183,25.537,2.337,38.264.79,8.714,1.668,17.42,2.367,26.141.366,4.558.633,4.956,5.233,5.187,15.661.786,31.324,1.547,46.983,2.388,8.204.441,16.401,1.008,24.598,1.557,4.005.268,7.746-.098,11.49-2.014,6.794-3.477,13.857-6.427,20.776-9.665,1.608-.752,2.269-.791,2.253,1.339-.081,10.949-.056,21.9-.015,32.85.005,1.418-.388,2.109-1.844,2.644-5.977,2.194-11.998,3.332-18.467,3.434-20.241.321-40.492-.018-60.718.625-17.228.548-34.386-.784-51.581-.976-6.415-.072-12.851-.286-19.277-.455-1.888-.05-2.634-.579-2.653-2.604-.08-8.679-.2-17.361-.542-26.032-.751-19.058-.476-38.122-.355-57.184Z"/>
  <g>
    <path class="cls-22" d="M806.543,22.045c14.213-.057,28.323,1.681,42.489,2.497,4.367.252,8.724.693,13.093.883,1.774.077,2.619.61,2.789,2.482.774,8.515,1.94,16.994,2.221,25.556.065,1.975-.209,2.82-2.551,3.022-15.781,1.359-31.541,2.953-47.313,4.424-3.58.334-7.179.672-10.767.655-2.399-.011-3.082.683-3.048,3.118.351,24.81.545,49.623.849,74.434.299,24.42.617,48.839,1.048,73.257.158,8.984-1.406,17.822-1.838,26.749-.116,2.4-2.009,2.063-3.389,2.251-6.834.928-13.684,1.74-20.53,2.586-6.878.85-13.704,1.133-20.55-.6-2.377-.602-3.121-1.628-3.161-3.89-.121-6.905-.378-13.808-.581-20.712-.396-13.418-1.179-26.839-1.097-40.255.124-20.132.8-40.263,1.35-60.391.348-12.737.887-25.469,1.356-38.203.161-4.373.225-8.758.612-13.113.241-2.712-.708-3.34-3.314-3.465-23.502-1.121-46.934-3.247-70.39-5.036-1.687-.129-2.166-.611-2.433-2.336-1.319-8.544.406-16.848,1.626-25.202.186-1.272.839-1.701,2.126-1.839,19.242-2.062,38.525-3.436,57.867-4.172,18.17-.692,36.324-1.804,54.488-2.679,3.009-.145,6.032-.02,9.048-.02Z"/>
    <path class="cls-20" d="M827.15,22.045c14.213-.057,28.323,1.681,42.489,2.497,4.367.252,8.724.693,13.093.883,1.774.077,2.619.61,2.789,2.482.774,8.515,1.94,16.994,2.221,25.556.065,1.975-.209,2.82-2.551,3.022-15.781,1.359-31.541,2.953-47.313,4.424-3.58.334-7.179.672-10.767.655-2.399-.011-3.082.683-3.048,3.118.351,24.81.545,49.623.849,74.434.299,24.42.617,48.839,1.048,73.257.158,8.984-1.406,17.822-1.838,26.749-.116,2.4-2.009,2.063-3.389,2.251-6.834.928-13.684,1.74-20.53,2.586-6.878.85-13.704,1.133-20.55-.6-2.377-.602-3.121-1.628-3.161-3.89-.121-6.905-.378-13.808-.581-20.712-.396-13.418-1.179-26.839-1.097-40.255.124-20.132.8-40.263,1.35-60.391.348-12.737.887-25.469,1.356-38.203.161-4.373.225-8.758.612-13.113.241-2.712-.708-3.34-3.314-3.465-23.502-1.121-46.934-3.247-70.39-5.036-1.687-.129-2.166-.611-2.433-2.336-1.319-8.544.406-16.848,1.626-25.202.186-1.272.839-1.701,2.126-1.839,19.242-2.062,38.525-3.436,57.867-4.172,18.17-.692,36.324-1.804,54.488-2.679,3.009-.145,6.032-.02,9.048-.02Z"/>
  </g>
  <g>
    <path class="cls-14" d="M1181.705,248.415c-2.445.978-3.273-.701-4.031-3.19-5.006-16.435-10.19-32.815-15.187-49.252-.566-1.86-1.277-2.487-3.211-2.521-16.095-.284-32.189-.68-48.283-1.041-1.024-.023-2.109.185-3.061-.086-4.782-1.358-6.771,1.322-8.837,5.119-9.285,17.067-18.877,33.968-28.302,50.959-.805,1.45-1.625,2.185-3.415,2.171-10.984-.088-21.969-.084-32.953-.008-2.073.014-2.45-.498-2.013-2.565,4.952-23.435,9.814-46.889,14.664-70.345,7.501-36.275,14.974-72.555,22.459-108.833,1.688-8.183,3.323-16.377,5.107-24.539.369-1.69,1.183-3.316,1.981-4.874,3.22-6.287,6.557-12.515,9.753-18.815.819-1.615,1.844-2.235,3.683-2.274,17.49-.367,34.979-.815,52.467-1.277,10.789-.284,21.577-.59,32.362-.987,2.086-.077,2.798.465,3.098,2.687,2.214,16.383,4.615,32.74,6.975,49.102,2.267,15.719,4.443,31.453,6.861,47.149,2.728,17.713,5.663,35.395,8.542,53.084,2.909,17.872,5.859,35.737,8.793,53.605,1.219,7.422,2.413,14.848,3.689,22.259.228,1.326.247,2.056-1.432,2.177-9.736.7-19.464,1.492-29.708,2.294ZM1137.362,47.963c-3.793.177-7.696.295-11.586.588-.929.07-2.209.468-2.656,1.153-3.382,5.188-8.012,10.089-9.612,15.818-6.185,22.142-11.393,44.558-16.93,66.88-.16.645-.17,1.848.149,2.011,3.228,1.652,5.838,4.699,9.977,4.349,4.905-.415,9.825-.663,14.736-1.014,8.711-.622,17.442-1.051,26.123-1.964,7.954-.836,8.085-1.097,6.701-9.114-4.389-25.415-8.912-50.807-13.356-76.213-.356-2.034-1.1-3.318-3.546-2.496Z"/>
    <path class="cls-12" d="M1197.16,248.415c-2.445.978-3.273-.701-4.031-3.19-5.006-16.435-10.19-32.815-15.187-49.252-.566-1.86-1.277-2.487-3.211-2.521-16.095-.284-32.189-.68-48.283-1.041-1.024-.023-2.109.185-3.061-.086-4.782-1.358-6.771,1.322-8.837,5.119-9.285,17.067-18.877,33.968-28.302,50.959-.805,1.45-1.625,2.185-3.415,2.171-10.984-.088-21.969-.084-32.953-.008-2.073.014-2.45-.498-2.013-2.565,4.952-23.435,9.814-46.889,14.664-70.345,7.501-36.275,14.974-72.555,22.459-108.833,1.688-8.183,3.323-16.377,5.107-24.539.369-1.69,1.183-3.316,1.981-4.874,3.22-6.287,6.557-12.515,9.753-18.815.819-1.615,1.844-2.235,3.683-2.274,17.49-.367,34.979-.815,52.467-1.277,10.789-.284,21.577-.59,32.362-.987,2.086-.077,2.798.465,3.098,2.687,2.214,16.383,4.615,32.74,6.975,49.102,2.267,15.719,4.443,31.453,6.861,47.149,2.728,17.713,5.663,35.395,8.542,53.084,2.909,17.872,5.859,35.737,8.793,53.605,1.219,7.422,2.413,14.848,3.689,22.259.228,1.326.247,2.056-1.432,2.177-9.736.7-19.464,1.492-29.708,2.294ZM1152.816,47.963c-3.793.177-7.696.295-11.586.588-.929.07-2.209.468-2.656,1.153-3.382,5.188-8.012,10.089-9.612,15.818-6.185,22.142-11.393,44.558-16.93,66.88-.16.645-.17,1.848.149,2.011,3.228,1.652,5.838,4.699,9.977,4.349,4.905-.415,9.825-.663,14.736-1.014,8.711-.622,17.442-1.051,26.123-1.964,7.954-.836,8.085-1.097,6.701-9.114-4.389-25.415-8.912-50.807-13.356-76.213-.356-2.034-1.1-3.318-3.546-2.496Z"/>
  </g>
</svg>