<?xml version="1.0" encoding="UTF-8"?>
<svg id="Layer_1" data-name="Layer 1" xmlns="http://www.w3.org/2000/svg" viewBox="0 0 1348.515 298.037">
  <defs>
    <style>
      .cls-1 {
        fill: #446280;
      }

      .cls-2 {
        fill: #eb5f5f;
      }

      .cls-3 {
        fill: #e4abce;
      }

      .cls-4 {
        fill: #eae2db;
      }

      .cls-5 {
        fill: #fff;
      }

      .cls-6 {
        fill: #f3e2b4;
      }

      .cls-7 {
        fill: #ef916f;
      }

      .cls-8 {
        fill: #ea7096;
        stroke: #fff;
        stroke-miterlimit: 10;
        stroke-width: 3px;
      }

      .cls-9 {
        fill: #eb5e5e;
      }

      .cls-10 {
        fill: #7c3862;
      }

      .cls-11 {
        fill: #f4c9c0;
      }

      .cls-12 {
        fill: #80cdbb;
      }

      .cls-13 {
        fill: #efa042;
      }

      .cls-14 {
        fill: #f7f8f9;
      }
    </style>
  </defs>
  <g>
    <path class="cls-7" d="M328.127,281.365c-2.746.069-4.833-.973-6.988-2.77-15.195-12.669-26.339-28.865-38.702-43.998-4.436-5.43-8.776-10.94-13.166-16.408-.461-.574-.779-1.599-1.682-.27-4.142,6.091-9.385,11.269-14.16,16.831-10.466,12.19-21.142,24.2-31.629,36.373-1.44,1.672-3.267,2.183-5.062,3.088-5.387,2.715-10.188.957-14.631-1.888-3.338-2.137-6.218-4.996-9.271-7.57-1.176-.991-.037-1.789.414-2.518,6.696-10.811,13.407-21.614,20.158-32.391,9.564-15.268,18.834-30.721,28.77-45.753,1.046-1.583.106-2.388-.639-3.391-11.34-15.248-22.69-30.487-34.036-45.729-10.129-13.606-20.228-27.235-30.417-40.795-1.28-1.703-1.332-2.332.895-2.954,5.016-1.403,9.986-2.983,14.927-4.631,2.197-.733,4.486-.792,6.7-1.316,1.284-.304,1.922.598,2.66,1.348,18.586,18.913,37.174,37.825,55.764,56.733,1.888,1.92,3.797,3.819,5.692,5.731.616.621.972,1.147,1.752-.079,5.161-8.109,10.414-16.16,15.686-24.198,9.257-14.111,18.575-28.183,27.787-42.324.91-1.397,1.701-1.544,3.141-1.049,4.003,1.377,7.994,2.86,12.098,3.849,6.402,1.543,11.604,4.795,16.002,9.63,1.068,1.174.46,1.805.051,2.732-9.276,21.052-21.878,40.186-34.231,59.467-5.321,8.305-10.513,16.693-15.884,24.965-.748,1.151-.133,1.633.35,2.288,5.758,7.812,11.545,15.602,17.312,23.407,9.837,13.314,19.776,26.556,29.415,40.012,2.263,3.159,4.479,6.368,6.826,9.47.823,1.088.637,1.926.276,3.113-2.412,7.919-7.87,13.761-13.187,19.715-.821.92-1.867,1.245-2.99,1.278Z"/>
    <path class="cls-11" d="M337.012,281.365c-2.746.069-4.833-.973-6.988-2.77-15.195-12.669-26.339-28.865-38.702-43.998-4.436-5.43-8.776-10.94-13.166-16.408-.461-.574-.779-1.599-1.682-.27-4.142,6.091-9.385,11.269-14.16,16.831-10.466,12.19-21.142,24.2-31.629,36.373-1.44,1.672-3.267,2.183-5.062,3.088-5.387,2.715-10.188.957-14.631-1.888-3.338-2.137-6.218-4.996-9.271-7.57-1.176-.991-.037-1.789.414-2.518,6.696-10.811,13.407-21.614,20.158-32.391,9.564-15.268,18.834-30.721,28.77-45.753,1.046-1.583.106-2.388-.639-3.391-11.34-15.248-22.69-30.487-34.036-45.729-10.129-13.606-20.228-27.235-30.417-40.795-1.28-1.703-1.332-2.332.895-2.954,5.016-1.403,9.986-2.983,14.927-4.631,2.197-.733,4.486-.792,6.7-1.316,1.284-.304,1.922.598,2.66,1.348,18.586,18.913,37.174,37.825,55.764,56.733,1.888,1.92,3.797,3.819,5.692,5.731.616.621.972,1.147,1.752-.079,5.161-8.109,10.414-16.16,15.686-24.198,9.257-14.111,18.575-28.183,27.787-42.324.91-1.397,1.701-1.544,3.141-1.049,4.003,1.377,7.994,2.86,12.098,3.849,6.402,1.543,11.604,4.795,16.002,9.63,1.068,1.174.46,1.805.051,2.732-9.276,21.052-21.878,40.186-34.231,59.467-5.321,8.305-10.513,16.693-15.884,24.965-.748,1.151-.133,1.633.35,2.288,5.758,7.812,11.545,15.602,17.312,23.407,9.837,13.314,19.776,26.556,29.415,40.012,2.263,3.159,4.479,6.368,6.826,9.47.823,1.088.637,1.926.276,3.113-2.412,7.919-7.87,13.761-13.187,19.715-.821.92-1.867,1.245-2.99,1.278Z"/>
  </g>
  <g>
    <path class="cls-5" d="M1130.25,23.218c12.142-3.982,23.167-11.134,36.078-13.39,1.592-.278,2.77.034,4.184.716,6.979,3.364,12.08,8.606,16.75,14.735,17.821,23.39,35.991,46.513,53.947,69.8,1.631,2.116,2.271,2.296,3.987-.016,21.343-28.756,42.816-57.416,64.205-86.138,1.162-1.56,2.282-2.178,4.281-1.912,3.736.497,7.517.827,11.283.867,2.355.025,3.869,1.059,5.19,2.732,5.813,7.365,11.593,14.756,17.454,22.082,1.091,1.364,1.172,2.492.373,4.028-4.481,8.62-8.467,17.53-13.448,25.847-3.137,5.239-7.693,9.635-11.657,14.372-15.716,18.781-31.427,37.566-47.213,56.288-1.521,1.804-2.119,3.532-1.872,5.881,3.185,30.364,6.303,60.735,9.419,91.106,1.4,13.65,2.768,27.304,4.133,40.958.567,5.671-.323,6.775-5.928,7.588-1.244.18-2.514.303-3.711.658-8.708,2.58-16.977,1.383-25.224-2.2-5.536-2.405-11.38-4.121-17.139-5.982-1.822-.589-2.516-1.59-2.691-3.4-1.765-18.211-4.126-36.386-5.194-54.637-.726-12.412.215-24.934.638-37.399.407-12.019.222-24.036.334-36.054.02-2.182-1.575-3.232-2.707-4.551-22.565-26.329-45.176-52.618-67.779-78.914-8.728-10.154-17.46-20.303-26.177-30.466-.58-.676-1.392-1.226-1.516-2.598Z"/>
    <path class="cls-2" d="M1120.901,23.218c12.142-3.982,23.167-11.134,36.078-13.39,1.592-.278,2.77.034,4.184.716,6.979,3.364,12.08,8.606,16.75,14.735,17.821,23.39,35.991,46.513,53.947,69.8,1.631,2.116,2.271,2.296,3.987-.016,21.343-28.756,42.816-57.416,64.205-86.138,1.162-1.56,2.282-2.178,4.281-1.912,3.736.497,7.517.827,11.283.867,2.355.025,3.869,1.059,5.19,2.732,5.813,7.365,11.593,14.756,17.454,22.082,1.091,1.364,1.172,2.492.373,4.028-4.481,8.62-8.467,17.53-13.448,25.847-3.137,5.239-7.693,9.635-11.657,14.372-15.716,18.781-31.427,37.566-47.213,56.288-1.521,1.804-2.119,3.532-1.872,5.881,3.185,30.364,6.303,60.735,9.419,91.106,1.4,13.65,2.768,27.304,4.133,40.958.567,5.671-.323,6.775-5.928,7.588-1.244.18-2.514.303-3.711.658-8.708,2.58-16.977,1.383-25.224-2.2-5.536-2.405-11.38-4.121-17.139-5.982-1.822-.589-2.516-1.59-2.691-3.4-1.765-18.211-4.126-36.386-5.194-54.637-.726-12.412.215-24.934.638-37.399.407-12.019.222-24.036.334-36.054.02-2.182-1.575-3.232-2.707-4.551-22.565-26.329-45.176-52.618-67.779-78.914-8.728-10.154-17.46-20.303-26.177-30.466-.58-.676-1.392-1.226-1.516-2.598Z"/>
  </g>
  <path class="cls-8" d="M551.377,195.548c0-20.787-.069-41.575.035-62.361.041-8.214-1.934-16.118-3.222-24.122-4.024-25.016-8.204-50.007-12.33-75.006-.545-3.301-1.102-6.6-1.704-9.89-.288-1.572.168-2.151,1.875-2.224,16.071-.69,32.139-1.47,48.207-2.225,3.826-.18,7.661-.264,11.474-.59,2.199-.188,2.722.589,2.743,2.705.159,16.475.43,32.949.684,49.424.437,28.351.803,56.703,1.362,85.051.366,18.575,1.009,37.146,1.557,55.717.085,2.87.421,5.734.461,8.603.022,1.58.68,1.9,2.093,1.869,17.524-.378,35.049-.737,52.575-1.022,1.904-.031,1.906-1.023,1.843-2.38-.242-5.261-.379-10.528-.705-15.784-.132-2.125.34-2.979,2.724-3.039,8.613-.216,17.222-.668,25.828-1.099,1.66-.083,2.565.034,2.644,2.153.675,18.085,1.442,36.167,2.295,54.244.113,2.393-.612,3.135-2.969,3.205-9.284.274-18.586.437-27.835,1.2-7.993.659-15.927,2.051-23.881,3.159-12.881,1.796-25.727,3.905-38.649,5.325-6.644.73-13.353-.781-20.037-1.212-8.307-.535-16.589-1.468-24.897-1.986-2.3-.143-2.806-.868-2.799-3.035.074-22.226.046-44.452.046-66.678.194,0,.388,0,.581,0Z"/>
  <g>
    <path class="cls-9" d="M129.343,278.959c1.298-11.262,2.61-21.849,3.721-32.456,1.829-17.466,4.471-34.848,5.178-52.432.477-11.866,1.316-23.717,1.946-35.577.083-1.562.386-2.258,2.269-2.458,10.068-1.07,20.036.504,30.045.875,3.767.14,7.523.586,11.29.701,1.649.05,2.215.451,2.068,2.193-.774,9.194-1.45,18.397-2.136,27.599-.477,6.399-1.134,12.784-1.209,19.214-.286,24.484-.626,48.967-.942,73.45-.041,3.15-.034,3.173-3.164,2.815-8.525-.975-17.045-1.997-25.573-2.946-3.846-.428-7.685.206-11.53.278-3.128.058-6.272.15-9.37.543-2.195.278-3.062-.206-2.592-1.797Z"/>
    <path class="cls-9" d="M161.006,138.409c-5.136,0-10.273-.052-15.407.035-1.346.023-1.941-.496-2.544-1.624-6.47-12.107-10.421-25.079-13.398-38.402-.253-1.133.037-1.763.885-2.448,6.427-5.188,12.838-10.397,19.213-15.648.983-.81,1.995-.914,3.133-.735,11.16,1.756,22.318,3.53,33.484,5.251.992.153,1.555.682,2.124,1.384,3.285,4.048,6.567,8.099,9.9,12.107.823.99,1.169,1.983,1.064,3.284-.709,8.793-1.38,17.59-1.994,26.391-.075,1.081-.578,1.494-1.443,1.914-5.4,2.624-10.783,5.286-16.153,7.972-1.183.592-2.378.824-3.698.811-5.055-.046-10.11-.019-15.166-.019,0-.091,0-.181,0-.272Z"/>
  </g>
  <g>
    <path class="cls-4" d="M1080.402,28.661c4.107-2.45,6.593-.399,9.651,3.154,8.805,10.233,14.769,22.132,21.206,33.779,11.915,21.556,23.802,43.128,35.666,64.712,10.223,18.599,20.409,37.219,30.591,55.84,8.309,15.197,16.609,30.398,24.861,45.625,1.857,3.426,3.408,7.018,5.272,10.44,1.098,2.015.232,3.009-1.474,3.688-4.457,1.774-8.939,3.486-13.415,5.214-3.357,1.296-6.793,2.42-10.048,3.934-1.6.744-1.954.237-2.659-1.033-8.934-16.113-17.955-32.178-26.912-48.278-9.393-16.886-18.772-33.781-28.066-50.722-1.185-2.16-2.418-2.601-4.804-2.02-10.932,2.661-21.969,4.892-32.979,7.179-7.969,1.655-15.852,3.66-23.826,5.263-2.255.453-4.534.832-6.82,1.077-1.893.203-2.17,1.385-2.226,2.918-.68,18.512-1.381,37.023-2.067,55.535-.73,19.713-1.45,39.426-2.172,59.14-.029.8-.044,1.601-.052,2.401-.057,5.647-.116,5.716-5.684,6.479-9.233,1.266-18.486,2.418-27.523,4.803-1.576.416-2.377.581-2.534-1.753-2.024-29.983-2.009-59.969-.685-89.977.538-12.2.255-24.453,1.214-36.613.874-11.08,2.87-22.076,4.468-33.095,4.117-28.398,8.292-56.787,12.434-85.181,1.275-8.739,1.232-8.842,9.803-11.385,9.905-2.938,19.868-5.679,29.807-8.498,2.892-.82,5.568-2.333,8.973-2.627Z"/>
    <polygon class="cls-1" points="1106.543 117.227 1052.398 130.257 1054.136 63.339 1075.222 58.265 1106.543 117.227"/>
  </g>
  <g>
    <path class="cls-3" d="M39.977,287.475c-7.094,0-14.193-.157-21.279.076-2.915.096-3.51-.85-3.499-3.579.043-11.259-.207-22.518-.263-33.777-.182-36.144-.898-72.281-1.368-108.421-.177-13.582-2.849-26.813-4.397-40.203-2.402-20.782-4.776-41.567-7.169-62.35-.618-5.364-1.22-10.73-1.915-16.083-.27-2.079-.033-3.111,2.547-3.498,33.242-4.989,66.458-10.151,99.687-15.232,3.445-.527,6.937-.743,10.389-1.231,2.544-.36,4.322.954,6.013,2.468,5.735,5.138,10.399,11.224,14.984,17.348,8.968,11.98,17.333,24.381,25.455,36.948.816,1.262.911,2.283.521,3.732-5.963,22.127-11.872,44.269-17.696,66.433-.568,2.16-1.595,3.38-3.633,4.302-21.492,9.73-42.922,19.598-64.423,29.309-2.497,1.128-3.43,2.287-3.053,5.208,2.506,19.409,4.781,38.847,7.143,58.275,2.117,17.415,4.204,34.835,6.425,52.237.299,2.343-1.067,2.456-2.583,2.992-13.594,4.81-27.611,5.944-41.885,5.047Z"/>
    <path class="cls-14" d="M55.202,286.893c-7.157,0-14.319-.158-21.469.076-2.941.097-3.541-.858-3.53-3.611.043-11.359-.208-22.719-.266-34.078-.184-36.466-.906-72.925-1.38-109.387-.178-13.703-2.874-27.052-4.436-40.561-2.424-20.967-4.819-41.938-7.233-62.906-.623-5.411-1.231-10.825-1.932-16.227-.272-2.098-.034-3.138,2.569-3.529C51.064,11.637,84.576,6.429,118.101,1.303c3.476-.531,6.998-.749,10.481-1.242,2.566-.363,4.361.963,6.066,2.49,5.786,5.184,10.492,11.324,15.117,17.503,9.048,12.086,17.487,24.598,25.682,37.277.823,1.273.92,2.303.525,3.765-6.016,22.324-11.978,44.664-17.853,67.025-.573,2.18-1.61,3.41-3.665,4.341-21.683,9.817-43.304,19.773-64.997,29.57-2.52,1.138-3.46,2.308-3.08,5.254,2.529,19.582,4.824,39.193,7.206,58.794,2.136,17.571,4.241,35.145,6.482,52.702.302,2.364-1.076,2.478-2.606,3.019-13.715,4.853-27.858,5.997-42.258,5.092Z"/>
  </g>
  <g>
    <path class="cls-10" d="M854.92,167.166c0-15.399-.228-30.802.064-46.196.297-15.684.386-31.365.2-47.045-.154-12.995-.602-25.988-1.052-38.977-.091-2.634.522-3.375,3.192-2.616,5.9,1.676,11.993.676,17.998.911,7.179.282,14.367.382,21.552.423,1.834.011,2.253.659,2.185,2.352-.751,18.615-1.446,37.232-2.156,55.849-.218,5.729-.334,11.461-.583,17.191-.613,14.13-.487,28.303-1.464,42.403-.907,13.09,1.199,25.875,2.368,38.771.801,8.829,1.69,17.651,2.398,26.488.37,4.618.641,5.022,5.302,5.256,15.869.796,31.739,1.567,47.605,2.419,8.312.446,16.618,1.021,24.924,1.578,4.058.272,7.848-.1,11.642-2.041,6.884-3.523,14.041-6.512,21.051-9.793,1.629-.762,2.299-.801,2.283,1.357-.082,11.094-.057,22.19-.015,33.285.005,1.437-.393,2.137-1.868,2.679-6.056,2.223-12.156,3.376-18.711,3.48-20.509.325-41.029-.019-61.522.633-17.456.555-34.841-.794-52.264-.989-6.5-.073-13.022-.29-19.532-.461-1.913-.05-2.669-.587-2.688-2.638-.081-8.793-.202-17.59-.549-26.377-.761-19.311-.482-38.627-.36-57.942Z"/>
    <path class="cls-13" d="M873.189,167.166c0-15.399-.228-30.802.064-46.196.297-15.684.386-31.365.2-47.045-.154-12.995-.602-25.988-1.052-38.977-.091-2.634.522-3.375,3.192-2.616,5.9,1.676,11.993.676,17.998.911,7.179.282,14.367.382,21.552.423,1.834.011,2.253.659,2.185,2.352-.751,18.615-1.446,37.232-2.156,55.849-.218,5.729-.334,11.461-.583,17.191-.613,14.13-.487,28.303-1.464,42.403-.907,13.09,1.199,25.875,2.368,38.771.801,8.829,1.69,17.651,2.398,26.488.37,4.618.641,5.022,5.302,5.256,15.869.796,31.739,1.567,47.605,2.419,8.312.446,16.618,1.021,24.924,1.578,4.058.272,7.848-.1,11.642-2.041,6.884-3.523,14.041-6.512,21.051-9.793,1.629-.762,2.299-.801,2.283,1.357-.082,11.094-.057,22.19-.015,33.285.005,1.437-.393,2.137-1.868,2.679-6.056,2.223-12.156,3.376-18.711,3.48-20.509.325-41.029-.019-61.522.633-17.456.555-34.841-.794-52.264-.989-6.5-.073-13.022-.29-19.532-.461-1.913-.05-2.669-.587-2.688-2.638-.081-8.793-.202-17.59-.549-26.377-.761-19.311-.482-38.627-.36-57.942Z"/>
  </g>
  <path class="cls-6" d="M483.681,225.637c18.634,0,37.268.045,55.902-.056,2.327-.013,2.88.681,2.759,2.881-.611,11.119-1.147,22.243-1.579,33.371-.09,2.304-.818,3.298-3.201,3.756-15.534,2.991-31.031,6.171-46.549,9.244-1.559.309-3.186.484-4.77.425-23.992-.893-47.968-.295-71.941.676-12.097.49-24.2.301-36.302.299-2.882,0-4.951-.955-6.8-3.311-4.16-5.301-8.638-10.353-13-15.494-.832-.981-1.58-1.878-1.629-3.337-.951-28.573-3.3-57.116-3.055-85.705.262-30.512,1.167-61.035,2.606-91.515.643-13.629,3.302-27.16,7.59-40.243.299-.911.702-1.788,1.025-2.692,1.274-3.567,3.543-5.227,7.573-5.62,34.292-3.341,68.46-7.797,102.677-11.81,13.175-1.545,26.334-3.232,39.491-4.923,2.387-.307,3.795-.025,4.564,2.771,3.114,11.327,6.447,22.596,9.884,33.83.742,2.423.319,3.277-2.161,3.792-20.3,4.213-40.577,8.539-60.863,12.824-14.639,3.092-29.273,6.204-43.926,9.229-1.975.408-2.764.988-2.562,3.282,1.63,18.446,3.163,36.901,4.526,55.368.197,2.671,1.616,2.19,3.157,2.152,25.053-.609,50.107-1.164,75.156-1.912,3.076-.092,3.961.688,4.073,3.755.342,9.306.979,18.603,1.643,27.893.132,1.848-.31,2.33-2.151,2.495-26.01,2.335-52.016,4.718-78.012,7.201-5.226.499-4.194-.111-4.028,4.594.543,15.411,1.157,30.82,1.546,46.235.069,2.742.827,3.275,3.455,3.103,18.278-1.195,36.592-1.463,54.902-1.763,0-.265-.002-.53-.002-.795Z"/>
  <g>
    <path class="cls-5" d="M706.825,279.284c-6.884,0-12.608-.049-18.33.029-1.829.025-2.557-.454-2.687-2.468-1.064-16.518-2.256-33.028-3.423-49.539-1.151-16.283-2.259-32.569-3.498-48.845-1.231-16.17-2.909-32.318-2.499-48.566.962-38.216.328-76.438.5-114.657.012-2.608.455-3.622,3.38-4.021,10.949-1.493,21.807-3.67,32.764-5.082,4.951-.638,10.096-.483,15.081.023,8.783.891,17.585.406,26.376.937,13.005.785,26.068.541,39.093,1.072,6.169.251,12.333.512,18.505.541,1.215.006,2.171.48,3.179,1.073,13.8,8.107,27.609,16.196,41.442,24.245,1.761,1.025,2.766,2.112,3.12,4.393,3.951,25.45,8.092,50.871,12.191,76.298.616,3.823,1.258,7.643,1.942,11.455.369,2.057-.133,3.72-1.501,5.364-8.255,9.926-16.456,19.898-24.591,29.922-1.239,1.527-2.794,2.319-4.493,2.98-14.9,5.8-29.811,11.573-44.712,17.37-1.078.419-2.134.797-3.319.649-12.104-1.508-24.209-3.013-36.315-4.512-5.883-.728-11.773-1.407-17.65-2.183-2.007-.265-1.971.955-1.933,2.289.204,7.198-.265,14.405.502,21.601.314,2.946.098,5.947.14,8.922.279,19.903.55,39.807.862,59.709.039,2.508.281,5.013.469,7.517.123,1.633-.611,2.102-2.203,2.214-11.172.791-22.329,1.843-32.391,1.271ZM771.949,137.884c3.199-.104,5.684.333,8.159-.646,13.273-5.25,26.558-10.47,39.901-15.536,2.005-.761,2.26-1.7,1.916-3.525-.992-5.261-1.889-10.54-2.762-15.823-2.359-14.275-4.687-28.555-7.025-42.833-.347-2.122-1.252-3.153-3.713-3.551-10.344-1.673-20.626-3.731-30.933-5.639-13.89-2.572-27.785-5.114-41.667-7.731-1.804-.34-2.662-.049-2.353,1.972,1.004,6.574.59,13.225.969,19.837.884,15.398,1.101,30.834,1.684,46.251.285,7.529.814,15.048,1.16,22.575.072,1.556.25,2.485,2.211,2.594,11.055.618,22.103,1.384,32.451,2.055Z"/>
    <path class="cls-12" d="M715.268,281.878c-6.884,0-12.608-.049-18.33.029-1.829.025-2.557-.454-2.687-2.468-1.064-16.518-2.256-33.028-3.423-49.539-1.151-16.283-2.259-32.569-3.498-48.845-1.231-16.17-2.909-32.318-2.499-48.566.962-38.216.328-76.438.5-114.657.012-2.608.455-3.622,3.38-4.021,10.949-1.493,21.807-3.67,32.764-5.082,4.951-.638,10.096-.483,15.081.023,8.783.891,17.585.406,26.376.937,13.005.785,26.068.541,39.093,1.072,6.169.251,12.333.512,18.505.541,1.215.006,2.171.48,3.179,1.073,13.8,8.107,27.609,16.196,41.442,24.245,1.761,1.025,2.766,2.112,3.12,4.393,3.951,25.45,8.092,50.871,12.191,76.298.616,3.823,1.258,7.643,1.942,11.455.369,2.057-.133,3.72-1.501,5.364-8.255,9.926-16.456,19.898-24.591,29.922-1.239,1.527-2.794,2.319-4.493,2.98-14.9,5.8-29.811,11.573-44.712,17.37-1.078.419-2.134.797-3.319.649-12.104-1.508-24.209-3.013-36.315-4.512-5.883-.728-11.773-1.407-17.65-2.183-2.007-.265-1.971.955-1.933,2.289.204,7.198-.265,14.405.502,21.601.314,2.946.098,5.947.14,8.922.279,19.903.55,39.807.862,59.709.039,2.508.281,5.013.469,7.517.123,1.633-.611,2.102-2.203,2.214-11.172.791-22.329,1.843-32.391,1.271ZM780.392,140.478c3.199-.104,5.684.333,8.159-.646,13.273-5.25,26.558-10.47,39.901-15.536,2.005-.761,2.26-1.7,1.916-3.525-.992-5.261-1.889-10.54-2.762-15.823-2.359-14.275-4.687-28.555-7.025-42.833-.347-2.122-1.252-3.153-3.713-3.551-10.344-1.673-20.626-3.731-30.933-5.639-13.89-2.572-27.785-5.114-41.667-7.731-1.804-.34-2.662-.049-2.353,1.972,1.004,6.574.59,13.225.969,19.837.884,15.398,1.101,30.834,1.684,46.251.285,7.529.814,15.048,1.16,22.575.072,1.556.25,2.485,2.211,2.594,11.055.618,22.103,1.384,32.451,2.055Z"/>
  </g>
</svg>