<?xml version="1.0" encoding="UTF-8"?>
<svg id="Layer_1" data-name="Layer 1" xmlns="http://www.w3.org/2000/svg" viewBox="0 0 2495.569 870.923">
  <defs>
    <style>
      .cls-1 {
        fill: #87264a;
      }

      .cls-2 {
        fill: #db3c7e;
      }

      .cls-3 {
        fill: #423f3e;
      }

      .cls-4 {
        fill: #eb5f5f;
      }

      .cls-5 {
        fill: #e2b8d6;
        stroke: #383938;
        stroke-width: 2px;
      }

      .cls-5, .cls-6 {
        stroke-miterlimit: 10;
      }

      .cls-7 {
        fill: #468f67;
      }

      .cls-8 {
        fill: #b89a30;
      }

      .cls-9 {
        fill: #ecc42d;
      }

      .cls-6 {
        fill: #e8993c;
        stroke: #151616;
      }

      .cls-10 {
        fill: #b2314c;
      }

      .cls-11 {
        fill: #43617f;
      }

      .cls-12 {
        fill: #fff;
      }

      .cls-13 {
        fill: #ac325f;
      }

      .cls-14 {
        fill: #d1e7bb;
      }

      .cls-15 {
        fill: #fef7ed;
      }

      .cls-16 {
        fill: #ec7b85;
      }

      .cls-17 {
        fill: #ece4dd;
      }

      .cls-18 {
        fill: #90b8d1;
      }

      .cls-19 {
        fill: #ddceae;
      }

      .cls-20 {
        fill: #80cdbb;
      }

      .cls-21 {
        fill: #7b3761;
      }

      .cls-22 {
        fill: #e5bb2b;
      }
    </style>
  </defs>
  <polygon class="cls-12" points="2242.717 452.027 2464.822 452.027 2454.816 571.483 2402.462 571.483 2392.816 776.681 2464.822 780.85 2470.716 868.394 2225.082 870.923 2240.09 795.134 2311.021 785.019 2310.878 571.483 2226.408 552.065 2242.717 452.027"/>
  <path class="cls-2" d="M2238.983,855.775c5.359-10.122,10.298-19.399,15.175-28.714.868-1.658,2.137-2.233,3.786-2.549,22.278-4.274,44.537-8.662,66.83-12.841,3.318-.622,3.167-3.076,3.32-5.395.705-10.675,1.262-21.362,1.913-32.042,1.356-22.27,2.671-44.544,4.124-66.807,1.863-28.54,3.048-57.073,1.362-85.69-.755-12.823-.835-25.694-1.143-38.545-.375-15.606-.747-31.213-.93-46.822-.037-3.167-.856-4.176-3.883-4.138-20.023.255-40.056-.214-60.07.715-3.047.141-3.935-.796-3.79-4.054.646-14.518,1.132-29.045,1.549-43.573.072-2.516.742-3.583,3.203-3.443,2.708.154,5.433-.058,8.151-.092,31.181-.392,62.361-.772,93.542-1.183,2.857-.038,5.764.054,8.558-.466,17.078-3.175,31.762,4.875,46.808,11.238,4.103,1.735,9.811,2.487,11.768,5.757,2.102,3.511.703,9.455.743,14.339.047,5.818-.233,11.651.076,17.45.2,3.753-1.105,4.495-4.328,4.57-16.865.396-33.723,1.139-50.589,1.542-3.215.077-4.393.847-4.512,4.601-1.045,32.871-2.307,65.735-3.516,98.6-.922,25.063-3.021,50.104-2.328,75.197.456,16.486,2.038,32.936,3.07,49.405.698,11.134,1.476,22.268,1.868,33.416.113,3.215.906,4.676,3.892,5.074,11.454,1.529,22.887,3.234,34.338,4.792,14.278,1.943,28.562,3.835,42.851,5.678,2.582.333,3.687,1.642,3.701,4.427.039,8.113.211,16.226.299,24.34.008.735.016,1.9-.373,2.146-5.704,3.603-9.587,10.464-17.602,9.935-15.999-1.057-32.02-.198-48.034.185-24.879.596-49.764.893-74.646,1.361-26.736.502-53.471,1.056-80.207,1.582-1.404.028-2.81.004-4.974.004Z"/>
  <g>
    <polygon class="cls-12" points="0 23.2 16.878 430.671 120.744 430.671 125.938 284.764 188.257 293.101 272.94 233.349 266.157 55.48 207.915 23.2 0 23.2"/>
    <path class="cls-20" d="M63.894,404.859c-8.604,0-15.758-.066-22.91.038-2.286.033-3.196-.607-3.359-3.302-1.33-22.097-2.819-44.182-4.278-66.27-1.439-21.782-2.823-43.569-4.372-65.342-1.539-21.631-3.635-43.233-3.124-64.969,1.203-51.122.41-102.254.624-153.38.015-3.489.569-4.845,4.224-5.379,13.685-1.998,27.255-4.909,40.951-6.798,6.188-.853,12.619-.647,18.85.03,10.977,1.192,21.979.543,32.967,1.253,16.254,1.051,32.582.724,48.861,1.433,7.71.336,15.414.685,23.129.724,1.519.008,2.713.642,3.973,1.435,17.248,10.844,34.508,21.666,51.798,32.433,2.201,1.371,3.457,2.825,3.899,5.877,4.938,34.046,10.113,68.052,15.238,102.066.77,5.115,1.572,10.224,2.427,15.323.461,2.752-.166,4.977-1.875,7.176-10.318,13.278-20.568,26.618-30.736,40.028-1.548,2.042-3.492,3.102-5.615,3.986-18.623,7.759-37.26,15.482-55.884,23.237-1.348.561-2.668,1.066-4.149.869-15.129-2.018-30.259-4.031-45.389-6.036-7.353-.974-14.715-1.882-22.06-2.92-2.509-.355-2.463,1.277-2.416,3.062.255,9.629-.332,19.271.627,28.896.392,3.94.122,7.955.175,11.936.349,26.625.687,53.251,1.077,79.876.049,3.354.351,6.706.586,10.055.153,2.184-.764,2.811-2.754,2.962-13.963,1.058-27.909,2.466-40.484,1.7ZM145.29,215.703c3.999-.14,7.104.446,10.197-.864,16.589-7.023,33.194-14.006,49.872-20.783,2.506-1.019,2.825-2.275,2.395-4.715-1.239-7.038-2.36-14.1-3.452-21.167-2.948-19.096-5.858-38.198-8.78-57.299-.434-2.839-1.564-4.218-4.64-4.75-12.929-2.239-25.78-4.99-38.662-7.543-17.361-3.441-34.728-6.841-52.078-10.343-2.255-.455-3.327-.066-2.941,2.638,1.254,8.794.737,17.692,1.212,26.537,1.105,20.599,1.376,41.248,2.105,61.872.356,10.071,1.018,20.13,1.45,30.199.089,2.082.312,3.324,2.763,3.471,13.818.826,27.625,1.852,40.56,2.749Z"/>
  </g>
  <g>
    <path class="cls-19" d="M1671.069,43.81c24.269-1.895,48.518-4.227,72.815-5.525,15.315-.818,30.595-2.28,45.916-2.763,7.876-.248,15.738-.623,23.586-1.261,2.381-.194,3.562.816,4.689,2.801,12.7,22.371,25.435,44.72,38.223,67.034,1.167,2.036,1.552,4.081,1.537,6.406-.073,10.969-.093,21.938-.064,32.907.057,21.795.124,43.59.289,65.384.018,2.38-1.133,3.454-2.708,4.618-20.011,14.789-39.996,29.62-59.987,44.441-.578.428-1.11.939-1.719,1.305-2.554,1.536-2.473,2.842-.193,4.879,13.717,12.257,27.319,24.663,40.976,36.999,2.148,1.94,4.299,3.896,6.586,5.638,13.547,10.321,21.265,25.852,30.891,39.65,8.577,12.295,16.783,24.887,25.13,37.365.695,1.038,2.213,2.063,1.352,3.404-.438.683-2.045.625-3.135.693-17.412,1.079-34.828,2.07-52.234,3.246-2.179.147-3.374-.907-4.661-2.332-13.09-14.487-26.201-28.953-39.288-43.443-15.721-17.407-31.431-34.825-47.119-52.266-.826-.918-1.537-1.665-2.858-1.396-11.023,2.252-22.044,4.517-33.086,6.658-1.909.37-2.428,1.204-2.535,3.247-1.297,24.88-2.711,49.753-4.08,74.628-.511,9.29-1.095,18.578-1.407,27.876-.089,2.66-1.091,3.225-3.264,3.383-17.13,1.244-34.258,2.525-51.376,3.955-2.828.236-3.695-.674-3.677-3.629.093-15.177.097-30.355.04-45.532-.041-10.975-.28-21.949-.335-32.924-.104-20.74-.121-41.48-.21-62.219-.044-10.223-.229-20.445-.238-30.668-.026-29.178-1.039-58.334-1.807-87.493-.705-26.768-1.905-53.521-2.587-80.29-.172-6.768-.324-13.537-.737-20.288-.167-2.731.62-3.715,3.187-3.87,8.008-.482,16.004-1.197,24.004-1.821.028.401.056.802.084,1.203ZM1703.053,160.258l-.089.007c1.351,19.822,2.763,39.64,3.993,59.472.21,3.386.792,4.847,4.528,4.96,8.674.261,17.35,1.128,25.98,2.177,4.693.57,8.569-.409,12.566-3.207,15.051-10.535,30.284-20.772,45.511-31.015,2.152-1.448,3.131-3.231,3.238-5.852.949-23.09,1.907-46.179,2.933-69.265.138-3.094-.725-5.301-2.998-7.396-10.016-9.233-19.929-18.598-29.717-28.108-2.304-2.239-4.564-2.552-7.313-1.844-19.759,5.094-39.498,10.277-59.307,15.135-3.081.756-3.709,1.867-3.473,5.024,1.491,19.962,2.788,39.94,4.149,59.912Z"/>
    <path class="cls-10" d="M1694.761,43.714c24.269-1.895,48.518-4.227,72.815-5.525,15.315-.818,30.595-2.28,45.916-2.763,7.876-.248,15.738-.623,23.586-1.261,2.381-.194,3.562.816,4.689,2.801,12.7,22.371,25.435,44.72,38.223,67.034,1.167,2.036,1.552,4.081,1.537,6.406-.073,10.969-.093,21.938-.064,32.907.057,21.795.124,43.59.289,65.384.018,2.38-1.133,3.454-2.708,4.618-20.011,14.789-39.996,29.62-59.987,44.441-.578.428-1.11.939-1.719,1.305-2.554,1.536-2.473,2.842-.193,4.879,13.717,12.257,27.319,24.663,40.976,36.999,2.148,1.94,4.299,3.896,6.586,5.638,13.547,10.321,21.265,25.852,30.891,39.65,8.577,12.295,16.783,24.887,25.13,37.365.695,1.038,2.213,2.063,1.352,3.404-.438.683-2.045.625-3.135.693-17.412,1.079-34.828,2.07-52.234,3.246-2.179.147-3.374-.907-4.661-2.332-13.09-14.487-26.201-28.953-39.288-43.443-15.721-17.407-31.431-34.825-47.119-52.266-.826-.918-1.537-1.665-2.858-1.396-11.023,2.252-22.044,4.517-33.086,6.658-1.909.37-2.428,1.204-2.535,3.247-1.297,24.88-2.711,49.753-4.08,74.628-.511,9.29-1.095,18.578-1.407,27.876-.089,2.66-1.091,3.225-3.264,3.383-17.13,1.244-34.258,2.525-51.376,3.955-2.828.236-3.695-.674-3.677-3.629.093-15.177.097-30.355.04-45.532-.041-10.975-.28-21.949-.335-32.924-.104-20.74-.121-41.48-.21-62.219-.044-10.223-.229-20.445-.238-30.668-.026-29.178-1.039-58.334-1.807-87.493-.705-26.768-1.905-53.521-2.587-80.29-.172-6.768-.324-13.537-.737-20.288-.167-2.731.62-3.715,3.187-3.87,8.008-.482,16.004-1.197,24.004-1.821.028.401.056.802.084,1.203ZM1726.745,160.162l-.089.007c1.351,19.822,2.763,39.64,3.993,59.472.21,3.386.792,4.847,4.528,4.96,8.674.261,17.35,1.128,25.98,2.177,4.693.57,8.569-.409,12.566-3.207,15.051-10.535,30.284-20.772,45.511-31.015,2.152-1.448,3.131-3.231,3.238-5.852.949-23.09,1.907-46.179,2.933-69.265.138-3.094-.725-5.301-2.998-7.396-10.016-9.233-19.929-18.598-29.717-28.108-2.304-2.239-4.564-2.552-7.313-1.844-19.759,5.094-39.498,10.277-59.307,15.135-3.081.756-3.709,1.867-3.473,5.024,1.491,19.962,2.788,39.94,4.149,59.912Z"/>
  </g>
  <path class="cls-22" d="M1092.247,399.491c-8.866,0-17.739-.21-26.596.101-3.643.128-4.387-1.137-4.374-4.788.054-15.061-.258-30.123-.329-45.185-.228-48.351-1.122-96.693-1.709-145.039-.221-18.169-3.56-35.869-5.495-53.781-3.003-27.801-5.97-55.606-8.961-83.408-.772-7.175-1.525-14.353-2.394-21.515-.337-2.782-.042-4.161,3.183-4.679,41.548-6.674,83.064-13.58,124.596-20.376,4.306-.705,8.67-.994,12.984-1.647,3.179-.482,5.402,1.276,7.515,3.302,7.168,6.874,12.998,15.015,18.728,23.207,11.209,16.026,21.664,32.615,31.816,49.426,1.02,1.688,1.139,3.054.651,4.993-7.453,29.6-14.838,59.22-22.117,88.87-.709,2.89-1.994,4.521-4.54,5.755-26.862,13.017-53.647,26.217-80.52,39.207-3.121,1.509-4.287,3.06-3.816,6.966,3.133,25.964,5.976,51.967,8.928,77.956,2.646,23.297,5.254,46.6,8.03,69.879.374,3.134-1.333,3.285-3.228,4.003-16.991,6.435-34.511,7.951-52.351,6.751Z"/>
  <g>
    <path class="cls-18" d="M1378.084,196.996c1.536-7.661,3.193-16.158,4.945-24.633,5.933-28.692,11.913-57.373,17.827-86.069.421-2.042,1.315-3.622,2.646-5.099,14.198-15.757,28.378-31.534,42.515-47.353,1.557-1.742,3.168-2.53,5.503-2.831,16.968-2.188,33.899-4.708,50.856-7.001,14.84-2.007,29.7-3.841,44.549-5.777,7.067-.921,14.193-1.542,21.165-2.995,3.824-.797,7.065.554,10.421,1.452,16.29,4.358,32.513,8.999,48.786,13.431,2.048.558,3.587,1.331,4.799,3.33,10.11,16.674,20.274,33.311,30.544,49.873,1.527,2.463,1.857,3.734-.825,5.675-15.858,11.475-31.595,23.145-47.287,34.879-2.198,1.644-3.18,1.277-4.649-.962-7.389-11.259-14.937-22.4-22.45-33.566-.917-1.362-1.851-2.744-2.962-3.917-3.05-3.222-5.931-4.717-10.864-2.989-32.75,11.469-65.658,22.425-98.551,33.422-2.855.955-4.058,2.576-4.649,5.616-6.667,34.287-13.448,68.548-20.195,102.817-1.907,9.685-3.694,19.4-5.782,29.04-.466,2.149-.295,3.741.707,5.568,10.042,18.325,20.049,36.672,30.008,55.049,1.394,2.572,2.834,4.261,6.036,3.727,9.205-1.533,18.538-.845,27.811-1.417,19.258-1.189,38.563-1.49,57.847-2.203,4.568-.169,9.127-.61,13.695-.747,1.731-.052,2.965-1.044,4.29-1.875,16.261-10.201,32.537-20.377,48.708-30.74,2.548-1.632,4.092-1.792,6.053.86,12.765,17.27,25.592,34.487,38.535,51.604,2.267,2.998,2.66,4.55-.642,7.333-15.939,13.433-31.806,26.989-47.227,41.091-5.496,5.026-11.723,4.264-17.744,5.07-15.837,2.121-31.739,3.698-47.621,5.426-12.482,1.357-24.979,2.566-37.461,3.93-15.172,1.658-30.335,3.419-45.504,5.116-8.505.951-17.016,1.84-25.518,2.811-1.55.177-2.348-.89-3.244-1.849-21.644-23.175-43.28-46.357-64.925-69.53-1.032-1.105-1.834-2.231-1.933-3.926-.831-14.178-1.694-28.353-2.604-42.525-1.038-16.156-2.171-32.305-3.194-48.461-.84-13.265-1.581-26.537-2.416-40.655Z"/>
    <path class="cls-21" d="M1389.769,196.996c1.536-7.661,3.193-16.158,4.945-24.633,5.933-28.692,11.913-57.373,17.827-86.069.421-2.042,1.315-3.622,2.646-5.099,14.198-15.757,28.378-31.534,42.515-47.353,1.557-1.742,3.168-2.53,5.503-2.831,16.968-2.188,33.899-4.708,50.856-7.001,14.84-2.007,29.7-3.841,44.549-5.777,7.067-.921,14.193-1.542,21.165-2.995,3.824-.797,7.065.554,10.421,1.452,16.29,4.358,32.513,8.999,48.786,13.431,2.048.558,3.587,1.331,4.799,3.33,10.11,16.674,20.274,33.311,30.544,49.873,1.527,2.463,1.857,3.734-.825,5.675-15.858,11.475-31.595,23.145-47.287,34.879-2.198,1.644-3.18,1.277-4.649-.962-7.389-11.259-14.937-22.4-22.45-33.566-.917-1.362-1.851-2.744-2.962-3.917-3.05-3.222-5.931-4.717-10.864-2.989-32.75,11.469-65.658,22.425-98.551,33.422-2.855.955-4.058,2.576-4.649,5.616-6.667,34.287-13.448,68.548-20.195,102.817-1.907,9.685-3.694,19.4-5.782,29.04-.466,2.149-.295,3.741.707,5.568,10.042,18.325,20.049,36.672,30.008,55.049,1.394,2.572,2.834,4.261,6.036,3.727,9.205-1.533,18.538-.845,27.811-1.417,19.258-1.189,38.563-1.49,57.847-2.203,4.568-.169,9.127-.61,13.695-.747,1.731-.052,2.965-1.044,4.29-1.875,16.261-10.201,32.537-20.377,48.708-30.74,2.548-1.632,4.092-1.792,6.053.86,12.765,17.27,25.592,34.487,38.535,51.604,2.267,2.998,2.66,4.55-.642,7.333-15.939,13.433-31.806,26.989-47.227,41.091-5.496,5.026-11.723,4.264-17.744,5.07-15.837,2.121-31.739,3.698-47.621,5.426-12.482,1.357-24.979,2.566-37.461,3.93-15.172,1.658-30.335,3.419-45.504,5.116-8.505.951-17.016,1.84-25.518,2.811-1.55.177-2.348-.89-3.244-1.849-21.644-23.175-43.28-46.357-64.925-69.53-1.032-1.105-1.834-2.231-1.933-3.926-.831-14.178-1.694-28.353-2.604-42.525-1.038-16.156-2.171-32.305-3.194-48.461-.84-13.265-1.581-26.537-2.416-40.655Z"/>
    <path class="cls-6" d="M1413.138,196.996c1.536-7.661,3.193-16.158,4.945-24.633,5.933-28.692,11.913-57.373,17.827-86.069.421-2.042,1.315-3.622,2.646-5.099,14.198-15.757,28.378-31.534,42.515-47.353,1.557-1.742,3.168-2.53,5.503-2.831,16.968-2.188,33.899-4.708,50.856-7.001,14.84-2.007,29.7-3.841,44.549-5.777,7.067-.921,14.193-1.542,21.165-2.995,3.824-.797,7.065.554,10.421,1.452,16.29,4.358,32.513,8.999,48.786,13.431,2.048.558,3.587,1.331,4.799,3.33,10.11,16.674,20.274,33.311,30.544,49.873,1.527,2.463,1.857,3.734-.825,5.675-15.858,11.475-31.595,23.145-47.287,34.879-2.198,1.644-3.18,1.277-4.649-.962-7.389-11.259-14.937-22.4-22.45-33.566-.917-1.362-1.851-2.744-2.962-3.917-3.05-3.222-5.931-4.717-10.864-2.989-32.75,11.469-65.658,22.425-98.551,33.422-2.855.955-4.058,2.576-4.649,5.616-6.667,34.287-13.448,68.548-20.195,102.817-1.907,9.685-3.694,19.4-5.782,29.04-.466,2.149-.295,3.741.707,5.568,10.042,18.325,20.049,36.672,30.008,55.049,1.394,2.572,2.834,4.261,6.036,3.727,9.205-1.533,18.538-.845,27.811-1.417,19.258-1.189,38.563-1.49,57.847-2.203,4.568-.169,9.127-.61,13.695-.747,1.731-.052,2.965-1.044,4.29-1.875,16.261-10.201,32.537-20.377,48.708-30.74,2.548-1.632,4.092-1.792,6.053.86,12.765,17.27,25.592,34.487,38.535,51.604,2.267,2.998,2.66,4.55-.642,7.333-15.939,13.433-31.806,26.989-47.227,41.091-5.496,5.026-11.723,4.264-17.744,5.07-15.837,2.121-31.739,3.698-47.621,5.426-12.482,1.357-24.979,2.566-37.461,3.93-15.172,1.658-30.335,3.419-45.504,5.116-8.505.951-17.016,1.84-25.518,2.811-1.55.177-2.348-.89-3.244-1.849-21.644-23.175-43.28-46.357-64.925-69.53-1.032-1.105-1.834-2.231-1.933-3.926-.831-14.178-1.694-28.353-2.604-42.525-1.038-16.156-2.171-32.305-3.194-48.461-.84-13.265-1.581-26.537-2.416-40.655Z"/>
  </g>
  <g>
    <path class="cls-3" d="M1198.592,84.913c-4.762-.727-9.543-1.359-14.109-3.105,1.124-15.441,2.333-30.875,3.305-46.327.213-3.387,1.26-4.291,4.378-3.975,10.348,1.051,20.721,1.824,31.089,2.641,1.487.117,3.063.803,4.487-.337,29.047,2.351,58.107,4.526,87.133,7.14,11.844,1.066,23.62,3.027,35.414,4.684,8.588,1.206,17.14,2.724,25.74,3.806,3.091.389,2.464,2.21,1.946,4.055-3.451,12.303-6.977,24.581-10.462,36.872-1.376,4.851-3.06,9.644-3.957,14.597-.789,4.357-2.847,4.917-6.244,3.912-9.244-2.737-18.498-5.439-27.758-8.111-6.431-1.855-12.879-3.638-19.907-5.618-.164,10.327-.412,20.453-.454,30.58-.028,6.746-.735,13.441-.69,20.214.089,13.504-.625,27.013-.982,40.521-.335,12.672-2.798,25.078-4.104,37.629-.728,6.996-1.712,13.964-2.715,20.923-2.003,13.894-3.521,27.861-5.454,41.768-1.026,7.379-1.693,14.87-2.574,22.304-.616,5.2-1.732,10.378-1.865,15.588-.334,13.179-.258,26.371-.31,39.558-.039,10.05-.058,20.101-.005,30.151.013,2.523-.433,3.843-3.292,3.532-10.218-1.111-20.461-1.972-30.694-2.927-5.852-2.07-11.979-1.474-17.978-2.116-9.343-.758-18.686-1.516-28.03-2.275-5.136-.467-10.241-1.664-15.434-.743-5.803-.23-5.915-.258-4.637-6.155,6.17-28.481,12.447-56.936,18.606-85.42,5.727-26.486,11.333-53.001,17.032-79.494,3.714-17.27,7.639-34.49,11.194-51.796,1.889-9.196,2.877-18.577,4.02-27.922,1.377-11.249,3.015-22.465,4.753-33.658.756-4.872.294-9.9,1.879-14.668.591-1.777-.926-1.824-2.04-1.914-2.806-.225-5.614-.414-8.421-.618-12.953-1.099-25.907-2.197-38.86-3.295Z"/>
    <path class="cls-7" d="M1221.891,86.858c-4.762-.727-9.543-1.359-14.109-3.105,1.124-15.441,2.333-30.875,3.305-46.327.213-3.387,1.26-4.291,4.378-3.975,10.348,1.051,20.721,1.824,31.089,2.641,1.487.117,3.063.803,4.487-.337,29.047,2.351,58.107,4.526,87.133,7.14,11.844,1.066,23.62,3.027,35.414,4.684,8.588,1.206,17.14,2.724,25.74,3.806,3.091.389,2.464,2.21,1.946,4.055-3.451,12.303-6.977,24.581-10.462,36.872-1.376,4.851-3.06,9.644-3.957,14.597-.789,4.357-2.847,4.917-6.244,3.912-9.244-2.737-18.498-5.439-27.758-8.111-6.431-1.855-12.879-3.638-19.907-5.618-.164,10.327-.412,20.453-.454,30.58-.028,6.746-.735,13.441-.69,20.214.089,13.504-.625,27.013-.982,40.521-.335,12.672-2.798,25.078-4.104,37.629-.728,6.996-1.712,13.964-2.715,20.923-2.003,13.894-3.521,27.861-5.454,41.768-1.026,7.379-1.693,14.87-2.574,22.304-.616,5.2-1.732,10.378-1.865,15.588-.334,13.179-.258,26.371-.31,39.558-.039,10.05-.058,20.101-.005,30.151.013,2.523-.433,3.843-3.292,3.532-10.218-1.111-20.461-1.972-30.694-2.927-5.852-2.07-11.979-1.474-17.978-2.116-9.343-.758-18.686-1.516-28.03-2.275-5.136-.467-10.241-1.664-15.434-.743-5.803-.23-5.915-.258-4.637-6.155,6.17-28.481,12.447-56.936,18.606-85.42,5.727-26.486,11.333-53.001,17.032-79.494,3.714-17.27,7.639-34.49,11.194-51.796,1.889-9.196,2.877-18.577,4.02-27.922,1.377-11.249,3.015-22.465,4.753-33.658.756-4.872.294-9.9,1.879-14.668.591-1.777-.926-1.824-2.04-1.914-2.806-.225-5.614-.414-8.421-.618-12.953-1.099-25.907-2.197-38.86-3.295Z"/>
  </g>
  <g>
    <polygon class="cls-4" points="1060.733 404.704 951.673 409.545 959.996 318.114 899.236 382.73 846.509 290.089 846.509 430.671 751.082 430.671 734.72 13.792 835.091 1.286 897.727 170.634 941.936 1.286 1045.355 1.286 1060.733 404.704"/>
    <path class="cls-15" d="M902.14,259.833c2.622-12.192,5.116-23.593,7.522-35.014,10.044-47.663,20.063-95.333,30.089-143,3.363-15.987,6.8-31.958,10.015-47.979.694-3.458,59.118-7.882,85.95-9.538,3.128-.193,2.647,1.631,2.666,3.554.247,25.461.538,50.922.736,76.383.692,89.041,1.35,178.082,2.031,267.123.03,3.916.011,7.844.289,11.744.196,2.742-.913,3.695-3.237,4.118-6.787,1.235-13.529,2.761-20.325,3.929-4.614.793-9.242-.313-13.862-.532-7.868-.372-15.717-1.223-23.585-1.605-2.743-.133-3.94-.69-3.821-4.061,1.393-39.288,2.671-78.581,3.924-117.874.735-23.035,1.412-46.072,2.025-69.111.172-6.441.026-12.892.026-19.433-2.984,6.812-6.065,13.777-9.092,20.769-19.427,44.88-38.868,89.754-58.201,134.681-1.167,2.712-2.498,3.781-5.309,3.772-5.2-.016-10.41.344-15.597.794-2.346.203-3.48-.668-4.481-2.916-16.854-37.874-33.795-75.703-50.709-113.545-6.183-13.833-12.347-27.677-18.529-41.511-.404-.904-.888-1.766-2.129-2.483.417,8.886.808,17.773,1.256,26.657,1.024,20.302,2.08,40.602,3.116,60.903,1.58,30.979,3.155,61.959,4.729,92.938.665,13.084,1.241,26.174,2.043,39.248.19,3.093-.554,4.126-3.538,4.266-15.04.708-30.074,1.602-45.102,2.576-2.616.17-3.455-.868-3.672-3.468-2.224-26.69-4.527-53.372-6.782-80.058-1.862-22.039-3.693-44.08-5.529-66.122-2.123-25.491-4.221-50.984-6.357-76.474-2.111-25.19-4.262-50.375-6.385-75.564-1.719-20.391-3.376-40.787-5.19-61.168-.267-3.003,1.337-2.669,3.035-2.749,9.701-.456,19.399-.972,29.101-1.394,16.734-.727,33.474-1.313,50.202-2.17,3.172-.162,4.584.676,5.612,4.098,12.159,40.494,24.499,80.925,36.796,121.371,9.603,31.586,19.209,63.171,28.823,94.753.337,1.108.769,2.184,1.446,4.091Z"/>
  </g>
  <path class="cls-5" d="M2208.664,172.177c14.77-4.129,29.561-8.269,44.354-12.398,12.901-3.601,25.826-7.109,38.694-10.844,2.777-.806,3.815-.669,4.007,2.868.97,17.869,2.202,35.722,3.339,53.581.248,3.902.359,7.82.759,11.704.291,2.825-.537,3.732-3.22,3.417-11.039-1.299-22.093-2.44-33.142-3.636-16.364-1.772-32.734-3.495-49.089-5.357-2.859-.325-2.555,1.454-2.404,3.29.764,9.288,1.516,18.577,2.347,27.857,1.877,20.955,4.587,41.867,5.495,62.868,1.041,24.081,6.569,46.803,14.44,69.113,1.638,4.642,1.509,4.613-3.292,4.833-29.366,1.346-58.731,2.73-88.096,4.101-.703.033-1.426-.048-2.106.098-3.325.715-4.242-.628-3.303-4.024.715-2.588.897-5.357,1.725-7.893,4.995-15.302,2.518-30.951,1.916-46.482-.612-15.781-1.636-31.544-2.458-47.317-1.331-25.537-2.631-51.075-3.969-76.611-1.259-24.034-2.509-48.069-3.837-72.1-1.785-32.314-2.975-64.639-2.165-97.019.132-5.272.412-10.518,1.175-15.734.868-5.93,1.477-6.433,6.901-6.913,21.992-1.948,43.965-4.147,65.968-5.93,15.693-1.272,31.352-3.047,47.161-2.568,20.958.635,41.931.762,62.898.891,3.39.021,4.198,1.12,4.099,4.612-.452,15.952-.744,31.912-.864,47.87-.027,3.611-.718,4.952-4.435,4.687-18.244-1.301-36.513-2.211-54.761-3.454-5.54-.378-10.856.057-16.212,1.734-11.046,3.459-22.167,6.647-33.297,9.785-2.248.634-3.323,1.451-3.203,4.194,1.457,33.219,2.815,66.443,4.21,99.665.012.284.179.56.367,1.113Z"/>
  <g>
    <path class="cls-9" d="M306.377,25.523l123.36-2.316c21.07-.396,38.737,16.944,40.189,39.445l8.118,125.781-53.554,47.537,97.374,166.467-133.899,18.337-71.059-89.388-17.373,89.388h-67.446l11.041-328.788c1.23-36.624,29.014-65.82,63.249-66.463Z"/>
    <path class="cls-13" d="M478.044,384.721c-9.95,3.833-19.561,7.551-29.183,11.239-8.463,3.243-16.975,6.346-25.385,9.738-2.567,1.035-4.013.67-5.565-1.851-23.528-38.201-47.14-76.344-70.733-114.499-10.4-16.818-20.799-33.636-31.213-50.445-.597-.964-1.317-1.841-1.701-2.372,0,8.853-.171,17.922.047,26.98.232,9.627.918,19.24,1.258,28.864.994,28.134,1.909,56.271,2.87,84.406.206,6.017.406,12.035.753,18.044.145,2.51-.521,3.452-3.023,3.341-19.956-.886-39.915-1.692-59.876-2.403-2.525-.09-3.454-.839-3.245-3.675,1.375-18.598,2.6-37.209,3.929-55.812.943-13.199,2.007-26.389,2.951-39.588,1.546-21.601,3.358-43.189,4.423-64.819.568-11.543-.1-23.164-.385-34.745-.311-12.64-.895-25.273-1.237-37.912-.647-23.932-1.162-47.868-1.858-71.798-.09-3.096.647-5.324,2.747-7.539,11.529-12.158,22.954-24.43,34.301-36.782,2.095-2.281,4.223-2.942,7.141-2.654,15.527,1.537,31.07,2.888,46.61,4.28,22.689,2.033,45.378,4.057,68.069,6.061,6.305.557,12.614,1.063,18.926,1.52,2.471.179,3.844,1.188,4.797,3.926,7.744,22.258,15.674,44.443,23.615,66.622.698,1.948.714,3.716.287,5.698-3.311,15.372-6.619,30.745-9.761,46.157-.629,3.086-1.916,4.778-4.714,6.029-23.33,10.432-46.711,20.738-69.715,31.989-2.577,1.26-3.234,2.188-1.873,5.18,16.241,35.701,32.229,71.533,48.562,107.185,3.295,7.193,9.422,12.276,14.296,18.276,10.703,13.176,21.603,26.169,32.414,39.244.436.527.79,1.131,1.47,2.115Z"/>
  </g>
  <g>
    <path class="cls-17" d="M2030.013,16.373c6.409-2.434,9.306,1.368,12.58,7.583,9.431,17.897,14.436,37.435,20.172,56.737,10.616,35.725,21.19,71.464,31.727,107.216,9.08,30.807,18.103,61.633,27.119,92.462,7.357,25.158,14.701,50.321,21.971,75.508,1.636,5.667,2.8,11.491,4.447,17.153.97,3.335-.514,4.56-3.082,5.066-6.71,1.321-13.437,2.54-20.16,3.786-5.042.934-10.147,1.588-15.107,2.878-2.439.634-2.792-.228-3.421-2.335-7.974-26.713-16.084-53.378-24.093-80.079-8.4-28.003-16.777-56.014-25.023-84.07-1.052-3.578-2.648-4.603-6.138-4.447-15.986.716-32,.758-47.99.89-11.574.096-23.126.741-34.693.757-3.271.005-6.554-.109-9.811-.424-2.696-.26-3.412,1.42-3.917,3.692-6.101,27.429-12.232,54.85-18.34,82.277-6.505,29.207-12.996,58.417-19.49,87.627-.264,1.185-.507,2.376-.741,3.568-1.651,8.411-1.753,8.497-9.731,7.978-13.229-.861-26.454-1.898-39.72-1.03-2.314.151-3.476.16-3.046-3.371,5.523-45.356,13.89-90.11,24.089-134.506,4.146-18.05,7.162-36.423,11.884-54.288,4.304-16.278,10.147-32.096,15.442-48.067,13.646-41.16,27.37-82.291,41.05-123.439,4.21-12.664,4.179-12.831,16.84-14.072,14.631-1.435,29.288-2.558,43.934-3.804,4.262-.363,8.415-1.824,13.244-1.248Z"/>
    <polygon class="cls-11" points="2041.818 156.356 1962.681 159.675 1983.73 60.31 2014.549 59.017 2041.818 156.356"/>
  </g>
  <g>
    <path class="cls-8" d="M628.154,61.581c6.297,1.287,12.588,2.608,18.893,3.842,2.064.404,3.807,1.272,5.163,3.014,14.796,19.014,29.311,38.254,42.065,58.941,2.197,3.564,3.284,7.247,3.59,11.582,1.71,24.227,4.511,48.365,8.421,72.26,1.984,12.127-.414,21.538-6.496,31.671-17.948,29.905-35.044,60.39-53.273,90.121-6.113,9.97-13.975,16.94-23.871,21.916-12.964,6.519-26.136,12.367-39.757,17.193-8.137,2.883-15.12-.065-22.183-3.062-26.242-11.14-51.947-23.582-77.253-36.978-3.704-1.961-6.63-4.721-9.104-8.206-11.043-15.557-20.81-31.992-29.81-48.977-2.609-4.923-3.247-9.848-2.469-15.457,4.671-33.705,11.946-66.853,18.409-100.174,2.35-12.117,4.987-24.17,7.44-36.265.385-1.899.978-3.414,2.547-4.663,24.695-19.667,49.357-39.373,74.468-58.442,7.785-5.912,15.948-5.764,24.421-5.285,19.716,1.116,39.273,3.894,58.8,6.967ZM552.897,284.644c.066-.366.131-.733.197-1.099,10.366,2.119,20.749,4.151,31.088,6.415,2.791.611,4.511.047,6.324-2.5,15.718-22.091,31.573-44.069,47.441-66.037,1.314-1.819,1.827-3.496,1.429-5.847-3.574-21.113-7.07-42.241-10.455-63.39-.348-2.174-1.286-2.782-3.041-3.281-18.693-5.314-37.372-10.682-56.032-16.128-2.107-.615-3.72-.44-5.55.98-9.661,7.495-19.394,14.884-29.172,22.204-1.724,1.29-2.919,2.835-3.809,4.812-6.902,15.35-13.778,30.714-20.807,45.997-1.232,2.679-1.619,5.192-1.185,8.103,2.961,19.865,5.885,39.736,8.67,59.629.377,2.689,1.53,3.408,3.798,3.842,10.387,1.987,20.74,4.18,31.105,6.299Z"/>
    <path class="cls-1" d="M641.005,64.208c6.297,1.287,12.588,2.608,18.893,3.842,2.064.404,3.807,1.272,5.163,3.014,14.796,19.014,29.311,38.254,42.065,58.941,2.197,3.564,3.284,7.247,3.59,11.582,1.71,24.227,4.511,48.365,8.421,72.26,1.984,12.127-.414,21.538-6.496,31.671-17.948,29.905-35.044,60.39-53.273,90.121-6.113,9.97-13.975,16.94-23.871,21.916-12.964,6.519-26.136,12.367-39.757,17.193-8.137,2.883-15.12-.065-22.183-3.062-26.242-11.14-51.947-23.582-77.253-36.978-3.704-1.961-6.63-4.721-9.104-8.206-11.043-15.557-20.81-31.992-29.81-48.977-2.609-4.923-3.247-9.848-2.469-15.457,4.671-33.705,11.946-66.853,18.409-100.174,2.35-12.117,4.987-24.17,7.44-36.265.385-1.899.978-3.414,2.547-4.663,24.695-19.667,49.357-39.373,74.468-58.442,7.785-5.912,15.948-5.764,24.421-5.285,19.716,1.116,39.273,3.894,58.8,6.967ZM565.747,287.271c.066-.366.131-.733.197-1.099,10.366,2.119,20.749,4.151,31.088,6.415,2.791.611,4.511.047,6.324-2.5,15.718-22.091,31.573-44.069,47.441-66.037,1.314-1.819,1.827-3.496,1.429-5.847-3.574-21.113-7.07-42.241-10.455-63.39-.348-2.174-1.286-2.782-3.041-3.281-18.693-5.314-37.372-10.682-56.032-16.128-2.107-.615-3.72-.44-5.55.98-9.661,7.495-19.394,14.884-29.172,22.204-1.724,1.29-2.919,2.835-3.809,4.812-6.902,15.35-13.778,30.714-20.807,45.997-1.232,2.679-1.619,5.192-1.185,8.103,2.961,19.865,5.885,39.736,8.67,59.629.377,2.689,1.53,3.408,3.798,3.842,10.387,1.987,20.74,4.18,31.105,6.299Z"/>
    <g>
      <path class="cls-12" d="M654.935,67.056c6.297,1.287,12.588,2.608,18.893,3.842,2.064.404,3.807,1.272,5.163,3.014,14.796,19.014,29.311,38.254,42.065,58.941,2.197,3.564,3.284,7.247,3.59,11.582,1.71,24.227,4.511,48.365,8.421,72.26,1.984,12.127-.414,21.538-6.496,31.671-17.948,29.905-35.044,60.39-53.273,90.121-6.113,9.97-13.975,16.94-23.871,21.916-12.964,6.519-26.136,12.367-39.757,17.193-8.137,2.883-15.12-.065-22.183-3.062-26.242-11.14-51.947-23.582-77.253-36.978-3.704-1.961-6.63-4.721-9.104-8.206-11.043-15.557-20.81-31.992-29.81-48.977-2.609-4.923-3.247-9.848-2.469-15.457,4.671-33.705,11.946-66.853,18.409-100.174,2.35-12.117,4.987-24.17,7.44-36.265.385-1.899.978-3.414,2.547-4.663,24.695-19.667,49.357-39.373,74.468-58.442,7.785-5.912,15.948-5.764,24.421-5.285,19.716,1.116,39.273,3.894,58.8,6.967ZM579.678,290.119c.066-.366.131-.733.197-1.099,10.366,2.119,20.749,4.151,31.088,6.415,2.791.611,4.511.047,6.324-2.5,15.718-22.091,31.573-44.069,47.441-66.037,1.314-1.819,1.827-3.496,1.429-5.847-3.574-21.113-7.07-42.241-10.455-63.39-.348-2.174-1.286-2.782-3.041-3.281-18.693-5.314-37.372-10.682-56.032-16.128-2.107-.615-3.72-.44-5.55.98-9.661,7.495-19.394,14.884-29.172,22.204-1.724,1.29-2.919,2.835-3.809,4.812-6.902,15.35-13.778,30.714-20.807,45.997-1.232,2.679-1.619,5.192-1.185,8.103,2.961,19.865,5.885,39.736,8.67,59.629.377,2.689,1.53,3.408,3.798,3.842,10.387,1.987,20.74,4.18,31.105,6.299Z"/>
      <path class="cls-12" d="M675.437,71.247c6.297,1.287,12.588,2.608,18.893,3.842,2.064.404,3.807,1.272,5.163,3.014,14.796,19.014,29.311,38.254,42.065,58.941,2.197,3.564,3.284,7.247,3.59,11.582,1.71,24.227,4.511,48.365,8.421,72.26,1.984,12.127-.414,21.538-6.496,31.671-17.948,29.905-35.044,60.39-53.273,90.121-6.113,9.97-13.975,16.94-23.871,21.916-12.964,6.519-26.136,12.367-39.757,17.193-8.137,2.883-15.12-.065-22.183-3.062-26.242-11.14-51.947-23.582-77.253-36.978-3.704-1.961-6.63-4.721-9.104-8.206-11.043-15.557-20.81-31.992-29.81-48.977-2.609-4.923-3.247-9.848-2.469-15.457,4.671-33.705,11.946-66.853,18.409-100.174,2.35-12.117,4.987-24.17,7.44-36.265.385-1.899.978-3.414,2.547-4.663,24.695-19.667,49.357-39.373,74.468-58.442,7.785-5.912,15.948-5.764,24.421-5.285,19.716,1.116,39.273,3.894,58.8,6.967ZM600.18,294.31c.066-.366.131-.733.197-1.099,10.366,2.119,20.749,4.151,31.088,6.415,2.791.611,4.511.047,6.324-2.5,15.718-22.091,31.573-44.069,47.441-66.037,1.314-1.819,1.827-3.496,1.429-5.847-3.574-21.113-7.07-42.241-10.455-63.39-.348-2.174-1.286-2.782-3.041-3.281-18.693-5.314-37.372-10.682-56.032-16.128-2.107-.615-3.72-.44-5.55.98-9.661,7.495-19.394,14.884-29.172,22.204-1.724,1.29-2.919,2.835-3.809,4.812-6.902,15.35-13.778,30.714-20.807,45.997-1.232,2.679-1.619,5.192-1.185,8.103,2.961,19.865,5.885,39.736,8.67,59.629.377,2.689,1.53,3.408,3.798,3.842,10.387,1.987,20.74,4.18,31.105,6.299Z"/>
    </g>
  </g>
  <g>
    <path class="cls-16" d="M2176.536,852.541c-3.698,1.584-4.95-1.135-6.096-5.162-7.57-26.599-15.409-53.11-22.965-79.713-.855-3.011-1.931-4.025-4.856-4.08-24.339-.459-48.675-1.101-73.011-1.685-1.548-.037-3.19.299-4.629-.139-7.232-2.197-10.238,2.14-13.362,8.285-14.041,27.622-28.544,54.975-42.797,82.475-1.217,2.347-2.458,3.536-5.165,3.513-16.609-.142-33.22-.137-49.83-.013-3.134.023-3.705-.806-3.045-4.151,7.489-37.928,14.841-75.888,22.175-113.851,11.342-58.709,22.643-117.427,33.961-176.141,2.553-13.244,5.024-26.506,7.722-39.716.559-2.735,1.788-5.366,2.995-7.888,4.87-10.176,9.916-20.255,14.748-30.451,1.239-2.614,2.789-3.617,5.57-3.68,26.448-.595,52.893-1.32,79.337-2.066,16.314-.46,32.628-.955,48.937-1.598,3.155-.124,4.23.753,4.684,4.348,3.347,26.514,6.979,52.988,10.547,79.47,3.428,25.441,6.719,50.905,10.375,76.308,4.126,28.668,8.564,57.285,12.917,85.915,4.399,28.925,8.86,57.839,13.296,86.758,1.843,12.012,3.649,24.03,5.578,36.026.345,2.145.374,3.328-2.165,3.523-14.722,1.133-29.433,2.415-44.924,3.712ZM2109.482,528.119c-5.736.287-11.638.477-17.52.952-1.405.113-3.34.757-4.016,1.866-5.114,8.396-12.115,16.329-14.535,25.601-9.353,35.836-17.228,72.115-25.601,108.243-.242,1.044-.257,2.99.225,3.255,4.881,2.674,8.828,7.605,15.087,7.038,7.418-.672,14.856-1.074,22.283-1.641,13.172-1.006,26.375-1.701,39.502-3.178,12.028-1.353,12.226-1.775,10.133-14.75-6.636-41.133-13.476-82.229-20.196-123.347-.538-3.292-1.664-5.369-5.362-4.039Z"/>
    <path class="cls-14" d="M2199.906,852.541c-3.698,1.584-4.95-1.135-6.096-5.162-7.57-26.599-15.409-53.11-22.965-79.713-.855-3.011-1.931-4.025-4.856-4.08-24.339-.459-48.675-1.101-73.011-1.685-1.548-.037-3.19.299-4.629-.139-7.232-2.197-10.238,2.14-13.362,8.285-14.041,27.622-28.544,54.975-42.797,82.475-1.217,2.347-2.458,3.536-5.165,3.513-16.609-.142-33.22-.137-49.83-.013-3.134.023-3.705-.806-3.045-4.151,7.489-37.928,14.841-75.888,22.175-113.851,11.342-58.709,22.643-117.427,33.961-176.141,2.553-13.244,5.024-26.506,7.722-39.716.559-2.735,1.788-5.366,2.995-7.888,4.87-10.176,9.916-20.255,14.748-30.451,1.239-2.614,2.789-3.617,5.57-3.68,26.448-.595,52.893-1.32,79.337-2.066,16.314-.46,32.628-.955,48.937-1.598,3.155-.124,4.23.753,4.684,4.348,3.347,26.514,6.979,52.988,10.547,79.47,3.428,25.441,6.719,50.905,10.375,76.308,4.126,28.668,8.564,57.285,12.917,85.915,4.399,28.925,8.86,57.839,13.296,86.758,1.843,12.012,3.649,24.03,5.578,36.026.345,2.145.374,3.328-2.165,3.523-14.722,1.133-29.433,2.415-44.924,3.712ZM2132.852,528.119c-5.736.287-11.638.477-17.52.952-1.405.113-3.34.757-4.016,1.866-5.114,8.396-12.115,16.329-14.535,25.601-9.353,35.836-17.228,72.115-25.601,108.243-.242,1.044-.257,2.99.225,3.255,4.881,2.674,8.828,7.605,15.087,7.038,7.418-.672,14.856-1.074,22.283-1.641,13.172-1.006,26.375-1.701,39.502-3.178,12.028-1.353,12.226-1.775,10.133-14.75-6.636-41.133-13.476-82.229-20.196-123.347-.538-3.292-1.664-5.369-5.362-4.039Z"/>
  </g>
  <path class="cls-3" d="M2295.361,68.683c-4.801-.329-9.612-.56-14.292-1.921-.002-15.488.082-30.976-.072-46.462-.034-3.394.944-4.383,4.076-4.327,10.393.186,20.791.093,31.187.044,1.491-.007,3.112.545,4.449-.71,29.129-.074,58.26-.325,87.388-.136,11.885.077,23.768,1.052,35.647,1.722,8.65.488,17.286,1.289,25.939,1.652,3.109.13,2.617,1.998,2.235,3.881-2.546,12.553-5.169,25.087-7.751,37.631-1.019,4.951-2.35,9.869-2.884,14.882-.47,4.41-2.481,5.139-5.941,4.419-9.415-1.959-18.837-3.883-28.264-5.775-6.546-1.314-13.105-2.555-20.255-3.944.587,10.309,1.075,20.425,1.769,30.525.463,6.728.244,13.461.781,20.211,1.07,13.456,1.34,26.983,1.966,40.48.587,12.662-.967,25.235-1.357,37.857-.217,7.035-.692,14.064-1.187,21.085-.988,14.019-1.485,28.069-2.402,42.095-.487,7.442-.607,14.966-.945,22.45-.236,5.235-.973,10.491-.726,15.696.625,13.167,1.659,26.313,2.566,39.464.691,10.023,1.403,20.045,2.187,30.06.197,2.514-.153,3.867-3.026,3.795-10.268-.257-20.542-.263-30.813-.363-5.985-1.577-12.05-.472-18.078-.613-9.37.022-18.74.044-28.11.065-5.155-.038-10.331-.807-15.442.544-5.802.254-5.915.235-5.07-5.751,4.082-28.909,8.272-57.8,12.342-86.711,3.785-26.882,7.447-53.784,11.203-80.671,2.448-17.527,5.109-35.021,7.396-52.571,1.215-9.326,1.518-18.76,1.979-28.172.555-11.329,1.374-22.648,2.292-33.951.4-4.92-.426-9.895.808-14.78.46-1.821-1.056-1.742-2.173-1.738-2.814.009-5.627.055-8.44.085-12.994-.017-25.988-.034-38.982-.05Z"/>
  <path class="cls-7" d="M2318.731,68.683c-4.801-.329-9.612-.56-14.292-1.921-.002-15.488.082-30.976-.072-46.462-.034-3.394.944-4.383,4.076-4.327,10.393.186,20.791.093,31.187.044,1.491-.007,3.112.545,4.449-.71,29.129-.074,58.26-.325,87.388-.136,11.885.077,23.768,1.052,35.647,1.722,8.65.488,17.286,1.289,25.939,1.652,3.109.13,2.617,1.998,2.235,3.881-2.546,12.553-5.169,25.087-7.751,37.631-1.019,4.951-2.35,9.869-2.884,14.882-.47,4.41-2.481,5.139-5.941,4.419-9.415-1.959-18.837-3.883-28.264-5.775-6.546-1.314-13.105-2.555-20.255-3.944.587,10.309,1.075,20.425,1.769,30.525.463,6.728.244,13.461.781,20.211,1.07,13.456,1.34,26.983,1.966,40.48.587,12.662-.967,25.235-1.357,37.857-.217,7.035-.692,14.064-1.187,21.085-.988,14.019-1.485,28.069-2.402,42.095-.487,7.442-.607,14.966-.945,22.45-.236,5.235-.973,10.491-.726,15.696.625,13.167,1.659,26.313,2.566,39.464.691,10.023,1.403,20.045,2.187,30.06.197,2.514-.153,3.867-3.026,3.795-10.268-.257-20.542-.263-30.813-.363-5.985-1.577-12.05-.472-18.078-.613-9.37.022-18.74.044-28.11.065-5.155-.038-10.331-.807-15.442.544-5.802.254-5.915.235-5.07-5.751,4.082-28.909,8.272-57.8,12.342-86.711,3.785-26.882,7.447-53.784,11.203-80.671,2.448-17.527,5.109-35.021,7.396-52.571,1.215-9.326,1.518-18.76,1.979-28.172.555-11.329,1.374-22.648,2.292-33.951.4-4.92-.426-9.895.808-14.78.46-1.821-1.056-1.742-2.173-1.738-2.814.009-5.627.055-8.44.085-12.994-.017-25.988-.034-38.982-.05Z"/>
</svg>