<?xml version="1.0" encoding="UTF-8"?>
<svg id="Layer_1" data-name="Layer 1" xmlns="http://www.w3.org/2000/svg" viewBox="0 0 1132.487 785.069">
  <defs>
    <style>
      .cls-1 {
        fill: #ad315c;
      }

      .cls-2 {
        fill: #f2ca33;
      }

      .cls-3 {
        fill: #171616;
      }

      .cls-4 {
        fill: #e2b8d6;
        stroke: #383938;
      }

      .cls-4, .cls-5 {
        stroke-miterlimit: 10;
        stroke-width: 2px;
      }

      .cls-6, .cls-5 {
        fill: #fff;
      }

      .cls-5 {
        stroke: #406090;
      }

      .cls-7 {
        fill: #383938;
      }

      .cls-8 {
        fill: #efa144;
      }

      .cls-9 {
        fill: #db3b7e;
      }

      .cls-10 {
        fill: #406090;
      }

      .cls-11 {
        fill: #f9f6eb;
      }

      .cls-12 {
        fill: #7b3761;
      }

      .cls-13 {
        fill: #e85655;
      }
    </style>
  </defs>
  <g>
    <path class="cls-7" d="M410.48,56.276c14.552-4.773,27.766-13.344,43.24-16.048,1.909-.334,3.319.041,5.015.859,8.365,4.032,14.478,10.314,20.075,17.66,21.358,28.032,43.135,55.746,64.656,83.656,1.955,2.536,2.722,2.751,4.778-.019,25.58-34.464,51.315-68.813,76.95-103.237,1.393-1.87,2.735-2.61,5.131-2.292,4.478.595,9.009.991,13.523,1.039,2.823.03,4.637,1.269,6.22,3.274,6.967,8.826,13.894,17.686,20.919,26.466,1.308,1.635,1.404,2.987.447,4.827-5.371,10.331-10.148,21.01-16.117,30.978-3.76,6.279-9.22,11.547-13.971,17.225-18.836,22.509-37.665,45.023-56.585,67.461-1.823,2.162-2.539,4.233-2.244,7.048,3.818,36.391,7.554,72.791,11.289,109.191,1.678,16.36,3.318,32.724,4.953,49.089.679,6.796-.388,8.119-7.105,9.094-1.49.216-3.013.364-4.448.789-10.436,3.092-20.347,1.657-30.231-2.637-6.635-2.882-13.639-4.938-20.541-7.17-2.183-.706-3.015-1.906-3.225-4.075-2.116-21.827-4.945-43.609-6.225-65.483-.87-14.876.258-29.883.764-44.823.488-14.405.266-28.808.4-43.211.024-2.615-1.888-3.873-3.244-5.455-27.044-31.555-54.144-63.063-81.234-94.579-10.46-12.169-20.926-24.333-31.373-36.514-.695-.811-1.668-1.469-1.817-3.114Z"/>
    <path class="cls-4" d="M429.155,56.276c14.552-4.773,27.766-13.344,43.24-16.048,1.909-.334,3.319.041,5.015.859,8.365,4.032,14.478,10.314,20.075,17.66,21.358,28.032,43.135,55.746,64.656,83.656,1.955,2.536,2.722,2.751,4.778-.019,25.58-34.464,51.315-68.813,76.95-103.237,1.393-1.87,2.735-2.61,5.131-2.292,4.478.595,9.009.991,13.523,1.039,2.823.03,4.637,1.269,6.22,3.274,6.967,8.826,13.894,17.686,20.919,26.466,1.308,1.635,1.404,2.987.447,4.827-5.371,10.331-10.148,21.01-16.117,30.978-3.76,6.279-9.22,11.547-13.971,17.225-18.836,22.509-37.665,45.023-56.585,67.461-1.823,2.162-2.539,4.233-2.244,7.048,3.818,36.391,7.554,72.791,11.289,109.191,1.678,16.36,3.318,32.724,4.953,49.089.679,6.796-.388,8.119-7.105,9.094-1.49.216-3.013.364-4.448.789-10.436,3.092-20.347,1.657-30.231-2.637-6.635-2.882-13.639-4.938-20.541-7.17-2.183-.706-3.015-1.906-3.225-4.075-2.116-21.827-4.945-43.609-6.225-65.483-.87-14.876.258-29.883.764-44.823.488-14.405.266-28.808.4-43.211.024-2.615-1.888-3.873-3.244-5.455-27.044-31.555-54.144-63.063-81.234-94.579-10.46-12.169-20.926-24.333-31.373-36.514-.695-.811-1.668-1.469-1.817-3.114Z"/>
  </g>
  <g>
    <path class="cls-12" d="M687.747,246.125c0-22.037-.326-44.08.091-66.109.425-22.444.552-44.884.286-67.324-.22-18.597-.861-37.19-1.505-55.779-.131-3.77.746-4.829,4.568-3.744,8.443,2.398,17.163.967,25.756,1.304,10.273.403,20.56.546,30.842.605,2.625.015,3.224.944,3.127,3.366-1.075,26.639-2.069,53.281-3.085,79.923-.312,8.199-.479,16.401-.835,24.602-.878,20.221-.697,40.504-2.095,60.682-1.298,18.733,1.715,37.028,3.389,55.484,1.146,12.635,2.418,25.26,3.432,37.905.53,6.609.918,7.187,7.588,7.521,22.709,1.139,45.42,2.243,68.125,3.462,11.896.639,23.782,1.461,35.668,2.258,5.807.389,11.231-.143,16.66-2.921,9.851-5.041,20.093-9.319,30.125-14.014,2.331-1.091,3.291-1.147,3.268,1.942-.118,15.877-.081,31.755-.022,47.632.008,2.056-.562,3.059-2.674,3.834-8.667,3.182-17.397,4.831-26.777,4.98-29.349.465-58.714-.027-88.042.906-24.981.794-49.859-1.136-74.792-1.416-9.302-.104-18.635-.415-27.951-.66-2.738-.072-3.819-.839-3.846-3.776-.116-12.584-.29-25.173-.785-37.747-1.09-27.635-.69-55.277-.515-82.918Z"/>
    <path class="cls-8" d="M713.891,246.125c0-22.037-.326-44.08.091-66.109.425-22.444.552-44.884.286-67.324-.22-18.597-.861-37.19-1.505-55.779-.131-3.77.746-4.829,4.568-3.744,8.443,2.398,17.163.967,25.756,1.304,10.273.403,20.56.546,30.842.605,2.625.015,3.224.944,3.127,3.366-1.075,26.639-2.069,53.281-3.085,79.923-.312,8.199-.479,16.401-.835,24.602-.878,20.221-.697,40.504-2.095,60.682-1.298,18.733,1.715,37.028,3.389,55.484,1.146,12.635,2.418,25.26,3.432,37.905.53,6.609.918,7.187,7.588,7.521,22.709,1.139,45.42,2.243,68.125,3.462,11.896.639,23.782,1.461,35.668,2.258,5.807.389,11.231-.143,16.66-2.921,9.851-5.041,20.093-9.319,30.125-14.014,2.331-1.091,3.291-1.147,3.268,1.942-.118,15.877-.081,31.755-.022,47.632.008,2.056-.562,3.059-2.674,3.834-8.667,3.182-17.397,4.831-26.777,4.98-29.349.465-58.714-.027-88.042.906-24.981.794-49.859-1.136-74.792-1.416-9.302-.104-18.635-.415-27.951-.66-2.738-.072-3.819-.839-3.846-3.776-.116-12.584-.29-25.173-.785-37.747-1.09-27.635-.69-55.277-.515-82.918Z"/>
  </g>
  <g>
    <path class="cls-9" d="M677.248,751.815c.7-17.268,1.498-33.51,1.987-49.762.806-26.759,2.858-53.482,1.944-80.294-.617-18.093-.681-36.204-1.064-54.306-.05-2.383.332-3.476,3.171-3.993,15.185-2.765,30.516-1.499,45.774-2.067,5.742-.214,11.503.041,17.243-.211,2.512-.11,3.418.436,3.392,3.099-.137,14.065-.125,28.132-.127,42.198-.002,9.783-.279,19.564.334,29.346,2.334,37.253,4.585,74.512,6.872,111.768.294,4.794.308,4.828-4.492,4.638-13.071-.518-26.138-1.109-39.21-1.587-5.896-.216-11.66,1.182-17.497,1.725-4.748.442-9.518.938-14.183,1.884-3.305.671-4.679.032-4.143-2.439Z"/>
    <path class="cls-9" d="M709.493,534.568c-7.808.581-15.623,1.083-23.419,1.795-2.044.187-3.007-.535-4.051-2.182-11.205-17.674-18.678-36.948-24.709-56.866-.513-1.694-.143-2.685,1.069-3.821,9.184-8.613,18.341-17.256,27.438-25.961,1.403-1.342,2.929-1.614,4.679-1.471,17.165,1.408,34.328,2.844,51.497,4.196,1.525.12,2.441.861,3.385,1.863,5.451,5.783,10.898,11.57,16.42,17.286,1.363,1.411,2.002,2.882,1.989,4.872-.084,13.448-.109,26.897-.047,40.345.008,1.653-.71,2.337-1.977,3.074-7.913,4.6-15.795,9.254-23.655,13.945-1.732,1.033-3.522,1.521-5.531,1.652-7.69.501-15.372,1.114-23.057,1.686-.01-.138-.02-.276-.031-.413Z"/>
  </g>
  <g>
    <path class="cls-13" d="M369.482,31.126c20.609-.082,41.068,2.437,61.609,3.62,6.332.365,12.65,1.004,18.984,1.281,2.572.112,3.798.884,4.044,3.598,1.122,12.347,2.813,24.641,3.22,37.056.094,2.864-.304,4.09-3.699,4.382-22.882,1.971-45.735,4.282-68.604,6.415-5.192.484-10.409.974-15.613.95-3.479-.016-4.47.99-4.42,4.521.509,35.975.791,71.953,1.232,107.929.434,35.408.895,70.817,1.519,106.222.23,13.027-2.039,25.842-2.664,38.786-.168,3.481-2.913,2.992-4.914,3.264-9.91,1.346-19.842,2.523-29.768,3.75-9.974,1.233-19.87,1.643-29.798-.87-3.447-.873-4.526-2.361-4.583-5.641-.175-10.013-.548-20.022-.843-30.033-.574-19.457-1.71-38.917-1.59-58.369.18-29.192,1.16-58.381,1.957-87.567.505-18.469,1.286-36.93,1.966-55.394.234-6.342.326-12.699.887-19.014.35-3.933-1.027-4.844-4.806-5.024-34.078-1.625-68.055-4.708-102.066-7.303-2.447-.187-3.141-.886-3.527-3.387-1.912-12.389.588-24.429,2.358-36.543.269-1.844,1.216-2.466,3.083-2.666,27.901-2.99,55.862-4.982,83.908-6.05,26.347-1.003,52.67-2.616,79.007-3.885,4.364-.21,8.746-.03,13.12-.03Z"/>
    <path class="cls-11" d="M399.361,31.126c20.609-.082,41.068,2.437,61.609,3.62,6.332.365,12.65,1.004,18.984,1.281,2.572.112,3.798.884,4.044,3.598,1.122,12.347,2.813,24.641,3.22,37.056.094,2.864-.304,4.09-3.699,4.382-22.882,1.971-45.735,4.282-68.604,6.415-5.192.484-10.409.974-15.613.95-3.479-.016-4.47.99-4.42,4.521.509,35.975.791,71.953,1.232,107.929.434,35.408.895,70.817,1.519,106.222.23,13.027-2.039,25.842-2.664,38.786-.168,3.481-2.913,2.992-4.914,3.264-9.91,1.346-19.842,2.523-29.768,3.75-9.974,1.233-19.87,1.643-29.798-.87-3.447-.873-4.526-2.361-4.583-5.641-.175-10.013-.548-20.022-.843-30.033-.574-19.457-1.71-38.917-1.59-58.369.18-29.192,1.16-58.381,1.957-87.567.505-18.469,1.286-36.93,1.966-55.394.234-6.342.326-12.699.887-19.014.35-3.933-1.027-4.844-4.806-5.024-34.078-1.625-68.055-4.708-102.066-7.303-2.447-.187-3.141-.886-3.527-3.387-1.912-12.389.588-24.429,2.358-36.543.269-1.844,1.216-2.466,3.083-2.666,27.901-2.99,55.862-4.982,83.908-6.05,26.347-1.003,52.67-2.616,79.007-3.885,4.364-.21,8.746-.03,13.12-.03Z"/>
  </g>
  <g>
    <path class="cls-10" d="M1042.596,284.583c23.485,0,46.97.056,70.455-.071,2.933-.016,3.629.858,3.477,3.631-.77,14.014-1.445,28.034-1.99,42.058-.113,2.904-1.031,4.156-4.034,4.734-19.578,3.769-39.109,7.778-58.667,11.65-1.965.389-4.015.61-6.012.536-30.238-1.126-60.455-.372-90.67.852-15.246.618-30.5.38-45.753.377-3.632,0-6.24-1.204-8.571-4.173-5.244-6.68-10.887-13.048-16.385-19.528-1.049-1.236-1.991-2.367-2.053-4.205-1.199-36.011-4.16-71.985-3.85-108.017.331-38.456,1.471-76.924,3.285-115.339.811-17.178,4.161-34.231,9.566-50.719.376-1.149.885-2.253,1.292-3.393,1.606-4.496,4.465-6.588,9.544-7.083,43.219-4.21,86.282-9.827,129.407-14.885,16.605-1.948,33.189-4.073,49.772-6.204,3.008-.387,4.783-.031,5.752,3.493,3.924,14.276,8.125,28.479,12.458,42.637.935,3.054.402,4.13-2.724,4.779-25.585,5.31-51.141,10.762-76.707,16.162-18.449,3.897-36.894,7.819-55.361,11.631-2.489.514-3.484,1.245-3.229,4.136,2.054,23.248,3.986,46.507,5.704,69.782.249,3.367,2.036,2.76,3.979,2.713,31.575-.767,63.152-1.467,94.721-2.409,3.877-.116,4.992.868,5.134,4.732.432,11.728,1.234,23.445,2.071,35.154.166,2.329-.391,2.936-2.711,3.144-32.781,2.943-65.557,5.946-98.321,9.076-6.587.629-5.286-.14-5.077,5.79.684,19.423,1.459,38.844,1.949,58.271.087,3.455,1.043,4.127,4.355,3.911,23.036-1.506,46.118-1.844,69.195-2.222,0-.334-.002-.668-.003-1.001Z"/>
    <path class="cls-5" d="M1057.536,284.583c23.485,0,46.97.056,70.455-.071,2.933-.016,3.629.858,3.477,3.631-.77,14.014-1.445,28.034-1.99,42.058-.113,2.904-1.031,4.156-4.034,4.734-19.578,3.769-39.109,7.778-58.667,11.65-1.965.389-4.015.61-6.012.536-30.238-1.126-60.455-.372-90.67.852-15.246.618-30.5.38-45.753.377-3.632,0-6.24-1.204-8.571-4.173-5.244-6.68-10.887-13.048-16.385-19.528-1.049-1.236-1.991-2.367-2.053-4.205-1.199-36.011-4.16-71.985-3.85-108.017.331-38.456,1.471-76.924,3.285-115.339.811-17.178,4.161-34.231,9.566-50.719.376-1.149.885-2.253,1.292-3.393,1.606-4.496,4.465-6.588,9.544-7.083,43.219-4.21,86.282-9.827,129.407-14.885,16.605-1.948,33.189-4.073,49.772-6.204,3.008-.387,4.783-.031,5.752,3.493,3.924,14.276,8.125,28.479,12.458,42.637.935,3.054.402,4.13-2.724,4.779-25.585,5.31-51.141,10.762-76.707,16.162-18.449,3.897-36.894,7.819-55.361,11.631-2.489.514-3.484,1.245-3.229,4.136,2.054,23.248,3.986,46.507,5.704,69.782.249,3.367,2.036,2.76,3.979,2.713,31.575-.767,63.152-1.467,94.721-2.409,3.877-.116,4.992.868,5.134,4.732.432,11.728,1.234,23.445,2.071,35.154.166,2.329-.391,2.936-2.711,3.144-32.781,2.943-65.557,5.946-98.321,9.076-6.587.629-5.286-.14-5.077,5.79.684,19.423,1.459,38.844,1.949,58.271.087,3.455,1.043,4.127,4.355,3.911,23.036-1.506,46.118-1.844,69.195-2.222,0-.334-.002-.668-.003-1.001Z"/>
  </g>
  <g>
    <polygon class="cls-6" points="315.385 785.069 430.149 403.801 542.195 403.502 657.09 770.149 315.385 785.069"/>
    <path class="cls-3" d="M520.927,430.727c6.221-1.955,8.873,1.551,11.808,7.23,8.452,16.354,12.61,34.021,17.475,51.504,9.005,32.357,17.97,64.725,26.899,97.103,7.694,27.9,15.333,55.815,22.965,83.732,6.228,22.782,12.443,45.567,18.586,68.372,1.382,5.131,2.307,10.386,3.701,15.513.821,3.02-.642,4.065-3.119,4.428-6.473.948-12.959,1.804-19.442,2.684-4.862.66-9.775,1.067-14.571,2.049-2.358.483-2.668-.302-3.201-2.21-6.768-24.195-13.668-48.353-20.47-72.539-7.134-25.366-14.246-50.738-21.231-76.145-.891-3.24-2.387-4.214-5.736-4.196-15.342.082-30.689-.441-46.016-.882-11.094-.319-22.185-.146-33.269-.536-3.135-.11-6.277-.327-9.387-.722-2.575-.327-3.316,1.152-3.874,3.168-6.743,24.344-13.514,48.681-20.264,73.023-7.188,25.922-14.363,51.848-21.54,77.772-.291,1.052-.564,2.11-.827,3.169-1.857,7.473-1.957,7.546-9.585,6.802-12.648-1.233-25.288-2.625-38.029-2.312-2.222.055-3.336.022-2.809-3.125,6.775-40.415,16.256-80.191,27.479-119.583,4.563-16.015,8.053-32.36,13.163-48.19,4.656-14.424,10.773-28.381,16.369-42.495,14.422-36.375,28.917-72.72,43.371-109.082,4.449-11.191,4.423-11.341,16.597-12.01,14.067-.773,28.149-1.265,42.225-1.869,4.096-.176,8.123-1.338,12.732-.654Z"/>
  </g>
  <path class="cls-2" d="M123.547,351.201c-8.066-.03-15.216-2.97-22.46-5.316-26.55-8.597-53.03-17.412-79.565-26.055-2.647-.862-3.194-2.059-2.665-4.784,2.522-12.983,4.84-26.007,7.11-39.038.607-3.483,1.461-4.999,5.732-3.906,26.982,6.902,54.057,13.436,81.098,20.108,10.867,2.681,21.747,5.318,32.565,8.186,1.928.511,3.108-.052,4.472-1.031,12.666-9.093,25.296-18.241,38.063-27.191,2.272-1.593,3.22-3.273,2.5-5.806-1.942-6.834-4.011-13.631-5.949-20.466-.521-1.836-1.557-2.967-3.192-3.977-15.688-9.694-33.033-15.915-49.618-23.713-18.705-8.795-37.653-17.075-56.496-25.577-8.861-3.998-17.715-8.01-26.591-11.972-2.142-.956-3.316-2.3-3.899-4.769-7.654-32.411-15.415-64.798-23.309-97.151-.616-2.525.506-4.012,1.737-5.521,6.913-8.481,13.952-16.859,20.921-25.295,10.103-12.229,20.478-24.251,30.127-36.829,3.934-5.128,8.318-3.486,12.818-2.936,14.211,1.738,28.398,3.664,42.589,5.562,17.437,2.331,34.881,4.611,52.297,7.089,17.672,2.515,34.203,9.368,51.367,13.833,6.343,1.65,12.571,3.739,18.9,5.443,3.003.809,4.649,1.588,3.796,5.515-1.092,5.028-.879,10.327-1.435,15.486-.582,5.403-5.052,8.596-7.735,12.796-2.128,3.332-4.803,6.31-7.061,9.566-1.66,2.393-3.413,2.84-6.243,1.876-38.452-13.102-76.956-26.049-115.41-39.144-3.759-1.28-5.985-.925-8.158,2.887-7.32,12.844-15.024,25.471-22.684,38.118-1.783,2.944-2.196,5.327-.217,8.614,6.213,10.32,12.002,20.897,17.867,31.423.924,1.658,1.991,2.771,3.847,3.358,19.294,6.103,38.417,12.813,57.896,18.249,15.708,4.384,29.274,12.726,43.309,20.379,15.046,8.204,29.035,18.112,43.787,26.782,1.901,1.117,3.413,2.502,4.468,4.605,8.231,16.413,16.555,32.781,24.955,49.108,1.098,2.134,1.265,3.835.232,6.103-11.578,25.417-23.046,50.884-34.495,76.359-.727,1.618-1.467,2.539-3.464,2.795-11.496,1.468-22.959,3.191-34.443,4.754-15.674,2.133-31.354,4.224-47.037,6.286-13.522,1.778-27.053,3.49-40.326,5.198Z"/>
  <path class="cls-1" d="M104.872,343.731c-8.066-.03-15.216-2.97-22.46-5.316-26.55-8.597-53.03-17.412-79.565-26.055-2.647-.862-3.194-2.059-2.665-4.784,2.522-12.983,4.84-26.007,7.11-39.038.607-3.483,1.461-4.999,5.732-3.906,26.982,6.902,54.057,13.436,81.098,20.108,10.867,2.681,21.747,5.318,32.565,8.186,1.928.511,3.108-.052,4.472-1.031,12.666-9.093,25.296-18.241,38.063-27.191,2.272-1.593,3.22-3.273,2.5-5.806-1.942-6.834-4.011-13.631-5.949-20.466-.521-1.836-1.557-2.967-3.192-3.977-15.688-9.694-33.033-15.915-49.618-23.713-18.705-8.795-37.653-17.075-56.496-25.577-8.861-3.998-17.715-8.01-26.591-11.972-2.142-.956-3.316-2.3-3.899-4.769-7.654-32.411-15.415-64.798-23.309-97.151-.616-2.525.506-4.012,1.737-5.521,6.913-8.481,13.952-16.859,20.921-25.295,10.103-12.229,20.478-24.251,30.127-36.829,3.934-5.128,8.318-3.486,12.818-2.936,14.211,1.738,28.398,3.664,42.589,5.562,17.437,2.331,34.881,4.611,52.297,7.089,17.672,2.515,34.203,9.368,51.367,13.833,6.343,1.65,12.571,3.739,18.9,5.443,3.003.809,4.649,1.588,3.796,5.515-1.092,5.028-.879,10.327-1.435,15.486-.582,5.403-5.052,8.596-7.735,12.796-2.128,3.332-4.803,6.31-7.061,9.566-1.66,2.393-3.413,2.84-6.243,1.876-38.452-13.102-76.956-26.049-115.41-39.144-3.759-1.28-5.985-.925-8.158,2.887-7.32,12.844-15.024,25.471-22.684,38.118-1.783,2.944-2.196,5.327-.217,8.614,6.213,10.32,12.002,20.897,17.867,31.423.924,1.658,1.991,2.771,3.847,3.358,19.294,6.103,38.417,12.813,57.896,18.249,15.708,4.384,29.274,12.726,43.309,20.379,15.046,8.204,29.035,18.112,43.787,26.782,1.901,1.117,3.413,2.502,4.468,4.605,8.231,16.413,16.555,32.781,24.955,49.108,1.098,2.134,1.265,3.835.232,6.103-11.578,25.417-23.046,50.884-34.495,76.359-.727,1.618-1.467,2.539-3.464,2.795-11.496,1.468-22.959,3.191-34.443,4.754-15.674,2.133-31.354,4.224-47.037,6.286-13.522,1.778-27.053,3.49-40.326,5.198Z"/>
</svg>