<?xml version="1.0" encoding="UTF-8"?>
<svg id="Layer_1" data-name="Layer 1" xmlns="http://www.w3.org/2000/svg" viewBox="0 0 1186.204 752.602">
  <defs>
    <style>
      .cls-1 {
        fill: #db3c7e;
      }

      .cls-2 {
        fill: #f9d03a;
      }

      .cls-3 {
        fill: #eb5f5f;
      }

      .cls-4 {
        fill: #923a60;
      }

      .cls-5 {
        fill: #468f67;
        stroke: #edebc7;
        stroke-width: 3px;
      }

      .cls-5, .cls-6 {
        stroke-miterlimit: 10;
      }

      .cls-7 {
        fill: #ad325d;
      }

      .cls-8 {
        fill: #fbfcfc;
      }

      .cls-9 {
        fill: #b2314c;
      }

      .cls-6 {
        fill: #fff;
        stroke: #406090;
        stroke-width: 2px;
      }

      .cls-10 {
        fill: #3d8480;
      }

      .cls-11 {
        fill: #fef7ed;
      }

      .cls-12 {
        fill: #f4d369;
      }

      .cls-13 {
        fill: #efa144;
      }

      .cls-14 {
        fill: #406090;
      }

      .cls-15 {
        fill: #bf3528;
      }

      .cls-16 {
        fill: #ddceae;
      }

      .cls-17 {
        fill: #ffe532;
      }

      .cls-18 {
        fill: #fbfbfd;
      }
    </style>
  </defs>
  <path class="cls-10" d="M864.079,10.637c5.41-1.684,7.705,1.368,10.242,6.309,7.306,14.229,10.877,29.589,15.064,44.789,7.749,28.134,15.463,56.278,23.146,84.43,6.62,24.259,13.192,48.53,19.759,72.804,5.358,19.808,10.705,39.62,15.99,59.448,1.189,4.461,1.981,9.029,3.179,13.487.706,2.626-.567,3.53-2.72,3.84-5.626.808-11.264,1.538-16.898,2.287-4.226.562-8.495.904-12.664,1.746-2.05.414-2.317-.269-2.776-1.928-5.824-21.038-11.763-42.043-17.617-63.073-6.139-22.056-12.26-44.117-18.27-66.208-.766-2.817-2.064-3.667-4.974-3.659-13.33.035-26.663-.454-39.979-.873-9.638-.303-19.275-.178-28.905-.543-2.724-.103-5.453-.299-8.155-.649-2.237-.29-2.884.993-3.373,2.744-5.915,21.136-11.854,42.265-17.776,63.399-6.306,22.505-12.599,45.014-18.896,67.522-.255.913-.495,1.832-.726,2.751-1.631,6.489-1.718,6.552-8.344,5.888-10.987-1.101-21.965-2.339-33.036-2.097-1.931.042-2.899.011-2.433-2.722,5.98-35.099,14.31-69.636,24.153-103.836,4.002-13.904,7.072-28.097,11.548-41.839,4.079-12.521,9.426-24.634,14.321-36.884,12.615-31.57,25.293-63.115,37.936-94.675,3.891-9.713,3.87-9.844,14.448-10.397,12.224-.639,24.46-1.034,36.691-1.526,3.559-.143,7.061-1.144,11.064-.538Z"/>
  <g>
    <path class="cls-2" d="M425.712,305.575c-.112-16.553-.085-32.129-.354-47.699-.442-25.639.311-51.299-1.779-76.91-1.41-17.282-2.292-34.608-3.478-51.909-.156-2.278.16-3.341,2.853-3.964,14.403-3.333,29.128-2.817,43.701-4.052,5.484-.465,11.008-.482,16.487-.983,2.399-.219,3.29.262,3.386,2.812.506,13.463,1.155,26.921,1.79,40.379.442,9.36.619,18.73,1.649,28.061,3.921,35.536,7.763,71.081,11.639,106.622.499,4.573.513,4.605-4.088,4.641-12.529.097-25.058.123-37.587.258-5.65.061-11.102,1.659-16.662,2.444-4.523.638-9.064,1.328-13.484,2.446-3.132.792-4.475.243-4.075-2.146Z"/>
    <path class="cls-2" d="M446.719,96.263c-7.444.909-14.898,1.744-22.324,2.779-1.947.271-2.901-.375-3.975-1.904-11.521-16.402-19.544-34.503-26.217-53.287-.568-1.598-.258-2.562.85-3.704,8.397-8.657,16.766-17.341,25.075-26.081,1.281-1.348,2.729-1.677,4.41-1.619,16.486.569,32.972,1.166,49.46,1.682,1.465.046,2.374.714,3.323,1.629,5.477,5.286,10.951,10.576,16.493,15.794,1.368,1.289,2.046,2.667,2.124,4.571.529,12.87,1.114,25.739,1.783,38.602.082,1.581-.573,2.268-1.752,3.03-7.363,4.76-14.693,9.57-22,14.413-1.61,1.067-3.301,1.615-5.217,1.831-7.335.828-14.657,1.763-21.984,2.658-.016-.131-.032-.263-.048-.394Z"/>
  </g>
  <g>
    <path class="cls-4" d="M1070.13,183.354c2.184-9.49,4.262-18.365,6.267-27.256,8.368-37.102,16.715-74.209,25.068-111.314,2.802-12.445,5.665-24.877,8.344-37.348.578-2.691,1.565-3.766,4.525-3.902,22.368-1.029,44.729-2.233,67.084-3.523,2.606-.15,2.205,1.27,2.221,2.766.206,19.819.448,39.638.613,59.458.577,69.311,1.125,138.623,1.692,207.934.025,3.049.009,6.106.241,9.142.163,2.134-.76,2.876-2.697,3.206-5.654.961-11.271,2.149-16.933,3.059-3.844.617-7.7-.244-11.549-.414-6.556-.289-13.095-.952-19.65-1.249-2.285-.104-3.283-.537-3.183-3.161,1.16-30.582,2.225-61.169,3.269-91.755.612-17.931,1.176-35.864,1.687-53.798.143-5.014.022-10.035.022-15.127-2.486,5.303-5.053,10.725-7.575,16.167-16.186,34.936-32.382,69.866-48.49,104.838-.972,2.111-2.081,2.943-4.423,2.936-4.332-.013-8.673.268-12.995.618-1.955.158-2.9-.52-3.733-2.27-14.042-29.481-28.156-58.929-42.248-88.386-5.152-10.768-10.287-21.544-15.437-32.313-.336-.703-.74-1.375-1.774-1.933.347,6.917.673,13.835,1.046,20.751.853,15.803,1.733,31.605,2.596,47.408,1.316,24.115,2.629,48.23,3.94,72.345.554,10.185,1.034,20.374,1.702,30.552.158,2.408-.461,3.212-2.947,3.321-12.531.551-25.056,1.247-37.576,2.005-2.179.132-2.878-.676-3.059-2.699-1.853-20.776-3.772-41.546-5.65-62.319-1.551-17.155-3.077-34.313-4.606-51.47-1.769-19.843-3.517-39.687-5.297-59.529-1.759-19.608-3.55-39.213-5.32-58.82-1.432-15.872-2.813-31.75-4.324-47.615-.223-2.338,1.114-2.078,2.529-2.14,8.082-.355,16.162-.757,24.245-1.085,13.942-.566,27.889-1.022,41.825-1.689,2.642-.126,3.819.526,4.675,3.19,10.13,31.521,20.411,62.993,30.656,94.478,8,24.587,16.004,49.173,24.013,73.758.281.863.64,1.7,1.205,3.185Z"/>
    <path class="cls-13" d="M1044.17,186.599c2.184-9.49,4.262-18.365,6.267-27.256,8.368-37.102,16.715-74.209,25.068-111.314,2.802-12.445,5.665-24.877,8.344-37.348.578-2.691,1.565-3.766,4.525-3.902,22.368-1.029,44.729-2.233,67.084-3.523,2.606-.15,2.205,1.27,2.221,2.766.206,19.819.448,39.638.613,59.458.577,69.311,1.125,138.623,1.692,207.934.025,3.049.009,6.106.241,9.142.163,2.134-.76,2.876-2.697,3.206-5.654.961-11.271,2.149-16.933,3.059-3.844.617-7.7-.244-11.549-.414-6.556-.289-13.095-.952-19.65-1.249-2.285-.104-3.283-.537-3.183-3.161,1.16-30.582,2.225-61.169,3.269-91.755.612-17.931,1.176-35.864,1.687-53.798.143-5.014.022-10.035.022-15.127-2.486,5.303-5.053,10.725-7.575,16.167-16.186,34.936-32.382,69.866-48.49,104.838-.972,2.111-2.081,2.943-4.423,2.936-4.332-.013-8.673.268-12.995.618-1.955.158-2.9-.52-3.733-2.27-14.042-29.481-28.156-58.929-42.248-88.386-5.152-10.768-10.287-21.544-15.437-32.313-.336-.703-.74-1.375-1.774-1.933.347,6.917.673,13.835,1.046,20.751.853,15.803,1.733,31.605,2.596,47.408,1.316,24.115,2.629,48.23,3.94,72.345.554,10.185,1.034,20.374,1.702,30.552.158,2.408-.461,3.212-2.947,3.321-12.531.551-25.056,1.247-37.576,2.005-2.179.132-2.878-.676-3.059-2.699-1.853-20.776-3.772-41.546-5.65-62.319-1.551-17.155-3.077-34.313-4.606-51.47-1.769-19.843-3.517-39.687-5.297-59.529-1.759-19.608-3.55-39.213-5.32-58.82-1.432-15.872-2.813-31.75-4.324-47.615-.223-2.338,1.114-2.078,2.529-2.14,8.082-.355,16.162-.757,24.245-1.085,13.942-.566,27.889-1.022,41.825-1.689,2.642-.126,3.819.526,4.675,3.19,10.13,31.521,20.411,62.993,30.656,94.478,8,24.587,16.004,49.173,24.013,73.758.281.863.64,1.7,1.205,3.185Z"/>
  </g>
  <g>
    <path class="cls-16" d="M576.58,10.488c20.18,1.946,40.4,3.553,60.525,5.96,12.685,1.518,25.425,2.536,38.071,4.312,6.501.913,13.007,1.727,19.536,2.336,1.981.185,2.819,1.125,3.484,2.806,7.502,18.945,15.037,37.878,22.619,56.792.692,1.726.741,3.349.424,5.131-1.495,8.407-2.947,16.821-4.359,25.242-2.806,16.732-5.603,33.466-8.32,50.212-.297,1.829-1.382,2.491-2.829,3.164-18.371,8.545-36.725,17.126-55.082,25.699-.531.248-1.034.565-1.583.761-2.299.821-2.403,1.834-.797,3.717,9.662,11.327,19.209,22.752,28.81,34.13,1.51,1.79,3.021,3.592,4.671,5.249,9.775,9.818,14.082,22.816,20.181,34.752,5.435,10.636,10.527,21.447,15.748,32.192.435.894,1.547,1.893.665,2.802-.449.463-1.761.193-2.665.093-14.441-1.611-28.875-3.29-43.324-4.825-1.809-.192-2.652-1.169-3.523-2.442-8.855-12.95-17.729-25.887-26.581-38.839-10.633-15.559-21.256-31.125-31.857-46.706-.558-.82-1.045-1.493-2.165-1.471-9.348.184-18.696.379-28.044.474-1.617.017-2.152.583-2.507,2.136-4.322,18.909-8.738,37.797-13.117,56.694-1.636,7.057-3.33,14.102-4.804,21.193-.422,2.029-1.318,2.322-3.123,2.138-14.231-1.445-28.466-2.861-42.711-4.162-2.353-.215-2.947-1.035-2.545-3.3,2.063-11.633,4.052-23.279,5.992-34.933,1.402-8.427,2.643-16.881,4.034-25.311,2.629-15.929,5.329-31.846,7.97-47.773,1.302-7.85,2.487-15.72,3.818-23.566,3.797-22.393,6.781-44.907,9.967-67.39,2.924-20.639,5.44-41.336,8.383-61.972.744-5.218,1.506-10.432,2.05-15.671.22-2.119.996-2.764,3.124-2.523,6.64.752,13.3,1.323,19.953,1.965-.03.312-.059.623-.089.935ZM587.608,104.324l-.074-.007c-1.485,15.4-2.918,30.805-4.504,46.194-.271,2.628.016,3.83,3.069,4.44,7.09,1.415,14.102,3.296,21.052,5.31,3.78,1.095,7.091.886,10.74-.701,13.74-5.975,27.59-11.698,41.436-17.424,1.957-.81,2.994-2.041,3.425-4.037,3.801-17.585,7.609-35.168,11.473-52.739.518-2.355.098-4.169-1.494-6.095-7.018-8.488-13.934-17.063-20.728-25.731-1.6-2.041-3.414-2.598-5.765-2.439-16.894,1.141-33.784,2.353-50.689,3.307-2.629.148-3.29.913-3.51,3.369-1.388,15.526-2.937,31.038-4.433,46.554Z"/>
    <path class="cls-9" d="M596.051,13.733c20.18,1.946,40.4,3.553,60.525,5.96,12.685,1.518,25.425,2.536,38.071,4.312,6.501.913,13.007,1.727,19.536,2.336,1.981.185,2.819,1.125,3.484,2.806,7.502,18.945,15.037,37.878,22.619,56.792.692,1.726.741,3.349.424,5.131-1.495,8.407-2.947,16.821-4.359,25.242-2.806,16.732-5.603,33.466-8.32,50.212-.297,1.829-1.382,2.491-2.829,3.164-18.371,8.545-36.725,17.126-55.082,25.699-.531.248-1.034.565-1.583.761-2.299.821-2.403,1.834-.797,3.717,9.662,11.327,19.209,22.752,28.81,34.13,1.51,1.79,3.021,3.592,4.671,5.249,9.775,9.818,14.082,22.816,20.181,34.752,5.435,10.636,10.527,21.447,15.748,32.192.435.894,1.547,1.893.665,2.802-.449.463-1.761.193-2.665.093-14.441-1.611-28.875-3.29-43.324-4.825-1.809-.192-2.652-1.169-3.523-2.442-8.855-12.95-17.729-25.887-26.581-38.839-10.633-15.559-21.256-31.125-31.857-46.706-.558-.82-1.045-1.493-2.165-1.471-9.348.184-18.696.379-28.044.474-1.617.017-2.152.583-2.507,2.136-4.322,18.909-8.738,37.797-13.117,56.694-1.636,7.057-3.33,14.102-4.804,21.193-.422,2.029-1.318,2.322-3.123,2.138-14.231-1.445-28.466-2.861-42.711-4.162-2.353-.215-2.947-1.035-2.545-3.3,2.063-11.633,4.052-23.279,5.992-34.933,1.402-8.427,2.643-16.881,4.034-25.311,2.629-15.929,5.329-31.846,7.97-47.773,1.302-7.85,2.487-15.72,3.818-23.566,3.797-22.393,6.781-44.907,9.967-67.39,2.924-20.639,5.44-41.336,8.383-61.972.744-5.218,1.506-10.432,2.05-15.671.22-2.119.996-2.764,3.124-2.523,6.64.752,13.3,1.323,19.953,1.965-.03.312-.059.623-.089.935ZM607.079,107.569l-.074-.007c-1.485,15.4-2.918,30.805-4.504,46.194-.271,2.628.016,3.83,3.069,4.44,7.09,1.415,14.102,3.296,21.052,5.31,3.78,1.095,7.091.886,10.74-.701,13.74-5.975,27.59-11.698,41.436-17.424,1.957-.81,2.994-2.041,3.425-4.037,3.801-17.585,7.609-35.168,11.473-52.739.518-2.355.098-4.169-1.494-6.095-7.018-8.488-13.934-17.063-20.728-25.731-1.6-2.041-3.414-2.598-5.765-2.439-16.894,1.141-33.784,2.353-50.689,3.307-2.629.148-3.29.913-3.51,3.369-1.388,15.526-2.937,31.038-4.433,46.554Z"/>
  </g>
  <g>
    <path class="cls-18" d="M240.823,18.855c19.794-2.393,39.556-5.12,59.395-7.058,12.505-1.221,24.957-2.934,37.479-3.9,6.437-.496,12.858-1.089,19.258-1.882,1.942-.241,2.945.486,3.939,1.959,11.208,16.613,22.443,33.207,33.721,49.773,1.029,1.512,1.419,3.061,1.491,4.839.339,8.391.722,16.78,1.144,25.167.839,16.664,1.686,33.328,2.613,49.987.101,1.82-.801,2.685-2.049,3.637-15.841,12.088-31.658,24.206-47.481,36.318-.457.35-.874.761-1.36,1.065-2.035,1.274-1.921,2.27.02,3.739,11.673,8.839,23.256,17.797,34.882,26.698,1.829,1.4,3.66,2.812,5.595,4.055,11.463,7.365,18.345,18.941,26.724,29.118,7.467,9.068,14.641,18.378,21.926,27.595.606.767,1.886,1.491,1.231,2.551-.334.539-1.651.558-2.54.652-14.211,1.503-28.43,2.938-42.633,4.515-1.778.197-2.794-.562-3.9-1.602-11.24-10.569-22.497-21.12-33.735-31.692-13.5-12.699-26.991-25.408-40.464-38.134-.709-.67-1.319-1.214-2.39-.956-8.94,2.151-17.878,4.312-26.837,6.379-1.549.357-1.944,1.015-1.957,2.582-.157,19.076-.41,38.151-.626,57.226-.081,7.124-.22,14.249-.138,21.371.024,2.038-.776,2.508-2.548,2.714-13.975,1.618-27.947,3.264-41.905,5.024-2.306.291-3.049-.372-3.141-2.632-.476-11.609-1.024-23.216-1.623-34.82-.433-8.391-1.027-16.773-1.471-25.164-.839-15.855-1.608-31.714-2.434-47.57-.407-7.816-.931-15.625-1.31-23.442-1.082-22.312-2.971-44.567-4.66-66.835-1.55-20.442-3.505-40.853-5.037-61.296-.387-5.169-.757-10.339-1.341-15.486-.236-2.082.373-2.865,2.468-3.083,6.537-.68,13.055-1.538,19.58-2.327.037.305.075.611.112.916ZM271.235,106.657l-.072.009c1.826,15.106,3.703,30.205,5.43,45.322.295,2.581.824,3.676,3.886,3.616,7.109-.138,14.241.187,21.342.654,3.862.254,6.998-.647,10.168-2.941,11.935-8.641,24.031-17.063,36.121-25.488,1.709-1.191,2.445-2.593,2.438-4.601-.063-17.693-.119-35.387-.118-53.08,0-2.372-.786-4.025-2.723-5.539-8.533-6.671-16.987-13.447-25.344-20.337-1.967-1.622-3.828-1.774-6.052-1.125-15.986,4.664-31.954,9.396-47.99,13.882-2.494.698-2.968,1.572-2.66,3.977,1.946,15.206,3.734,30.433,5.574,45.653Z"/>
    <path class="cls-15" d="M259.834,16.556c19.794-2.393,39.556-5.12,59.395-7.058,12.505-1.221,24.957-2.934,37.479-3.9,6.437-.496,12.858-1.089,19.258-1.882,1.942-.241,2.945.486,3.939,1.959,11.208,16.613,22.443,33.207,33.721,49.773,1.029,1.512,1.419,3.061,1.491,4.839.339,8.391.722,16.78,1.144,25.167.839,16.664,1.686,33.328,2.613,49.987.101,1.82-.801,2.685-2.049,3.637-15.841,12.088-31.658,24.206-47.481,36.318-.457.35-.874.761-1.36,1.065-2.035,1.274-1.921,2.27.02,3.739,11.673,8.839,23.256,17.797,34.882,26.698,1.829,1.4,3.66,2.812,5.595,4.055,11.463,7.365,18.345,18.941,26.724,29.118,7.467,9.068,14.641,18.378,21.926,27.595.606.767,1.886,1.491,1.231,2.551-.334.539-1.651.558-2.54.652-14.211,1.503-28.43,2.938-42.633,4.515-1.778.197-2.794-.562-3.9-1.602-11.24-10.569-22.497-21.12-33.735-31.692-13.5-12.699-26.991-25.408-40.464-38.134-.709-.67-1.319-1.214-2.39-.956-8.94,2.151-17.878,4.312-26.837,6.379-1.549.357-1.944,1.015-1.957,2.582-.157,19.076-.41,38.151-.626,57.226-.081,7.124-.22,14.249-.138,21.371.024,2.038-.776,2.508-2.548,2.714-13.975,1.618-27.947,3.264-41.905,5.024-2.306.291-3.049-.372-3.141-2.632-.476-11.609-1.024-23.216-1.623-34.82-.433-8.391-1.027-16.773-1.471-25.164-.839-15.855-1.608-31.714-2.434-47.57-.407-7.816-.931-15.625-1.31-23.442-1.082-22.312-2.971-44.567-4.66-66.835-1.55-20.442-3.505-40.853-5.037-61.296-.387-5.169-.757-10.339-1.341-15.486-.236-2.082.373-2.865,2.468-3.083,6.537-.68,13.055-1.538,19.58-2.327.037.305.075.611.112.916ZM290.245,104.359l-.072.009c1.826,15.106,3.703,30.205,5.43,45.322.295,2.581.824,3.676,3.886,3.616,7.109-.138,14.241.187,21.342.654,3.862.254,6.998-.647,10.168-2.941,11.935-8.641,24.031-17.063,36.121-25.488,1.709-1.191,2.445-2.593,2.438-4.601-.063-17.693-.119-35.387-.118-53.08,0-2.372-.786-4.025-2.723-5.539-8.533-6.671-16.987-13.447-25.344-20.337-1.967-1.622-3.828-1.774-6.052-1.125-15.986,4.664-31.954,9.396-47.99,13.882-2.494.698-2.968,1.572-2.66,3.977,1.946,15.206,3.734,30.433,5.574,45.653Z"/>
  </g>
  <path class="cls-8" d="M169.824,235.297c-.795-10.799-1.604-21.08-2.269-31.37-.144-2.221-1.129-3.183-3.138-3.962-24.98-9.692-49.94-19.439-74.863-29.278-5.386-2.126-9.692-6.089-14.38-9.363-14.508-10.131-28.734-20.639-42.727-31.485-7.164-5.553-10.182-12.128-10-21.086.293-14.469,2.123-28.718,4.472-42.946.249-1.509,1.069-2.207,2.221-2.875,20.873-12.096,41.725-24.226,62.618-36.286,3.179-1.835,6.903-2.15,10.394-3.068,10.409-2.737,20.875-5.258,31.284-7.993,2.16-.568,4.115-.472,6.177.21,21.218,7.014,42.43,14.044,63.688,20.935,2.204.714,2.66,1.702,2.29,3.767-2.54,14.172-5.076,28.345-7.451,42.545-.381,2.279-.883,2.663-3.044,1.776-19.81-8.131-39.676-16.124-59.478-24.275-2.149-.885-3.734-.884-5.804.288-15.184,8.593-30.429,17.077-45.721,25.477-2.179,1.197-3.281,2.528-3.345,5.094-.121,4.8-.536,9.594-.918,14.384-.113,1.417.365,2.427,1.289,3.446,10.945,12.067,21.857,24.164,32.782,36.25,1.554,1.719,3.756,2.349,5.751,3.279,23.871,11.122,47.806,22.119,71.284,34.049,13.247,6.731,11.342,3.444,15.031,18.831,4.041,16.858,6.391,34.044,8.854,51.194.865,6.026,1.66,12.062,2.583,18.079.272,1.775.082,2.945-1.62,4.101-17.835,12.109-35.633,24.272-53.328,36.584-2.612,1.817-5.327,2.205-8.23,2.355-20.136,1.042-40.275,2.026-60.41,3.075-16.974.884-33.947,1.777-50.913,2.799-3.031.183-4.731-.634-6.313-3.458-11.787-21.047-23.758-41.993-35.822-62.883-1.379-2.387-.854-3.256,1.238-4.553,18.118-11.236,36.203-22.526,54.207-33.943,2.576-1.634,3.569-1.216,4.834,1.415,2.991,6.221,6.384,12.248,9.479,18.421,7.531,15.018,19.994,25.794,31.811,37.122,2.436,2.335,5.609,2.104,8.666,1.871,10.407-.793,20.67-2.633,30.949-4.35,3.348-.559,6.68-1.437,10.048-1.609,3.881-.198,6.239-2.102,8.083-5.257,4.164-7.125,6.879-14.854,9.616-22.577.602-1.699.146-3.494.129-4.728Z"/>
  <path class="cls-17" d="M192.54,235.297c-.795-10.799-1.604-21.08-2.269-31.37-.144-2.221-1.129-3.183-3.138-3.962-24.98-9.692-49.94-19.439-74.863-29.278-5.386-2.126-9.692-6.089-14.38-9.363-14.508-10.131-28.734-20.639-42.727-31.485-7.164-5.553-10.182-12.128-10-21.086.293-14.469,2.123-28.718,4.472-42.946.249-1.509,1.069-2.207,2.221-2.875,20.873-12.096,41.725-24.226,62.618-36.286,3.179-1.835,6.903-2.15,10.394-3.068,10.409-2.737,20.875-5.258,31.284-7.993,2.16-.568,4.115-.472,6.177.21,21.218,7.014,42.43,14.044,63.688,20.935,2.204.714,2.66,1.702,2.29,3.767-2.54,14.172-5.076,28.345-7.451,42.545-.381,2.279-.883,2.663-3.044,1.776-19.81-8.131-39.676-16.124-59.478-24.275-2.149-.885-3.734-.884-5.804.288-15.184,8.593-30.429,17.077-45.721,25.477-2.179,1.197-3.281,2.528-3.345,5.094-.121,4.8-.536,9.594-.918,14.384-.113,1.417.365,2.427,1.289,3.446,10.945,12.067,21.857,24.164,32.782,36.25,1.554,1.719,3.756,2.349,5.751,3.279,23.871,11.122,47.806,22.119,71.284,34.049,13.247,6.731,11.342,3.444,15.031,18.831,4.041,16.858,6.391,34.044,8.854,51.194.865,6.026,1.66,12.062,2.583,18.079.272,1.775.082,2.945-1.62,4.101-17.835,12.109-35.633,24.272-53.328,36.584-2.612,1.817-5.327,2.205-8.23,2.355-20.136,1.042-40.275,2.026-60.41,3.075-16.974.884-33.947,1.777-50.913,2.799-3.031.183-4.731-.634-6.313-3.458-11.787-21.047-23.758-41.993-35.822-62.883-1.379-2.387-.854-3.256,1.238-4.553,18.118-11.236,36.203-22.526,54.207-33.943,2.576-1.634,3.569-1.216,4.834,1.415,2.991,6.221,6.384,12.248,9.479,18.421,7.531,15.018,19.994,25.794,31.811,37.122,2.436,2.335,5.609,2.104,8.666,1.871,10.407-.793,20.67-2.633,30.949-4.35,3.348-.559,6.68-1.437,10.048-1.609,3.881-.198,6.239-2.102,8.083-5.257,4.164-7.125,6.879-14.854,9.616-22.577.602-1.699.146-3.494.129-4.728Z"/>
  <g>
    <path class="cls-5" d="M944.165,634.473c0-8.223.272-16.28-.073-24.31-.384-8.938-.248-17.87-.342-26.804-.119-11.324.01-22.65-.099-33.973-.258-26.681-1.756-53.322-2.602-79.984-.404-12.737-1.385-25.467-.968-38.226.309-9.441.309-9.323,9.599-7.484,7.562,1.497,15.175,2.753,22.792,3.945,3.084.483,4.231,1.457,3.864,5.009-.795,7.685-.715,15.456-1.213,23.178-1.14,17.668,1.186,35.153,2.848,52.649,2.08,21.901,1.076,43.767.275,65.653-.379,10.359-.325,20.723-.806,31.086-.625,13.445-.594,26.92-.981,40.378-.559,19.406-1.283,38.807-1.816,58.214-.069,2.495-.573,3.487-3.354,3.588-11.179.406-22.353,1.024-33.513,1.784-2.452.167-2.745-1.387-3.366-2.845-5.397-12.679-10.942-25.299-16.09-38.078-7.082-17.582-15.552-34.427-25.469-50.576-12.118-19.733-20.26-41.399-29.962-62.304-7.055-15.201-13.847-30.525-20.791-45.779-.402-.883-.509-2.652-1.742-2.244-1.55.513-3.54,1.035-3.993,3.091-.201.912-.07,1.899-.072,2.853-.038,19.907-.049,39.815-.114,59.722-.142,43.267-.323,86.534-.444,129.801-.006,2.338-.055,3.674-3.198,4.036-14.267,1.645-28.489,3.692-42.713,5.69-1.549.218-2.327.143-2.036-1.609,1.282-7.712.367-15.432.148-23.155-.199-7.029-.122-14.065-.249-21.097-.505-27.996-1.033-55.992-1.571-83.988-.436-22.635-.89-45.269-1.362-67.903-.067-3.213-.114-6.441-.451-9.632-1.734-16.406,2.311-32.097,5.763-47.87,2.358-10.773,4.707-21.548,6.941-32.347.459-2.218,1.305-3.047,3.709-3.124,10.233-.326,20.462-.841,30.681-1.473,2.658-.164,3.952.688,5.139,3.106,17.081,34.796,33.591,69.875,51.434,104.294,18.118,34.951,36.331,69.853,54.525,104.765.346.664.458,1.615,1.673,1.962Z"/>
    <g>
      <polygon class="cls-12" points="797.736 734.754 714.257 734.754 701.195 671.475 651.397 671.475 610.518 752.602 519.471 752.602 595.397 400.512 751.993 400.512 797.736 734.754"/>
      <path class="cls-7" d="M746.987,714.734c-3.081,1.233-4.124-.884-5.079-4.018-6.307-20.705-12.838-41.342-19.133-62.05-.713-2.344-1.608-3.133-4.045-3.176-20.278-.358-40.553-.857-60.829-1.311-1.29-.029-2.658.233-3.857-.108-6.025-1.711-8.53,1.666-11.133,6.449-11.698,21.502-23.781,42.794-35.656,64.2-1.014,1.827-2.048,2.753-4.303,2.735-13.838-.11-27.677-.106-41.515-.01-2.611.018-3.087-.627-2.537-3.231,6.239-29.524,12.364-59.072,18.475-88.624,9.45-45.7,18.865-91.407,28.294-137.112,2.127-10.309,4.186-20.633,6.434-30.916.465-2.129,1.49-4.177,2.495-6.14,4.057-7.921,8.261-15.767,12.287-23.704,1.032-2.035,2.324-2.816,4.64-2.864,22.035-.463,44.067-1.027,66.099-1.608,13.592-.358,27.184-.744,40.771-1.244,2.629-.097,3.525.586,3.903,3.385,2.789,20.639,5.815,41.247,8.787,61.861,2.856,19.804,5.598,39.625,8.644,59.4,3.437,22.316,7.135,44.592,10.762,66.878,3.665,22.516,7.381,45.023,11.077,67.534,1.535,9.35,3.04,18.705,4.647,28.043.287,1.67.312,2.59-1.804,2.742-12.265.882-24.522,1.88-37.428,2.89ZM691.122,462.197c-4.779.223-9.696.372-14.596.741-1.17.088-2.783.59-3.346,1.453-4.26,6.536-10.094,12.711-12.11,19.928-7.793,27.896-14.353,56.136-21.329,84.258-.202.813-.214,2.328.187,2.533,4.067,2.081,7.355,5.92,12.57,5.478,6.18-.523,12.377-.836,18.564-1.277,10.974-.783,21.974-1.324,32.91-2.474,10.021-1.053,10.186-1.382,8.442-11.482-5.529-32.019-11.228-64.009-16.826-96.016-.448-2.562-1.386-4.18-4.467-3.144Z"/>
    </g>
    <g>
      <path class="cls-1" d="M998.94,712.356c1.896-16.445,3.811-31.902,5.433-47.39,2.67-25.503,6.529-50.882,7.56-76.558.696-17.326,1.921-34.63,2.841-51.948.121-2.28.564-3.297,3.313-3.589,14.701-1.562,29.255.736,43.87,1.277,5.5.204,10.985.856,16.485,1.023,2.408.073,3.234.659,3.02,3.202-1.13,13.425-2.118,26.862-3.119,40.298-.696,9.344-1.656,18.667-1.766,28.054-.417,35.749-.914,71.498-1.375,107.247-.059,4.6-.049,4.633-4.62,4.111-12.448-1.423-24.888-2.916-37.341-4.301-5.616-.625-11.221.301-16.835.405-4.567.085-9.158.22-13.681.792-3.205.406-4.471-.301-3.784-2.624Z"/>
      <path class="cls-1" d="M1045.173,507.136c-7.499,0-15-.076-22.497.051-1.966.033-2.835-.724-3.715-2.372-9.447-17.678-15.216-36.619-19.562-56.072-.37-1.655.054-2.574,1.293-3.574,9.384-7.575,18.745-15.18,28.053-22.848,1.435-1.182,2.912-1.334,4.574-1.073,16.296,2.564,32.587,5.155,48.891,7.666,1.448.223,2.27.996,3.101,2.02,4.796,5.911,9.588,11.826,14.456,17.678,1.202,1.445,1.707,2.895,1.554,4.795-1.035,12.839-2.015,25.684-2.911,38.534-.11,1.579-.844,2.182-2.107,2.795-7.885,3.832-15.745,7.718-23.586,11.639-1.727.864-3.473,1.203-5.4,1.185-7.381-.068-14.763-.027-22.144-.027,0-.132,0-.265,0-.397Z"/>
    </g>
    <g>
      <polygon class="cls-3" points="530.829 714.541 439.967 718.309 446.901 647.137 396.279 697.436 352.35 625.322 352.35 734.754 272.846 734.754 259.215 410.247 342.837 400.512 395.022 532.336 431.855 400.512 518.017 400.512 530.829 714.541"/>
      <path class="cls-11" d="M398.699,601.77c2.184-9.49,4.262-18.365,6.267-27.256,8.368-37.102,16.715-74.209,25.068-111.314,2.802-12.445,5.665-24.877,8.344-37.348.578-2.691,49.254-6.135,71.609-7.425,2.606-.15,2.205,1.27,2.221,2.766.206,19.819.448,39.638.613,59.458.577,69.311,1.125,138.623,1.692,207.934.025,3.049.009,6.106.241,9.142.163,2.134-.76,2.876-2.697,3.206-5.654.961-11.271,2.149-16.933,3.059-3.844.617-7.7-.244-11.549-.414-6.556-.289-13.095-.952-19.65-1.249-2.285-.104-3.283-.537-3.183-3.161,1.16-30.582,2.225-61.169,3.269-91.755.612-17.931,1.176-35.864,1.687-53.798.143-5.014.022-10.035.022-15.127-2.486,5.303-5.053,10.725-7.575,16.167-16.186,34.936-32.382,69.866-48.49,104.838-.972,2.111-2.081,2.943-4.423,2.936-4.332-.013-8.673.268-12.995.618-1.955.158-2.9-.52-3.733-2.27-14.042-29.481-28.156-58.929-42.248-88.386-5.152-10.768-10.287-21.544-15.437-32.313-.336-.703-.74-1.375-1.774-1.933.347,6.917.673,13.835,1.046,20.751.853,15.803,1.733,31.605,2.596,47.408,1.316,24.115,2.629,48.23,3.94,72.345.554,10.185,1.034,20.374,1.702,30.552.158,2.408-.461,3.212-2.947,3.321-12.531.551-25.056,1.247-37.576,2.005-2.179.132-2.878-.676-3.059-2.699-1.853-20.776-3.772-41.546-5.65-62.319-1.551-17.155-3.077-34.313-4.606-51.47-1.769-19.843-3.517-39.687-5.297-59.529-1.759-19.608-3.55-39.213-5.32-58.82-1.432-15.872-2.813-31.75-4.324-47.615-.223-2.338,1.114-2.078,2.529-2.14,8.082-.355,16.162-.757,24.245-1.085,13.942-.566,27.889-1.022,41.825-1.689,2.642-.126,3.819.526,4.675,3.19,10.13,31.521,20.411,62.993,30.656,94.478,8,24.587,16.004,49.173,24.013,73.758.281.863.64,1.7,1.205,3.185Z"/>
    </g>
    <g>
      <path class="cls-14" d="M227.413,659.253c20.405,0,40.81.049,61.215-.062,2.548-.014,3.153.745,3.021,3.155-.669,12.176-1.256,24.357-1.729,36.542-.098,2.523-.895,3.611-3.505,4.113-17.01,3.275-33.98,6.758-50.973,10.122-1.707.338-3.489.53-5.224.466-26.272-.978-52.526-.323-78.778.741-13.247.537-26.5.33-39.752.327-3.156,0-5.422-1.046-7.447-3.625-4.556-5.804-9.459-11.337-14.236-16.966-.911-1.074-1.73-2.056-1.783-3.654-1.042-31.288-3.614-62.544-3.345-93.851.287-33.412,1.278-66.836,2.854-100.212.705-14.925,3.616-29.741,8.312-44.068.327-.998.769-1.958,1.123-2.948,1.395-3.906,3.879-5.724,8.292-6.154,37.551-3.658,74.966-8.538,112.435-12.933,14.427-1.692,28.837-3.539,43.244-5.39,2.613-.336,4.156-.027,4.997,3.035,3.41,12.404,7.059,24.744,10.824,37.045.812,2.654.35,3.588-2.366,4.152-22.229,4.614-44.434,9.35-66.647,14.043-16.03,3.386-32.055,6.794-48.1,10.106-2.162.446-3.027,1.082-2.805,3.594,1.785,20.199,3.463,40.408,4.956,60.63.216,2.925,1.769,2.398,3.457,2.357,27.434-.667,54.869-1.275,82.299-2.093,3.368-.101,4.337.754,4.46,4.112.375,10.19,1.073,20.371,1.799,30.544.144,2.024-.34,2.551-2.355,2.732-28.482,2.557-56.959,5.167-85.426,7.885-5.723.547-4.592-.122-4.411,5.03.594,16.876,1.267,33.749,1.693,50.629.076,3.002.906,3.586,3.784,3.398,20.015-1.308,40.069-1.602,60.12-1.931,0-.29-.002-.58-.003-.87Z"/>
      <path class="cls-6" d="M240.393,659.253c20.405,0,40.81.049,61.215-.062,2.548-.014,3.153.745,3.021,3.155-.669,12.176-1.256,24.357-1.729,36.542-.098,2.523-.895,3.611-3.505,4.113-17.01,3.275-33.98,6.758-50.973,10.122-1.707.338-3.489.53-5.224.466-26.272-.978-52.526-.323-78.778.741-13.247.537-26.5.33-39.752.327-3.156,0-5.422-1.046-7.447-3.625-4.556-5.804-9.459-11.337-14.236-16.966-.911-1.074-1.73-2.056-1.783-3.654-1.042-31.288-3.614-62.544-3.345-93.851.287-33.412,1.278-66.836,2.854-100.212.705-14.925,3.616-29.741,8.312-44.068.327-.998.769-1.958,1.123-2.948,1.395-3.906,3.879-5.724,8.292-6.154,37.551-3.658,74.966-8.538,112.435-12.933,14.427-1.692,28.837-3.539,43.244-5.39,2.613-.336,4.156-.027,4.997,3.035,3.41,12.404,7.059,24.744,10.824,37.045.812,2.654.35,3.588-2.366,4.152-22.229,4.614-44.434,9.35-66.647,14.043-16.03,3.386-32.055,6.794-48.1,10.106-2.162.446-3.027,1.082-2.805,3.594,1.785,20.199,3.463,40.408,4.956,60.63.216,2.925,1.769,2.398,3.457,2.357,27.434-.667,54.869-1.275,82.299-2.093,3.368-.101,4.337.754,4.46,4.112.375,10.19,1.073,20.371,1.799,30.544.144,2.024-.34,2.551-2.355,2.732-28.482,2.557-56.959,5.167-85.426,7.885-5.723.547-4.592-.122-4.411,5.03.594,16.876,1.267,33.749,1.693,50.629.076,3.002.906,3.586,3.784,3.398,20.015-1.308,40.069-1.602,60.12-1.931,0-.29-.002-.58-.003-.87Z"/>
    </g>
  </g>
</svg>