<?xml version="1.0" encoding="UTF-8"?>
<svg id="Layer_1" data-name="Layer 1" xmlns="http://www.w3.org/2000/svg" viewBox="0 0 3013.777 426.846">
  <defs>
    <style>
      .cls-1 {
        fill: #db3c7e;
      }

      .cls-2 {
        fill: #e9c170;
      }

      .cls-3 {
        fill: #4a79af;
      }

      .cls-4 {
        fill: #eb5f5f;
      }

      .cls-5 {
        fill: #282023;
      }

      .cls-6 {
        fill: #f4f4f5;
        stroke: #60a6db;
        stroke-width: 6px;
      }

      .cls-6, .cls-7, .cls-8, .cls-9 {
        stroke-miterlimit: 10;
      }

      .cls-10 {
        fill: #e2b8d6;
      }

      .cls-11 {
        fill: #e27e26;
      }

      .cls-12 {
        fill: #c4d93d;
      }

      .cls-13 {
        fill: #fbfcfc;
      }

      .cls-14 {
        fill: #f3d033;
      }

      .cls-7 {
        fill: #eaeae8;
        stroke: #edebc7;
      }

      .cls-7, .cls-8 {
        stroke-width: 3px;
      }

      .cls-15 {
        fill: #1e1d1e;
      }

      .cls-16 {
        fill: #fff;
      }

      .cls-17 {
        fill: #f47a5d;
      }

      .cls-18 {
        fill: #eeef9b;
      }

      .cls-19 {
        fill: #fdfefe;
      }

      .cls-8 {
        fill: #539991;
        stroke: #e9c170;
      }

      .cls-20 {
        fill: #ab78b4;
      }

      .cls-9 {
        fill: #e8ebee;
        stroke: #4a79af;
      }

      .cls-21 {
        fill: #c08dbf;
      }
    </style>
  </defs>
  <g>
    <path class="cls-15" d="M.073,68.845c.001-15.457.09-30.914-.072-46.368-.033-3.141.977-4.426,3.943-5.504,8.454-3.071,17.117-4.349,26.044-4.35,11.477-.001,22.955.02,34.43-.109,2.644-.03,3.599.629,3.839,3.519,2.614,31.459,1.994,62.974,1.4,94.461-.268,14.219-.355,28.438-.598,42.656-.575,33.635-2.012,67.245-2.199,100.898-.098,17.575-.207,35.17-.629,52.751-.06,2.495.597,3.812,3.154,4.662,17.063,5.675,33.658,12.871,51.623,15.576,4.587.691,8.708,2.829,12.87,4.696,2.852,1.279,4.954.921,7.544-.811,12.599-8.423,22.535-19.615,32.42-30.842,2.075-2.356,3.335-5.458,4.833-8.289,5.36-10.133,10.589-20.336,16.033-30.424,1.435-2.659,1.965-5.308,2.055-8.282.579-19.097,1.256-38.191,1.976-57.283.795-21.068,2.085-42.128,2.375-63.202.223-16.177-1.879-32.293-3.234-48.416-.772-9.189-.078-18.32.887-27.451,1.203-11.377,2.438-22.753,3.479-34.145.549-6.007.472-6.14,6.367-6.161,11.766-.041,23.529-.439,35.286.757,3.711.377,4.941,1.782,5.124,5.384,1.179,23.187,2.074,46.402,3.942,69.537,2.542,31.481,1.677,62.98,1.258,94.463-.234,17.584-.595,35.175-.475,52.757.102,14.903-2.842,29.445-4.129,44.175-1.552,17.785-11.125,32.817-16.664,49.229-3.268,9.682-7.548,19.018-11.149,28.595-1.071,2.848-2.482,4.323-5.607,5.116-18.477,4.688-36.817,9.927-55.328,14.47-8.356,2.051-17.005,1.429-25.471-.14-35.821-6.638-71.62-13.397-107.462-19.919-3.12-.568-4.357-1.936-5.261-4.692-5.811-17.703-11.759-35.36-17.655-53.035-.63-1.889-1.021-3.797-1.051-5.828-.353-23.858-.53-47.722-1.218-71.571-1.001-34.703-1.407-69.413-1.993-104.122-.297-17.587-.143-35.175-.687-52.757Z"/>
    <path class="cls-20" d="M13.947,68.893c.001-15.457.09-30.914-.072-46.368-.033-3.141.977-4.426,3.943-5.504,8.454-3.071,17.117-4.349,26.044-4.35,11.477-.001,22.955.02,34.43-.109,2.644-.03,3.599.629,3.839,3.519,2.614,31.459,1.994,62.974,1.4,94.461-.268,14.219-.355,28.438-.598,42.656-.575,33.635-2.012,67.245-2.199,100.898-.098,17.575-.207,35.17-.629,52.751-.06,2.495.597,3.812,3.154,4.662,17.063,5.675,33.658,12.871,51.623,15.576,4.587.691,8.708,2.829,12.87,4.696,2.852,1.279,4.954.921,7.544-.811,12.599-8.423,22.535-19.615,32.42-30.842,2.075-2.356,3.335-5.458,4.833-8.289,5.36-10.133,10.589-20.336,16.033-30.424,1.435-2.659,1.965-5.308,2.055-8.282.579-19.097,1.256-38.191,1.976-57.283.795-21.068,2.085-42.128,2.375-63.202.223-16.177-1.879-32.293-3.234-48.416-.772-9.189-.078-18.32.887-27.451,1.203-11.377,2.438-22.753,3.479-34.145.549-6.007.472-6.14,6.367-6.161,11.766-.041,23.529-.439,35.286.757,3.711.377,4.941,1.782,5.124,5.384,1.179,23.187,2.074,46.402,3.942,69.537,2.542,31.481,1.677,62.98,1.258,94.463-.234,17.584-.595,35.175-.475,52.757.102,14.903-2.842,29.445-4.129,44.175-1.552,17.785-11.125,32.817-16.664,49.229-3.268,9.682-7.548,19.018-11.149,28.595-1.071,2.848-2.482,4.323-5.607,5.116-18.477,4.688-36.817,9.927-55.328,14.47-8.356,2.051-17.005,1.429-25.471-.14-35.821-6.638-71.62-13.397-107.462-19.919-3.12-.568-4.357-1.936-5.261-4.692-5.811-17.703-11.759-35.36-17.655-53.035-.63-1.889-1.021-3.797-1.051-5.828-.353-23.858-.53-47.722-1.218-71.571-1.001-34.703-1.407-69.413-1.993-104.122-.297-17.587-.143-35.175-.687-52.757Z"/>
  </g>
  <g>
    <path class="cls-16" d="M1243.998,371.599c-4.841.122-8.522-1.716-12.321-4.883-26.791-22.338-46.438-50.892-68.236-77.573-7.822-9.574-15.473-19.288-23.213-28.929-.812-1.012-1.373-2.819-2.966-.477-7.302,10.739-16.547,19.869-24.967,29.674-18.453,21.493-37.276,42.668-55.765,64.131-2.54,2.948-5.76,3.849-8.926,5.445-9.497,4.787-17.963,1.687-25.797-3.329-5.885-3.768-10.963-8.808-16.346-13.346-2.073-1.748-.066-3.155.731-4.44,11.807-19.062,23.638-38.108,35.541-57.11,16.863-26.919,33.206-54.166,50.725-80.669,1.845-2.791.187-4.211-1.127-5.979-19.993-26.883-40.005-53.752-60.01-80.626-17.858-23.99-35.664-48.018-53.629-71.927-2.257-3.003-2.349-4.111,1.578-5.209,8.843-2.473,17.606-5.259,26.319-8.164,3.874-1.292,7.909-1.397,11.813-2.321,2.264-.536,3.389,1.054,4.69,2.378,32.77,33.345,65.542,66.689,98.319,100.028,3.328,3.385,6.694,6.734,10.036,10.105,1.086,1.095,1.714,2.022,3.089-.139,9.1-14.297,18.361-28.492,27.657-42.664,16.321-24.88,32.751-49.69,48.992-74.622,1.604-2.462,2.998-2.722,5.537-1.849,7.057,2.427,14.094,5.043,21.331,6.787,11.287,2.72,20.459,8.455,28.214,16.979,1.884,2.071.811,3.182.09,4.817-16.354,37.117-38.573,70.853-60.353,104.848-9.381,14.643-18.535,29.432-28.005,44.017-1.318,2.03-.234,2.879.617,4.033,10.152,13.773,20.356,27.507,30.523,41.269,17.344,23.475,34.867,46.821,51.862,70.546,3.99,5.57,7.896,11.227,12.035,16.697,1.451,1.918,1.123,3.396.486,5.488-4.252,13.962-13.875,24.262-23.251,34.76-1.448,1.622-3.291,2.195-5.272,2.254Z"/>
    <path class="cls-14" d="M1249.293,376.117c-4.841.122-8.522-1.716-12.321-4.883-26.791-22.338-46.438-50.892-68.236-77.573-7.822-9.574-15.473-19.288-23.213-28.929-.812-1.012-1.373-2.819-2.966-.477-7.302,10.739-16.547,19.869-24.967,29.674-18.453,21.493-37.276,42.668-55.765,64.131-2.54,2.948-5.76,3.849-8.926,5.445-9.497,4.787-17.963,1.687-25.797-3.329-5.885-3.768-10.963-8.808-16.346-13.346-2.073-1.748-.066-3.155.731-4.44,11.807-19.062,23.638-38.108,35.541-57.11,16.863-26.919,33.206-54.166,50.725-80.669,1.845-2.791.187-4.211-1.127-5.979-19.993-26.883-40.005-53.752-60.01-80.626-17.858-23.99-35.664-48.018-53.629-71.927-2.257-3.003-2.349-4.111,1.578-5.209,8.843-2.473,17.606-5.259,26.319-8.164,3.874-1.292,7.909-1.397,11.813-2.321,2.264-.536,3.389,1.054,4.69,2.378,32.77,33.345,65.542,66.689,98.319,100.028,3.328,3.385,6.694,6.734,10.036,10.105,1.086,1.095,1.714,2.022,3.089-.139,9.1-14.297,18.361-28.492,27.657-42.664,16.321-24.88,32.751-49.69,48.992-74.622,1.604-2.462,2.998-2.722,5.537-1.849,7.057,2.427,14.094,5.043,21.331,6.787,11.287,2.72,20.459,8.455,28.214,16.979,1.884,2.071.811,3.182.09,4.817-16.354,37.117-38.573,70.853-60.353,104.848-9.381,14.643-18.535,29.432-28.005,44.017-1.318,2.03-.234,2.879.617,4.033,10.152,13.773,20.356,27.507,30.523,41.269,17.344,23.475,34.867,46.821,51.862,70.546,3.99,5.57,7.896,11.227,12.035,16.697,1.451,1.918,1.123,3.396.486,5.488-4.252,13.962-13.875,24.262-23.251,34.76-1.448,1.622-3.291,2.195-5.272,2.254Z"/>
  </g>
  <g>
    <g>
      <path class="cls-21" d="M302.739,346.836c1.987-17.233,3.994-33.431,5.693-49.662,2.798-26.725,6.841-53.322,7.923-80.228.73-18.156,2.014-36.29,2.978-54.438.127-2.39.591-3.455,3.471-3.761,15.406-1.637,30.657.771,45.973,1.338,5.764.214,11.511.897,17.275,1.072,2.523.077,3.389.69,3.164,3.355-1.185,14.069-2.219,28.15-3.269,42.23-.73,9.792-1.736,19.562-1.85,29.399-.437,37.463-.958,74.925-1.441,112.388-.062,4.821-.051,4.856-4.842,4.308-13.045-1.491-26.081-3.056-39.13-4.507-5.885-.655-11.759.315-17.642.425-4.785.089-9.598.23-14.337.83-3.359.426-4.686-.316-3.966-2.75Z"/>
      <path class="cls-21" d="M351.187,131.778c-7.859,0-15.719-.079-23.575.054-2.06.035-2.97-.759-3.893-2.485-9.9-18.525-15.946-38.374-20.5-58.76-.387-1.734.057-2.698,1.355-3.745,9.834-7.938,19.643-15.908,29.398-23.944,1.504-1.239,3.052-1.398,4.793-1.124,17.077,2.687,34.149,5.402,51.235,8.034,1.518.234,2.379,1.044,3.25,2.117,5.026,6.194,10.048,12.393,15.149,18.525,1.26,1.514,1.789,3.034,1.629,5.025-1.085,13.455-2.111,26.915-3.05,40.381-.115,1.655-.885,2.286-2.208,2.929-8.263,4.015-16.499,8.088-24.716,12.197-1.81.905-3.639,1.26-5.659,1.242-7.735-.071-15.47-.029-23.205-.029,0-.139,0-.277,0-.416Z"/>
    </g>
    <g>
      <path class="cls-1" d="M308.437,346.876c1.987-17.233,3.994-33.431,5.693-49.662,2.798-26.725,6.841-53.322,7.923-80.228.73-18.156,2.014-36.29,2.978-54.438.127-2.39.591-3.455,3.471-3.761,15.406-1.637,30.657.771,45.973,1.338,5.764.214,11.511.897,17.275,1.072,2.523.077,3.389.69,3.164,3.355-1.185,14.069-2.219,28.15-3.269,42.23-.73,9.792-1.736,19.562-1.85,29.399-.437,37.463-.958,74.925-1.441,112.388-.062,4.821-.051,4.856-4.842,4.308-13.045-1.491-26.081-3.056-39.13-4.507-5.885-.655-11.759.315-17.642.425-4.785.089-9.598.23-14.337.83-3.359.426-4.686-.316-3.966-2.75Z"/>
      <path class="cls-1" d="M356.886,131.818c-7.859,0-15.719-.079-23.575.054-2.06.035-2.97-.759-3.893-2.485-9.9-18.525-15.946-38.374-20.5-58.76-.387-1.734.057-2.698,1.355-3.745,9.834-7.938,19.643-15.908,29.398-23.944,1.504-1.239,3.052-1.398,4.793-1.124,17.077,2.687,34.149,5.402,51.235,8.034,1.518.234,2.379,1.044,3.25,2.117,5.026,6.194,10.048,12.393,15.149,18.525,1.26,1.514,1.789,3.034,1.629,5.025-1.085,13.455-2.111,26.915-3.05,40.381-.115,1.655-.885,2.286-2.208,2.929-8.263,4.015-16.499,8.088-24.716,12.197-1.81.905-3.639,1.26-5.659,1.242-7.735-.071-15.47-.029-23.205-.029,0-.139,0-.277,0-.416Z"/>
    </g>
  </g>
  <path class="cls-18" d="M958.288,212.33c.544,33.735,1.052,67.471,1.688,101.204.065,3.461-.746,6.179-3.035,8.872-11.515,13.55-22.856,27.249-34.231,40.918-1.342,1.613-2.864,2.561-5.03,2.796-18.368,1.992-36.74,3.976-54.997,6.858-14.258,2.25-28.361-.46-42.523-1.241-4.255-.235-8.491-1.165-12.734-1.149-4.245.016-7.641-1.535-11.041-3.775-15.327-10.096-30.691-20.137-46.129-30.062-2.254-1.449-3.382-3.205-3.869-5.713-5.934-30.534-12.106-61.025-17.747-91.613-1.726-9.361-.962-19.024-1.164-28.556-.586-27.611-.836-55.236-1.938-82.827-1.237-30.988-3.226-61.946-4.976-92.912-.305-5.389-.999-10.759-1.607-16.128-.264-2.328.374-3.302,2.942-3.252,18.219.352,36.439.608,54.66.806,2.253.024,2.966.817,2.872,3.019-1.035,24.175-.692,48.388-2.057,72.555-.441,7.813-.602,15.642-.93,23.462-1.224,29.141-2.837,58.271-3.592,87.424-.719,27.754.264,55.522.932,83.277.086,3.552.619,7.097.648,10.647.028,3.453,2.688,4.92,4.762,6.675,13.689,11.586,27.729,22.753,42.463,32.974,16.124,11.186,11.003,10.232,28.212,3.382,20.726-8.25,41.19-17.156,61.838-25.606,2.982-1.221,3.999-2.727,3.845-5.94-1.181-24.588-2.216-49.183-3.239-73.779-.698-16.779-1.258-33.563-1.961-50.341-1.316-31.419-2.74-62.833-4.023-94.253-.842-20.62-1.481-41.248-2.324-61.868-.086-2.096.584-2.702,2.495-3.001,13.193-2.068,26.38-4.173,39.543-6.423,2.199-.376,2.65.226,2.814,2.255,1.665,20.552,3.022,41.139,5.238,61.633,3.467,32.064,2.984,64.233,3.448,96.382.16,11.098.025,22.201.025,33.302.24,0,.481,0,.721,0Z"/>
  <path class="cls-12" d="M974.922,214.916c.544,33.735,1.052,67.471,1.688,101.204.065,3.461-.746,6.179-3.035,8.872-11.515,13.55-22.856,27.249-34.231,40.918-1.342,1.613-2.864,2.561-5.03,2.796-18.368,1.992-36.74,3.976-54.997,6.858-14.258,2.25-28.361-.46-42.523-1.241-4.255-.235-8.491-1.165-12.734-1.149-4.245.016-7.641-1.535-11.041-3.775-15.327-10.096-30.691-20.137-46.129-30.062-2.254-1.449-3.382-3.205-3.869-5.713-5.934-30.534-12.106-61.025-17.747-91.613-1.726-9.361-.962-19.024-1.164-28.556-.586-27.611-.836-55.236-1.938-82.827-1.237-30.988-3.226-61.946-4.976-92.912-.305-5.389-.999-10.759-1.607-16.128-.264-2.328.374-3.302,2.942-3.252,18.219.352,36.439.608,54.66.806,2.253.024,2.966.817,2.872,3.019-1.035,24.175-.692,48.388-2.057,72.555-.441,7.813-.602,15.642-.93,23.462-1.224,29.141-2.837,58.271-3.592,87.424-.719,27.754.264,55.522.932,83.277.086,3.552.619,7.097.648,10.647.028,3.453,2.688,4.92,4.762,6.675,13.689,11.586,27.729,22.753,42.463,32.974,16.124,11.186,11.003,10.232,28.212,3.382,20.726-8.25,41.19-17.156,61.838-25.606,2.982-1.221,3.999-2.727,3.845-5.94-1.181-24.588-2.216-49.183-3.239-73.779-.698-16.779-1.258-33.563-1.961-50.341-1.316-31.419-2.74-62.833-4.023-94.253-.842-20.62-1.481-41.248-2.324-61.868-.086-2.096.584-2.702,2.495-3.001,13.193-2.068,26.38-4.173,39.543-6.423,2.199-.376,2.65.226,2.814,2.255,1.665,20.552,3.022,41.139,5.238,61.633,3.467,32.064,2.984,64.233,3.448,96.382.16,11.098.025,22.201.025,33.302.24,0,.481,0,.721,0Z"/>
  <g>
    <g>
      <path class="cls-19" d="M2519.987,227.625c-1.085,25.197-2.133,50.396-3.305,75.589-.129,2.769.54,3.754,3.474,4.168,27.953,3.944,55.878,8.088,83.811,12.174,16.571,2.424,33.166,4.691,49.695,7.376,4.356.708,5.692-.056,6.098-4.674,1.09-12.386,2.754-24.727,4.437-37.051.516-3.776-.571-5.196-4.37-6.008-18.857-4.028-37.623-8.484-56.473-12.543-3.47-.747-4.207-1.815-3.293-5.259,3.393-12.779,6.51-25.632,9.608-38.487.695-2.885,1.904-4.436,5.059-5.298,30.132-8.227,60.21-16.656,90.27-25.144,2.944-.831,4.205-.236,5.131,2.722,6.47,20.673,13.069,41.305,19.703,61.926.717,2.228.675,4.416.409,6.614-3.446,28.498-6.967,56.988-10.36,85.492-.249,2.093-1.235,3.032-2.921,3.863-26.597,13.099-53.191,26.204-79.734,39.411-2.02,1.005-3.636.5-5.468-.05-43.8-13.131-87.605-26.25-131.409-39.37-5.189-1.554-10.325-3.333-15.589-4.573-3.473-.818-5.33-2.606-6.633-5.889-10.695-26.947-21.537-53.837-32.37-80.729-.795-1.974-1.023-3.957-1.022-6.056.017-39.6-.11-79.201.068-118.8.045-10.101,3.686-19.684,5.767-29.478,3.511-16.518,7.493-32.935,11.121-49.43.504-2.294,1.522-3.511,3.564-4.542,29.883-15.087,59.739-30.23,89.551-45.456,2.814-1.437,5.581-2.106,8.689-1.858,21.799,1.737,43.601,3.441,65.403,5.15,10.82.848,21.637,1.748,32.465,2.477,2.655.179,4.884.834,7.011,2.517,12.265,9.703,24.572,19.355,36.967,28.89,2.201,1.693,3.231,3.704,3.802,6.287,5.258,23.804,10.487,47.616,15.978,71.367.821,3.552-.028,4.474-3.355,4.608-17.551.704-35.097,1.505-52.644,2.292-4.784.215-9.585.315-14.341.819-3.105.329-4.147-.778-4.489-3.753-1.636-14.258-3.409-28.502-5.224-42.739-.582-4.563.706-10.441-2.275-13.32-2.829-2.733-8.489-.525-12.87-.34-18.184.768-36.355,1.844-54.535,2.698-2.043.096-3.116.967-4.151,2.56-15.477,23.8-30.981,47.582-46.556,71.318-1.243,1.895-1.324,3.835-1.416,5.902-1.107,24.875-2.231,49.749-3.35,74.624.025.001.05.002.075.003Z"/>
      <path class="cls-17" d="M2532.066,227.625c-1.085,25.197-2.133,50.396-3.305,75.589-.129,2.769.54,3.754,3.474,4.168,27.953,3.944,55.878,8.088,83.811,12.174,16.571,2.424,33.166,4.691,49.695,7.376,4.356.708,5.692-.056,6.098-4.674,1.09-12.386,2.754-24.727,4.437-37.051.516-3.776-.571-5.196-4.37-6.008-18.857-4.028-37.623-8.484-56.473-12.543-3.47-.747-4.207-1.815-3.293-5.259,3.393-12.779,6.51-25.632,9.608-38.487.695-2.885,1.904-4.436,5.059-5.298,30.132-8.227,60.21-16.656,90.27-25.144,2.944-.831,4.205-.236,5.131,2.722,6.47,20.673,13.069,41.305,19.703,61.926.717,2.228.675,4.416.409,6.614-3.446,28.498-6.967,56.988-10.36,85.492-.249,2.093-1.235,3.032-2.921,3.863-26.597,13.099-53.191,26.204-79.734,39.411-2.02,1.005-3.636.5-5.468-.05-43.8-13.131-87.605-26.25-131.409-39.37-5.189-1.554-10.325-3.333-15.589-4.573-3.473-.818-5.33-2.606-6.633-5.889-10.695-26.947-21.537-53.837-32.37-80.729-.795-1.974-1.023-3.957-1.022-6.056.017-39.6-.11-79.201.068-118.8.045-10.101,3.686-19.684,5.767-29.478,3.511-16.518,7.493-32.935,11.121-49.43.504-2.294,1.522-3.511,3.564-4.542,29.883-15.087,59.739-30.23,89.551-45.456,2.814-1.437,5.581-2.106,8.689-1.858,21.799,1.737,43.601,3.441,65.403,5.15,10.82.848,21.637,1.748,32.465,2.477,2.655.179,4.884.834,7.011,2.517,12.265,9.703,24.572,19.355,36.967,28.89,2.201,1.693,3.231,3.704,3.802,6.287,5.258,23.804,10.487,47.616,15.978,71.367.821,3.552-.028,4.474-3.355,4.608-17.551.704-35.097,1.505-52.644,2.292-4.784.215-9.585.315-14.341.819-3.105.329-4.147-.778-4.489-3.753-1.636-14.258-3.409-28.502-5.224-42.739-.582-4.563.706-10.441-2.275-13.32-2.829-2.733-8.489-.525-12.87-.34-18.184.768-36.355,1.844-54.535,2.698-2.043.096-3.116.967-4.151,2.56-15.477,23.8-30.981,47.582-46.556,71.318-1.243,1.895-1.324,3.835-1.416,5.902-1.107,24.875-2.231,49.749-3.35,74.624.025.001.05.002.075.003Z"/>
    </g>
    <g>
      <path class="cls-2" d="M1599.545,10.548c24.62,2.427,49.231,4.94,73.867,7.19,3.736.341,6.355,1.569,8.812,4.39,22.034,25.308,44.237,50.469,66.278,75.772,5.02,5.763,7.369,13.135,10.793,19.833,8.382,16.395,16.312,33.022,24.76,49.383,2.534,4.908,3.262,9.648,2.347,14.976-3.44,20.027-6.742,40.077-10.094,60.119-4.339,25.945-8.821,51.867-12.91,77.851-.975,6.196-3.058,10.864-8.135,15.035-22.524,18.506-44.673,37.47-66.924,56.308-1.636,1.385-3.241,2.131-5.486,2.121-28.816-.127-57.632-.155-86.447-.195-11.494-.016-22.991-.145-34.482.052-7.343.126-14.386-1.642-21.529-2.759-20.233-3.164-40.437-6.514-60.669-9.681-2.173-.34-2.93-1.017-2.694-3.267.493-4.699.678-9.43,1.07-14.141,5.999-72.087,12.131-144.164,17.946-216.266,1.741-21.584,6.247-42.695,9.735-63.98,3.948-24.091,8.409-48.098,12.357-72.189.689-4.202,1.654-5.69,6.353-5.269,24.956,2.231,49.95,4.028,74.931,5.975.041-.419.081-.839.122-1.258ZM1560.756,212.279c-1.53,24.978-4.2,69.793-7.127,114.59-.299,4.582,1.564,4.846,5.053,4.567,10.193-.816,20.366-1.787,30.439-3.571,26.519-4.695,52.089-12.148,75.043-26.775,28.657-18.262,44.903-43.893,45.867-78.393.334-11.962.535-23.927.826-35.891.467-19.205.922-38.411,1.481-57.614.082-2.826-.717-5.097-2.339-7.384-12.202-17.209-24.373-34.441-36.375-51.789-1.801-2.604-3.771-3.72-6.837-4.062-30.376-3.388-60.74-6.894-91.103-10.396-5.745-.663-5.694-.719-6.044,5.265-2.562,43.873-5.144,87.744-8.883,151.451Z"/>
      <path class="cls-8" d="M1628.225,21.736c23.495,2.316,46.982,4.714,70.492,6.862,3.565.326,6.065,1.497,8.409,4.19,21.027,24.152,42.216,48.163,63.249,72.31,4.791,5.5,7.032,12.535,10.3,18.927,7.999,15.646,15.567,31.514,23.628,47.127,2.418,4.684,3.113,9.207,2.24,14.291-3.283,19.112-6.434,38.246-9.633,57.372-4.141,24.759-8.418,49.497-12.32,74.294-.931,5.913-2.919,10.367-7.763,14.348-21.495,17.661-42.632,35.758-63.866,53.735-1.561,1.322-3.093,2.034-5.236,2.024-27.499-.121-54.999-.148-82.498-.186-10.969-.015-21.941-.138-32.907.05-7.008.12-13.728-1.567-20.545-2.633-19.309-3.02-38.589-6.216-57.898-9.239-2.073-.325-2.796-.97-2.571-3.118.47-4.485.647-8.999,1.021-13.495,5.725-68.794,11.577-137.577,17.126-206.385,1.661-20.598,5.961-40.744,9.29-61.057,3.768-22.99,8.025-45.901,11.793-68.891.657-4.01,1.578-5.43,6.063-5.029,23.816,2.129,47.668,3.844,71.508,5.702.039-.4.078-.801.117-1.201ZM1591.208,214.25c-1.46,23.837-4.009,66.604-6.801,109.355-.286,4.373,1.492,4.625,4.822,4.358,9.727-.779,19.436-1.706,29.048-3.407,25.307-4.481,49.709-11.593,71.614-25.552,27.348-17.428,42.852-41.887,43.771-74.811.319-11.415.51-22.834.788-34.251.446-18.328.88-36.656,1.413-54.981.078-2.697-.684-4.864-2.232-7.046-11.644-16.423-23.259-32.867-34.713-49.423-1.719-2.485-3.598-3.55-6.525-3.877-28.988-3.233-57.965-6.579-86.941-9.921-5.482-.632-5.434-.687-5.767,5.025-2.445,41.868-4.909,83.736-8.478,144.532Z"/>
    </g>
    <g>
      <path class="cls-3" d="M1984.416,314.469c26.17,0,52.341.063,78.51-.079,3.268-.018,4.044.956,3.875,4.046-.858,15.616-1.611,31.239-2.218,46.867-.126,3.236-1.148,4.631-4.495,5.276-21.816,4.2-43.58,8.667-65.374,12.982-2.19.434-4.474.68-6.699.597-33.695-1.255-67.367-.415-101.036.95-16.99.689-33.988.423-50.984.42-4.047,0-6.954-1.341-9.551-4.65-5.843-7.444-12.131-14.54-18.258-21.76-1.168-1.377-2.219-2.637-2.287-4.686-1.336-40.129-4.635-80.215-4.29-120.367.368-42.853,1.64-85.719,3.66-128.526.904-19.142,4.637-38.144,10.66-56.518.42-1.28.986-2.511,1.44-3.78,1.79-5.01,4.976-7.342,10.635-7.893,48.161-4.692,96.147-10.951,144.203-16.587,18.503-2.17,36.984-4.539,55.462-6.913,3.352-.431,5.33-.035,6.409,3.892,4.373,15.908,9.054,31.735,13.882,47.512,1.042,3.404.448,4.602-3.035,5.325-28.51,5.918-56.988,11.992-85.477,18.01-20.559,4.343-41.112,8.713-61.69,12.961-2.773.572-3.882,1.388-3.598,4.609,2.289,25.906,4.442,51.825,6.356,77.76.277,3.752,2.269,3.076,4.434,3.023,35.185-.855,70.372-1.635,105.551-2.685,4.32-.129,5.562.967,5.721,5.273.481,13.069,1.376,26.126,2.307,39.173.185,2.595-.436,3.272-3.021,3.504-36.529,3.279-73.053,6.626-109.563,10.113-7.34.701-5.89-.156-5.657,6.452.762,21.644,1.626,43.285,2.172,64.934.097,3.85,1.162,4.599,4.853,4.358,25.67-1.678,51.39-2.055,77.107-2.476-.001-.372-.002-.744-.003-1.116Z"/>
      <path class="cls-9" d="M2008.135,314.469c26.17,0,52.341.063,78.51-.079,3.268-.018,4.044.956,3.875,4.046-.858,15.616-1.611,31.239-2.218,46.867-.126,3.236-1.148,4.631-4.495,5.276-21.816,4.2-43.58,8.667-65.374,12.982-2.19.434-4.474.68-6.699.597-33.695-1.255-67.367-.415-101.036.95-16.99.689-33.988.423-50.984.42-4.047,0-6.954-1.341-9.551-4.65-5.843-7.444-12.131-14.54-18.258-21.76-1.168-1.377-2.219-2.637-2.287-4.686-1.336-40.129-4.635-80.215-4.29-120.367.368-42.853,1.64-85.719,3.66-128.526.904-19.142,4.637-38.144,10.66-56.518.42-1.28.986-2.511,1.44-3.78,1.79-5.01,4.976-7.342,10.635-7.893,48.161-4.692,96.147-10.951,144.203-16.587,18.503-2.17,36.984-4.539,55.462-6.913,3.352-.431,5.33-.035,6.409,3.892,4.373,15.908,9.054,31.735,13.882,47.512,1.042,3.404.448,4.602-3.035,5.325-28.51,5.918-56.988,11.992-85.477,18.01-20.559,4.343-41.112,8.713-61.69,12.961-2.773.572-3.882,1.388-3.598,4.609,2.289,25.906,4.442,51.825,6.356,77.76.277,3.752,2.269,3.076,4.434,3.023,35.185-.855,70.372-1.635,105.551-2.685,4.32-.129,5.562.967,5.721,5.273.481,13.069,1.376,26.126,2.307,39.173.185,2.595-.436,3.272-3.021,3.504-36.529,3.279-73.053,6.626-109.563,10.113-7.34.701-5.89-.156-5.657,6.452.762,21.644,1.626,43.285,2.172,64.934.097,3.85,1.162,4.599,4.853,4.358,25.67-1.678,51.39-2.055,77.107-2.476-.001-.372-.002-.744-.003-1.116Z"/>
    </g>
    <polygon class="cls-7" points="2864.381 383.182 2760.832 392.072 2730.417 37.825 2833.966 28.935 2902.549 145.659 2891.319 14.86 2980.335 7.217 3012.154 377.814 2910.421 386.549 2843.077 220.307 2864.381 383.182"/>
    <path class="cls-4" d="M2823.629,175.189c.208,7.289.325,13.404.566,19.515,1.176,29.893,2.353,59.786,3.601,89.676.4,9.58,3.534,18.629,5.844,27.821,4.864,19.354,9.824,38.685,14.916,57.98.683,2.588.465,3.422-2.341,3.47-15.091.255-30.181.631-45.271.981-7.405.172-14.812.324-22.213.605-1.961.074-3.145-.052-3.167-2.523-.099-11.061-1.492-22.041-2.249-33.062-3.652-53.173-8.55-106.249-12.534-159.394-3.346-44.64-7.29-89.228-10.99-133.836-.276-3.329.535-4.3,3.82-4.485,23.177-1.304,46.349-2.723,69.51-4.286,3.07-.207,3.785,1.692,4.832,3.623,14.897,27.502,29.785,55.009,44.681,82.512,22.745,41.993,45.494,83.983,68.243,125.973.375.692.778,1.368,1.488,2.61-1.013-11.802-1.947-22.861-2.924-33.916-.234-2.645-.665-5.271-.919-7.915-3.877-40.379-7.718-80.762-11.618-121.14-1.197-12.389-2.47-24.772-3.879-37.138-.326-2.857.172-4.483,3.034-5.834,6.307-2.976,12.481-6.277,18.499-9.806,4.67-2.739,9.571-3.517,14.84-3.478,4.047.03,8.124-.201,12.137-.709,3.121-.395,3.714.873,3.85,3.641,1.456,29.746,2.975,59.489,4.572,89.227,1.657,30.859,3.437,61.711,5.129,92.568,1.423,25.969,2.818,51.939,4.185,77.911,1.184,22.48,2.252,44.966,3.541,67.439.161,2.805-.699,3.594-3.279,3.942-16.485,2.228-32.944,4.639-49.605,5.223-9.323.327-10.041.038-13.733-8.635-16.891-39.684-32.771-79.783-49.014-119.733-2.655-6.53-7.682-11.271-11.862-16.628-12.985-16.639-26.199-33.1-39.332-49.624-.504-.634-1.092-1.2-2.358-2.578Z"/>
    <path class="cls-13" d="M2277.884,286.556c-1.02-13.85-2.057-27.036-2.91-40.233-.184-2.849-1.448-4.082-4.024-5.082-32.038-12.431-64.05-24.931-96.015-37.55-6.908-2.727-12.43-7.809-18.443-12.008-18.607-12.994-36.852-26.47-54.799-40.38-9.188-7.121-13.058-15.555-12.826-27.044.375-18.557,2.722-36.832,5.736-55.08.32-1.936,1.371-2.831,2.848-3.687,26.77-15.513,53.514-31.071,80.31-46.539,4.078-2.354,8.854-2.757,13.331-3.934,13.35-3.51,26.773-6.743,40.123-10.251,2.77-.728,5.278-.605,7.922.269,27.212,8.996,54.418,18.011,81.682,26.849,2.826.916,3.411,2.183,2.937,4.831-3.258,18.176-6.51,36.354-9.557,54.565-.489,2.923-1.133,3.415-3.904,2.278-25.407-10.428-50.886-20.68-76.283-31.133-2.756-1.134-4.789-1.134-7.444.369-19.474,11.02-39.027,21.902-58.639,32.676-2.795,1.535-4.208,3.242-4.29,6.533-.155,6.156-.688,12.305-1.177,18.448-.145,1.818.468,3.113,1.653,4.419,14.038,15.476,28.033,30.991,42.044,46.492,1.993,2.204,4.817,3.013,7.376,4.205,30.615,14.264,61.313,28.369,91.424,43.669,16.989,8.632,14.547,4.418,19.277,24.152,5.183,21.621,8.197,43.663,11.356,65.659,1.11,7.728,2.129,15.47,3.313,23.187.349,2.277.105,3.777-2.078,5.26-22.873,15.53-45.701,31.13-68.395,46.92-3.35,2.331-6.832,2.828-10.555,3.021-25.825,1.336-51.654,2.598-77.478,3.943-21.769,1.134-43.539,2.279-65.298,3.589-3.887.234-6.068-.813-8.097-4.435-15.117-26.994-30.471-53.857-45.943-80.65-1.768-3.062-1.095-4.175,1.588-5.84,23.237-14.411,46.432-28.89,69.522-43.533,3.304-2.095,4.577-1.559,6.2,1.815,3.836,7.979,8.187,15.709,12.158,23.626,9.659,19.261,25.643,33.082,40.799,47.611,3.124,2.995,7.194,2.698,11.114,2.4,13.348-1.017,26.51-3.377,39.693-5.579,4.295-.718,8.567-1.843,12.886-2.064,4.978-.254,8.001-2.696,10.366-6.743,5.34-9.138,8.823-19.051,12.333-28.955.772-2.179.187-4.481.166-6.064Z"/>
    <path class="cls-11" d="M2287.497,286.556c-1.02-13.85-2.057-27.036-2.91-40.233-.184-2.849-1.448-4.082-4.024-5.082-32.038-12.431-64.05-24.931-96.015-37.55-6.908-2.727-12.43-7.809-18.443-12.008-18.607-12.994-36.852-26.47-54.799-40.38-9.188-7.121-13.058-15.555-12.826-27.044.375-18.557,2.722-36.832,5.736-55.08.32-1.936,1.371-2.831,2.848-3.687,26.77-15.513,53.514-31.071,80.31-46.539,4.078-2.354,8.854-2.757,13.331-3.934,13.35-3.51,26.773-6.743,40.123-10.251,2.77-.728,5.278-.605,7.922.269,27.212,8.996,54.418,18.011,81.682,26.849,2.826.916,3.411,2.183,2.937,4.831-3.258,18.176-6.51,36.354-9.557,54.565-.489,2.923-1.133,3.415-3.904,2.278-25.407-10.428-50.886-20.68-76.283-31.133-2.756-1.134-4.789-1.134-7.444.369-19.474,11.02-39.027,21.902-58.639,32.676-2.795,1.535-4.208,3.242-4.29,6.533-.155,6.156-.688,12.305-1.177,18.448-.145,1.818.468,3.113,1.653,4.419,14.038,15.476,28.033,30.991,42.044,46.492,1.993,2.204,4.817,3.013,7.376,4.205,30.615,14.264,61.313,28.369,91.424,43.669,16.989,8.632,14.547,4.418,19.277,24.152,5.183,21.621,8.197,43.663,11.356,65.659,1.11,7.728,2.129,15.47,3.313,23.187.349,2.277.105,3.777-2.078,5.26-22.873,15.53-45.701,31.13-68.395,46.92-3.35,2.331-6.832,2.828-10.555,3.021-25.825,1.336-51.654,2.598-77.478,3.943-21.769,1.134-43.539,2.279-65.298,3.589-3.887.234-6.068-.813-8.097-4.435-15.117-26.994-30.471-53.857-45.943-80.65-1.768-3.062-1.095-4.175,1.588-5.84,23.237-14.411,46.432-28.89,69.522-43.533,3.304-2.095,4.577-1.559,6.2,1.815,3.836,7.979,8.187,15.709,12.158,23.626,9.659,19.261,25.643,33.082,40.799,47.611,3.124,2.995,7.194,2.698,11.114,2.4,13.348-1.017,26.51-3.377,39.693-5.579,4.295-.718,8.567-1.843,12.886-2.064,4.978-.254,8.001-2.696,10.366-6.743,5.34-9.138,8.823-19.051,12.333-28.955.772-2.179.187-4.481.166-6.064Z"/>
    <g>
      <g>
        <path class="cls-5" d="M2336.922,350.242c2.005-17.069,4.03-33.114,5.745-49.19,2.824-26.471,6.903-52.815,7.994-79.465.736-17.984,2.032-35.945,3.005-53.92.128-2.367.596-3.422,3.503-3.725,15.545-1.622,30.935.764,46.388,1.325,5.816.211,11.615.888,17.431,1.062,2.546.076,3.419.684,3.193,3.323-1.195,13.935-2.239,27.883-3.298,41.829-.736,9.699-1.751,19.376-1.867,29.12-.441,37.107-.966,74.213-1.454,111.32-.063,4.775-.052,4.809-4.886,4.267-13.163-1.477-26.317-3.027-39.484-4.464-5.939-.648-11.866.312-17.802.421-4.829.088-9.684.228-14.466.823-3.389.422-4.728-.313-4.002-2.723Z"/>
        <path class="cls-5" d="M2385.808,137.229c-7.93,0-15.861-.078-23.788.053-2.078.034-2.997-.752-3.928-2.462-9.99-18.349-16.09-38.009-20.685-58.202-.391-1.717.057-2.672,1.367-3.71,9.923-7.863,19.821-15.757,29.663-23.716,1.518-1.227,3.08-1.385,4.837-1.113,17.231,2.661,34.458,5.351,51.698,7.958,1.532.232,2.401,1.034,3.279,2.097,5.071,6.136,10.138,12.275,15.286,18.349,1.271,1.5,1.805,3.005,1.643,4.977-1.095,13.327-2.131,26.659-3.078,39.997-.116,1.639-.893,2.265-2.228,2.902-8.338,3.977-16.649,8.011-24.94,12.081-1.826.897-3.672,1.248-5.71,1.23-7.804-.07-15.61-.028-23.415-.028,0-.137,0-.275,0-.412Z"/>
      </g>
      <g>
        <path class="cls-10" d="M2342.985,350.242c2.005-17.069,4.03-33.114,5.745-49.19,2.824-26.471,6.903-52.815,7.994-79.465.736-17.984,2.032-35.945,3.005-53.92.128-2.367.596-3.422,3.503-3.725,15.545-1.622,30.935.764,46.388,1.325,5.816.211,11.615.888,17.431,1.062,2.546.076,3.419.684,3.193,3.323-1.195,13.935-2.239,27.883-3.298,41.829-.736,9.699-1.751,19.376-1.867,29.12-.441,37.107-.966,74.213-1.454,111.32-.063,4.775-.052,4.809-4.886,4.267-13.163-1.477-26.317-3.027-39.484-4.464-5.939-.648-11.866.312-17.802.421-4.829.088-9.684.228-14.466.823-3.389.422-4.728-.313-4.002-2.723Z"/>
        <path class="cls-10" d="M2391.872,137.229c-7.93,0-15.861-.078-23.788.053-2.078.034-2.997-.752-3.928-2.462-9.99-18.349-16.09-38.009-20.685-58.202-.391-1.717.057-2.672,1.367-3.71,9.923-7.863,19.821-15.757,29.663-23.716,1.518-1.227,3.08-1.385,4.837-1.113,17.231,2.661,34.458,5.351,51.698,7.958,1.532.232,2.401,1.034,3.279,2.097,5.071,6.136,10.138,12.275,15.286,18.349,1.271,1.5,1.805,3.005,1.643,4.977-1.095,13.327-2.131,26.659-3.078,39.997-.116,1.639-.893,2.265-2.228,2.902-8.338,3.977-16.649,8.011-24.94,12.081-1.826.897-3.672,1.248-5.71,1.23-7.804-.07-15.61-.028-23.415-.028,0-.137,0-.275,0-.412Z"/>
      </g>
    </g>
  </g>
  <path class="cls-6" d="M620.822,3.113c13.842,2.423,27.656,5.277,41.602,7.125,9.019,1.195,13.292,8.387,19.482,13.17,1.982,1.531.042,3.337-.714,4.809-17.234,33.518-34.131,67.217-51.87,100.466-28.947,54.255-54.211,110.253-79.839,166.088-18.998,41.391-38.113,82.73-57.041,124.153-1.882,4.12-3.763,5.336-8.73,4.804-13.996-1.5-27.312-4.967-40.307-10.212-3.709-1.497-5.518-4.471-7.692-7.269-3.013-3.879-7.851-7.683-8.251-11.869-.395-4.138,3.685-8.747,5.924-13.087,18.636-36.113,38.098-71.827,55.783-108.399,32.309-66.815,63.474-134.182,95.328-201.218,10.408-21.903,21.47-43.495,32.259-65.216.83-1.67,1.236-3.999,4.064-3.345Z"/>
</svg>