<?xml version="1.0" encoding="UTF-8"?>
<svg id="Layer_1" data-name="Layer 1" xmlns="http://www.w3.org/2000/svg" viewBox="0 0 533.354 264.19">
  <defs>
    <style>
      .cls-1 {
        fill: #070707;
      }

      .cls-2 {
        fill: #9b5656;
      }

      .cls-3 {
        fill: #d94c9d;
      }

      .cls-4 {
        fill: #fcf5f5;
      }

      .cls-5 {
        fill: #ef9fc5;
      }

      .cls-6 {
        fill: #985755;
      }

      .cls-7 {
        fill: #3f1549;
      }

      .cls-8, .cls-9 {
        fill: #fff;
      }

      .cls-10 {
        fill: #d84c9b;
      }

      .cls-11 {
        fill: #74a7aa;
      }

      .cls-12 {
        fill: #b37b71;
      }

      .cls-13 {
        fill: #1e4739;
      }

      .cls-14 {
        fill: #f6dd76;
      }

      .cls-15 {
        fill: #f29c38;
      }

      .cls-9 {
        stroke: #d94c9d;
        stroke-miterlimit: 10;
      }

      .cls-16 {
        fill: #f7d7e5;
      }

      .cls-17 {
        fill: #ab315c;
      }

      .cls-18 {
        fill: #d6c76d;
      }

      .cls-19 {
        fill: #f2e0b7;
      }
    </style>
  </defs>
  <g>
    <g>
      <path class="cls-2" d="M278.908,257.486c.142-6.205.316-12.409.413-18.614.042-2.68-.764-5.262-1.165-7.891-.616-4.032-1.368-8.044-2.026-12.07-.244-1.494-.203-1.571-1.747-1.464-3.158.219-6.309.528-9.464.786-2.979.243-5.96.466-8.939.7-1.809.142-3.617.296-5.426.427-.409.03-.524.225-.569.607-.489,4.162-.889,8.339-1.525,12.479-.73,4.75.015,9.446.215,14.163.125,2.954.306,5.906.456,8.859.11,2.17.179,4.344.337,6.511.042.57-.172.643-.618.728-1.587.299-3.199.157-4.798.288-2.552.21-5.123.227-7.676.479-.735.073-.925-.245-.94-.91-.054-2.281-.131-4.562-.229-6.841-.266-6.159-.555-12.316-.818-18.475-.108-2.529-.104-5.064-.267-7.589-.309-4.817.184-9.614.28-14.42.106-5.344.402-10.684.614-16.025.216-5.449.41-10.898.664-16.345.058-1.245.236-2.49.141-3.735-.035-.452.173-.558.484-.664,4.204-1.443,8.412-2.877,12.611-4.335.539-.187.677-.058.687.486.014.818.138,1.634.155,2.452.097,4.637.123,9.276.276,13.911.186,5.632.348,11.265.421,16.9.006.425.104.849.136,1.275.118,1.555.114,1.56,1.66,1.397,5.372-.567,10.744-1.138,16.115-1.707,2.65-.281,5.298-.593,7.953-.826.664-.058.752-.477.822-.911.674-4.205,1.315-8.416,1.986-12.622.743-4.66,1.511-9.317,2.262-13.976.254-1.577.523-3.152.722-4.736.099-.79.316-1.214,1.243-1.161,4.955.282,9.918.15,14.877.174.668.003.87.217.827.865-.216,3.304-.404,6.61-.6,9.915-.162,2.738-.318,5.476-.48,8.213-.276,4.657-.559,9.313-.831,13.97-.16,2.738-.294,5.478-.455,8.216-.267,4.55-.556,9.099-.817,13.649-.173,3.023-.297,6.049-.473,9.072-.259,4.444-.551,8.885-.817,13.328-.164,2.738-.33,5.476-.443,8.217-.027.655-.177.866-.88.97-1.917.282-3.844.112-5.765.292-2.551.239-5.128.187-7.693.3-.69.031-.958-.156-.923-.884.055-1.14.015-2.284.015-3.427h.015Z"/>
      <path class="cls-18" d="M283.003,257.486c.142-6.205.316-12.409.413-18.614.042-2.68-.764-5.262-1.165-7.891-.616-4.032-1.368-8.044-2.026-12.07-.244-1.494-.203-1.571-1.747-1.464-3.158.219-6.309.528-9.464.786-2.979.243-5.96.466-8.939.7-1.809.142-3.617.296-5.426.427-.409.03-.524.225-.569.607-.489,4.162-.889,8.339-1.525,12.479-.73,4.75.015,9.446.215,14.163.125,2.954.306,5.906.456,8.859.11,2.17.179,4.344.337,6.511.042.57-.172.643-.618.728-1.587.299-3.199.157-4.798.288-2.552.21-5.123.227-7.676.479-.735.073-.925-.245-.94-.91-.054-2.281-.131-4.562-.229-6.841-.266-6.159-.555-12.316-.818-18.475-.108-2.529-.104-5.064-.267-7.589-.309-4.817.184-9.614.28-14.42.106-5.344.402-10.684.614-16.025.216-5.449.41-10.898.664-16.345.058-1.245.236-2.49.141-3.735-.035-.452.173-.558.484-.664,4.204-1.443,8.412-2.877,12.611-4.335.539-.187.677-.058.687.486.014.818.138,1.634.155,2.452.097,4.637.123,9.276.276,13.911.186,5.632.348,11.265.421,16.9.006.425.104.849.136,1.275.118,1.555.114,1.56,1.66,1.397,5.372-.567,10.744-1.138,16.115-1.707,2.65-.281,5.298-.593,7.953-.826.664-.058.752-.477.822-.911.674-4.205,1.315-8.416,1.986-12.622.743-4.66,1.511-9.317,2.262-13.976.254-1.577.523-3.152.722-4.736.099-.79.316-1.214,1.243-1.161,4.955.282,9.918.15,14.877.174.668.003.87.217.827.865-.216,3.304-.404,6.61-.6,9.915-.162,2.738-.318,5.476-.48,8.213-.276,4.657-.559,9.313-.831,13.97-.16,2.738-.294,5.478-.455,8.216-.267,4.55-.556,9.099-.817,13.649-.173,3.023-.297,6.049-.473,9.072-.259,4.444-.551,8.885-.817,13.328-.164,2.738-.33,5.476-.443,8.217-.027.655-.177.866-.88.97-1.917.282-3.844.112-5.765.292-2.551.239-5.128.187-7.693.3-.69.031-.958-.156-.923-.884.055-1.14.015-2.284.015-3.427h.015Z"/>
    </g>
    <g>
      <path class="cls-3" d="M60.243,225.218c-1.273,2.561-1.73,5.144-2.352,7.68-2.12,8.64-4.215,17.287-6.273,25.942-.181.763-.496,1.015-1.227,1.128-3.458.535-6.907,1.124-10.358,1.705-.788.133-1.363-.085-1.918-.71-5.536-6.228-11.099-12.432-16.668-18.631-.411-.458-.619-.99-.79-1.543-1.936-6.274-4.142-12.468-5.981-18.762-1.399-4.787-2.041-9.796-3.015-14.707-1.182-5.958-2.583-11.884-3.484-17.885-1.199-7.979-2.017-16.016-2.976-24.03-.232-1.938,1.177-3.424,3.192-3.378,3.466.078,6.846.911,10.282,1.224,2.389.218,4.573.726,6.429,2.367.578.511.954.958,1.104,1.751,2.257,11.892,4.557,23.775,6.847,35.66,1.958,10.166,3.921,20.331,5.869,30.499.215,1.124.344,2.264.805,3.423,1.064-2.843,2.131-5.686,3.193-8.53,3.708-9.929,7.381-19.871,11.15-29.777.764-2.009.824-4.094,1.134-6.149.508-3.368.873-6.759,1.218-10.149.146-1.431.535-2.425,2.144-2.791,1.555-.354,3.057-.979,4.544-1.58,1-.404,1.401-.219,1.711.874,1.912,6.737,3.959,13.435,5.861,20.175,2.765,9.792,6.304,19.323,9.629,28.927.663,1.914.706,1.897,2.216.574,1.503-1.316,2.991-2.649,4.52-3.934.592-.497.913-1.116,1.152-1.814,6.229-18.267,12.472-36.529,18.665-54.808.447-1.319.884-2.111,2.522-2.088,2.911.04,5.814-.44,8.742-.307,1.093.05,1.292.492,1.104,1.46-1.393,7.161-3.07,14.284-4.057,21.501-1.307,9.555-5.802,17.894-9.376,26.582-5.828,14.167-11.889,28.238-17.808,42.368-.495,1.18-1.125,1.895-2.414,2.205-2.646.637-5.272,1.369-7.868,2.186-1.102.347-1.519.006-1.934-.967-4.331-10.161-8.693-20.31-13.07-30.451-.764-1.77-1.639-3.492-2.462-5.237Z"/>
      <path class="cls-9" d="M55.567,224.976c-1.273,2.561-1.73,5.144-2.352,7.68-2.12,8.64-4.215,17.287-6.273,25.942-.181.763-.496,1.015-1.227,1.128-3.458.535-6.907,1.124-10.358,1.705-.788.133-1.363-.085-1.918-.71-5.536-6.228-11.099-12.432-16.668-18.631-.411-.458-.619-.99-.79-1.543-1.936-6.274-4.142-12.468-5.981-18.762-1.399-4.787-2.041-9.796-3.015-14.707-1.182-5.958-2.583-11.884-3.484-17.885-1.199-7.979-2.017-16.016-2.976-24.03-.232-1.938,1.177-3.424,3.192-3.378,3.466.078,6.846.911,10.282,1.224,2.389.218,4.573.726,6.429,2.367.578.511.954.958,1.104,1.751,2.257,11.892,4.557,23.775,6.847,35.66,1.958,10.166,3.921,20.331,5.869,30.499.215,1.124.344,2.264.805,3.423,1.064-2.843,2.131-5.686,3.193-8.53,3.708-9.929,7.381-19.871,11.15-29.777.764-2.009.824-4.094,1.134-6.149.508-3.368.873-6.759,1.218-10.149.146-1.431.535-2.425,2.144-2.791,1.555-.354,3.057-.979,4.544-1.58,1-.404,1.401-.219,1.711.874,1.912,6.737,3.959,13.435,5.861,20.175,2.765,9.792,6.304,19.323,9.629,28.927.663,1.914.706,1.897,2.216.574,1.503-1.316,2.991-2.649,4.52-3.934.592-.497.913-1.116,1.152-1.814,6.229-18.267,12.472-36.529,18.665-54.808.447-1.319.884-2.111,2.522-2.088,2.911.04,5.814-.44,8.742-.307,1.093.05,1.292.492,1.104,1.46-1.393,7.161-3.07,14.284-4.057,21.501-1.307,9.555-5.802,17.894-9.376,26.582-5.828,14.167-11.889,28.238-17.808,42.368-.495,1.18-1.125,1.895-2.414,2.205-2.646.637-5.272,1.369-7.868,2.186-1.102.347-1.519.006-1.934-.967-4.331-10.161-8.693-20.31-13.07-30.451-.764-1.77-1.639-3.492-2.462-5.237Z"/>
    </g>
    <g>
      <g>
        <path class="cls-7" d="M135.293,260.794c.565-4.898,1.135-9.502,1.618-14.116.795-7.596,1.945-15.156,2.252-22.804.207-5.161.572-10.315.846-15.473.036-.679.168-.982.987-1.069,4.379-.465,8.714.219,13.067.38,1.638.061,3.272.255,4.91.305.717.022.963.196.899.954-.337,3.999-.631,8.001-.929,12.003-.207,2.783-.493,5.56-.526,8.356-.124,10.648-.272,21.297-.41,31.945-.018,1.37-.015,1.38-1.376,1.224-3.708-.424-7.413-.869-11.122-1.281-1.673-.186-3.342.09-5.015.121-1.36.025-2.728.065-4.075.236-.955.121-1.332-.09-1.127-.782Z"/>
        <path class="cls-7" d="M149.064,199.667c-2.234,0-4.468-.022-6.701.015-.585.01-.844-.216-1.106-.706-2.814-5.266-4.532-10.907-5.827-16.702-.11-.493.016-.767.385-1.065,2.795-2.256,5.583-4.522,8.356-6.806.428-.352.868-.397,1.362-.319,4.854.764,9.706,1.535,14.563,2.284.431.066.676.297.924.602,1.429,1.761,2.856,3.523,4.306,5.266.358.43.508.862.463,1.428-.308,3.824-.6,7.65-.867,11.478-.033.47-.251.65-.628.833-2.349,1.141-4.69,2.299-7.025,3.467-.514.257-1.034.358-1.609.353-2.198-.02-4.397-.008-6.596-.008,0-.039,0-.079,0-.118Z"/>
      </g>
      <g>
        <path class="cls-15" d="M131.001,260.794c.565-4.898,1.135-9.502,1.618-14.116.795-7.596,1.945-15.156,2.252-22.804.207-5.161.572-10.315.846-15.473.036-.679.168-.982.987-1.069,4.379-.465,8.714.219,13.067.38,1.638.061,3.272.255,4.91.305.717.022.963.196.899.954-.337,3.999-.631,8.001-.929,12.003-.207,2.783-.493,5.56-.526,8.356-.124,10.648-.272,21.297-.41,31.945-.018,1.37-.015,1.38-1.376,1.224-3.708-.424-7.413-.869-11.122-1.281-1.673-.186-3.342.09-5.015.121-1.36.025-2.728.065-4.075.236-.955.121-1.332-.09-1.127-.782Z"/>
        <path class="cls-15" d="M144.772,199.667c-2.234,0-4.468-.022-6.701.015-.585.01-.844-.216-1.106-.706-2.814-5.266-4.532-10.907-5.827-16.702-.11-.493.016-.767.385-1.065,2.795-2.256,5.583-4.522,8.356-6.806.428-.352.868-.397,1.362-.319,4.854.764,9.706,1.535,14.563,2.284.431.066.676.297.924.602,1.429,1.761,2.856,3.523,4.306,5.266.358.43.508.862.463,1.428-.308,3.824-.6,7.65-.867,11.478-.033.47-.251.65-.628.833-2.349,1.141-4.69,2.299-7.025,3.467-.514.257-1.034.358-1.609.353-2.198-.02-4.397-.008-6.596-.008,0-.039,0-.079,0-.118Z"/>
      </g>
    </g>
    <g>
      <path class="cls-6" d="M174.682,173.061c-1.537-.098-3.077-.168-4.575-.574,0-4.632.026-9.265-.023-13.897-.011-1.015.302-1.311,1.305-1.294,3.327.056,6.656.028,9.984.013.477-.002.996.163,1.424-.212,9.325-.022,18.65-.097,27.975-.041,3.805.023,7.609.315,11.411.515,2.769.146,5.533.385,8.303.494.995.039.838.598.715,1.161-.815,3.754-1.655,7.503-2.481,11.255-.326,1.481-.752,2.952-.923,4.451-.15,1.319-.794,1.537-1.902,1.322-3.014-.586-6.03-1.161-9.048-1.727-2.095-.393-4.195-.764-6.484-1.18.188,3.083.344,6.109.566,9.13.148,2.012.078,4.026.25,6.045.342,4.025.429,8.071.629,12.107.188,3.787-.31,7.548-.434,11.323-.07,2.104-.222,4.207-.38,6.307-.316,4.193-.476,8.395-.769,12.59-.156,2.226-.194,4.476-.303,6.715-.076,1.566-.311,3.138-.232,4.695.2,3.938.531,7.87.821,11.804.221,2.998.449,5.995.7,8.991.063.752-.049,1.157-.969,1.135-3.287-.077-6.576-.079-9.864-.109-1.916-.472-3.857-.141-5.787-.183-2.999.007-5.999.013-8.999.02-1.65-.012-3.307-.241-4.943.163-1.857.076-1.894.07-1.623-1.72,1.307-8.646,2.648-17.288,3.951-25.935,1.212-8.04,2.384-16.087,3.586-24.128.784-5.242,1.636-10.475,2.368-15.724.389-2.789.486-5.611.634-8.426.178-3.389.44-6.774.734-10.155.128-1.472-.136-2.959.259-4.421.147-.545-.338-.521-.696-.52-.901.003-1.801.016-2.702.025-4.16-.005-8.319-.01-12.479-.015Z"/>
      <path class="cls-19" d="M179.673,173.061c-1.537-.098-3.077-.168-4.575-.574,0-4.632.026-9.265-.023-13.897-.011-1.015.302-1.311,1.305-1.294,3.327.056,6.656.028,9.984.013.477-.002.996.163,1.424-.212,9.325-.022,18.65-.097,27.975-.041,3.805.023,7.609.315,11.411.515,2.769.146,5.533.385,8.303.494.995.039.838.598.715,1.161-.815,3.754-1.655,7.503-2.481,11.255-.326,1.481-.752,2.952-.923,4.451-.15,1.319-.794,1.537-1.902,1.322-3.014-.586-6.03-1.161-9.048-1.727-2.095-.393-4.195-.764-6.484-1.18.188,3.083.344,6.109.566,9.13.148,2.012.078,4.026.25,6.045.342,4.025.429,8.071.629,12.107.188,3.787-.31,7.548-.434,11.323-.07,2.104-.222,4.207-.38,6.307-.316,4.193-.476,8.395-.769,12.59-.156,2.226-.194,4.476-.303,6.715-.076,1.566-.311,3.138-.232,4.695.2,3.938.531,7.87.821,11.804.221,2.998.449,5.995.7,8.991.063.752-.049,1.157-.969,1.135-3.287-.077-6.576-.079-9.864-.109-1.916-.472-3.857-.141-5.787-.183-2.999.007-5.999.013-8.999.02-1.65-.012-3.307-.241-4.943.163-1.857.076-1.894.07-1.623-1.72,1.307-8.646,2.648-17.288,3.951-25.935,1.212-8.04,2.384-16.087,3.586-24.128.784-5.242,1.636-10.475,2.368-15.724.389-2.789.486-5.611.634-8.426.178-3.389.44-6.774.734-10.155.128-1.472-.136-2.959.259-4.421.147-.545-.338-.521-.696-.52-.901.003-1.801.016-2.702.025-4.16-.005-8.319-.01-12.479-.015Z"/>
    </g>
  </g>
  <g>
    <g>
      <path class="cls-12" d="M425.012,179.534c-1.257,3.686-2.52,7.371-3.771,11.059-3.554,10.471-7.112,20.941-10.638,31.421-.292.867-.594,1.157-1.538.799-1.56-.592-3.166-1.078-4.781-1.501-.814-.213-1.186-.658-1.456-1.408-3.425-9.524-6.873-19.039-10.319-28.555-1.007-2.782-2.059-5.549-3.015-8.348-.265-.776-.673-.872-1.351-.745-2.804.524-2.784.52-3.097,3.39-.757,6.946-1.566,13.886-2.293,20.836-.281,2.687-.535,5.375-.591,8.089-.21,10.278-.447,20.557-.84,30.829-.138,3.608-.015,7.226-.369,10.829-.08.811-.163,1.219-1.137,1.203-4.734-.082-9.47-.078-14.205-.125-1.804-.018-1.827-.045-1.756-1.776.341-8.29.694-16.58,1.046-24.87.25-5.884.424-11.773.782-17.65.296-4.846.144-9.723.776-14.539.68-5.178,1.593-10.326,2.394-15.488.834-5.373,1.659-10.747,2.481-16.122.285-1.862.546-3.729.829-5.591.1-.66.355-1.021,1.177-.988,4.898.199,9.798.356,14.699.458.974.02,1.517.315,2.031,1.175,5.756,9.626,11.564,19.221,17.359,28.824.197.326.414.64.625.964.551-.167.564-.658.729-1.015,4.775-10.279,9.553-20.557,14.279-30.859.436-.95.842-1.099,1.803-.789,4.036,1.302,8.095,2.537,12.161,3.745.77.229,1.183.478,1.312,1.388.489,3.438.893,6.883,1.212,10.34.367,3.971.822,7.935,1.211,11.904.385,3.928.722,7.861,1.106,11.79.387,3.969.815,7.935,1.208,11.903.381,3.842.734,7.687,1.11,11.529.401,4.097.822,8.193,1.223,12.29.376,3.841.735,7.684,1.105,11.526.342,3.543.659,7.09,1.054,10.627.11.985-.244,1.366-1.155,1.575-.723.167-1.431.262-2.163.224-3.433-.178-6.866-.385-10.3-.526-1.221-.05-1.724-.374-1.747-1.79-.184-11.19-.049-22.382-.225-33.57-.048-3.054-.841-6.099-1.319-9.143-.823-5.244-1.661-10.485-2.503-15.726-.72-4.481-1.455-8.959-2.182-13.439-.226-1.39-.448-2.781-.672-4.171-.096.006-.192.012-.288.018Z"/>
      <path class="cls-14" d="M420.325,179.534c-1.257,3.686-2.52,7.371-3.771,11.059-3.554,10.471-7.112,20.941-10.638,31.421-.292.867-.594,1.157-1.538.799-1.56-.592-3.166-1.078-4.781-1.501-.814-.213-1.186-.658-1.456-1.408-3.425-9.524-6.873-19.039-10.319-28.555-1.007-2.782-2.059-5.549-3.015-8.348-.265-.776-.673-.872-1.351-.745-2.804.524-2.784.52-3.097,3.39-.757,6.946-1.566,13.886-2.293,20.836-.281,2.687-.535,5.375-.591,8.089-.21,10.278-.447,20.557-.84,30.829-.138,3.608-.015,7.226-.369,10.829-.08.811-.163,1.219-1.137,1.203-4.734-.082-9.47-.078-14.205-.125-1.804-.018-1.827-.045-1.756-1.776.341-8.29.694-16.58,1.046-24.87.25-5.884.424-11.773.782-17.65.296-4.846.144-9.723.776-14.539.68-5.178,1.593-10.326,2.394-15.488.834-5.373,1.659-10.747,2.481-16.122.285-1.862.546-3.729.829-5.591.1-.66.355-1.021,1.177-.988,4.898.199,9.798.356,14.699.458.974.02,1.517.315,2.031,1.175,5.756,9.626,11.564,19.221,17.359,28.824.197.326.414.64.625.964.551-.167.564-.658.729-1.015,4.775-10.279,9.553-20.557,14.279-30.859.436-.95.842-1.099,1.803-.789,4.036,1.302,8.095,2.537,12.161,3.745.77.229,1.183.478,1.312,1.388.489,3.438.893,6.883,1.212,10.34.367,3.971.822,7.935,1.211,11.904.385,3.928.722,7.861,1.106,11.79.387,3.969.815,7.935,1.208,11.903.381,3.842.734,7.687,1.11,11.529.401,4.097.822,8.193,1.223,12.29.376,3.841.735,7.684,1.105,11.526.342,3.543.659,7.09,1.054,10.627.11.985-.244,1.366-1.155,1.575-.723.167-1.431.262-2.163.224-3.433-.178-6.866-.385-10.3-.526-1.221-.05-1.724-.374-1.747-1.79-.184-11.19-.049-22.382-.225-33.57-.048-3.054-.841-6.099-1.319-9.143-.823-5.244-1.661-10.485-2.503-15.726-.72-4.481-1.455-8.959-2.182-13.439-.226-1.39-.448-2.781-.672-4.171-.096.006-.192.012-.288.018Z"/>
    </g>
    <g>
      <path class="cls-1" d="M511.289,243.291c7.007,0,14.015.017,21.022-.021.875-.005,1.083.256,1.037,1.083-.23,4.181-.431,8.364-.594,12.549-.034.866-.308,1.24-1.204,1.413-5.841,1.125-11.669,2.321-17.504,3.476-.586.116-1.198.182-1.794.16-9.022-.336-18.038-.111-27.053.254-4.549.184-9.1.113-13.651.112-1.084,0-1.862-.359-2.557-1.245-1.565-1.993-3.248-3.893-4.889-5.826-.313-.369-.594-.706-.612-1.255-.358-10.745-1.241-21.478-1.149-32.229.099-11.474.439-22.952.98-34.414.242-5.125,1.242-10.213,2.854-15.133.112-.343.264-.672.385-1.012.479-1.341,1.332-1.966,2.848-2.113,12.895-1.256,25.744-2.932,38.611-4.441,4.954-.581,9.903-1.215,14.85-1.851.897-.115,1.427-.009,1.716,1.042,1.171,4.259,2.424,8.497,3.717,12.722.279.911.12,1.232-.813,1.426-7.634,1.584-15.259,3.211-22.887,4.822-5.505,1.163-11.008,2.333-16.518,3.47-.743.153-1.04.372-.963,1.234.613,6.936,1.189,13.876,1.702,20.821.074,1.005.608.823,1.187.809,9.421-.229,18.843-.438,28.262-.719,1.157-.035,1.489.259,1.532,1.412.129,3.499.368,6.995.618,10.489.05.695-.117.876-.809.938-9.781.878-19.56,1.774-29.336,2.708-1.965.188-1.577-.042-1.515,1.727.204,5.795.435,11.59.582,17.386.026,1.031.311,1.231,1.299,1.167,6.873-.449,13.76-.55,20.646-.663,0-.1,0-.199,0-.299Z"/>
      <path class="cls-8" d="M507.946,243.291c7.007,0,14.015.017,21.022-.021.875-.005,1.083.256,1.037,1.083-.23,4.181-.431,8.364-.594,12.549-.034.866-.308,1.24-1.204,1.413-5.841,1.125-11.669,2.321-17.504,3.476-.586.116-1.198.182-1.794.16-9.022-.336-18.038-.111-27.053.254-4.549.184-9.1.113-13.651.112-1.084,0-1.862-.359-2.557-1.245-1.565-1.993-3.248-3.893-4.889-5.826-.313-.369-.594-.706-.612-1.255-.358-10.745-1.241-21.478-1.149-32.229.099-11.474.439-22.952.98-34.414.242-5.125,1.242-10.213,2.854-15.133.112-.343.264-.672.385-1.012.479-1.341,1.332-1.966,2.848-2.113,12.895-1.256,25.744-2.932,38.611-4.441,4.954-.581,9.903-1.215,14.85-1.851.897-.115,1.427-.009,1.716,1.042,1.171,4.259,2.424,8.497,3.717,12.722.279.911.12,1.232-.813,1.426-7.634,1.584-15.259,3.211-22.887,4.822-5.505,1.163-11.008,2.333-16.518,3.47-.743.153-1.04.372-.963,1.234.613,6.936,1.189,13.876,1.702,20.821.074,1.005.608.823,1.187.809,9.421-.229,18.843-.438,28.262-.719,1.157-.035,1.489.259,1.532,1.412.129,3.499.368,6.995.618,10.489.05.695-.117.876-.809.938-9.781.878-19.56,1.774-29.336,2.708-1.965.188-1.577-.042-1.515,1.727.204,5.795.435,11.59.582,17.386.026,1.031.311,1.231,1.299,1.167,6.873-.449,13.76-.55,20.646-.663,0-.1,0-.199,0-.299Z"/>
      <path class="cls-10" d="M505.207,243.291c7.007,0,14.015.017,21.022-.021.875-.005,1.083.256,1.037,1.083-.23,4.181-.431,8.364-.594,12.549-.034.866-.308,1.24-1.204,1.413-5.841,1.125-11.669,2.321-17.504,3.476-.586.116-1.198.182-1.794.16-9.022-.336-18.038-.111-27.053.254-4.549.184-9.1.113-13.651.112-1.084,0-1.862-.359-2.557-1.245-1.565-1.993-3.248-3.893-4.889-5.826-.313-.369-.594-.706-.612-1.255-.358-10.745-1.241-21.478-1.149-32.229.099-11.474.439-22.952.98-34.414.242-5.125,1.242-10.213,2.854-15.133.112-.343.264-.672.385-1.012.479-1.341,1.332-1.966,2.848-2.113,12.895-1.256,25.744-2.932,38.611-4.441,4.954-.581,9.903-1.215,14.85-1.851.897-.115,1.427-.009,1.716,1.042,1.171,4.259,2.424,8.497,3.717,12.722.279.911.12,1.232-.813,1.426-7.634,1.584-15.259,3.211-22.887,4.822-5.505,1.163-11.008,2.333-16.518,3.47-.743.153-1.04.372-.963,1.234.613,6.936,1.189,13.876,1.702,20.821.074,1.005.608.823,1.187.809,9.421-.229,18.843-.438,28.262-.719,1.157-.035,1.489.259,1.532,1.412.129,3.499.368,6.995.618,10.489.05.695-.117.876-.809.938-9.781.878-19.56,1.774-29.336,2.708-1.965.188-1.577-.042-1.515,1.727.204,5.795.435,11.59.582,17.386.026,1.031.311,1.231,1.299,1.167,6.873-.449,13.76-.55,20.646-.663,0-.1,0-.199,0-.299Z"/>
    </g>
  </g>
  <g>
    <path class="cls-16" d="M401.463,54.458c1.867-2.543,3.956-5.14,5.775-7.914,4.174-6.365,8.203-12.825,12.327-19.222.509-.789.593-1.562.552-2.449-.218-4.702-.367-9.406-.096-14.111.139-2.417.306-2.642,2.759-3.091,4.302-.786,8.663-1.033,13.022-1.27,1.078-.058,2.157-.101,3.234-.169.597-.037.829.129.742.802-1.031,8.004-2.041,16.01-3.032,24.019-.081.657-.462,1.106-.803,1.592-6.544,9.355-13.089,18.709-19.658,28.046-.463.658-.645,1.045.095,1.686,11.17,9.684,22.313,19.398,33.452,29.118.502.438,1.034.74,1.659.958,4.203,1.461,8.386,2.979,12.601,4.401.992.335.974.599.383,1.35-3.072,3.908-6.109,7.843-9.126,11.793-.524.686-.839.827-1.566.171-12.583-11.349-25.21-22.648-37.772-34.019-1.119-1.013-2.173-1.323-3.583-1.085-2.174.367-4.359.682-6.55.917-.794.085-.89.343-.767,1.049.908,5.197,1.775,10.402,2.665,15.603,1.445,8.44,2.883,16.882,4.367,25.316.156.885-.114,1.103-.922,1.224-6.885,1.027-13.768,2.073-20.643,3.167-.903.144-1.018-.23-1.07-.934-.47-6.376-.955-12.751-1.435-19.127-.515-6.849-1.032-13.698-1.54-20.548-.598-8.056-1.27-16.107-1.741-24.171-.216-3.694-1.397-7.106-2.436-10.574-1.687-5.629-3.433-11.242-5.143-16.864-1.308-4.3-2.638-8.593-3.883-12.911-.632-2.194-.565-1.769,1.253-2.098,5.405-.979,10.822-1.888,16.224-2.886,1.165-.215,1.628-.017,1.829,1.271,1.593,10.168,3.25,20.326,4.938,30.479.385,2.315,1.611,4.366,2.363,6.57.498,1.461,1.12,2.881,1.525,3.91Z"/>
    <g>
      <path class="cls-4" d="M247.275,10.163c3.274,8.078,6.557,16.105,9.781,24.156,2.102,5.249,4.106,10.537,6.179,15.797.719,1.824.925,3.733,1.145,5.654,1.374,11.984,2.878,23.954,3.851,35.981.112,1.388-.166,2.635-.816,3.805-3.651,6.58-8.231,12.525-12.713,18.538-.267.358-.597.53-1.051.62-11.217,2.23-22.409,4.589-33.754,6.131-2.497.339-4.531-.066-6.54-1.681-3.087-2.481-6.179-4.95-9.223-7.486-2.339-1.948-3.202-4.506-3.966-7.26-2.492-8.974-5.143-17.904-7.595-26.889-2.229-8.168-4.274-16.386-6.408-24.58-1.019-3.914-2.059-7.823-3.08-11.737-.19-.729-.278-1.433-.011-2.207,2.312-6.692,4.598-13.393,6.846-20.107.287-.856.767-1.309,1.581-1.619,6.252-2.381,12.492-4.793,18.736-7.196,2.594-.998,5.189-1.997,7.784-2.994.627-.241,1.271-.315,1.944-.254,8.597.772,17.194,1.536,25.792,2.296.731.065,1.494.039,1.519,1.03Z"/>
      <path class="cls-5" d="M242.539,12.377c3.274,8.078,6.557,16.105,9.781,24.156,2.102,5.249,4.106,10.537,6.179,15.797.719,1.824.925,3.733,1.145,5.654,1.374,11.984,2.878,23.954,3.851,35.981.112,1.388-.166,2.635-.816,3.805-3.651,6.58-8.231,12.525-12.713,18.538-.267.358-.597.53-1.051.62-11.217,2.23-22.409,4.589-33.754,6.131-2.497.339-4.531-.066-6.54-1.681-3.087-2.481-6.179-4.95-9.223-7.486-2.339-1.948-3.202-4.506-3.966-7.26-2.492-8.974-5.143-17.904-7.595-26.889-2.229-8.168-4.274-16.386-6.408-24.58-1.019-3.914-2.059-7.823-3.08-11.737-.19-.729-.278-1.433-.011-2.207,2.312-6.692,4.598-13.393,6.846-20.107.287-.856.767-1.309,1.581-1.619,6.252-2.381,12.492-4.793,18.736-7.196,2.594-.998,5.189-1.997,7.784-2.994.627-.241,1.271-.315,1.944-.254,8.597.772,17.194,1.536,25.792,2.296.731.065,1.494.039,1.519,1.03Z"/>
    </g>
    <g>
      <path class="cls-13" d="M293.25.892c8.487,0,16.977-.143,25.46.052,5.347.123,10.696.035,16.037.267,2.746.119,5.489.197,8.234.188.833-.003,1.22.356,1.565,1.029,3.887,7.593,7.787,15.18,11.707,22.756.358.691.443,1.366.383,2.121-.285,3.563-.552,7.128-.802,10.693-.497,7.085-.99,14.17-1.45,21.257-.05.774-.476,1.094-1.052,1.432-7.312,4.299-14.615,8.612-21.92,12.922-.211.125-.408.277-.629.38-.925.434-.928.861-.183,1.581,4.481,4.332,8.918,8.709,13.376,13.064.701.685,1.403,1.375,2.157,2,4.468,3.698,6.784,8.941,9.805,13.67,2.692,4.214,5.248,8.514,7.856,12.781.217.355.721.727.39,1.141-.169.211-.726.151-1.107.146-6.082-.091-12.164-.211-18.247-.27-.762-.007-1.152-.38-1.566-.876-4.21-5.04-8.428-10.075-12.636-15.116-5.056-6.056-10.108-12.116-15.151-18.182-.265-.319-.495-.58-.961-.526-3.888.452-7.775.909-11.667,1.324-.673.072-.873.33-.959.991-1.041,8.053-2.122,16.101-3.188,24.151-.398,3.006-.821,6.01-1.15,9.024-.094.862-.456,1.02-1.216,1.017-5.988-.03-11.977-.049-17.965-.018-.989.005-1.269-.313-1.193-1.273.392-4.93.753-9.863,1.093-14.797.246-3.568.423-7.141.664-10.709.456-6.743.941-13.484,1.402-20.227.227-3.324.405-6.651.644-9.973.683-9.484,1.022-18.985,1.446-28.481.389-8.718.606-17.443,1.003-26.16.1-2.204.208-4.408.225-6.613.007-.892.304-1.192,1.2-1.177,2.797.046,5.595.017,8.393.017,0,.131,0,.262,0,.393ZM301.615,39.55h-.031c0,6.477.022,12.953-.021,19.43-.007,1.106.161,1.595,1.457,1.727,3.011.305,6.008.807,8.985,1.367,1.619.304,2.99.084,4.447-.724,5.485-3.042,11.027-5.983,16.566-8.925.783-.416,1.166-.971,1.265-1.82.877-7.48,1.758-14.96,2.662-22.437.121-1.002-.127-1.741-.868-2.48-3.265-3.255-6.492-6.55-9.671-9.889-.748-.786-1.527-.945-2.5-.785-6.994,1.154-13.983,2.338-20.989,3.414-1.09.167-1.334.513-1.327,1.545.045,6.525.023,13.051.023,19.577Z"/>
      <path class="cls-11" d="M300.665.892c8.487,0,16.977-.143,25.46.052,5.347.123,10.696.035,16.037.267,2.746.119,5.489.197,8.234.188.833-.003,1.22.356,1.565,1.029,3.887,7.593,7.787,15.18,11.707,22.756.358.691.443,1.366.383,2.121-.285,3.563-.552,7.128-.802,10.693-.497,7.085-.99,14.17-1.45,21.257-.05.774-.476,1.094-1.052,1.432-7.312,4.299-14.615,8.612-21.92,12.922-.211.125-.408.277-.629.38-.925.434-.928.861-.183,1.581,4.481,4.332,8.918,8.709,13.376,13.064.701.685,1.403,1.375,2.157,2,4.468,3.698,6.784,8.941,9.805,13.67,2.692,4.214,5.248,8.514,7.856,12.781.217.355.721.727.39,1.141-.169.211-.726.151-1.107.146-6.082-.091-12.164-.211-18.247-.27-.762-.007-1.152-.38-1.566-.876-4.21-5.04-8.428-10.075-12.636-15.116-5.056-6.056-10.108-12.116-15.151-18.182-.265-.319-.495-.58-.961-.526-3.888.452-7.775.909-11.667,1.324-.673.072-.873.33-.959.991-1.041,8.053-2.122,16.101-3.188,24.151-.398,3.006-.821,6.01-1.15,9.024-.094.862-.456,1.02-1.216,1.017-5.988-.03-11.977-.049-17.965-.018-.989.005-1.269-.313-1.193-1.273.392-4.93.753-9.863,1.093-14.797.246-3.568.423-7.141.664-10.709.456-6.743.941-13.484,1.402-20.227.227-3.324.405-6.651.644-9.973.683-9.484,1.022-18.985,1.446-28.481.389-8.718.606-17.443,1.003-26.16.1-2.204.208-4.408.225-6.613.007-.892.304-1.192,1.2-1.177,2.797.046,5.595.017,8.393.017,0,.131,0,.262,0,.393ZM309.03,39.55h-.031c0,6.477.022,12.953-.021,19.43-.007,1.106.161,1.595,1.457,1.727,3.011.305,6.008.807,8.985,1.367,1.619.304,2.99.084,4.447-.724,5.485-3.042,11.027-5.983,16.566-8.925.783-.416,1.166-.971,1.265-1.82.877-7.48,1.758-14.96,2.662-22.437.121-1.002-.127-1.741-.868-2.48-3.265-3.255-6.492-6.55-9.671-9.889-.748-.786-1.527-.945-2.5-.785-6.994,1.154-13.983,2.338-20.989,3.414-1.09.167-1.334.513-1.327,1.545.045,6.525.023,13.051.023,19.577Z"/>
    </g>
    <path class="cls-17" d="M92.743,81.732c1.887-5.555,3.681-10.834,5.475-16.114,4.457-13.123,8.923-26.244,13.352-39.376.279-.828.59-1.018,1.455-.844,2.545.511,5.108.944,7.677,1.319,1.049.153,1.555.632,1.906,1.633,5.361,15.299,10.763,30.583,16.155,45.871.161.458.328.913.65,1.808.442-2.517.819-4.614,1.177-6.714,2.627-15.41,5.253-30.819,7.872-46.23,1.232-7.247,2.459-14.494,3.657-21.747.169-1.023.464-1.415,1.663-1.326,4.891.361,9.797.506,14.682.993,2.048.204,2.082.223,1.838,2.289-1.451,12.27-2.906,24.54-4.331,36.813-1.137,9.79-2.351,19.573-3.311,29.38-.83,8.474-2.836,16.699-4.712,24.962-1.572,6.927-3.171,13.847-4.685,20.787-.272,1.245-.739,1.623-2.03,1.504-4.542-.419-9.095-.726-13.647-1.03-.847-.057-1.247-.299-1.503-1.192-4.747-16.52-9.554-33.023-14.299-49.544-.318-1.109-.823-1.168-1.839-1.183-2.649-.039-3.488,1.367-4.171,3.735-4.706,16.33-9.593,32.607-14.402,48.907-.204.692-.565,1.032-1.249,1.238-2.626.789-5.242,1.616-7.846,2.476-1.266.418-2.536.19-3.796.12-2.35-.13-4.691-.422-7.042-.536-.896-.043-1.04-.54-1.143-1.196-.903-5.762-1.804-11.525-2.704-17.287-1.513-9.684-3.018-19.369-4.538-29.051-1.52-9.683-3.089-19.359-4.573-29.049-1.483-9.689-3.27-19.326-4.905-28.989-.474-2.802-.964-5.605-1.318-8.423-.266-2.121,2.075-4.692,4.191-4.789,5.785-.263,11.571-.497,17.353-.812,1.126-.061,1.401.215,1.337,1.353-.408,7.251-.73,14.507-1.093,21.76-.152,3.036-.411,6.061-.734,9.087-.25,2.339.426,4.676.838,6.985,2.443,13.7,5.361,27.305,8.192,40.928.079.382.203.755.402,1.483Z"/>
  </g>
</svg>